<svg xmlns="http://www.w3.org/2000/svg" xmlns:xlink="http://www.w3.org/1999/xlink" width="48.158" height="17.417" viewBox="0 0 48.158 17.417">
  <defs>
    <clipPath id="clip-path">
      <path id="Caminho_6780" data-name="Caminho 6780" d="M0,0H48.158V-17.417H0Z" fill="none"/>
    </clipPath>
    <clipPath id="clip-path-2">
      <rect id="Retângulo_64" data-name="Retângulo 64" width="82.158" height="31.417" transform="translate(-17 -30.417)" fill="none"/>
    </clipPath>
  </defs>
  <g id="adesivo" transform="translate(0 17.417)">
    <g id="Grupo_6723" data-name="Grupo 6723" clip-path="url(#clip-path)">
      <g id="Grupo_6722" data-name="Grupo 6722" opacity="0.6">
        <g id="Grupo_6721" data-name="Grupo 6721">
          <g id="Grupo_6720" data-name="Grupo 6720" clip-path="url(#clip-path-2)">
            <g id="Grupo_6577" data-name="Grupo 6577" transform="translate(0.73 -9.893)">
              <path id="Caminho_6637" data-name="Caminho 6637" d="M0,0-.638-.138A8.571,8.571,0,0,0-.73.882L.027.124Z" fill="#6f2895"/>
            </g>
            <g id="Grupo_6578" data-name="Grupo 6578" transform="translate(0.855 -9.867)">
              <path id="Caminho_6638" data-name="Caminho 6638" d="M0,0-.1.1,2.751-2.751l-.1.1-.027-.124L.347-3.269A8.676,8.676,0,0,0-.444-1.511l.32,1.484Z" fill="#6f2895"/>
            </g>
            <g id="Grupo_6579" data-name="Grupo 6579" transform="translate(0.73 -9.893)">
              <path id="Caminho_6639" data-name="Caminho 6639" d="M0,0,.027.124l.1-.1Z" fill="#6f2895"/>
            </g>
            <g id="Grupo_6580" data-name="Grupo 6580" transform="translate(3.606 -12.618)">
              <path id="Caminho_6640" data-name="Caminho 6640" d="M0,0,2.654-2.653l-.027-.125L.207-3.3a8.867,8.867,0,0,0-.887.692l.556,2.58Z" fill="#6f2895"/>
            </g>
            <g id="Grupo_6581" data-name="Grupo 6581" transform="translate(3.508 -12.52)">
              <path id="Caminho_6641" data-name="Caminho 6641" d="M0,0,.1-.1-.027-.124Z" fill="#6f2895"/>
            </g>
            <g id="Grupo_6582" data-name="Grupo 6582" transform="translate(6.357 -15.369)">
              <path id="Caminho_6642" data-name="Caminho 6642" d="M0,0,2.04-2.04a8.656,8.656,0,0,0-2.5.456L-.124-.027Z" fill="#6f2895"/>
            </g>
            <g id="Grupo_6583" data-name="Grupo 6583" transform="translate(6.26 -15.271)">
              <path id="Caminho_6643" data-name="Caminho 6643" d="M0,0,.1-.1-.027-.124Z" fill="#6f2895"/>
            </g>
            <g id="Grupo_6584" data-name="Grupo 6584" transform="translate(2.945 -7.679)">
              <path id="Caminho_6644" data-name="Caminho 6644" d="M0,0-2.942-.633A8.642,8.642,0,0,0-2.249,2.4L.027.124Z" fill="#6f2895"/>
            </g>
            <g id="Grupo_6585" data-name="Grupo 6585" transform="translate(2.19 -11.185)">
              <path id="Caminho_6645" data-name="Caminho 6645" d="M0,0,.755,3.506l.124.027-.1.1L3.533.879,3.506.755Z" fill="#6f2895"/>
            </g>
            <g id="Grupo_6586" data-name="Grupo 6586" transform="translate(2.945 -7.679)">
              <path id="Caminho_6646" data-name="Caminho 6646" d="M0,0,.027.124l.1-.1Z" fill="#6f2895"/>
            </g>
            <g id="Grupo_6587" data-name="Grupo 6587" transform="translate(5.722 -10.306)">
              <path id="Caminho_6647" data-name="Caminho 6647" d="M0,0,.1-.1Z" fill="#6f2895"/>
            </g>
            <g id="Grupo_6588" data-name="Grupo 6588" transform="translate(4.941 -13.936)">
              <path id="Caminho_6648" data-name="Caminho 6648" d="M0,0,.755,3.506l.124.027L3.533.879,3.506.755Z" fill="#6f2895"/>
            </g>
            <g id="Grupo_6589" data-name="Grupo 6589" transform="translate(5.722 -10.306)">
              <path id="Caminho_6649" data-name="Caminho 6649" d="M0,0,.1-.1-.027-.124Z" fill="#6f2895"/>
            </g>
            <g id="Grupo_6590" data-name="Grupo 6590" transform="translate(7.692 -16.687)">
              <path id="Caminho_6650" data-name="Caminho 6650" d="M0,0,.755,3.506l.124.027L3.63.782h0Z" fill="#6f2895"/>
            </g>
            <g id="Grupo_6591" data-name="Grupo 6591" transform="translate(8.474 -13.057)">
              <path id="Caminho_6651" data-name="Caminho 6651" d="M0,0,.1-.1-.027-.124Z" fill="#6f2895"/>
            </g>
            <g id="Grupo_6592" data-name="Grupo 6592" transform="translate(2.383 -2.719)">
              <path id="Caminho_6652" data-name="Caminho 6652" d="M0,0,.03.032.025,0Z" fill="#6f2895"/>
            </g>
            <g id="Grupo_6593" data-name="Grupo 6593" transform="translate(1.653 -6.22)">
              <path id="Caminho_6653" data-name="Caminho 6653" d="M0,0,.755,3.506l.124.027L3.533.879,3.506.755Z" fill="#6f2895"/>
            </g>
            <g id="Grupo_6594" data-name="Grupo 6594" transform="translate(2.408 -2.714)">
              <path id="Caminho_6654" data-name="Caminho 6654" d="M0,0,.006.027.063.088.124.027Z" fill="#6f2895"/>
            </g>
            <g id="Grupo_6595" data-name="Grupo 6595" transform="translate(4.404 -8.971)">
              <path id="Caminho_6655" data-name="Caminho 6655" d="M0,0,.755,3.506l.124.027L3.533.879,3.506.755Z" fill="#6f2895"/>
            </g>
            <g id="Grupo_6596" data-name="Grupo 6596" transform="translate(5.186 -5.341)">
              <path id="Caminho_6656" data-name="Caminho 6656" d="M0,0,.1-.1-.027-.124Z" fill="#6f2895"/>
            </g>
            <g id="Grupo_6597" data-name="Grupo 6597" transform="translate(7.155 -11.722)">
              <path id="Caminho_6657" data-name="Caminho 6657" d="M0,0,.755,3.506l.124.027L3.533.879,3.506.755Z" fill="#6f2895"/>
            </g>
            <g id="Grupo_6598" data-name="Grupo 6598" transform="translate(7.937 -8.092)">
              <path id="Caminho_6658" data-name="Caminho 6658" d="M0,0,.1-.1-.027-.124Z" fill="#6f2895"/>
            </g>
            <g id="Grupo_6599" data-name="Grupo 6599" transform="translate(9.906 -14.473)">
              <path id="Caminho_6659" data-name="Caminho 6659" d="M0,0,.755,3.506l.124.027-.1.1L3.63.782Z" fill="#6f2895"/>
            </g>
            <g id="Grupo_6600" data-name="Grupo 6600" transform="translate(10.661 -10.967)">
              <path id="Caminho_6660" data-name="Caminho 6660" d="M0,0,.027.124l.1-.1Z" fill="#6f2895"/>
            </g>
            <g id="Grupo_6601" data-name="Grupo 6601" transform="translate(7.497 -3.224)">
              <path id="Caminho_6661" data-name="Caminho 6661" d="M0,0-.1.1Z" fill="#6f2895"/>
            </g>
            <g id="Grupo_6602" data-name="Grupo 6602" transform="translate(6.073 -1.8)">
              <path id="Caminho_6662" data-name="Caminho 6662" d="M0,0,1.327-1.327,1.3-1.451l-3.506-.755.63,2.924c.186.1.377.2.571.287Z" fill="#6f2895"/>
            </g>
            <g id="Grupo_6603" data-name="Grupo 6603" transform="translate(10.151 -5.878)">
              <path id="Caminho_6663" data-name="Caminho 6663" d="M0,0-.027-.124-3.533-.879l.755,3.506.124.027Z" fill="#6f2895"/>
            </g>
            <g id="Grupo_6604" data-name="Grupo 6604" transform="translate(7.373 -3.251)">
              <path id="Caminho_6664" data-name="Caminho 6664" d="M0,0,.027.124l.1-.1Z" fill="#6f2895"/>
            </g>
            <g id="Grupo_6605" data-name="Grupo 6605" transform="translate(10.151 -5.878)">
              <path id="Caminho_6665" data-name="Caminho 6665" d="M0,0H0L2.849-2.849l-.1.1-.027-.124L-.782-3.63-.027-.124.1-.1Z" fill="#6f2895"/>
            </g>
            <g id="Grupo_6606" data-name="Grupo 6606" transform="translate(10.248 -5.975)">
              <path id="Caminho_6666" data-name="Caminho 6666" d="M0,0-.124-.027-.1.1Z" fill="#6f2895"/>
            </g>
            <g id="Grupo_6607" data-name="Grupo 6607" transform="translate(15.751 -11.477)">
              <path id="Caminho_6667" data-name="Caminho 6667" d="M0,0H0L-3.63-.782l.755,3.506.124.027Z" fill="#6f2895"/>
            </g>
            <g id="Grupo_6608" data-name="Grupo 6608" transform="translate(13 -8.726)">
              <path id="Caminho_6668" data-name="Caminho 6668" d="M0,0-.124-.027-.1.1Z" fill="#6f2895"/>
            </g>
            <g id="Grupo_6609" data-name="Grupo 6609" transform="translate(9.579 -1.045)">
              <path id="Caminho_6669" data-name="Caminho 6669" d="M0,0-3.506-.755l.32,1.489a8.758,8.758,0,0,0,2.293.311L.027.124Z" fill="#6f2895"/>
            </g>
            <g id="Grupo_6610" data-name="Grupo 6610" transform="translate(8.824 -4.551)">
              <path id="Caminho_6670" data-name="Caminho 6670" d="M0,0H0L.755,3.506l.124.027L3.533.879,3.506.755Z" fill="#6f2895"/>
            </g>
            <g id="Grupo_6611" data-name="Grupo 6611" transform="translate(9.606 -0.921)">
              <path id="Caminho_6671" data-name="Caminho 6671" d="M0,0,.1-.1-.027-.124Z" fill="#6f2895"/>
            </g>
            <g id="Grupo_6612" data-name="Grupo 6612" transform="translate(15.206 -6.52)">
              <path id="Caminho_6672" data-name="Caminho 6672" d="M0,0H0L-.1.1Z" fill="#6f2895"/>
            </g>
            <g id="Grupo_6613" data-name="Grupo 6613" transform="translate(11.575 -7.302)">
              <path id="Caminho_6673" data-name="Caminho 6673" d="M0,0,.755,3.506l.124.027L3.533.879,3.506.755Z" fill="#6f2895"/>
            </g>
            <g id="Grupo_6614" data-name="Grupo 6614" transform="translate(12.357 -3.672)">
              <path id="Caminho_6674" data-name="Caminho 6674" d="M0,0,.1-.1-.027-.124Z" fill="#6f2895"/>
            </g>
            <g id="Grupo_6615" data-name="Grupo 6615" transform="translate(15.081 -6.547)">
              <path id="Caminho_6675" data-name="Caminho 6675" d="M0,0,.124.027,2.875-2.724h0l-3.63-.782Z" fill="#6f2895"/>
            </g>
            <g id="Grupo_6616" data-name="Grupo 6616" transform="translate(15.108 -6.423)">
              <path id="Caminho_6676" data-name="Caminho 6676" d="M0,0,.1-.1-.027-.124Z" fill="#6f2895"/>
            </g>
            <g id="Grupo_6617" data-name="Grupo 6617" transform="translate(14.571 -1.458)">
              <path id="Caminho_6677" data-name="Caminho 6677" d="M0,0-.027-.124-3.533-.879l.5,2.337h1.572L.1-.1Z" fill="#6f2895"/>
            </g>
            <g id="Grupo_6618" data-name="Grupo 6618" transform="translate(13.789 -5.088)">
              <path id="Caminho_6678" data-name="Caminho 6678" d="M0,0,.755,3.506l.124.027L3.533.879,3.506.755Z" fill="#6f2895"/>
            </g>
            <g id="Grupo_6619" data-name="Grupo 6619" transform="translate(14.571 -1.458)">
              <path id="Caminho_6679" data-name="Caminho 6679" d="M0,0,.1-.1-.027-.124Z" fill="#6f2895"/>
            </g>
            <g id="Grupo_6620" data-name="Grupo 6620" transform="translate(17.295 -4.333)">
              <path id="Caminho_6680" data-name="Caminho 6680" d="M0,0,.124.027,2.875-2.724h0l-3.63-.782Z" fill="#6f2895"/>
            </g>
            <g id="Grupo_6621" data-name="Grupo 6621" transform="translate(17.322 -4.209)">
              <path id="Caminho_6681" data-name="Caminho 6681" d="M0,0,.1-.1-.027-.124Z" fill="#6f2895"/>
            </g>
            <g id="Grupo_6622" data-name="Grupo 6622" transform="translate(19.51 -2.119)">
              <path id="Caminho_6682" data-name="Caminho 6682" d="M0,0-3.506-.755l.619,2.874h.919l2-1.995Z" fill="#6f2895"/>
            </g>
            <g id="Grupo_6623" data-name="Grupo 6623" transform="translate(19.51 -2.119)">
              <path id="Caminho_6683" data-name="Caminho 6683" d="M0,0,.124.027,2.875-2.724l-3.63-.782Z" fill="#6f2895"/>
            </g>
            <g id="Grupo_6624" data-name="Grupo 6624" transform="translate(19.536 -1.995)">
              <path id="Caminho_6684" data-name="Caminho 6684" d="M0,0,.1-.1-.027-.124Z" fill="#6f2895"/>
            </g>
            <g id="Grupo_6625" data-name="Grupo 6625" transform="translate(18.36)">
              <path id="Caminho_6685" data-name="Caminho 6685" d="M0,0H2.921L-.142-.66Z" fill="#6f2895"/>
            </g>
            <g id="Grupo_6626" data-name="Grupo 6626" transform="translate(24.599 -2.629)">
              <path id="Caminho_6686" data-name="Caminho 6686" d="M0,0-3.63-.782-2.9,2.629h.267Z" fill="#6f2895"/>
            </g>
            <g id="Grupo_6627" data-name="Grupo 6627" transform="translate(26.813 -0.415)">
              <path id="Caminho_6687" data-name="Caminho 6687" d="M0,0-3.63-.782l.257,1.2H-.415Z" fill="#6f2895"/>
            </g>
            <g id="Grupo_6628" data-name="Grupo 6628" transform="translate(12.833 -17.417)">
              <path id="Caminho_6688" data-name="Caminho 6688" d="M0,0H-1.836l.325,1.511Z" fill="#6f2895"/>
            </g>
            <g id="Grupo_6629" data-name="Grupo 6629" transform="translate(16.261 -16.567)">
              <path id="Caminho_6689" data-name="Caminho 6689" d="M0,0-3.506-.755l.782,3.631L.124.027l-.1.1Z" fill="#6f2895"/>
            </g>
            <g id="Grupo_6630" data-name="Grupo 6630" transform="translate(16.385 -16.54)">
              <path id="Caminho_6690" data-name="Caminho 6690" d="M0,0,.877-.877H-.307l.183.85Z" fill="#6f2895"/>
            </g>
            <g id="Grupo_6631" data-name="Grupo 6631" transform="translate(16.288 -16.443)">
              <path id="Caminho_6691" data-name="Caminho 6691" d="M0,0,.1-.1-.027-.124Z" fill="#6f2895"/>
            </g>
            <g id="Grupo_6632" data-name="Grupo 6632" transform="translate(14.969 -15.108)">
              <path id="Caminho_6692" data-name="Caminho 6692" d="M0,0,.782,3.63,3.533.879,3.506.755Z" fill="#6f2895"/>
            </g>
            <g id="Grupo_6633" data-name="Grupo 6633" transform="translate(18.599 -14.326)">
              <path id="Caminho_6693" data-name="Caminho 6693" d="M0,0-.1.1,2.654-2.654l-.027-.124L1.174-3.091H-.784l.66,3.064Z" fill="#6f2895"/>
            </g>
            <g id="Grupo_6634" data-name="Grupo 6634" transform="translate(18.475 -14.353)">
              <path id="Caminho_6694" data-name="Caminho 6694" d="M0,0,.027.124l.1-.1Z" fill="#6f2895"/>
            </g>
            <g id="Grupo_6635" data-name="Grupo 6635" transform="translate(21.351 -17.077)">
              <path id="Caminho_6695" data-name="Caminho 6695" d="M0,0,.34-.34H-.192l.068.313Z" fill="#6f2895"/>
            </g>
            <g id="Grupo_6636" data-name="Grupo 6636" transform="translate(21.253 -16.98)">
              <path id="Caminho_6696" data-name="Caminho 6696" d="M0,0H0L.1-.1Z" fill="#6f2895"/>
            </g>
            <g id="Grupo_6637" data-name="Grupo 6637" transform="translate(21.226 -17.104)">
              <path id="Caminho_6697" data-name="Caminho 6697" d="M0,0,.027.124l.1-.1Z" fill="#6f2895"/>
            </g>
            <g id="Grupo_6638" data-name="Grupo 6638" transform="translate(17.175 -12.902)">
              <path id="Caminho_6698" data-name="Caminho 6698" d="M0,0,.782,3.63,3.533.879,3.506.755Z" fill="#6f2895"/>
            </g>
            <g id="Grupo_6639" data-name="Grupo 6639" transform="translate(20.708 -12.023)">
              <path id="Caminho_6699" data-name="Caminho 6699" d="M0,0,.1-.1Z" fill="#6f2895"/>
            </g>
            <g id="Grupo_6640" data-name="Grupo 6640" transform="translate(19.926 -15.653)">
              <path id="Caminho_6700" data-name="Caminho 6700" d="M0,0H0L.755,3.506l.124.027L3.533.879,3.506.755Z" fill="#6f2895"/>
            </g>
            <g id="Grupo_6641" data-name="Grupo 6641" transform="translate(20.708 -12.023)">
              <path id="Caminho_6701" data-name="Caminho 6701" d="M0,0,.1-.1-.027-.124Z" fill="#6f2895"/>
            </g>
            <g id="Grupo_6642" data-name="Grupo 6642" transform="translate(23.556 -14.871)">
              <path id="Caminho_6702" data-name="Caminho 6702" d="M0,0,2.546-2.546H-.667L-.124-.027Z" fill="#6f2895"/>
            </g>
            <g id="Grupo_6643" data-name="Grupo 6643" transform="translate(23.459 -14.774)">
              <path id="Caminho_6703" data-name="Caminho 6703" d="M0,0,.1-.1-.027-.124Z" fill="#6f2895"/>
            </g>
            <g id="Grupo_6644" data-name="Grupo 6644" transform="translate(19.389 -10.688)">
              <path id="Caminho_6704" data-name="Caminho 6704" d="M0,0,.782,3.63,3.533.879,3.506.755Z" fill="#6f2895"/>
            </g>
            <g id="Grupo_6645" data-name="Grupo 6645" transform="translate(22.14 -13.439)">
              <path id="Caminho_6705" data-name="Caminho 6705" d="M0,0,.755,3.506l.124.027L3.533.879,3.506.755Z" fill="#6f2895"/>
            </g>
            <g id="Grupo_6646" data-name="Grupo 6646" transform="translate(22.922 -9.809)">
              <path id="Caminho_6706" data-name="Caminho 6706" d="M0,0,.1-.1-.027-.124Z" fill="#6f2895"/>
            </g>
            <g id="Grupo_6647" data-name="Grupo 6647" transform="translate(24.891 -16.19)">
              <path id="Caminho_6707" data-name="Caminho 6707" d="M0,0,.755,3.506l.124.027-.1.1L3.533.879,3.506.755Z" fill="#6f2895"/>
            </g>
            <g id="Grupo_6648" data-name="Grupo 6648" transform="translate(25.646 -12.684)">
              <path id="Caminho_6708" data-name="Caminho 6708" d="M0,0,.027.124l.1-.1Z" fill="#6f2895"/>
            </g>
            <g id="Grupo_6649" data-name="Grupo 6649" transform="translate(28.522 -15.408)">
              <path id="Caminho_6709" data-name="Caminho 6709" d="M0,0,2.009-2.009H-.551L-.124-.027Z" fill="#6f2895"/>
            </g>
            <g id="Grupo_6650" data-name="Grupo 6650" transform="translate(28.424 -15.311)">
              <path id="Caminho_6710" data-name="Caminho 6710" d="M0,0,.1-.1Z" fill="#6f2895"/>
            </g>
            <g id="Grupo_6651" data-name="Grupo 6651" transform="translate(28.424 -15.311)">
              <path id="Caminho_6711" data-name="Caminho 6711" d="M0,0,.1-.1-.027-.124Z" fill="#6f2895"/>
            </g>
            <g id="Grupo_6652" data-name="Grupo 6652" transform="translate(25.234 -7.692)">
              <path id="Caminho_6712" data-name="Caminho 6712" d="M0,0H0L-.1.1Z" fill="#6f2895"/>
            </g>
            <g id="Grupo_6653" data-name="Grupo 6653" transform="translate(21.603 -8.474)">
              <path id="Caminho_6713" data-name="Caminho 6713" d="M0,0,.782,3.63,3.533.879,3.506.755Z" fill="#6f2895"/>
            </g>
            <g id="Grupo_6654" data-name="Grupo 6654" transform="translate(24.354 -11.225)">
              <path id="Caminho_6714" data-name="Caminho 6714" d="M0,0,.755,3.506l.124.027L3.533.879,3.506.755Z" fill="#6f2895"/>
            </g>
            <g id="Grupo_6655" data-name="Grupo 6655" transform="translate(25.136 -7.594)">
              <path id="Caminho_6715" data-name="Caminho 6715" d="M0,0,.1-.1-.027-.124Z" fill="#6f2895"/>
            </g>
            <g id="Grupo_6656" data-name="Grupo 6656" transform="translate(30.611 -13.221)">
              <path id="Caminho_6716" data-name="Caminho 6716" d="M0,0-3.506-.755l.755,3.506.124.027-.1.1h0L.124.027l-.1.1Z" fill="#6f2895"/>
            </g>
            <g id="Grupo_6657" data-name="Grupo 6657" transform="translate(27.86 -10.47)">
              <path id="Caminho_6717" data-name="Caminho 6717" d="M0,0,.027.124l.1-.1Z" fill="#6f2895"/>
            </g>
            <g id="Grupo_6658" data-name="Grupo 6658" transform="translate(29.857 -16.727)">
              <path id="Caminho_6718" data-name="Caminho 6718" d="M0,0,.755,3.506l.124.027L3.533.879,3.506.755Z" fill="#6f2895"/>
            </g>
            <g id="Grupo_6659" data-name="Grupo 6659" transform="translate(30.638 -13.097)">
              <path id="Caminho_6719" data-name="Caminho 6719" d="M0,0,.1-.1-.027-.124Z" fill="#6f2895"/>
            </g>
            <g id="Grupo_6660" data-name="Grupo 6660" transform="translate(33.487 -15.945)">
              <path id="Caminho_6720" data-name="Caminho 6720" d="M0,0-.1.1l1.57-1.57H-.435L-.124-.027Z" fill="#6f2895"/>
            </g>
            <g id="Grupo_6661" data-name="Grupo 6661" transform="translate(33.362 -15.972)">
              <path id="Caminho_6721" data-name="Caminho 6721" d="M0,0,.027.124l.1-.1Z" fill="#6f2895"/>
            </g>
            <g id="Grupo_6662" data-name="Grupo 6662" transform="translate(27.323 -5.504)">
              <path id="Caminho_6722" data-name="Caminho 6722" d="M0,0-3.506-.755l.782,3.63L.124.027l-.1.1Z" fill="#6f2895"/>
            </g>
            <g id="Grupo_6663" data-name="Grupo 6663" transform="translate(26.569 -9.01)">
              <path id="Caminho_6723" data-name="Caminho 6723" d="M0,0,.755,3.506l.124.027L3.533.879,3.506.755Z" fill="#6f2895"/>
            </g>
            <g id="Grupo_6664" data-name="Grupo 6664" transform="translate(27.35 -5.38)">
              <path id="Caminho_6724" data-name="Caminho 6724" d="M0,0,.1-.1-.027-.124Z" fill="#6f2895"/>
            </g>
            <g id="Grupo_6665" data-name="Grupo 6665" transform="translate(29.32 -11.762)">
              <path id="Caminho_6725" data-name="Caminho 6725" d="M0,0,.755,3.506l.124.027L3.533.879,3.506.755Z" fill="#6f2895"/>
            </g>
            <g id="Grupo_6666" data-name="Grupo 6666" transform="translate(30.101 -8.131)">
              <path id="Caminho_6726" data-name="Caminho 6726" d="M0,0,.1-.1-.027-.124Z" fill="#6f2895"/>
            </g>
            <g id="Grupo_6667" data-name="Grupo 6667" transform="translate(32.071 -14.513)">
              <path id="Caminho_6727" data-name="Caminho 6727" d="M0,0,.755,3.506l.124.027L3.533.879,3.506.755Z" fill="#6f2895"/>
            </g>
            <g id="Grupo_6668" data-name="Grupo 6668" transform="translate(32.852 -10.882)">
              <path id="Caminho_6728" data-name="Caminho 6728" d="M0,0,.1-.1-.027-.124Z" fill="#6f2895"/>
            </g>
            <g id="Grupo_6669" data-name="Grupo 6669" transform="translate(34.822 -17.264)">
              <path id="Caminho_6729" data-name="Caminho 6729" d="M0,0,.755,3.506l.124.027L3.533.879,3.506.755Z" fill="#6f2895"/>
            </g>
            <g id="Grupo_6670" data-name="Grupo 6670" transform="translate(35.604 -13.634)">
              <path id="Caminho_6730" data-name="Caminho 6730" d="M0,0,.1-.1-.027-.124Z" fill="#6f2895"/>
            </g>
            <g id="Grupo_6671" data-name="Grupo 6671" transform="translate(38.452 -16.482)">
              <path id="Caminho_6731" data-name="Caminho 6731" d="M0,0,.935-.935H-.32l.2.908Z" fill="#6f2895"/>
            </g>
            <g id="Grupo_6672" data-name="Grupo 6672" transform="translate(38.355 -16.385)">
              <path id="Caminho_6732" data-name="Caminho 6732" d="M0,0,.1-.1-.027-.124Z" fill="#6f2895"/>
            </g>
            <g id="Grupo_6673" data-name="Grupo 6673" transform="translate(26.032 -4.045)">
              <path id="Caminho_6733" data-name="Caminho 6733" d="M0,0,.782,3.63,3.533.879,3.506.755Z" fill="#6f2895"/>
            </g>
            <g id="Grupo_6674" data-name="Grupo 6674" transform="translate(28.783 -6.796)">
              <path id="Caminho_6734" data-name="Caminho 6734" d="M0,0,.755,3.506l.124.027-.1.1L3.533.879,3.506.755Z" fill="#6f2895"/>
            </g>
            <g id="Grupo_6675" data-name="Grupo 6675" transform="translate(29.538 -3.29)">
              <path id="Caminho_6735" data-name="Caminho 6735" d="M0,0,.027.124l.1-.1Z" fill="#6f2895"/>
            </g>
            <g id="Grupo_6676" data-name="Grupo 6676" transform="translate(32.315 -5.917)">
              <path id="Caminho_6736" data-name="Caminho 6736" d="M0,0,.1-.1Z" fill="#6f2895"/>
            </g>
            <g id="Grupo_6677" data-name="Grupo 6677" transform="translate(31.534 -9.547)">
              <path id="Caminho_6737" data-name="Caminho 6737" d="M0,0,.755,3.506l.124.027L3.533.879,3.506.755Z" fill="#6f2895"/>
            </g>
            <g id="Grupo_6678" data-name="Grupo 6678" transform="translate(32.315 -5.917)">
              <path id="Caminho_6738" data-name="Caminho 6738" d="M0,0,.1-.1-.027-.124Z" fill="#6f2895"/>
            </g>
            <g id="Grupo_6679" data-name="Grupo 6679" transform="translate(34.285 -12.299)">
              <path id="Caminho_6739" data-name="Caminho 6739" d="M0,0,.755,3.506l.124.027L3.533.879,3.506.755Z" fill="#6f2895"/>
            </g>
            <g id="Grupo_6680" data-name="Grupo 6680" transform="translate(35.067 -8.668)">
              <path id="Caminho_6740" data-name="Caminho 6740" d="M0,0,.1-.1-.027-.124Z" fill="#6f2895"/>
            </g>
            <g id="Grupo_6681" data-name="Grupo 6681" transform="translate(40.666 -14.268)">
              <path id="Caminho_6741" data-name="Caminho 6741" d="M0,0H0L-.1.1Z" fill="#6f2895"/>
            </g>
            <g id="Grupo_6682" data-name="Grupo 6682" transform="translate(37.036 -15.05)">
              <path id="Caminho_6742" data-name="Caminho 6742" d="M0,0,.755,3.506l.124.027L3.533.879,3.506.755Z" fill="#6f2895"/>
            </g>
            <g id="Grupo_6683" data-name="Grupo 6683" transform="translate(37.818 -11.419)">
              <path id="Caminho_6743" data-name="Caminho 6743" d="M0,0,.1-.1-.027-.124Z" fill="#6f2895"/>
            </g>
            <g id="Grupo_6684" data-name="Grupo 6684" transform="translate(40.542 -14.295)">
              <path id="Caminho_6744" data-name="Caminho 6744" d="M0,0,.124.027,2.5-2.347A8.651,8.651,0,0,0-.67-3.111Z" fill="#6f2895"/>
            </g>
            <g id="Grupo_6685" data-name="Grupo 6685" transform="translate(40.569 -14.17)">
              <path id="Caminho_6745" data-name="Caminho 6745" d="M0,0,.1-.1-.027-.124Z" fill="#6f2895"/>
            </g>
            <g id="Grupo_6686" data-name="Grupo 6686" transform="translate(31.752 -1.076)">
              <path id="Caminho_6746" data-name="Caminho 6746" d="M0,0-3.506-.755l.394,1.831H-.925L.027.124Z" fill="#6f2895"/>
            </g>
            <g id="Grupo_6687" data-name="Grupo 6687" transform="translate(30.997 -4.582)">
              <path id="Caminho_6747" data-name="Caminho 6747" d="M0,0,.755,3.506l.124.027L3.533.879,3.506.755Z" fill="#6f2895"/>
            </g>
            <g id="Grupo_6688" data-name="Grupo 6688" transform="translate(34.627 -3.8)">
              <path id="Caminho_6748" data-name="Caminho 6748" d="M0,0H0L-.1.1Z" fill="#6f2895"/>
            </g>
            <g id="Grupo_6689" data-name="Grupo 6689" transform="translate(31.779 -0.952)">
              <path id="Caminho_6749" data-name="Caminho 6749" d="M0,0,.1-.1-.027-.124Z" fill="#6f2895"/>
            </g>
            <g id="Grupo_6690" data-name="Grupo 6690" transform="translate(33.748 -7.333)">
              <path id="Caminho_6750" data-name="Caminho 6750" d="M0,0,.755,3.506l.124.027L3.533.879,3.506.755Z" fill="#6f2895"/>
            </g>
            <g id="Grupo_6691" data-name="Grupo 6691" transform="translate(34.53 -3.703)">
              <path id="Caminho_6751" data-name="Caminho 6751" d="M0,0,.1-.1-.027-.124Z" fill="#6f2895"/>
            </g>
            <g id="Grupo_6692" data-name="Grupo 6692" transform="translate(40.005 -9.33)">
              <path id="Caminho_6752" data-name="Caminho 6752" d="M0,0-3.506-.755l.755,3.506.124.027-.1.1L.124.027l-.1.1Z" fill="#6f2895"/>
            </g>
            <g id="Grupo_6693" data-name="Grupo 6693" transform="translate(37.254 -6.578)">
              <path id="Caminho_6753" data-name="Caminho 6753" d="M0,0,.027.124l.1-.1Z" fill="#6f2895"/>
            </g>
            <g id="Grupo_6694" data-name="Grupo 6694" transform="translate(39.25 -12.835)">
              <path id="Caminho_6754" data-name="Caminho 6754" d="M0,0,.755,3.506l.124.027L3.533.879,3.506.755Z" fill="#6f2895"/>
            </g>
            <g id="Grupo_6695" data-name="Grupo 6695" transform="translate(40.032 -9.205)">
              <path id="Caminho_6755" data-name="Caminho 6755" d="M0,0,.1-.1-.027-.124Z" fill="#6f2895"/>
            </g>
            <g id="Grupo_6696" data-name="Grupo 6696" transform="translate(42.783 -11.956)">
              <path id="Caminho_6756" data-name="Caminho 6756" d="M0,0,.1-.1Z" fill="#6f2895"/>
            </g>
            <g id="Grupo_6697" data-name="Grupo 6697" transform="translate(42.001 -15.587)">
              <path id="Caminho_6757" data-name="Caminho 6757" d="M0,0,.755,3.506l.124.027L3.533.879,3.506.755Z" fill="#6f2895"/>
            </g>
            <g id="Grupo_6698" data-name="Grupo 6698" transform="translate(42.783 -11.956)">
              <path id="Caminho_6758" data-name="Caminho 6758" d="M0,0,.1-.1-.027-.124Z" fill="#6f2895"/>
            </g>
            <g id="Grupo_6699" data-name="Grupo 6699" transform="translate(45.632 -14.805)">
              <path id="Caminho_6759" data-name="Caminho 6759" d="M0,0,.018-.017C.007-.028,0-.039-.013-.049-.06-.1-.111-.143-.159-.19l.035.163Z" fill="#6f2895"/>
            </g>
            <g id="Grupo_6700" data-name="Grupo 6700" transform="translate(45.534 -14.707)">
              <path id="Caminho_6760" data-name="Caminho 6760" d="M0,0,.1-.1-.027-.124Z" fill="#6f2895"/>
            </g>
            <g id="Grupo_6701" data-name="Grupo 6701" transform="translate(36.744 -1.489)">
              <path id="Caminho_6761" data-name="Caminho 6761" d="M0,0-.027-.124-3.533-.879l.51,2.368h1.534L.1-.1Z" fill="#6f2895"/>
            </g>
            <g id="Grupo_6702" data-name="Grupo 6702" transform="translate(35.962 -5.119)">
              <path id="Caminho_6762" data-name="Caminho 6762" d="M0,0,.755,3.506l.124.027L3.533.879,3.506.755Z" fill="#6f2895"/>
            </g>
            <g id="Grupo_6703" data-name="Grupo 6703" transform="translate(36.744 -1.489)">
              <path id="Caminho_6763" data-name="Caminho 6763" d="M0,0,.1-.1-.027-.124Z" fill="#6f2895"/>
            </g>
            <g id="Grupo_6704" data-name="Grupo 6704" transform="translate(38.713 -7.87)">
              <path id="Caminho_6764" data-name="Caminho 6764" d="M0,0,.755,3.506l.124.027L3.533.879,3.506.755Z" fill="#6f2895"/>
            </g>
            <g id="Grupo_6705" data-name="Grupo 6705" transform="translate(39.495 -4.24)">
              <path id="Caminho_6765" data-name="Caminho 6765" d="M0,0,.1-.1-.027-.124Z" fill="#6f2895"/>
            </g>
            <g id="Grupo_6706" data-name="Grupo 6706" transform="translate(41.464 -10.621)">
              <path id="Caminho_6766" data-name="Caminho 6766" d="M0,0,.755,3.506l.124.027L3.533.879,3.506.755Z" fill="#6f2895"/>
            </g>
            <g id="Grupo_6707" data-name="Grupo 6707" transform="translate(42.246 -6.991)">
              <path id="Caminho_6767" data-name="Caminho 6767" d="M0,0,.1-.1-.027-.124Z" fill="#6f2895"/>
            </g>
            <g id="Grupo_6708" data-name="Grupo 6708" transform="translate(44.215 -13.372)">
              <path id="Caminho_6768" data-name="Caminho 6768" d="M0,0,.755,3.506l.124.027-.1.1L3.221,1.191Q3.1.909,2.955.636Z" fill="#6f2895"/>
            </g>
            <g id="Grupo_6709" data-name="Grupo 6709" transform="translate(44.97 -9.866)">
              <path id="Caminho_6769" data-name="Caminho 6769" d="M0,0,.027.124l.1-.1Z" fill="#6f2895"/>
            </g>
            <g id="Grupo_6710" data-name="Grupo 6710" transform="translate(40.382 -0.699)">
              <path id="Caminho_6770" data-name="Caminho 6770" d="M0,0,1.327-1.327,1.3-1.451l-3.506-.755L-1.581.7h.648c.081,0,.16,0,.24-.006Z" fill="#6f2895"/>
            </g>
            <g id="Grupo_6711" data-name="Grupo 6711" transform="translate(43.133 -3.45)">
              <path id="Caminho_6771" data-name="Caminho 6771" d="M0,0H0L1.327-1.327,1.3-1.451l-3.506-.755L-1.451,1.3l.124.027Z" fill="#6f2895"/>
            </g>
            <g id="Grupo_6712" data-name="Grupo 6712" transform="translate(41.807 -2.123)">
              <path id="Caminho_6772" data-name="Caminho 6772" d="M0,0-.124-.027-.1.1Z" fill="#6f2895"/>
            </g>
            <g id="Grupo_6713" data-name="Grupo 6713" transform="translate(45.884 -6.201)">
              <path id="Caminho_6773" data-name="Caminho 6773" d="M0,0H0L1.327-1.327,1.3-1.451l-3.506-.755L-1.451,1.3l.124.027Z" fill="#6f2895"/>
            </g>
            <g id="Grupo_6714" data-name="Grupo 6714" transform="translate(44.558 -4.874)">
              <path id="Caminho_6774" data-name="Caminho 6774" d="M0,0-.124-.027-.1.1Z" fill="#6f2895"/>
            </g>
            <g id="Grupo_6715" data-name="Grupo 6715" transform="translate(46.43 -11.158)">
              <path id="Caminho_6775" data-name="Caminho 6775" d="M0,0,.755,3.506l.124.027.843-.843c0-.08.007-.16.007-.24h0A8.732,8.732,0,0,0,1.464.315Z" fill="#6f2895"/>
            </g>
            <g id="Grupo_6716" data-name="Grupo 6716" transform="translate(47.309 -7.626)">
              <path id="Caminho_6776" data-name="Caminho 6776" d="M0,0-.124-.027-.1.1Z" fill="#6f2895"/>
            </g>
            <g id="Grupo_6717" data-name="Grupo 6717" transform="translate(40.382 -0.699)">
              <path id="Caminho_6777" data-name="Caminho 6777" d="M0,0,.136.631A8.664,8.664,0,0,0,1.558.336Z" fill="#6f2895"/>
            </g>
            <g id="Grupo_6718" data-name="Grupo 6718" transform="translate(43.133 -3.45)">
              <path id="Caminho_6778" data-name="Caminho 6778" d="M0,0H0L.511,2.374A8.755,8.755,0,0,0,2.764.6Z" fill="#6f2895"/>
            </g>
            <g id="Grupo_6719" data-name="Grupo 6719" transform="translate(45.884 -6.201)">
              <path id="Caminho_6779" data-name="Caminho 6779" d="M0,0H0L.573,2.662A8.67,8.67,0,0,0,1.78.383Z" fill="#6f2895"/>
            </g>
          </g>
        </g>
      </g>
    </g>
  </g>
</svg>
