<svg xmlns="http://www.w3.org/2000/svg" xmlns:xlink="http://www.w3.org/1999/xlink" width="20.823" height="20.833" viewBox="0 0 20.823 20.833">
  <defs>
    <clipPath id="clip-path">
      <path id="Caminho_6826" data-name="Caminho 6826" d="M0,0H20.823V-20.833H0Z" fill="none"/>
    </clipPath>
    <clipPath id="clip-path-2">
      <rect id="Retângulo_65" data-name="Retângulo 65" width="66.455" height="66.455" transform="translate(-25.548 -46.37)" fill="none"/>
    </clipPath>
  </defs>
  <g id="adesivo_pequeno" transform="translate(0 20.833)">
    <g id="Grupo_6772" data-name="Grupo 6772" clip-path="url(#clip-path)">
      <g id="Grupo_6771" data-name="Grupo 6771" opacity="0.6">
        <g id="Grupo_6770" data-name="Grupo 6770">
          <g id="Grupo_6769" data-name="Grupo 6769" clip-path="url(#clip-path-2)">
            <g id="Grupo_6724" data-name="Grupo 6724" transform="translate(3.054 -7.203)">
              <path id="Caminho_6781" data-name="Caminho 6781" d="M0,0-.128-.083-2.083,1.179A10.446,10.446,0,0,0,0,4.149V0Z" fill="#6f2895"/>
            </g>
            <g id="Grupo_6725" data-name="Grupo 6725" transform="translate(3.054 -7.369)">
              <path id="Caminho_6782" data-name="Caminho 6782" d="M0,0V-4.5l-.128-.083L-3.054-2.694c.011.316.037.628.076.937L-.128.083Z" fill="#6f2895"/>
            </g>
            <g id="Grupo_6726" data-name="Grupo 6726" transform="translate(3.054 -12.035)">
              <path id="Caminho_6783" data-name="Caminho 6783" d="M0,0V0Z" fill="#6f2895"/>
            </g>
            <g id="Grupo_6727" data-name="Grupo 6727" transform="translate(2.926 -7.286)">
              <path id="Caminho_6784" data-name="Caminho 6784" d="M0,0,.128.083V-.083Z" fill="#6f2895"/>
            </g>
            <g id="Grupo_6728" data-name="Grupo 6728" transform="translate(3.054 -12.035)">
              <path id="Caminho_6785" data-name="Caminho 6785" d="M0,0V-4.666H0l-1.7,1.1a10.372,10.372,0,0,0-.9,2.06L-.128.083Z" fill="#6f2895"/>
            </g>
            <g id="Grupo_6729" data-name="Grupo 6729" transform="translate(2.926 -11.952)">
              <path id="Caminho_6786" data-name="Caminho 6786" d="M0,0,.128.083V-.083Z" fill="#6f2895"/>
            </g>
            <g id="Grupo_6730" data-name="Grupo 6730" transform="translate(6.795 -2.538)">
              <path id="Caminho_6787" data-name="Caminho 6787" d="M0,0-.128-.083-1.811,1A10.42,10.42,0,0,0,0,1.885Z" fill="#6f2895"/>
            </g>
            <g id="Grupo_6731" data-name="Grupo 6731" transform="translate(6.795 -7.203)">
              <path id="Caminho_6788" data-name="Caminho 6788" d="M0,0-.128-.083-3.741,2.25-.128,4.583,0,4.5Z" fill="#6f2895"/>
            </g>
            <g id="Grupo_6732" data-name="Grupo 6732" transform="translate(6.667 -2.621)">
              <path id="Caminho_6789" data-name="Caminho 6789" d="M0,0,.128.083V-.083Z" fill="#6f2895"/>
            </g>
            <g id="Grupo_6733" data-name="Grupo 6733" transform="translate(6.795 -7.369)">
              <path id="Caminho_6790" data-name="Caminho 6790" d="M0,0V-4.5l-.128-.083L-3.741-2.25-.128.083Z" fill="#6f2895"/>
            </g>
            <g id="Grupo_6734" data-name="Grupo 6734" transform="translate(6.667 -7.286)">
              <path id="Caminho_6791" data-name="Caminho 6791" d="M0,0,.128.083V-.083Z" fill="#6f2895"/>
            </g>
            <g id="Grupo_6735" data-name="Grupo 6735" transform="translate(6.667 -11.952)">
              <path id="Caminho_6792" data-name="Caminho 6792" d="M0,0,.128-.083V-4.748L-3.613-2.333Z" fill="#6f2895"/>
            </g>
            <g id="Grupo_6736" data-name="Grupo 6736" transform="translate(6.795 -11.869)">
              <path id="Caminho_6793" data-name="Caminho 6793" d="M0,0V-.166l-.128.083Z" fill="#6f2895"/>
            </g>
            <g id="Grupo_6737" data-name="Grupo 6737" transform="translate(10.422 -2.621)">
              <path id="Caminho_6794" data-name="Caminho 6794" d="M0,0-3.25,2.1A10.437,10.437,0,0,0,.011,2.62H.128V.083Z" fill="#6f2895"/>
            </g>
            <g id="Grupo_6738" data-name="Grupo 6738" transform="translate(10.55 -7.369)">
              <path id="Caminho_6795" data-name="Caminho 6795" d="M0,0H0V0Z" fill="#6f2895"/>
            </g>
            <g id="Grupo_6739" data-name="Grupo 6739" transform="translate(6.809 -4.953)">
              <path id="Caminho_6796" data-name="Caminho 6796" d="M0,0,3.613,2.333l.128-.083v-4.5l-.128-.083Z" fill="#6f2895"/>
            </g>
            <g id="Grupo_6740" data-name="Grupo 6740" transform="translate(10.55 -2.538)">
              <path id="Caminho_6797" data-name="Caminho 6797" d="M0,0V-.166l-.128.083Z" fill="#6f2895"/>
            </g>
            <g id="Grupo_6741" data-name="Grupo 6741" transform="translate(6.809 -9.619)">
              <path id="Caminho_6798" data-name="Caminho 6798" d="M0,0,3.613,2.333l.128-.083v-4.5l-.128-.083Z" fill="#6f2895"/>
            </g>
            <g id="Grupo_6742" data-name="Grupo 6742" transform="translate(10.55 -7.203)">
              <path id="Caminho_6799" data-name="Caminho 6799" d="M0,0V-.166l-.128.083Z" fill="#6f2895"/>
            </g>
            <g id="Grupo_6743" data-name="Grupo 6743" transform="translate(10.422 -11.952)">
              <path id="Caminho_6800" data-name="Caminho 6800" d="M0,0,.128-.083V-4.748h0L-3.613-2.333Z" fill="#6f2895"/>
            </g>
            <g id="Grupo_6744" data-name="Grupo 6744" transform="translate(10.422 -11.952)">
              <path id="Caminho_6801" data-name="Caminho 6801" d="M0,0,.128.083V-.083Z" fill="#6f2895"/>
            </g>
            <g id="Grupo_6745" data-name="Grupo 6745" transform="translate(14.177 -2.62)">
              <path id="Caminho_6802" data-name="Caminho 6802" d="M0,0-3.613,2.333l.445.287h3.3V.083Z" fill="#6f2895"/>
            </g>
            <g id="Grupo_6746" data-name="Grupo 6746" transform="translate(10.564 -4.953)">
              <path id="Caminho_6803" data-name="Caminho 6803" d="M0,0,3.613,2.333l.128-.083v-4.5l-.128-.083Z" fill="#6f2895"/>
            </g>
            <g id="Grupo_6747" data-name="Grupo 6747" transform="translate(14.305 -2.538)">
              <path id="Caminho_6804" data-name="Caminho 6804" d="M0,0V-.166l-.128.083Z" fill="#6f2895"/>
            </g>
            <g id="Grupo_6748" data-name="Grupo 6748" transform="translate(10.564 -9.619)">
              <path id="Caminho_6805" data-name="Caminho 6805" d="M0,0,3.613,2.333l.128-.083v-4.5l-.128-.083Z" fill="#6f2895"/>
            </g>
            <g id="Grupo_6749" data-name="Grupo 6749" transform="translate(14.305 -7.203)">
              <path id="Caminho_6806" data-name="Caminho 6806" d="M0,0V-.166l-.128.083Z" fill="#6f2895"/>
            </g>
            <g id="Grupo_6750" data-name="Grupo 6750" transform="translate(14.177 -11.952)">
              <path id="Caminho_6807" data-name="Caminho 6807" d="M0,0,.128-.083V-4.748h0L-3.613-2.333Z" fill="#6f2895"/>
            </g>
            <g id="Grupo_6751" data-name="Grupo 6751" transform="translate(14.305 -11.869)">
              <path id="Caminho_6808" data-name="Caminho 6808" d="M0,0V-.166l-.128.083Z" fill="#6f2895"/>
            </g>
            <g id="Grupo_6752" data-name="Grupo 6752" transform="translate(17.932 -2.621)">
              <path id="Caminho_6809" data-name="Caminho 6809" d="M0,0-3.613,2.333l.446.287h3.3V.083Z" fill="#6f2895"/>
            </g>
            <g id="Grupo_6753" data-name="Grupo 6753" transform="translate(14.319 -4.953)">
              <path id="Caminho_6810" data-name="Caminho 6810" d="M0,0,3.613,2.333l.128-.083v-4.5l-.128-.083Z" fill="#6f2895"/>
            </g>
            <g id="Grupo_6754" data-name="Grupo 6754" transform="translate(18.06 -2.538)">
              <path id="Caminho_6811" data-name="Caminho 6811" d="M0,0V-.165l-.128.082Z" fill="#6f2895"/>
            </g>
            <g id="Grupo_6755" data-name="Grupo 6755" transform="translate(14.319 -9.619)">
              <path id="Caminho_6812" data-name="Caminho 6812" d="M0,0,3.613,2.333l.128-.083v-4.5l-.128-.083Z" fill="#6f2895"/>
            </g>
            <g id="Grupo_6756" data-name="Grupo 6756" transform="translate(17.932 -7.286)">
              <path id="Caminho_6813" data-name="Caminho 6813" d="M0,0,.128.083V-.083Z" fill="#6f2895"/>
            </g>
            <g id="Grupo_6757" data-name="Grupo 6757" transform="translate(17.932 -11.952)">
              <path id="Caminho_6814" data-name="Caminho 6814" d="M0,0,.128-.083V-4.748L-3.613-2.333Z" fill="#6f2895"/>
            </g>
            <g id="Grupo_6758" data-name="Grupo 6758" transform="translate(18.06 -11.869)">
              <path id="Caminho_6815" data-name="Caminho 6815" d="M0,0V0Z" fill="#6f2895"/>
            </g>
            <g id="Grupo_6759" data-name="Grupo 6759" transform="translate(18.06 -11.869)">
              <path id="Caminho_6816" data-name="Caminho 6816" d="M0,0V-.166l-.128.083Z" fill="#6f2895"/>
            </g>
            <g id="Grupo_6760" data-name="Grupo 6760" transform="translate(18.52)">
              <path id="Caminho_6817" data-name="Caminho 6817" d="M0,0H2.3V-2.063L-.445-.288Z" fill="#6f2895"/>
            </g>
            <g id="Grupo_6761" data-name="Grupo 6761" transform="translate(20.823 -3.178)">
              <path id="Caminho_6818" data-name="Caminho 6818" d="M0,0V-3.55L-2.749-1.775Z" fill="#6f2895"/>
            </g>
            <g id="Grupo_6762" data-name="Grupo 6762" transform="translate(20.823 -7.844)">
              <path id="Caminho_6819" data-name="Caminho 6819" d="M0,0V-2.545C0-2.874-.017-3.2-.047-3.52l-2.7,1.745Z" fill="#6f2895"/>
            </g>
            <g id="Grupo_6763" data-name="Grupo 6763" transform="translate(20.569 -12.674)">
              <path id="Caminho_6820" data-name="Caminho 6820" d="M0,0A10.351,10.351,0,0,0-.96-2.6l-1.535.991Z" fill="#6f2895"/>
            </g>
            <g id="Grupo_6764" data-name="Grupo 6764" transform="translate(3.054 -17.83)">
              <path id="Caminho_6821" data-name="Caminho 6821" d="M0,0-.031.029Q-.355.356-.648.711L0,1.129Z" fill="#6f2895"/>
            </g>
            <g id="Grupo_6765" data-name="Grupo 6765" transform="translate(6.795 -20.201)">
              <path id="Caminho_6822" data-name="Caminho 6822" d="M0,0A10.429,10.429,0,0,0-2.9,1.628L0,3.5Z" fill="#6f2895"/>
            </g>
            <g id="Grupo_6766" data-name="Grupo 6766" transform="translate(10.55 -16.7)">
              <path id="Caminho_6823" data-name="Caminho 6823" d="M0,0V-4.128c-.057,0-.113,0-.17,0h0c-.333,0-.661.017-.986.047L-3.741-2.416Z" fill="#6f2895"/>
            </g>
            <g id="Grupo_6767" data-name="Grupo 6767" transform="translate(14.305 -16.7)">
              <path id="Caminho_6824" data-name="Caminho 6824" d="M0,0V-3.367A10.371,10.371,0,0,0-1.519-3.85L-3.741-2.416Z" fill="#6f2895"/>
            </g>
            <g id="Grupo_6768" data-name="Grupo 6768" transform="translate(18.06 -16.7)">
              <path id="Caminho_6825" data-name="Caminho 6825" d="M0,0V-.763a10.5,10.5,0,0,0-2.888-2.2l-.853.551Z" fill="#6f2895"/>
            </g>
          </g>
        </g>
      </g>
    </g>
  </g>
</svg>
