<svg xmlns="http://www.w3.org/2000/svg" xmlns:xlink="http://www.w3.org/1999/xlink" width="89" height="39" viewBox="0 0 89 39">
  <defs>
    <clipPath id="clip-path">
      <rect id="Retângulo_12" data-name="Retângulo 12" width="89" height="39" transform="translate(2322 1731)" fill="none"/>
    </clipPath>
    <clipPath id="clip-path-2">
      <path id="Caminho_1032" data-name="Caminho 1032" d="M0-276.277v38.227H161.575c9.393,0,9.393-38.227,0-38.227Z" fill="none"/>
    </clipPath>
  </defs>
  <g id="ba_abertUnidade" transform="translate(-2322 -1731)" clip-path="url(#clip-path)">
    <g id="Grupo_1033" data-name="Grupo 1033" transform="translate(2322 2007.777)" clip-path="url(#clip-path-2)">
      <g id="Grupo_979" data-name="Grupo 979" transform="translate(9.637 -305.473)">
        <path id="Caminho_978" data-name="Caminho 978" d="M0,0-87.119,67.423" fill="none" stroke="#2b2e34" stroke-width="0.843"/>
      </g>
      <g id="Grupo_980" data-name="Grupo 980" transform="translate(171.589 -305.473)">
        <path id="Caminho_979" data-name="Caminho 979" d="M0,0-87.119,67.423" fill="none" stroke="#2b2e34" stroke-width="0.843"/>
      </g>
      <g id="Grupo_981" data-name="Grupo 981" transform="translate(90.613 -305.473)">
        <path id="Caminho_980" data-name="Caminho 980" d="M0,0-87.119,67.423" fill="none" stroke="#2b2e34" stroke-width="0.843"/>
      </g>
      <g id="Grupo_982" data-name="Grupo 982" transform="translate(50.125 -305.473)">
        <path id="Caminho_981" data-name="Caminho 981" d="M0,0-87.119,67.423" fill="none" stroke="#2b2e34" stroke-width="0.843"/>
      </g>
      <g id="Grupo_983" data-name="Grupo 983" transform="translate(212.077 -305.473)">
        <path id="Caminho_982" data-name="Caminho 982" d="M0,0-87.119,67.423" fill="none" stroke="#2b2e34" stroke-width="0.843"/>
      </g>
      <g id="Grupo_984" data-name="Grupo 984" transform="translate(131.101 -305.473)">
        <path id="Caminho_983" data-name="Caminho 983" d="M0,0-87.119,67.423" fill="none" stroke="#2b2e34" stroke-width="0.843"/>
      </g>
      <g id="Grupo_985" data-name="Grupo 985" transform="translate(17.735 -305.473)">
        <path id="Caminho_984" data-name="Caminho 984" d="M0,0-87.119,67.423" fill="none" stroke="#2b2e34" stroke-width="0.843"/>
      </g>
      <g id="Grupo_986" data-name="Grupo 986" transform="translate(179.687 -305.473)">
        <path id="Caminho_985" data-name="Caminho 985" d="M0,0-87.119,67.423" fill="none" stroke="#2b2e34" stroke-width="0.843"/>
      </g>
      <g id="Grupo_987" data-name="Grupo 987" transform="translate(98.711 -305.473)">
        <path id="Caminho_986" data-name="Caminho 986" d="M0,0-87.119,67.423" fill="none" stroke="#2b2e34" stroke-width="0.843"/>
      </g>
      <g id="Grupo_988" data-name="Grupo 988" transform="translate(58.223 -305.473)">
        <path id="Caminho_987" data-name="Caminho 987" d="M0,0-87.119,67.423" fill="none" stroke="#2b2e34" stroke-width="0.843"/>
      </g>
      <g id="Grupo_989" data-name="Grupo 989" transform="translate(220.175 -305.473)">
        <path id="Caminho_988" data-name="Caminho 988" d="M0,0-87.119,67.423" fill="none" stroke="#2b2e34" stroke-width="0.843"/>
      </g>
      <g id="Grupo_990" data-name="Grupo 990" transform="translate(139.199 -305.473)">
        <path id="Caminho_989" data-name="Caminho 989" d="M0,0-87.119,67.423" fill="none" stroke="#2b2e34" stroke-width="0.843"/>
      </g>
      <g id="Grupo_991" data-name="Grupo 991" transform="translate(25.832 -305.473)">
        <path id="Caminho_990" data-name="Caminho 990" d="M0,0-87.119,67.423" fill="none" stroke="#2b2e34" stroke-width="0.843"/>
      </g>
      <g id="Grupo_992" data-name="Grupo 992" transform="translate(187.784 -305.473)">
        <path id="Caminho_991" data-name="Caminho 991" d="M0,0-87.119,67.423" fill="none" stroke="#2b2e34" stroke-width="0.843"/>
      </g>
      <g id="Grupo_993" data-name="Grupo 993" transform="translate(106.808 -305.473)">
        <path id="Caminho_992" data-name="Caminho 992" d="M0,0-87.119,67.423" fill="none" stroke="#2b2e34" stroke-width="0.843"/>
      </g>
      <g id="Grupo_994" data-name="Grupo 994" transform="translate(66.32 -305.473)">
        <path id="Caminho_993" data-name="Caminho 993" d="M0,0-87.119,67.423" fill="none" stroke="#2b2e34" stroke-width="0.843"/>
      </g>
      <g id="Grupo_995" data-name="Grupo 995" transform="translate(228.272 -305.473)">
        <path id="Caminho_994" data-name="Caminho 994" d="M0,0-87.119,67.423" fill="none" stroke="#2b2e34" stroke-width="0.843"/>
      </g>
      <g id="Grupo_996" data-name="Grupo 996" transform="translate(236.37 -305.473)">
        <path id="Caminho_995" data-name="Caminho 995" d="M0,0-87.119,67.423" fill="none" stroke="#2b2e34" stroke-width="0.843"/>
      </g>
      <g id="Grupo_997" data-name="Grupo 997" transform="translate(244.467 -305.473)">
        <path id="Caminho_996" data-name="Caminho 996" d="M0,0-87.119,67.423" fill="none" stroke="#2b2e34" stroke-width="0.843"/>
      </g>
      <g id="Grupo_998" data-name="Grupo 998" transform="translate(252.565 -305.473)">
        <path id="Caminho_997" data-name="Caminho 997" d="M0,0-87.119,67.423" fill="none" stroke="#2b2e34" stroke-width="0.843"/>
      </g>
      <g id="Grupo_999" data-name="Grupo 999" transform="translate(260.663 -305.473)">
        <path id="Caminho_998" data-name="Caminho 998" d="M0,0-87.119,67.423" fill="none" stroke="#2b2e34" stroke-width="0.843"/>
      </g>
      <g id="Grupo_1000" data-name="Grupo 1000" transform="translate(268.76 -305.473)">
        <path id="Caminho_999" data-name="Caminho 999" d="M0,0-87.119,67.423" fill="none" stroke="#2b2e34" stroke-width="0.843"/>
      </g>
      <g id="Grupo_1001" data-name="Grupo 1001" transform="translate(284.956 -305.473)">
        <path id="Caminho_1000" data-name="Caminho 1000" d="M0,0-87.119,67.423" fill="none" stroke="#2b2e34" stroke-width="0.843"/>
      </g>
      <g id="Grupo_1002" data-name="Grupo 1002" transform="translate(301.151 -305.473)">
        <path id="Caminho_1001" data-name="Caminho 1001" d="M0,0-87.119,67.423" fill="none" stroke="#2b2e34" stroke-width="0.843"/>
      </g>
      <g id="Grupo_1003" data-name="Grupo 1003" transform="translate(276.858 -305.473)">
        <path id="Caminho_1002" data-name="Caminho 1002" d="M0,0-87.119,67.423" fill="none" stroke="#2b2e34" stroke-width="0.843"/>
      </g>
      <g id="Grupo_1004" data-name="Grupo 1004" transform="translate(333.541 -305.473)">
        <path id="Caminho_1003" data-name="Caminho 1003" d="M0,0-87.119,67.423" fill="none" stroke="#2b2e34" stroke-width="0.843"/>
      </g>
      <g id="Grupo_1005" data-name="Grupo 1005" transform="translate(309.248 -305.473)">
        <path id="Caminho_1004" data-name="Caminho 1004" d="M0,0-87.119,67.423" fill="none" stroke="#2b2e34" stroke-width="0.843"/>
      </g>
      <g id="Grupo_1006" data-name="Grupo 1006" transform="translate(317.346 -305.473)">
        <path id="Caminho_1005" data-name="Caminho 1005" d="M0,0-87.119,67.423" fill="none" stroke="#2b2e34" stroke-width="0.843"/>
      </g>
      <g id="Grupo_1007" data-name="Grupo 1007" transform="translate(293.053 -305.473)">
        <path id="Caminho_1006" data-name="Caminho 1006" d="M0,0-87.119,67.423" fill="none" stroke="#2b2e34" stroke-width="0.843"/>
      </g>
      <g id="Grupo_1008" data-name="Grupo 1008" transform="translate(349.736 -305.473)">
        <path id="Caminho_1007" data-name="Caminho 1007" d="M0,0-87.119,67.423" fill="none" stroke="#2b2e34" stroke-width="0.843"/>
      </g>
      <g id="Grupo_1009" data-name="Grupo 1009" transform="translate(325.444 -305.473)">
        <path id="Caminho_1008" data-name="Caminho 1008" d="M0,0-87.119,67.423" fill="none" stroke="#2b2e34" stroke-width="0.843"/>
      </g>
      <g id="Grupo_1010" data-name="Grupo 1010" transform="translate(398.322 -305.473)">
        <path id="Caminho_1009" data-name="Caminho 1009" d="M0,0-87.119,67.423" fill="none" stroke="#2b2e34" stroke-width="0.843"/>
      </g>
      <g id="Grupo_1011" data-name="Grupo 1011" transform="translate(374.029 -305.473)">
        <path id="Caminho_1010" data-name="Caminho 1010" d="M0,0-87.119,67.423" fill="none" stroke="#2b2e34" stroke-width="0.843"/>
      </g>
      <g id="Grupo_1012" data-name="Grupo 1012" transform="translate(365.932 -305.473)">
        <path id="Caminho_1011" data-name="Caminho 1011" d="M0,0-87.119,67.423" fill="none" stroke="#2b2e34" stroke-width="0.843"/>
      </g>
      <g id="Grupo_1013" data-name="Grupo 1013" transform="translate(341.639 -305.473)">
        <path id="Caminho_1012" data-name="Caminho 1012" d="M0,0-87.119,67.423" fill="none" stroke="#2b2e34" stroke-width="0.843"/>
      </g>
      <g id="Grupo_1014" data-name="Grupo 1014" transform="translate(382.127 -305.473)">
        <path id="Caminho_1013" data-name="Caminho 1013" d="M0,0-87.119,67.423" fill="none" stroke="#2b2e34" stroke-width="0.843"/>
      </g>
      <g id="Grupo_1015" data-name="Grupo 1015" transform="translate(357.834 -305.473)">
        <path id="Caminho_1014" data-name="Caminho 1014" d="M0,0-87.119,67.423" fill="none" stroke="#2b2e34" stroke-width="0.843"/>
      </g>
      <g id="Grupo_1016" data-name="Grupo 1016" transform="translate(406.42 -305.473)">
        <path id="Caminho_1015" data-name="Caminho 1015" d="M0,0-87.119,67.423" fill="none" stroke="#2b2e34" stroke-width="0.843"/>
      </g>
      <g id="Grupo_1017" data-name="Grupo 1017" transform="translate(414.517 -305.473)">
        <path id="Caminho_1016" data-name="Caminho 1016" d="M0,0-87.119,67.423" fill="none" stroke="#2b2e34" stroke-width="0.843"/>
      </g>
      <g id="Grupo_1018" data-name="Grupo 1018" transform="translate(422.615 -305.473)">
        <path id="Caminho_1017" data-name="Caminho 1017" d="M0,0-87.119,67.423" fill="none" stroke="#2b2e34" stroke-width="0.843"/>
      </g>
      <g id="Grupo_1019" data-name="Grupo 1019" transform="translate(430.712 -305.473)">
        <path id="Caminho_1018" data-name="Caminho 1018" d="M0,0-87.119,67.423" fill="none" stroke="#2b2e34" stroke-width="0.843"/>
      </g>
      <g id="Grupo_1020" data-name="Grupo 1020" transform="translate(438.81 -305.473)">
        <path id="Caminho_1019" data-name="Caminho 1019" d="M0,0-87.119,67.423" fill="none" stroke="#2b2e34" stroke-width="0.843"/>
      </g>
      <g id="Grupo_1021" data-name="Grupo 1021" transform="translate(390.224 -305.473)">
        <path id="Caminho_1020" data-name="Caminho 1020" d="M0,0-87.119,67.423" fill="none" stroke="#2b2e34" stroke-width="0.843"/>
      </g>
      <g id="Grupo_1022" data-name="Grupo 1022" transform="translate(147.296 -305.473)">
        <path id="Caminho_1021" data-name="Caminho 1021" d="M0,0-87.119,67.423" fill="none" stroke="#2b2e34" stroke-width="0.843"/>
      </g>
      <g id="Grupo_1023" data-name="Grupo 1023" transform="translate(33.93 -305.473)">
        <path id="Caminho_1022" data-name="Caminho 1022" d="M0,0-87.119,67.423" fill="none" stroke="#2b2e34" stroke-width="0.843"/>
      </g>
      <g id="Grupo_1024" data-name="Grupo 1024" transform="translate(195.882 -305.473)">
        <path id="Caminho_1023" data-name="Caminho 1023" d="M0,0-87.119,67.423" fill="none" stroke="#2b2e34" stroke-width="0.843"/>
      </g>
      <g id="Grupo_1025" data-name="Grupo 1025" transform="translate(114.906 -305.473)">
        <path id="Caminho_1024" data-name="Caminho 1024" d="M0,0-87.119,67.423" fill="none" stroke="#2b2e34" stroke-width="0.843"/>
      </g>
      <g id="Grupo_1026" data-name="Grupo 1026" transform="translate(74.418 -305.473)">
        <path id="Caminho_1025" data-name="Caminho 1025" d="M0,0-87.119,67.423" fill="none" stroke="#2b2e34" stroke-width="0.843"/>
      </g>
      <g id="Grupo_1027" data-name="Grupo 1027" transform="translate(155.394 -305.473)">
        <path id="Caminho_1026" data-name="Caminho 1026" d="M0,0-87.119,67.423" fill="none" stroke="#2b2e34" stroke-width="0.843"/>
      </g>
      <g id="Grupo_1028" data-name="Grupo 1028" transform="translate(42.028 -305.473)">
        <path id="Caminho_1027" data-name="Caminho 1027" d="M0,0-87.119,67.423" fill="none" stroke="#2b2e34" stroke-width="0.843"/>
      </g>
      <g id="Grupo_1029" data-name="Grupo 1029" transform="translate(203.98 -305.473)">
        <path id="Caminho_1028" data-name="Caminho 1028" d="M0,0-87.119,67.423" fill="none" stroke="#2b2e34" stroke-width="0.843"/>
      </g>
      <g id="Grupo_1030" data-name="Grupo 1030" transform="translate(123.004 -305.473)">
        <path id="Caminho_1029" data-name="Caminho 1029" d="M0,0-87.119,67.423" fill="none" stroke="#2b2e34" stroke-width="0.843"/>
      </g>
      <g id="Grupo_1031" data-name="Grupo 1031" transform="translate(82.516 -305.473)">
        <path id="Caminho_1030" data-name="Caminho 1030" d="M0,0-87.119,67.423" fill="none" stroke="#2b2e34" stroke-width="0.843"/>
      </g>
      <g id="Grupo_1032" data-name="Grupo 1032" transform="translate(163.492 -305.473)">
        <path id="Caminho_1031" data-name="Caminho 1031" d="M0,0-87.119,67.423" fill="none" stroke="#2b2e34" stroke-width="0.843"/>
      </g>
    </g>
  </g>
</svg>
