<svg xmlns="http://www.w3.org/2000/svg" xmlns:xlink="http://www.w3.org/1999/xlink" width="609" height="212" viewBox="0 0 609 212">
  <defs>
    <clipPath id="clip-path">
      <rect id="Retângulo_89" data-name="Retângulo 89" width="609" height="212" transform="translate(7035 6858)" fill="none"/>
    </clipPath>
    <clipPath id="clip-path-2">
      <path id="Caminho_8507" data-name="Caminho 8507" d="M0,0H609.448V-657.722H0Z" fill="none"/>
    </clipPath>
    <clipPath id="clip-path-3">
      <rect id="Retângulo_84" data-name="Retângulo 84" width="178.866" height="143.896" transform="translate(-183.762 -133.975)" fill="none"/>
    </clipPath>
    <clipPath id="clip-path-4">
      <path id="Caminho_8510" data-name="Caminho 8510" d="M0-1.5H609.448V-657.721H0Z" fill="none"/>
    </clipPath>
    <clipPath id="clip-path-5">
      <rect id="Retângulo_85" data-name="Retângulo 85" width="1360.515" height="161.071" transform="translate(-377.399 -185.166)" fill="none"/>
    </clipPath>
    <clipPath id="clip-path-6">
      <path id="Caminho_8509" data-name="Caminho 8509" d="M-377.4-24.095H983.116V-185.166H-377.4Z" fill="none"/>
    </clipPath>
    <clipPath id="clip-path-8">
      <rect id="Retângulo_86" data-name="Retângulo 86" width="227.764" height="88.87" transform="translate(309.295 -45.134)" fill="none"/>
    </clipPath>
    <clipPath id="clip-path-9">
      <path id="Caminho_8513" data-name="Caminho 8513" d="M309.3,43.736H537.059v-88.87H309.3Z" fill="none"/>
    </clipPath>
    <clipPath id="clip-path-11">
      <rect id="Retângulo_87" data-name="Retângulo 87" width="204.252" height="347.322" transform="translate(92.153 -337.819)" fill="none"/>
    </clipPath>
    <clipPath id="clip-path-12">
      <path id="Caminho_8521" data-name="Caminho 8521" d="M92.153,9.5H296.4V-337.819H92.153Z" fill="none"/>
    </clipPath>
    <clipPath id="clip-path-15">
      <rect id="Retângulo_88" data-name="Retângulo 88" width="95.12" height="418.024" transform="translate(810.026 -663.721)" fill="none"/>
    </clipPath>
    <clipPath id="clip-path-16">
      <path id="Caminho_8530" data-name="Caminho 8530" d="M810.029-245.7h95.117V-663.721H810.029Z" fill="none"/>
    </clipPath>
  </defs>
  <g id="bg_apresentacao02" transform="translate(-7035 -6858)" clip-path="url(#clip-path)">
    <g id="Grupo_8487" data-name="Grupo 8487" transform="translate(7035 7197.444)" clip-path="url(#clip-path-2)">
      <g id="Grupo_8483" data-name="Grupo 8483" transform="translate(856.847 -165.261)">
        <path id="Caminho_8506" data-name="Caminho 8506" d="M0,0H-160.212a19.849,19.849,0,0,1-19.843-19.855V-146.076A19.847,19.847,0,0,0-199.9-165.93h-408.19a19.849,19.849,0,0,0-19.842,19.854V-55.31a19.847,19.847,0,0,1-19.843,19.854h-99.213A19.848,19.848,0,0,1-766.826-55.31V-96.438a19.849,19.849,0,0,0-19.843-19.855H-982.258A19.85,19.85,0,0,0-1002.1-96.438V-81.5a12,12,0,0,1-12,12.007h-166.581a19.849,19.849,0,0,0-19.843,19.854V181.529L0,195.023Z" fill="#ffa22b"/>
      </g>
    </g>
    <g id="Grupo_8493" data-name="Grupo 8493" transform="translate(7035 7197.444)" clip-path="url(#clip-path-4)">
      <g id="Grupo_8492" data-name="Grupo 8492" opacity="0.24">
        <g id="Grupo_8491" data-name="Grupo 8491">
          <g id="Grupo_8490" data-name="Grupo 8490" clip-path="url(#clip-path-5)">
            <g id="Grupo_8489" data-name="Grupo 8489" clip-path="url(#clip-path-6)">
              <g id="Grupo_8488" data-name="Grupo 8488" transform="translate(-368.399 -70.717)">
                <path id="Caminho_8508" data-name="Caminho 8508" d="M0,0H64.535a12,12,0,0,0,12-12V-82.949a12,12,0,0,1,12-12H727.843a12,12,0,0,1,12,12V21.122a12,12,0,0,0,12,12H1342.52" fill="none" stroke="#fff" stroke-width="25"/>
              </g>
            </g>
          </g>
        </g>
      </g>
    </g>
    <g id="Grupo_8529" data-name="Grupo 8529" transform="translate(7035 7197.444)" clip-path="url(#clip-path-4)">
      <g id="Grupo_8504" data-name="Grupo 8504" opacity="0.48">
        <g id="Grupo_8503" data-name="Grupo 8503">
          <g id="Grupo_8502" data-name="Grupo 8502" clip-path="url(#clip-path-8)">
            <g id="Grupo_8494" data-name="Grupo 8494" transform="translate(319.794 21.182)">
              <path id="Caminho_8511" data-name="Caminho 8511" d="M0,0V-43.572" fill="none" stroke="#fff" stroke-linecap="round" stroke-linejoin="round" stroke-width="3" stroke-dasharray="0 5.81"/>
            </g>
            <g id="Grupo_8496" data-name="Grupo 8496" clip-path="url(#clip-path-9)">
              <g id="Grupo_8495" data-name="Grupo 8495" transform="translate(321.312 -30.966)">
                <path id="Caminho_8512" data-name="Caminho 8512" d="M0,0A11.365,11.365,0,0,1,6.886-5.285" fill="none" stroke="#fff" stroke-linecap="round" stroke-linejoin="round" stroke-width="3" stroke-dasharray="0 5.938"/>
              </g>
            </g>
            <g id="Grupo_8497" data-name="Grupo 8497" transform="translate(337.071 -36.634)">
              <path id="Caminho_8514" data-name="Caminho 8514" d="M0,0H175.179" fill="none" stroke="#fff" stroke-linecap="round" stroke-linejoin="round" stroke-width="3" stroke-dasharray="0 5.938"/>
            </g>
            <g id="Grupo_8501" data-name="Grupo 8501" clip-path="url(#clip-path-9)">
              <g id="Grupo_8498" data-name="Grupo 8498" transform="translate(520.89 -35.117)">
                <path id="Caminho_8515" data-name="Caminho 8515" d="M0,0A11.362,11.362,0,0,1,5.285,6.886" fill="none" stroke="#fff" stroke-linecap="round" stroke-linejoin="round" stroke-width="3" stroke-dasharray="0 5.938"/>
              </g>
              <g id="Grupo_8499" data-name="Grupo 8499" transform="translate(526.558 -19.247)">
                <path id="Caminho_8516" data-name="Caminho 8516" d="M0,0V57.459" fill="none" stroke="#fff" stroke-linecap="round" stroke-linejoin="round" stroke-width="3" stroke-dasharray="0 6.048"/>
              </g>
              <g id="Grupo_8500" data-name="Grupo 8500" transform="translate(319.794 26.991)">
                <path id="Caminho_8517" data-name="Caminho 8517" d="M0,0H0M0-52.287H0M11.339-63.625h0m184.086,0h0m11.339,11.338h0m0,66.532h0" fill="none" stroke="#fff" stroke-linecap="round" stroke-linejoin="round" stroke-width="3"/>
              </g>
            </g>
          </g>
        </g>
      </g>
      <g id="Grupo_8516" data-name="Grupo 8516" opacity="0.48">
        <g id="Grupo_8515" data-name="Grupo 8515">
          <g id="Grupo_8514" data-name="Grupo 8514" clip-path="url(#clip-path-11)">
            <g id="Grupo_8505" data-name="Grupo 8505" transform="translate(286.404 -325.829)">
              <path id="Caminho_8519" data-name="Caminho 8519" d="M0,0V253.385" fill="none" stroke="#fff" stroke-linecap="round" stroke-linejoin="round" stroke-width="2" stroke-dasharray="0 3.99"/>
            </g>
            <g id="Grupo_8507" data-name="Grupo 8507" clip-path="url(#clip-path-12)">
              <g id="Grupo_8506" data-name="Grupo 8506" transform="translate(285.544 -66.11)">
                <path id="Caminho_8520" data-name="Caminho 8520" d="M0,0A11.36,11.36,0,0,1-8.266,6.783" fill="none" stroke="#fff" stroke-linecap="round" stroke-linejoin="round" stroke-width="2" stroke-dasharray="0 4.453"/>
              </g>
            </g>
            <g id="Grupo_8508" data-name="Grupo 8508" transform="translate(271.026 -59.111)">
              <path id="Caminho_8522" data-name="Caminho 8522" d="M0,0H-155.516" fill="none" stroke="#fff" stroke-linecap="round" stroke-linejoin="round" stroke-width="2" stroke-dasharray="0 4.039"/>
            </g>
            <g id="Grupo_8510" data-name="Grupo 8510" clip-path="url(#clip-path-12)">
              <g id="Grupo_8509" data-name="Grupo 8509" transform="translate(109.151 -58.251)">
                <path id="Caminho_8523" data-name="Caminho 8523" d="M0,0A11.364,11.364,0,0,0-6.783,8.267" fill="none" stroke="#fff" stroke-linecap="round" stroke-linejoin="round" stroke-width="2" stroke-dasharray="0 4.453"/>
              </g>
            </g>
            <g id="Grupo_8511" data-name="Grupo 8511" transform="translate(102.153 -43.825)">
              <path id="Caminho_8525" data-name="Caminho 8525" d="M0,0V49.354" fill="none" stroke="#fff" stroke-linecap="round" stroke-linejoin="round" stroke-width="2" stroke-dasharray="0 3.948"/>
            </g>
            <g id="Grupo_8513" data-name="Grupo 8513" clip-path="url(#clip-path-12)">
              <g id="Grupo_8512" data-name="Grupo 8512" transform="translate(286.404 -329.82)">
                <path id="Caminho_8526" data-name="Caminho 8526" d="M0,0H0M0,259.37H0m-11.339,11.339h0m-161.574,0h0m-11.339,11.338h0m0,55.275h0" fill="none" stroke="#fff" stroke-linecap="round" stroke-linejoin="round" stroke-width="2"/>
              </g>
            </g>
          </g>
        </g>
      </g>
      <g id="Grupo_8528" data-name="Grupo 8528" opacity="0.48">
        <g id="Grupo_8527" data-name="Grupo 8527">
          <g id="Grupo_8526" data-name="Grupo 8526" clip-path="url(#clip-path-15)">
            <g id="Grupo_8519" data-name="Grupo 8519" clip-path="url(#clip-path-16)">
              <g id="Grupo_8517" data-name="Grupo 8517" transform="translate(886.924 -247.698)">
                <path id="Caminho_8528" data-name="Caminho 8528" d="M0,0H-53.575" fill="none" stroke="#ffb752" stroke-linecap="round" stroke-linejoin="round" stroke-width="2" stroke-dasharray="0 3.969"/>
              </g>
              <g id="Grupo_8518" data-name="Grupo 8518" transform="translate(827.025 -248.558)">
                <path id="Caminho_8529" data-name="Caminho 8529" d="M0,0A11.36,11.36,0,0,1-6.783-8.266" fill="none" stroke="#ffb752" stroke-linecap="round" stroke-linejoin="round" stroke-width="2" stroke-dasharray="0 4.453"/>
              </g>
            </g>
            <g id="Grupo_8520" data-name="Grupo 8520" transform="translate(820.027 -263.05)">
              <path id="Caminho_8531" data-name="Caminho 8531" d="M0,0V-379.326" fill="none" stroke="#ffb752" stroke-linecap="round" stroke-linejoin="round" stroke-width="2" stroke-dasharray="0 4.014"/>
            </g>
            <g id="Grupo_8522" data-name="Grupo 8522" clip-path="url(#clip-path-16)">
              <g id="Grupo_8521" data-name="Grupo 8521" transform="translate(820.887 -648.723)">
                <path id="Caminho_8532" data-name="Caminho 8532" d="M0,0A11.36,11.36,0,0,1,8.266-6.783" fill="none" stroke="#ffb752" stroke-linecap="round" stroke-linejoin="round" stroke-width="2" stroke-dasharray="0 4.453"/>
              </g>
            </g>
            <g id="Grupo_8523" data-name="Grupo 8523" transform="translate(835.351 -655.721)">
              <path id="Caminho_8534" data-name="Caminho 8534" d="M0,0H57.8" fill="none" stroke="#ffb752" stroke-linecap="round" stroke-linejoin="round" stroke-width="2" stroke-dasharray="0 3.986"/>
            </g>
            <g id="Grupo_8525" data-name="Grupo 8525" clip-path="url(#clip-path-16)">
              <g id="Grupo_8524" data-name="Grupo 8524" transform="translate(890.893 -247.698)">
                <path id="Caminho_8535" data-name="Caminho 8535" d="M0,0H0M-59.527,0h0M-70.866-11.339h0m0-385.347h0m11.339-11.338h0m63.779,0h0" fill="none" stroke="#ffb752" stroke-linecap="round" stroke-linejoin="round" stroke-width="2"/>
              </g>
            </g>
          </g>
        </g>
      </g>
    </g>
  </g>
</svg>
