<svg xmlns="http://www.w3.org/2000/svg" xmlns:xlink="http://www.w3.org/1999/xlink" width="169.442" height="14.012" viewBox="0 0 169.442 14.012">
  <defs>
    <clipPath id="clip-path">
      <path id="Caminho_1397" data-name="Caminho 1397" d="M2.835-10.488C1.269-10.488,0-8.793,0-6.7H0V-.262C0,1.8,1.23,3.473,2.763,3.524H166.679c1.533-.051,2.763-1.727,2.763-3.786h0V-6.7c0-2.091-1.269-3.786-2.835-3.786H2.835Z" fill="none"/>
    </clipPath>
  </defs>
  <g id="bg_atencao" transform="translate(0 10.488)">
    <g id="Grupo_1395" data-name="Grupo 1395" clip-path="url(#clip-path)">
      <g id="Grupo_1352" data-name="Grupo 1352" transform="translate(22.922 -27.89)">
        <path id="Caminho_1354" data-name="Caminho 1354" d="M0,0-49.285,38.085" fill="none" stroke="#f6b1a8" stroke-width="0.861"/>
      </g>
      <g id="Grupo_1353" data-name="Grupo 1353" transform="translate(179.485 -27.89)">
        <path id="Caminho_1355" data-name="Caminho 1355" d="M0,0-49.285,38.085" fill="none" stroke="#f6b1a8" stroke-width="0.861"/>
      </g>
      <g id="Grupo_1354" data-name="Grupo 1354" transform="translate(68.83 -27.89)">
        <path id="Caminho_1356" data-name="Caminho 1356" d="M0,0-49.285,38.085" fill="none" stroke="#f6b1a8" stroke-width="0.861"/>
      </g>
      <g id="Grupo_1355" data-name="Grupo 1355" transform="translate(45.876 -27.89)">
        <path id="Caminho_1357" data-name="Caminho 1357" d="M0,0-49.285,38.085" fill="none" stroke="#f6b1a8" stroke-width="0.861"/>
      </g>
      <g id="Grupo_1356" data-name="Grupo 1356" transform="translate(202.439 -27.89)">
        <path id="Caminho_1358" data-name="Caminho 1358" d="M0,0-49.285,38.085" fill="none" stroke="#f6b1a8" stroke-width="0.861"/>
      </g>
      <g id="Grupo_1357" data-name="Grupo 1357" transform="translate(91.785 -27.89)">
        <path id="Caminho_1359" data-name="Caminho 1359" d="M0,0-49.285,38.085" fill="none" stroke="#f6b1a8" stroke-width="0.861"/>
      </g>
      <g id="Grupo_1358" data-name="Grupo 1358" transform="translate(27.513 -27.89)">
        <path id="Caminho_1360" data-name="Caminho 1360" d="M0,0-49.285,38.085" fill="none" stroke="#f6b1a8" stroke-width="0.861"/>
      </g>
      <g id="Grupo_1359" data-name="Grupo 1359" transform="translate(184.076 -27.89)">
        <path id="Caminho_1361" data-name="Caminho 1361" d="M0,0-49.285,38.085" fill="none" stroke="#f6b1a8" stroke-width="0.861"/>
      </g>
      <g id="Grupo_1360" data-name="Grupo 1360" transform="translate(73.421 -27.89)">
        <path id="Caminho_1362" data-name="Caminho 1362" d="M0,0-49.285,38.085" fill="none" stroke="#f6b1a8" stroke-width="0.861"/>
      </g>
      <g id="Grupo_1361" data-name="Grupo 1361" transform="translate(50.467 -27.89)">
        <path id="Caminho_1363" data-name="Caminho 1363" d="M0,0-49.285,38.085" fill="none" stroke="#f6b1a8" stroke-width="0.861"/>
      </g>
      <g id="Grupo_1362" data-name="Grupo 1362" transform="translate(207.03 -27.89)">
        <path id="Caminho_1364" data-name="Caminho 1364" d="M0,0-49.285,38.085" fill="none" stroke="#f6b1a8" stroke-width="0.861"/>
      </g>
      <g id="Grupo_1363" data-name="Grupo 1363" transform="translate(32.104 -27.89)">
        <path id="Caminho_1365" data-name="Caminho 1365" d="M0,0-49.285,38.085" fill="none" stroke="#f6b1a8" stroke-width="0.861"/>
      </g>
      <g id="Grupo_1364" data-name="Grupo 1364" transform="translate(188.667 -27.89)">
        <path id="Caminho_1366" data-name="Caminho 1366" d="M0,0-49.285,38.085" fill="none" stroke="#f6b1a8" stroke-width="0.861"/>
      </g>
      <g id="Grupo_1365" data-name="Grupo 1365" transform="translate(78.012 -27.89)">
        <path id="Caminho_1367" data-name="Caminho 1367" d="M0,0-49.285,38.085" fill="none" stroke="#f6b1a8" stroke-width="0.861"/>
      </g>
      <g id="Grupo_1366" data-name="Grupo 1366" transform="translate(55.058 -27.89)">
        <path id="Caminho_1368" data-name="Caminho 1368" d="M0,0-49.285,38.085" fill="none" stroke="#f6b1a8" stroke-width="0.861"/>
      </g>
      <g id="Grupo_1367" data-name="Grupo 1367" transform="translate(211.621 -27.89)">
        <path id="Caminho_1369" data-name="Caminho 1369" d="M0,0-49.285,38.085" fill="none" stroke="#f6b1a8" stroke-width="0.861"/>
      </g>
      <g id="Grupo_1368" data-name="Grupo 1368" transform="translate(101.217 -27.89)">
        <path id="Caminho_1370" data-name="Caminho 1370" d="M0,0-49.285,38.085" fill="none" stroke="#f6b1a8" stroke-width="0.861"/>
      </g>
      <g id="Grupo_1369" data-name="Grupo 1369" transform="translate(119.58 -27.89)">
        <path id="Caminho_1371" data-name="Caminho 1371" d="M0,0-49.285,38.085" fill="none" stroke="#f6b1a8" stroke-width="0.861"/>
      </g>
      <g id="Grupo_1370" data-name="Grupo 1370" transform="translate(105.808 -27.89)">
        <path id="Caminho_1372" data-name="Caminho 1372" d="M0,0-49.285,38.085" fill="none" stroke="#f6b1a8" stroke-width="0.861"/>
      </g>
      <g id="Grupo_1371" data-name="Grupo 1371" transform="translate(110.399 -27.89)">
        <path id="Caminho_1373" data-name="Caminho 1373" d="M0,0-49.285,38.085" fill="none" stroke="#f6b1a8" stroke-width="0.861"/>
      </g>
      <g id="Grupo_1372" data-name="Grupo 1372" transform="translate(96.626 -27.89)">
        <path id="Caminho_1374" data-name="Caminho 1374" d="M0,0-49.285,38.085" fill="none" stroke="#f6b1a8" stroke-width="0.861"/>
      </g>
      <g id="Grupo_1373" data-name="Grupo 1373" transform="translate(128.762 -27.89)">
        <path id="Caminho_1375" data-name="Caminho 1375" d="M0,0-49.285,38.085" fill="none" stroke="#f6b1a8" stroke-width="0.861"/>
      </g>
      <g id="Grupo_1374" data-name="Grupo 1374" transform="translate(114.989 -27.89)">
        <path id="Caminho_1376" data-name="Caminho 1376" d="M0,0-49.285,38.085" fill="none" stroke="#f6b1a8" stroke-width="0.861"/>
      </g>
      <g id="Grupo_1375" data-name="Grupo 1375" transform="translate(156.307 -27.89)">
        <path id="Caminho_1377" data-name="Caminho 1377" d="M0,0-49.285,38.085" fill="none" stroke="#f6b1a8" stroke-width="0.861"/>
      </g>
      <g id="Grupo_1376" data-name="Grupo 1376" transform="translate(142.535 -27.89)">
        <path id="Caminho_1378" data-name="Caminho 1378" d="M0,0-49.285,38.085" fill="none" stroke="#f6b1a8" stroke-width="0.861"/>
      </g>
      <g id="Grupo_1377" data-name="Grupo 1377" transform="translate(137.944 -27.89)">
        <path id="Caminho_1379" data-name="Caminho 1379" d="M0,0-49.285,38.085" fill="none" stroke="#f6b1a8" stroke-width="0.861"/>
      </g>
      <g id="Grupo_1378" data-name="Grupo 1378" transform="translate(124.171 -27.89)">
        <path id="Caminho_1380" data-name="Caminho 1380" d="M0,0-49.285,38.085" fill="none" stroke="#f6b1a8" stroke-width="0.861"/>
      </g>
      <g id="Grupo_1379" data-name="Grupo 1379" transform="translate(147.126 -27.89)">
        <path id="Caminho_1381" data-name="Caminho 1381" d="M0,0-49.285,38.085" fill="none" stroke="#f6b1a8" stroke-width="0.861"/>
      </g>
      <g id="Grupo_1380" data-name="Grupo 1380" transform="translate(133.353 -27.89)">
        <path id="Caminho_1382" data-name="Caminho 1382" d="M0,0-49.285,38.085" fill="none" stroke="#f6b1a8" stroke-width="0.861"/>
      </g>
      <g id="Grupo_1381" data-name="Grupo 1381" transform="translate(160.898 -27.89)">
        <path id="Caminho_1383" data-name="Caminho 1383" d="M0,0-49.285,38.085" fill="none" stroke="#f6b1a8" stroke-width="0.861"/>
      </g>
      <g id="Grupo_1382" data-name="Grupo 1382" transform="translate(165.489 -27.89)">
        <path id="Caminho_1384" data-name="Caminho 1384" d="M0,0-49.285,38.085" fill="none" stroke="#f6b1a8" stroke-width="0.861"/>
      </g>
      <g id="Grupo_1383" data-name="Grupo 1383" transform="translate(170.08 -27.89)">
        <path id="Caminho_1385" data-name="Caminho 1385" d="M0,0-49.285,38.085" fill="none" stroke="#f6b1a8" stroke-width="0.861"/>
      </g>
      <g id="Grupo_1384" data-name="Grupo 1384" transform="translate(174.671 -27.89)">
        <path id="Caminho_1386" data-name="Caminho 1386" d="M0,0-49.285,38.085" fill="none" stroke="#f6b1a8" stroke-width="0.861"/>
      </g>
      <g id="Grupo_1385" data-name="Grupo 1385" transform="translate(151.716 -27.89)">
        <path id="Caminho_1387" data-name="Caminho 1387" d="M0,0-49.285,38.085" fill="none" stroke="#f6b1a8" stroke-width="0.861"/>
      </g>
      <g id="Grupo_1386" data-name="Grupo 1386" transform="translate(36.694 -27.89)">
        <path id="Caminho_1388" data-name="Caminho 1388" d="M0,0-49.285,38.085" fill="none" stroke="#f6b1a8" stroke-width="0.861"/>
      </g>
      <g id="Grupo_1387" data-name="Grupo 1387" transform="translate(193.258 -27.89)">
        <path id="Caminho_1389" data-name="Caminho 1389" d="M0,0-49.285,38.085" fill="none" stroke="#f6b1a8" stroke-width="0.861"/>
      </g>
      <g id="Grupo_1388" data-name="Grupo 1388" transform="translate(82.603 -27.89)">
        <path id="Caminho_1390" data-name="Caminho 1390" d="M0,0-49.285,38.085" fill="none" stroke="#f6b1a8" stroke-width="0.861"/>
      </g>
      <g id="Grupo_1389" data-name="Grupo 1389" transform="translate(59.649 -27.89)">
        <path id="Caminho_1391" data-name="Caminho 1391" d="M0,0-49.285,38.085" fill="none" stroke="#f6b1a8" stroke-width="0.861"/>
      </g>
      <g id="Grupo_1390" data-name="Grupo 1390" transform="translate(216.212 -27.89)">
        <path id="Caminho_1392" data-name="Caminho 1392" d="M0,0-49.285,38.085" fill="none" stroke="#f6b1a8" stroke-width="0.861"/>
      </g>
      <g id="Grupo_1391" data-name="Grupo 1391" transform="translate(41.285 -27.89)">
        <path id="Caminho_1393" data-name="Caminho 1393" d="M0,0-49.285,38.085" fill="none" stroke="#f6b1a8" stroke-width="0.861"/>
      </g>
      <g id="Grupo_1392" data-name="Grupo 1392" transform="translate(197.849 -27.89)">
        <path id="Caminho_1394" data-name="Caminho 1394" d="M0,0-49.285,38.085" fill="none" stroke="#f6b1a8" stroke-width="0.861"/>
      </g>
      <g id="Grupo_1393" data-name="Grupo 1393" transform="translate(87.194 -27.89)">
        <path id="Caminho_1395" data-name="Caminho 1395" d="M0,0-49.285,38.085" fill="none" stroke="#f6b1a8" stroke-width="0.861"/>
      </g>
      <g id="Grupo_1394" data-name="Grupo 1394" transform="translate(64.24 -27.89)">
        <path id="Caminho_1396" data-name="Caminho 1396" d="M0,0-49.285,38.085" fill="none" stroke="#f6b1a8" stroke-width="0.861"/>
      </g>
    </g>
  </g>
</svg>
