<svg xmlns="http://www.w3.org/2000/svg" xmlns:xlink="http://www.w3.org/1999/xlink" width="42" height="43" viewBox="0 0 42 43">
  <defs>
    <clipPath id="clip-path">
      <rect id="Retângulo_22" data-name="Retângulo 22" width="42" height="43" transform="translate(62 100)" fill="none"/>
    </clipPath>
    <clipPath id="clip-path-2">
      <path id="Caminho_1807" data-name="Caminho 1807" d="M0,0H207.18V-41.669H0Z" fill="none"/>
    </clipPath>
    <clipPath id="clip-path-3">
      <path id="Caminho_1838" data-name="Caminho 1838" d="M0-35.887V-2.834H81.779a5.67,5.67,0,0,0,5.67-5.67h0V-35.887Z" fill="none"/>
    </clipPath>
  </defs>
  <g id="bg_atividades_ti2" transform="translate(-62 -100)" clip-path="url(#clip-path)">
    <g id="bg_atividades_ti" transform="translate(33 142.338)">
      <g id="Grupo_1741" data-name="Grupo 1741" clip-path="url(#clip-path-2)">
        <g id="Grupo_1740" data-name="Grupo 1740" transform="translate(0 -35.887)">
          <path id="Caminho_1806" data-name="Caminho 1806" d="M0,0V33.052H81.78a5.669,5.669,0,0,0,5.669-5.669V0Z" fill="#fff"/>
        </g>
      </g>
      <g id="Grupo_1772" data-name="Grupo 1772" clip-path="url(#clip-path-3)">
        <g id="Grupo_1742" data-name="Grupo 1742" transform="translate(131.598 -38.974)">
          <path id="Caminho_1808" data-name="Caminho 1808" d="M0,0-49.874,38.6" fill="none" stroke="#7390cb" stroke-width="0.844"/>
        </g>
        <g id="Grupo_1743" data-name="Grupo 1743" transform="translate(136.234 -38.974)">
          <path id="Caminho_1809" data-name="Caminho 1809" d="M0,0-49.874,38.6" fill="none" stroke="#7390cb" stroke-width="0.844"/>
        </g>
        <g id="Grupo_1744" data-name="Grupo 1744" transform="translate(1.758 -38.974)">
          <path id="Caminho_1810" data-name="Caminho 1810" d="M0,0-49.874,38.6" fill="none" stroke="#7390cb" stroke-width="0.844"/>
        </g>
        <g id="Grupo_1745" data-name="Grupo 1745" transform="translate(6.394 -38.974)">
          <path id="Caminho_1811" data-name="Caminho 1811" d="M0,0-49.874,38.6" fill="none" stroke="#7390cb" stroke-width="0.844"/>
        </g>
        <g id="Grupo_1746" data-name="Grupo 1746" transform="translate(11.03 -38.974)">
          <path id="Caminho_1812" data-name="Caminho 1812" d="M0,0-49.874,38.6" fill="none" stroke="#7390cb" stroke-width="0.844"/>
        </g>
        <g id="Grupo_1747" data-name="Grupo 1747" transform="translate(15.666 -38.974)">
          <path id="Caminho_1813" data-name="Caminho 1813" d="M0,0-49.874,38.6" fill="none" stroke="#7390cb" stroke-width="0.844"/>
        </g>
        <g id="Grupo_1748" data-name="Grupo 1748" transform="translate(20.301 -38.974)">
          <path id="Caminho_1814" data-name="Caminho 1814" d="M0,0-49.874,38.6" fill="none" stroke="#7390cb" stroke-width="0.844"/>
        </g>
        <g id="Grupo_1749" data-name="Grupo 1749" transform="translate(24.937 -38.974)">
          <path id="Caminho_1815" data-name="Caminho 1815" d="M0,0-49.874,38.6" fill="none" stroke="#7390cb" stroke-width="0.844"/>
        </g>
        <g id="Grupo_1750" data-name="Grupo 1750" transform="translate(29.573 -38.974)">
          <path id="Caminho_1816" data-name="Caminho 1816" d="M0,0-49.874,38.6" fill="none" stroke="#7390cb" stroke-width="0.844"/>
        </g>
        <g id="Grupo_1751" data-name="Grupo 1751" transform="translate(38.844 -38.974)">
          <path id="Caminho_1817" data-name="Caminho 1817" d="M0,0-49.874,38.6" fill="none" stroke="#7390cb" stroke-width="0.844"/>
        </g>
        <g id="Grupo_1752" data-name="Grupo 1752" transform="translate(48.116 -38.974)">
          <path id="Caminho_1818" data-name="Caminho 1818" d="M0,0-49.874,38.6" fill="none" stroke="#7390cb" stroke-width="0.844"/>
        </g>
        <g id="Grupo_1753" data-name="Grupo 1753" transform="translate(34.208 -38.974)">
          <path id="Caminho_1819" data-name="Caminho 1819" d="M0,0-49.874,38.6" fill="none" stroke="#7390cb" stroke-width="0.844"/>
        </g>
        <g id="Grupo_1754" data-name="Grupo 1754" transform="translate(66.659 -38.974)">
          <path id="Caminho_1820" data-name="Caminho 1820" d="M0,0-49.874,38.6" fill="none" stroke="#7390cb" stroke-width="0.844"/>
        </g>
        <g id="Grupo_1755" data-name="Grupo 1755" transform="translate(52.751 -38.974)">
          <path id="Caminho_1821" data-name="Caminho 1821" d="M0,0-49.874,38.6" fill="none" stroke="#7390cb" stroke-width="0.844"/>
        </g>
        <g id="Grupo_1756" data-name="Grupo 1756" transform="translate(57.387 -38.974)">
          <path id="Caminho_1822" data-name="Caminho 1822" d="M0,0-49.874,38.6" fill="none" stroke="#7390cb" stroke-width="0.844"/>
        </g>
        <g id="Grupo_1757" data-name="Grupo 1757" transform="translate(43.48 -38.974)">
          <path id="Caminho_1823" data-name="Caminho 1823" d="M0,0-49.874,38.6" fill="none" stroke="#7390cb" stroke-width="0.844"/>
        </g>
        <g id="Grupo_1758" data-name="Grupo 1758" transform="translate(75.93 -38.974)">
          <path id="Caminho_1824" data-name="Caminho 1824" d="M0,0-49.874,38.6" fill="none" stroke="#7390cb" stroke-width="0.844"/>
        </g>
        <g id="Grupo_1759" data-name="Grupo 1759" transform="translate(62.023 -38.974)">
          <path id="Caminho_1825" data-name="Caminho 1825" d="M0,0-49.874,38.6" fill="none" stroke="#7390cb" stroke-width="0.844"/>
        </g>
        <g id="Grupo_1760" data-name="Grupo 1760" transform="translate(103.745 -38.974)">
          <path id="Caminho_1826" data-name="Caminho 1826" d="M0,0-49.874,38.6" fill="none" stroke="#7390cb" stroke-width="0.844"/>
        </g>
        <g id="Grupo_1761" data-name="Grupo 1761" transform="translate(89.837 -38.974)">
          <path id="Caminho_1827" data-name="Caminho 1827" d="M0,0-49.874,38.6" fill="none" stroke="#7390cb" stroke-width="0.844"/>
        </g>
        <g id="Grupo_1762" data-name="Grupo 1762" transform="translate(85.202 -38.974)">
          <path id="Caminho_1828" data-name="Caminho 1828" d="M0,0-49.874,38.6" fill="none" stroke="#7390cb" stroke-width="0.844"/>
        </g>
        <g id="Grupo_1763" data-name="Grupo 1763" transform="translate(71.294 -38.974)">
          <path id="Caminho_1829" data-name="Caminho 1829" d="M0,0-49.874,38.6" fill="none" stroke="#7390cb" stroke-width="0.844"/>
        </g>
        <g id="Grupo_1764" data-name="Grupo 1764" transform="translate(94.473 -38.974)">
          <path id="Caminho_1830" data-name="Caminho 1830" d="M0,0-49.874,38.6" fill="none" stroke="#7390cb" stroke-width="0.844"/>
        </g>
        <g id="Grupo_1765" data-name="Grupo 1765" transform="translate(80.566 -38.974)">
          <path id="Caminho_1831" data-name="Caminho 1831" d="M0,0-49.874,38.6" fill="none" stroke="#7390cb" stroke-width="0.844"/>
        </g>
        <g id="Grupo_1766" data-name="Grupo 1766" transform="translate(108.38 -38.974)">
          <path id="Caminho_1832" data-name="Caminho 1832" d="M0,0-49.874,38.6" fill="none" stroke="#7390cb" stroke-width="0.844"/>
        </g>
        <g id="Grupo_1767" data-name="Grupo 1767" transform="translate(113.016 -38.974)">
          <path id="Caminho_1833" data-name="Caminho 1833" d="M0,0-49.874,38.6" fill="none" stroke="#7390cb" stroke-width="0.844"/>
        </g>
        <g id="Grupo_1768" data-name="Grupo 1768" transform="translate(117.652 -38.974)">
          <path id="Caminho_1834" data-name="Caminho 1834" d="M0,0-49.874,38.6" fill="none" stroke="#7390cb" stroke-width="0.844"/>
        </g>
        <g id="Grupo_1769" data-name="Grupo 1769" transform="translate(122.287 -38.974)">
          <path id="Caminho_1835" data-name="Caminho 1835" d="M0,0-49.874,38.6" fill="none" stroke="#7390cb" stroke-width="0.844"/>
        </g>
        <g id="Grupo_1770" data-name="Grupo 1770" transform="translate(126.923 -38.974)">
          <path id="Caminho_1836" data-name="Caminho 1836" d="M0,0-49.874,38.6" fill="none" stroke="#7390cb" stroke-width="0.844"/>
        </g>
        <g id="Grupo_1771" data-name="Grupo 1771" transform="translate(99.109 -38.974)">
          <path id="Caminho_1837" data-name="Caminho 1837" d="M0,0-49.874,38.6" fill="none" stroke="#7390cb" stroke-width="0.844"/>
        </g>
      </g>
      <g id="Grupo_1778" data-name="Grupo 1778" clip-path="url(#clip-path-2)">
        <g id="Grupo_1773" data-name="Grupo 1773" transform="translate(50.173 -36.85)">
          <path id="Caminho_1839" data-name="Caminho 1839" d="M0,0V14.2a8.5,8.5,0,0,0,8.5,8.5h140a8.5,8.5,0,0,0,8.5-8.5V8.5A8.5,8.5,0,0,0,148.5,0Z" fill="#7390cb"/>
        </g>
        <g id="Grupo_1774" data-name="Grupo 1774" transform="translate(201.228 -9.46)">
          <path id="Caminho_1840" data-name="Caminho 1840" d="M0,0V-13.217a8.5,8.5,0,0,0-8.5-8.5H-99.213V6.626h30.554a8.448,8.448,0,0,0,6.3,2.834H-8.5A8.5,8.5,0,0,0,0,.957Z" fill="#152030"/>
        </g>
        <g id="Grupo_1775" data-name="Grupo 1775" transform="translate(100.749 -31.181)">
          <path id="Caminho_1841" data-name="Caminho 1841" d="M0,0V28.347" fill="none" stroke="#fff" stroke-width="2.532"/>
        </g>
        <g id="Grupo_1776" data-name="Grupo 1776" transform="translate(79.64 -31.181)">
          <path id="Caminho_1842" data-name="Caminho 1842" d="M0,0A8.5,8.5,0,0,0-8.5,8.5V19.843a8.5,8.5,0,0,0,8.5,8.5H19.842V0Z" fill="#ff8625"/>
        </g>
        <g id="Grupo_1777" data-name="Grupo 1777" transform="translate(73.688 -16.977)">
          <path id="Caminho_1843" data-name="Caminho 1843" d="M0,0H-17.2a5.669,5.669,0,0,1-5.669-5.669v-10.4a5.669,5.669,0,0,0-5.669-5.669H-73.688" fill="none" stroke="#ff8625" stroke-width="5.909"/>
        </g>
      </g>
      <g id="Grupo_1779" data-name="Grupo 1779" transform="translate(94.883 -24.879)">
        <path id="Caminho_1845" data-name="Caminho 1845" d="M0,0V-1.41H-1.42V-2.83H-2.83v1.42H-4.25V0H-5.67V1.42h1.42V2.84h1.42V4.26h1.41V2.84H0V1.42H1.42V0ZM-2.83,0h1.41V1.42H-2.83Z" fill="#c2cbc9"/>
      </g>
      <g id="Grupo_1780" data-name="Grupo 1780" transform="translate(89.213 -16.369)">
        <path id="Caminho_1846" data-name="Caminho 1846" d="M0,0H-1.42V-1.42H0V-4.25H-2.83v1.41H-4.25V-4.25H-5.67V-5.67H-7.09v1.42H-8.5v1.41H-9.92V-4.25h-2.83v2.83h1.41V0h-1.41V1.42h-1.42V2.83h1.42V4.25h1.41V5.67h-1.41V8.5h2.83V7.09H-8.5V8.5h1.41V9.92h1.42V8.5h1.42V7.09h1.42V8.5H0V5.67H-1.42V4.25H0V2.83H1.42V1.42H0ZM-4.25,4.25V5.67H-8.5V4.25H-9.92V0H-8.5V-1.42h4.25V0h1.42V4.25Z" fill="#c2cbc9"/>
      </g>
      <g id="Grupo_1781" data-name="Grupo 1781" transform="translate(96.303 -26.289)">
        <path id="Caminho_1847" data-name="Caminho 1847" d="M0,0H-1.42V1.41H0V2.83H-1.42V4.25H1.42V0Z" fill="#152030"/>
      </g>
      <g id="Grupo_1782" data-name="Grupo 1782" transform="translate(93.463 -20.619)">
        <path id="Caminho_1848" data-name="Caminho 1848" d="M0,0H-1.41V-1.42H-2.83V0H-4.25V2.83h1.42V1.41H1.42V-1.42H0Z" fill="#152030"/>
      </g>
      <path id="Caminho_1849" data-name="Caminho 1849" d="M92.053-23.459h1.41v-1.42h-1.41Z" fill="#152030"/>
      <g id="Grupo_1783" data-name="Grupo 1783" transform="translate(90.633 -29.129)">
        <path id="Caminho_1850" data-name="Caminho 1850" d="M0,0V2.84H1.42V1.42H2.83V2.84H4.25V0Z" fill="#152030"/>
      </g>
      <g id="Grupo_1784" data-name="Grupo 1784" transform="translate(89.213 -7.869)">
        <path id="Caminho_1851" data-name="Caminho 1851" d="M0,0H1.42V-2.83H0V0Z" fill="#152030"/>
      </g>
      <g id="Grupo_1785" data-name="Grupo 1785" transform="translate(90.633 -14.949)">
        <path id="Caminho_1852" data-name="Caminho 1852" d="M0,0V1.41H-1.42V2.83H1.42V-1.42H-1.42V0Z" fill="#152030"/>
      </g>
      <path id="Caminho_1853" data-name="Caminho 1853" d="M87.793-10.7h1.42v-1.42h-1.42Z" fill="#152030"/>
      <path id="Caminho_1854" data-name="Caminho 1854" d="M87.793-16.369h1.42v-1.42h-1.42Z" fill="#152030"/>
      <g id="Grupo_1786" data-name="Grupo 1786" transform="translate(89.213 -20.619)">
        <path id="Caminho_1855" data-name="Caminho 1855" d="M0,0V-1.42H1.42V-2.84H0V-4.26H1.42V-5.67H-1.42v4.25H-2.83V0H0Z" fill="#152030"/>
      </g>
      <g id="Grupo_1787" data-name="Grupo 1787" transform="translate(86.383 -7.869)">
        <path id="Caminho_1856" data-name="Caminho 1856" d="M0,0V1.42H2.83V0H0Z" fill="#152030"/>
      </g>
      <path id="Caminho_1857" data-name="Caminho 1857" d="M84.963-7.869h1.42v-1.41h-1.42Z" fill="#152030"/>
      <g id="Grupo_1788" data-name="Grupo 1788" transform="translate(84.963 -14.949)">
        <path id="Caminho_1858" data-name="Caminho 1858" d="M0,0V2.83H1.42V-1.42H0Z" fill="#152030"/>
      </g>
      <path id="Caminho_1859" data-name="Caminho 1859" d="M86.383-20.619h-1.42v1.41h1.42Z" fill="#152030"/>
      <g id="Grupo_1789" data-name="Grupo 1789" transform="translate(83.543 -7.87)">
        <path id="Caminho_1860" data-name="Caminho 1860" d="M0,0V1.42H-1.42V0H-2.83V2.84H1.42V0Z" fill="#152030"/>
      </g>
      <g id="Grupo_1790" data-name="Grupo 1790" transform="translate(82.123 -12.119)">
        <path id="Caminho_1861" data-name="Caminho 1861" d="M0,0H-1.41V1.42H2.84V0H0Z" fill="#152030"/>
      </g>
      <g id="Grupo_1791" data-name="Grupo 1791" transform="translate(83.543 -16.369)">
        <path id="Caminho_1862" data-name="Caminho 1862" d="M0,0H1.42V-1.42H-2.83V0H0Z" fill="#152030"/>
      </g>
      <g id="Grupo_1792" data-name="Grupo 1792" transform="translate(82.123 -22.039)">
        <path id="Caminho_1863" data-name="Caminho 1863" d="M0,0H1.42V1.42H2.84V-1.42H-1.41V1.42H0Z" fill="#152030"/>
      </g>
      <path id="Caminho_1864" data-name="Caminho 1864" d="M79.293-7.869h1.42v-1.41h-1.42Z" fill="#152030"/>
      <g id="Grupo_1793" data-name="Grupo 1793" transform="translate(80.713 -14.949)">
        <path id="Caminho_1865" data-name="Caminho 1865" d="M0,0V-1.42H-1.42V2.83H0V0Z" fill="#152030"/>
      </g>
      <path id="Caminho_1866" data-name="Caminho 1866" d="M80.713-20.619h-1.42v1.41h1.42Z" fill="#152030"/>
      <g id="Grupo_1794" data-name="Grupo 1794" transform="translate(79.293 -20.619)">
        <path id="Caminho_1867" data-name="Caminho 1867" d="M0,0V-1.42H-2.83V0H0Z" fill="#152030"/>
      </g>
      <g id="Grupo_1795" data-name="Grupo 1795" transform="translate(76.463 -7.869)">
        <path id="Caminho_1868" data-name="Caminho 1868" d="M0,0V1.42H2.83V0H0Z" fill="#152030"/>
      </g>
      <path id="Caminho_1869" data-name="Caminho 1869" d="M77.873-12.119h-1.41v1.42h1.41Z" fill="#152030"/>
      <path id="Caminho_1870" data-name="Caminho 1870" d="M77.873-17.789h-1.41v1.42h1.41Z" fill="#152030"/>
      <g id="Grupo_1796" data-name="Grupo 1796" transform="translate(76.463 -10.699)">
        <path id="Caminho_1871" data-name="Caminho 1871" d="M0,0H-1.42V2.83H0V0Z" fill="#152030"/>
      </g>
      <g id="Grupo_1797" data-name="Grupo 1797" transform="translate(75.043 -16.369)">
        <path id="Caminho_1872" data-name="Caminho 1872" d="M0,0H-1.42V4.25H1.42V2.83H0V1.42H1.42V0Z" fill="#152030"/>
      </g>
      <g id="Grupo_1798" data-name="Grupo 1798" transform="translate(76.463 -20.619)">
        <path id="Caminho_1873" data-name="Caminho 1873" d="M0,0H-1.42V2.83H0V0Z" fill="#152030"/>
      </g>
    </g>
  </g>
</svg>
