<svg xmlns="http://www.w3.org/2000/svg" xmlns:xlink="http://www.w3.org/1999/xlink" width="136" height="43" viewBox="0 0 136 43">
  <defs>
    <clipPath id="clip-path">
      <rect id="Retângulo_21" data-name="Retângulo 21" width="136" height="43" transform="translate(104 100)" fill="none"/>
    </clipPath>
    <clipPath id="clip-path-2">
      <path id="Caminho_1538" data-name="Caminho 1538" d="M0,0H207.18V-41.669H0Z" fill="none"/>
    </clipPath>
    <clipPath id="clip-path-3">
      <path id="Caminho_1569" data-name="Caminho 1569" d="M0-35.887V-2.834H81.779a5.67,5.67,0,0,0,5.67-5.67h0V-35.887Z" fill="none"/>
    </clipPath>
  </defs>
  <g id="bg_atividades_ti" transform="translate(-104 -100)" clip-path="url(#clip-path)">
    <g id="bg_atividades_ti-2" data-name="bg_atividades_ti" transform="translate(33 142.338)">
      <g id="Grupo_1545" data-name="Grupo 1545" clip-path="url(#clip-path-2)">
        <g id="Grupo_1544" data-name="Grupo 1544" transform="translate(0 -35.887)">
          <path id="Caminho_1537" data-name="Caminho 1537" d="M0,0V33.052H81.78a5.669,5.669,0,0,0,5.669-5.669V0Z" fill="#fff"/>
        </g>
      </g>
      <g id="Grupo_1576" data-name="Grupo 1576" clip-path="url(#clip-path-3)">
        <g id="Grupo_1546" data-name="Grupo 1546" transform="translate(131.598 -38.974)">
          <path id="Caminho_1539" data-name="Caminho 1539" d="M0,0-49.874,38.6" fill="none" stroke="#7390cb" stroke-width="0.844"/>
        </g>
        <g id="Grupo_1547" data-name="Grupo 1547" transform="translate(136.234 -38.974)">
          <path id="Caminho_1540" data-name="Caminho 1540" d="M0,0-49.874,38.6" fill="none" stroke="#7390cb" stroke-width="0.844"/>
        </g>
        <g id="Grupo_1548" data-name="Grupo 1548" transform="translate(1.758 -38.974)">
          <path id="Caminho_1541" data-name="Caminho 1541" d="M0,0-49.874,38.6" fill="none" stroke="#7390cb" stroke-width="0.844"/>
        </g>
        <g id="Grupo_1549" data-name="Grupo 1549" transform="translate(6.394 -38.974)">
          <path id="Caminho_1542" data-name="Caminho 1542" d="M0,0-49.874,38.6" fill="none" stroke="#7390cb" stroke-width="0.844"/>
        </g>
        <g id="Grupo_1550" data-name="Grupo 1550" transform="translate(11.03 -38.974)">
          <path id="Caminho_1543" data-name="Caminho 1543" d="M0,0-49.874,38.6" fill="none" stroke="#7390cb" stroke-width="0.844"/>
        </g>
        <g id="Grupo_1551" data-name="Grupo 1551" transform="translate(15.666 -38.974)">
          <path id="Caminho_1544" data-name="Caminho 1544" d="M0,0-49.874,38.6" fill="none" stroke="#7390cb" stroke-width="0.844"/>
        </g>
        <g id="Grupo_1552" data-name="Grupo 1552" transform="translate(20.301 -38.974)">
          <path id="Caminho_1545" data-name="Caminho 1545" d="M0,0-49.874,38.6" fill="none" stroke="#7390cb" stroke-width="0.844"/>
        </g>
        <g id="Grupo_1553" data-name="Grupo 1553" transform="translate(24.937 -38.974)">
          <path id="Caminho_1546" data-name="Caminho 1546" d="M0,0-49.874,38.6" fill="none" stroke="#7390cb" stroke-width="0.844"/>
        </g>
        <g id="Grupo_1554" data-name="Grupo 1554" transform="translate(29.573 -38.974)">
          <path id="Caminho_1547" data-name="Caminho 1547" d="M0,0-49.874,38.6" fill="none" stroke="#7390cb" stroke-width="0.844"/>
        </g>
        <g id="Grupo_1555" data-name="Grupo 1555" transform="translate(38.844 -38.974)">
          <path id="Caminho_1548" data-name="Caminho 1548" d="M0,0-49.874,38.6" fill="none" stroke="#7390cb" stroke-width="0.844"/>
        </g>
        <g id="Grupo_1556" data-name="Grupo 1556" transform="translate(48.116 -38.974)">
          <path id="Caminho_1549" data-name="Caminho 1549" d="M0,0-49.874,38.6" fill="none" stroke="#7390cb" stroke-width="0.844"/>
        </g>
        <g id="Grupo_1557" data-name="Grupo 1557" transform="translate(34.208 -38.974)">
          <path id="Caminho_1550" data-name="Caminho 1550" d="M0,0-49.874,38.6" fill="none" stroke="#7390cb" stroke-width="0.844"/>
        </g>
        <g id="Grupo_1558" data-name="Grupo 1558" transform="translate(66.659 -38.974)">
          <path id="Caminho_1551" data-name="Caminho 1551" d="M0,0-49.874,38.6" fill="none" stroke="#7390cb" stroke-width="0.844"/>
        </g>
        <g id="Grupo_1559" data-name="Grupo 1559" transform="translate(52.751 -38.974)">
          <path id="Caminho_1552" data-name="Caminho 1552" d="M0,0-49.874,38.6" fill="none" stroke="#7390cb" stroke-width="0.844"/>
        </g>
        <g id="Grupo_1560" data-name="Grupo 1560" transform="translate(57.387 -38.974)">
          <path id="Caminho_1553" data-name="Caminho 1553" d="M0,0-49.874,38.6" fill="none" stroke="#7390cb" stroke-width="0.844"/>
        </g>
        <g id="Grupo_1561" data-name="Grupo 1561" transform="translate(43.48 -38.974)">
          <path id="Caminho_1554" data-name="Caminho 1554" d="M0,0-49.874,38.6" fill="none" stroke="#7390cb" stroke-width="0.844"/>
        </g>
        <g id="Grupo_1562" data-name="Grupo 1562" transform="translate(75.93 -38.974)">
          <path id="Caminho_1555" data-name="Caminho 1555" d="M0,0-49.874,38.6" fill="none" stroke="#7390cb" stroke-width="0.844"/>
        </g>
        <g id="Grupo_1563" data-name="Grupo 1563" transform="translate(62.023 -38.974)">
          <path id="Caminho_1556" data-name="Caminho 1556" d="M0,0-49.874,38.6" fill="none" stroke="#7390cb" stroke-width="0.844"/>
        </g>
        <g id="Grupo_1564" data-name="Grupo 1564" transform="translate(103.745 -38.974)">
          <path id="Caminho_1557" data-name="Caminho 1557" d="M0,0-49.874,38.6" fill="none" stroke="#7390cb" stroke-width="0.844"/>
        </g>
        <g id="Grupo_1565" data-name="Grupo 1565" transform="translate(89.837 -38.974)">
          <path id="Caminho_1558" data-name="Caminho 1558" d="M0,0-49.874,38.6" fill="none" stroke="#7390cb" stroke-width="0.844"/>
        </g>
        <g id="Grupo_1566" data-name="Grupo 1566" transform="translate(85.202 -38.974)">
          <path id="Caminho_1559" data-name="Caminho 1559" d="M0,0-49.874,38.6" fill="none" stroke="#7390cb" stroke-width="0.844"/>
        </g>
        <g id="Grupo_1567" data-name="Grupo 1567" transform="translate(71.294 -38.974)">
          <path id="Caminho_1560" data-name="Caminho 1560" d="M0,0-49.874,38.6" fill="none" stroke="#7390cb" stroke-width="0.844"/>
        </g>
        <g id="Grupo_1568" data-name="Grupo 1568" transform="translate(94.473 -38.974)">
          <path id="Caminho_1561" data-name="Caminho 1561" d="M0,0-49.874,38.6" fill="none" stroke="#7390cb" stroke-width="0.844"/>
        </g>
        <g id="Grupo_1569" data-name="Grupo 1569" transform="translate(80.566 -38.974)">
          <path id="Caminho_1562" data-name="Caminho 1562" d="M0,0-49.874,38.6" fill="none" stroke="#7390cb" stroke-width="0.844"/>
        </g>
        <g id="Grupo_1570" data-name="Grupo 1570" transform="translate(108.38 -38.974)">
          <path id="Caminho_1563" data-name="Caminho 1563" d="M0,0-49.874,38.6" fill="none" stroke="#7390cb" stroke-width="0.844"/>
        </g>
        <g id="Grupo_1571" data-name="Grupo 1571" transform="translate(113.016 -38.974)">
          <path id="Caminho_1564" data-name="Caminho 1564" d="M0,0-49.874,38.6" fill="none" stroke="#7390cb" stroke-width="0.844"/>
        </g>
        <g id="Grupo_1572" data-name="Grupo 1572" transform="translate(117.652 -38.974)">
          <path id="Caminho_1565" data-name="Caminho 1565" d="M0,0-49.874,38.6" fill="none" stroke="#7390cb" stroke-width="0.844"/>
        </g>
        <g id="Grupo_1573" data-name="Grupo 1573" transform="translate(122.287 -38.974)">
          <path id="Caminho_1566" data-name="Caminho 1566" d="M0,0-49.874,38.6" fill="none" stroke="#7390cb" stroke-width="0.844"/>
        </g>
        <g id="Grupo_1574" data-name="Grupo 1574" transform="translate(126.923 -38.974)">
          <path id="Caminho_1567" data-name="Caminho 1567" d="M0,0-49.874,38.6" fill="none" stroke="#7390cb" stroke-width="0.844"/>
        </g>
        <g id="Grupo_1575" data-name="Grupo 1575" transform="translate(99.109 -38.974)">
          <path id="Caminho_1568" data-name="Caminho 1568" d="M0,0-49.874,38.6" fill="none" stroke="#7390cb" stroke-width="0.844"/>
        </g>
      </g>
      <g id="Grupo_1582" data-name="Grupo 1582" clip-path="url(#clip-path-2)">
        <g id="Grupo_1577" data-name="Grupo 1577" transform="translate(50.173 -36.85)">
          <path id="Caminho_1570" data-name="Caminho 1570" d="M0,0V14.2a8.5,8.5,0,0,0,8.5,8.5h140a8.5,8.5,0,0,0,8.5-8.5V8.5A8.5,8.5,0,0,0,148.5,0Z" fill="#7390cb"/>
        </g>
        <g id="Grupo_1578" data-name="Grupo 1578" transform="translate(201.228 -9.46)">
          <path id="Caminho_1571" data-name="Caminho 1571" d="M0,0V-13.217a8.5,8.5,0,0,0-8.5-8.5H-99.213V6.626h30.554a8.448,8.448,0,0,0,6.3,2.834H-8.5A8.5,8.5,0,0,0,0,.957Z" fill="#152030"/>
        </g>
        <g id="Grupo_1579" data-name="Grupo 1579" transform="translate(100.749 -31.181)">
          <path id="Caminho_1572" data-name="Caminho 1572" d="M0,0V28.347" fill="none" stroke="#fff" stroke-width="2.532"/>
        </g>
        <g id="Grupo_1580" data-name="Grupo 1580" transform="translate(79.64 -31.181)">
          <path id="Caminho_1573" data-name="Caminho 1573" d="M0,0A8.5,8.5,0,0,0-8.5,8.5V19.843a8.5,8.5,0,0,0,8.5,8.5H19.842V0Z" fill="#ff8625"/>
        </g>
        <g id="Grupo_1581" data-name="Grupo 1581" transform="translate(73.688 -16.977)">
          <path id="Caminho_1574" data-name="Caminho 1574" d="M0,0H-17.2a5.669,5.669,0,0,1-5.669-5.669v-10.4a5.669,5.669,0,0,0-5.669-5.669H-73.688" fill="none" stroke="#ff8625" stroke-width="5.909"/>
        </g>
      </g>
      <g id="Grupo_1583" data-name="Grupo 1583" transform="translate(94.883 -24.879)">
        <path id="Caminho_1576" data-name="Caminho 1576" d="M0,0V-1.41H-1.42V-2.83H-2.83v1.42H-4.25V0H-5.67V1.42h1.42V2.84h1.42V4.26h1.41V2.84H0V1.42H1.42V0ZM-2.83,0h1.41V1.42H-2.83Z" fill="#c2cbc9"/>
      </g>
      <g id="Grupo_1584" data-name="Grupo 1584" transform="translate(89.213 -16.369)">
        <path id="Caminho_1577" data-name="Caminho 1577" d="M0,0H-1.42V-1.42H0V-4.25H-2.83v1.41H-4.25V-4.25H-5.67V-5.67H-7.09v1.42H-8.5v1.41H-9.92V-4.25h-2.83v2.83h1.41V0h-1.41V1.42h-1.42V2.83h1.42V4.25h1.41V5.67h-1.41V8.5h2.83V7.09H-8.5V8.5h1.41V9.92h1.42V8.5h1.42V7.09h1.42V8.5H0V5.67H-1.42V4.25H0V2.83H1.42V1.42H0ZM-4.25,4.25V5.67H-8.5V4.25H-9.92V0H-8.5V-1.42h4.25V0h1.42V4.25Z" fill="#c2cbc9"/>
      </g>
      <g id="Grupo_1585" data-name="Grupo 1585" transform="translate(96.303 -26.289)">
        <path id="Caminho_1578" data-name="Caminho 1578" d="M0,0H-1.42V1.41H0V2.83H-1.42V4.25H1.42V0Z" fill="#152030"/>
      </g>
      <g id="Grupo_1586" data-name="Grupo 1586" transform="translate(93.463 -20.619)">
        <path id="Caminho_1579" data-name="Caminho 1579" d="M0,0H-1.41V-1.42H-2.83V0H-4.25V2.83h1.42V1.41H1.42V-1.42H0Z" fill="#152030"/>
      </g>
      <path id="Caminho_1580" data-name="Caminho 1580" d="M92.053-23.459h1.41v-1.42h-1.41Z" fill="#152030"/>
      <g id="Grupo_1587" data-name="Grupo 1587" transform="translate(90.633 -29.129)">
        <path id="Caminho_1581" data-name="Caminho 1581" d="M0,0V2.84H1.42V1.42H2.83V2.84H4.25V0Z" fill="#152030"/>
      </g>
      <g id="Grupo_1588" data-name="Grupo 1588" transform="translate(89.213 -7.869)">
        <path id="Caminho_1582" data-name="Caminho 1582" d="M0,0H1.42V-2.83H0V0Z" fill="#152030"/>
      </g>
      <g id="Grupo_1589" data-name="Grupo 1589" transform="translate(90.633 -14.949)">
        <path id="Caminho_1583" data-name="Caminho 1583" d="M0,0V1.41H-1.42V2.83H1.42V-1.42H-1.42V0Z" fill="#152030"/>
      </g>
      <path id="Caminho_1584" data-name="Caminho 1584" d="M87.793-10.7h1.42v-1.42h-1.42Z" fill="#152030"/>
      <path id="Caminho_1585" data-name="Caminho 1585" d="M87.793-16.369h1.42v-1.42h-1.42Z" fill="#152030"/>
      <g id="Grupo_1590" data-name="Grupo 1590" transform="translate(89.213 -20.619)">
        <path id="Caminho_1586" data-name="Caminho 1586" d="M0,0V-1.42H1.42V-2.84H0V-4.26H1.42V-5.67H-1.42v4.25H-2.83V0H0Z" fill="#152030"/>
      </g>
      <g id="Grupo_1591" data-name="Grupo 1591" transform="translate(86.383 -7.869)">
        <path id="Caminho_1587" data-name="Caminho 1587" d="M0,0V1.42H2.83V0H0Z" fill="#152030"/>
      </g>
      <path id="Caminho_1588" data-name="Caminho 1588" d="M84.963-7.869h1.42v-1.41h-1.42Z" fill="#152030"/>
      <g id="Grupo_1592" data-name="Grupo 1592" transform="translate(84.963 -14.949)">
        <path id="Caminho_1589" data-name="Caminho 1589" d="M0,0V2.83H1.42V-1.42H0Z" fill="#152030"/>
      </g>
      <path id="Caminho_1590" data-name="Caminho 1590" d="M86.383-20.619h-1.42v1.41h1.42Z" fill="#152030"/>
      <g id="Grupo_1593" data-name="Grupo 1593" transform="translate(83.543 -7.87)">
        <path id="Caminho_1591" data-name="Caminho 1591" d="M0,0V1.42H-1.42V0H-2.83V2.84H1.42V0Z" fill="#152030"/>
      </g>
      <g id="Grupo_1594" data-name="Grupo 1594" transform="translate(82.123 -12.119)">
        <path id="Caminho_1592" data-name="Caminho 1592" d="M0,0H-1.41V1.42H2.84V0H0Z" fill="#152030"/>
      </g>
      <g id="Grupo_1595" data-name="Grupo 1595" transform="translate(83.543 -16.369)">
        <path id="Caminho_1593" data-name="Caminho 1593" d="M0,0H1.42V-1.42H-2.83V0H0Z" fill="#152030"/>
      </g>
      <g id="Grupo_1596" data-name="Grupo 1596" transform="translate(82.123 -22.039)">
        <path id="Caminho_1594" data-name="Caminho 1594" d="M0,0H1.42V1.42H2.84V-1.42H-1.41V1.42H0Z" fill="#152030"/>
      </g>
      <path id="Caminho_1595" data-name="Caminho 1595" d="M79.293-7.869h1.42v-1.41h-1.42Z" fill="#152030"/>
      <g id="Grupo_1597" data-name="Grupo 1597" transform="translate(80.713 -14.949)">
        <path id="Caminho_1596" data-name="Caminho 1596" d="M0,0V-1.42H-1.42V2.83H0V0Z" fill="#152030"/>
      </g>
      <path id="Caminho_1597" data-name="Caminho 1597" d="M80.713-20.619h-1.42v1.41h1.42Z" fill="#152030"/>
      <g id="Grupo_1598" data-name="Grupo 1598" transform="translate(79.293 -20.619)">
        <path id="Caminho_1598" data-name="Caminho 1598" d="M0,0V-1.42H-2.83V0H0Z" fill="#152030"/>
      </g>
      <g id="Grupo_1599" data-name="Grupo 1599" transform="translate(76.463 -7.869)">
        <path id="Caminho_1599" data-name="Caminho 1599" d="M0,0V1.42H2.83V0H0Z" fill="#152030"/>
      </g>
      <path id="Caminho_1600" data-name="Caminho 1600" d="M77.873-12.119h-1.41v1.42h1.41Z" fill="#152030"/>
      <path id="Caminho_1601" data-name="Caminho 1601" d="M77.873-17.789h-1.41v1.42h1.41Z" fill="#152030"/>
      <g id="Grupo_1600" data-name="Grupo 1600" transform="translate(76.463 -10.699)">
        <path id="Caminho_1602" data-name="Caminho 1602" d="M0,0H-1.42V2.83H0V0Z" fill="#152030"/>
      </g>
      <g id="Grupo_1601" data-name="Grupo 1601" transform="translate(75.043 -16.369)">
        <path id="Caminho_1603" data-name="Caminho 1603" d="M0,0H-1.42V4.25H1.42V2.83H0V1.42H1.42V0Z" fill="#152030"/>
      </g>
      <g id="Grupo_1602" data-name="Grupo 1602" transform="translate(76.463 -20.619)">
        <path id="Caminho_1604" data-name="Caminho 1604" d="M0,0H-1.42V2.83H0V0Z" fill="#152030"/>
      </g>
    </g>
  </g>
</svg>
