<svg xmlns="http://www.w3.org/2000/svg" xmlns:xlink="http://www.w3.org/1999/xlink" width="1190.552" height="807.374" viewBox="0 0 1190.552 807.374">
  <defs>
    <clipPath id="clip-path">
      <path id="Caminho_7474" data-name="Caminho 7474" d="M0,0H1190.552V-807.374H0Z" fill="none"/>
    </clipPath>
    <clipPath id="clip-path-2">
      <rect id="Retângulo_75" data-name="Retângulo 75" width="1259.894" height="176.15" transform="translate(-31.494 -220.76)" fill="none"/>
    </clipPath>
    <clipPath id="clip-path-3">
      <path id="Caminho_7473" data-name="Caminho 7473" d="M-31.494-44.61H1228.4V-220.76H-31.494Z" fill="none"/>
    </clipPath>
    <clipPath id="clip-path-4">
      <path id="Caminho_7534" data-name="Caminho 7534" d="M0-.5H1190.552V-807.372H0Z" fill="none"/>
    </clipPath>
    <clipPath id="clip-path-5">
      <rect id="Retângulo_76" data-name="Retângulo 76" width="191.521" height="149.732" transform="translate(149.618 -113.043)" fill="none"/>
    </clipPath>
    <clipPath id="clip-path-6">
      <path id="Caminho_7476" data-name="Caminho 7476" d="M149.618,36.689H341.139V-113.043H149.618Z" fill="none"/>
    </clipPath>
    <clipPath id="clip-path-7">
      <rect id="Retângulo_77" data-name="Retângulo 77" width="226.949" height="87.87" transform="translate(644.91 -41.933)" fill="none"/>
    </clipPath>
    <clipPath id="clip-path-8">
      <path id="Caminho_7479" data-name="Caminho 7479" d="M644.91,45.937H871.858v-87.87H644.91Z" fill="none"/>
    </clipPath>
    <clipPath id="clip-path-11">
      <rect id="Retângulo_78" data-name="Retângulo 78" width="204.418" height="259.448" transform="translate(427.091 -248.945)" fill="none"/>
    </clipPath>
    <clipPath id="clip-path-12">
      <path id="Caminho_7488" data-name="Caminho 7488" d="M427.091,10.5H631.509V-248.945H427.091Z" fill="none"/>
    </clipPath>
    <clipPath id="clip-path-15">
      <rect id="Retângulo_79" data-name="Retângulo 79" width="95.2" height="418.024" transform="translate(1142.71 -662.721)" fill="none"/>
    </clipPath>
    <clipPath id="clip-path-16">
      <path id="Caminho_7497" data-name="Caminho 7497" d="M1142.71-244.7h95.2V-662.721h-95.2Z" fill="none"/>
    </clipPath>
    <clipPath id="clip-path-19">
      <rect id="Retângulo_80" data-name="Retângulo 80" width="82.429" height="151.733" transform="translate(-17.601 -557.921)" fill="none"/>
    </clipPath>
    <clipPath id="clip-path-20">
      <path id="Caminho_7506" data-name="Caminho 7506" d="M-17.6-406.188H64.828V-557.921H-17.6Z" fill="none"/>
    </clipPath>
    <clipPath id="clip-path-22">
      <rect id="Retângulo_81" data-name="Retângulo 81" width="66.034" height="171.575" transform="translate(-22.282 -640.126)" fill="none"/>
    </clipPath>
    <clipPath id="clip-path-23">
      <path id="Caminho_7514" data-name="Caminho 7514" d="M-22.282-468.551H43.752V-640.126H-22.282Z" fill="none"/>
    </clipPath>
    <clipPath id="clip-path-25">
      <rect id="Retângulo_82" data-name="Retângulo 82" width="181.01" height="154.568" transform="translate(1046.26 -759.181)" fill="none"/>
    </clipPath>
    <clipPath id="clip-path-26">
      <path id="Caminho_7522" data-name="Caminho 7522" d="M1046.26-604.613h181.007V-759.181H1046.26Z" fill="none"/>
    </clipPath>
  </defs>
  <g id="bg_conhecapag" transform="translate(0 807.374)">
    <g id="Grupo_7431" data-name="Grupo 7431" clip-path="url(#clip-path)">
      <g id="Grupo_7425" data-name="Grupo 7425" transform="translate(0.203 6.151)">
        <path id="Caminho_7471" data-name="Caminho 7471" d="M0,0A20.441,20.441,0,0,1-19.853-20.324V-245.679A19.85,19.85,0,0,1,.006-265.521H298.6a19.851,19.851,0,0,0,19.859-19.842v-65.2A19.85,19.85,0,0,1,338.312-370.4H542.573a19.849,19.849,0,0,1,19.858,19.842V-264.1a19.851,19.851,0,0,0,19.859,19.843h459.587a19.851,19.851,0,0,0,19.858-19.843V-537.647a19.85,19.85,0,0,1,19.858-19.842h104.259a19.85,19.85,0,0,1,19.858,19.842V9.439A19.277,19.277,0,0,1,1185.858,28.8Z" fill="#bac6e4"/>
      </g>
      <g id="Grupo_7430" data-name="Grupo 7430" opacity="0.24">
        <g id="Grupo_7429" data-name="Grupo 7429">
          <g id="Grupo_7428" data-name="Grupo 7428" clip-path="url(#clip-path-2)">
            <g id="Grupo_7427" data-name="Grupo 7427" clip-path="url(#clip-path-3)">
              <g id="Grupo_7426" data-name="Grupo 7426" transform="translate(-22.487 -164.665)">
                <path id="Caminho_7472" data-name="Caminho 7472" d="M0,0H717.087A12.006,12.006,0,0,1,729.1,12V94.555a12,12,0,0,0,12.009,12h378.828a12,12,0,0,0,12.01-12V-24.594a12,12,0,0,1,12.01-12h97.921" fill="none" stroke="#fff" stroke-width="25.01"/>
              </g>
            </g>
          </g>
        </g>
      </g>
    </g>
    <g id="Grupo_7512" data-name="Grupo 7512" clip-path="url(#clip-path-4)">
      <g id="Grupo_7436" data-name="Grupo 7436" opacity="0.24">
        <g id="Grupo_7435" data-name="Grupo 7435">
          <g id="Grupo_7434" data-name="Grupo 7434" clip-path="url(#clip-path-5)">
            <g id="Grupo_7433" data-name="Grupo 7433" clip-path="url(#clip-path-6)">
              <g id="Grupo_7432" data-name="Grupo 7432" transform="translate(171.135 26.929)">
                <path id="Caminho_7475" data-name="Caminho 7475" d="M0,0V-108.472a12,12,0,0,1,12.01-12H136.477a12,12,0,0,1,12.01,12V8.761" fill="none" stroke="#fff" stroke-width="25.01"/>
              </g>
            </g>
          </g>
        </g>
      </g>
      <g id="Grupo_7448" data-name="Grupo 7448" opacity="0.48">
        <g id="Grupo_7447" data-name="Grupo 7447">
          <g id="Grupo_7446" data-name="Grupo 7446" clip-path="url(#clip-path-7)">
            <g id="Grupo_7437" data-name="Grupo 7437" transform="translate(654.918 25.808)">
              <path id="Caminho_7477" data-name="Caminho 7477" d="M0,0V-40.791" fill="none" stroke="#fff" stroke-linecap="round" stroke-linejoin="round" stroke-width="2.001" stroke-dasharray="0 3.887"/>
            </g>
            <g id="Grupo_7439" data-name="Grupo 7439" clip-path="url(#clip-path-8)">
              <g id="Grupo_7438" data-name="Grupo 7438" transform="translate(655.341 -20.711)">
                <path id="Caminho_7478" data-name="Caminho 7478" d="M0,0A17.031,17.031,0,0,1,14.692-13.117" fill="none" stroke="#fff" stroke-linecap="round" stroke-linejoin="round" stroke-width="2.001" stroke-dasharray="0 3.819"/>
              </g>
            </g>
            <g id="Grupo_7440" data-name="Grupo 7440" transform="translate(675.961 -33.933)">
              <path id="Caminho_7480" data-name="Caminho 7480" d="M0,0H166.858" fill="none" stroke="#fff" stroke-linecap="round" stroke-linejoin="round" stroke-width="2.001" stroke-dasharray="0 4.019"/>
            </g>
            <g id="Grupo_7442" data-name="Grupo 7442" clip-path="url(#clip-path-8)">
              <g id="Grupo_7441" data-name="Grupo 7441" transform="translate(848.617 -33.51)">
                <path id="Caminho_7481" data-name="Caminho 7481" d="M0,0A17.026,17.026,0,0,1,13.128,14.681" fill="none" stroke="#fff" stroke-linecap="round" stroke-linejoin="round" stroke-width="2.001" stroke-dasharray="0 3.819"/>
              </g>
            </g>
            <g id="Grupo_7443" data-name="Grupo 7443" transform="translate(861.85 -12.868)">
              <path id="Caminho_7483" data-name="Caminho 7483" d="M0,0V54.776" fill="none" stroke="#fff" stroke-linecap="round" stroke-linejoin="round" stroke-width="2.001" stroke-dasharray="0 4.059"/>
            </g>
            <g id="Grupo_7445" data-name="Grupo 7445" clip-path="url(#clip-path-8)">
              <g id="Grupo_7444" data-name="Grupo 7444" transform="translate(654.918 29.692)">
                <path id="Caminho_7484" data-name="Caminho 7484" d="M0,0H0M0-46.618H0M17.022-63.625h0m172.888,0h0m17.022,17.007h0m0,60.863h0" fill="none" stroke="#fff" stroke-linecap="round" stroke-linejoin="round" stroke-width="2.001"/>
              </g>
            </g>
          </g>
        </g>
      </g>
      <g id="Grupo_7460" data-name="Grupo 7460" opacity="0.48">
        <g id="Grupo_7459" data-name="Grupo 7459">
          <g id="Grupo_7458" data-name="Grupo 7458" clip-path="url(#clip-path-11)">
            <g id="Grupo_7449" data-name="Grupo 7449" transform="translate(621.501 -236.965)">
              <path id="Caminho_7486" data-name="Caminho 7486" d="M0,0V117.425" fill="none" stroke="#fff" stroke-linecap="round" stroke-linejoin="round" stroke-width="2.001" stroke-dasharray="0 3.982"/>
            </g>
            <g id="Grupo_7451" data-name="Grupo 7451" clip-path="url(#clip-path-12)">
              <g id="Grupo_7450" data-name="Grupo 7450" transform="translate(621.078 -113.765)">
                <path id="Caminho_7487" data-name="Caminho 7487" d="M0,0A17.028,17.028,0,0,1-14.693,13.117" fill="none" stroke="#fff" stroke-linecap="round" stroke-linejoin="round" stroke-width="2.001" stroke-dasharray="0 3.819"/>
              </g>
            </g>
            <g id="Grupo_7452" data-name="Grupo 7452" transform="translate(600.523 -100.542)">
              <path id="Caminho_7489" data-name="Caminho 7489" d="M0,0H-144.423" fill="none" stroke="#fff" stroke-linecap="round" stroke-linejoin="round" stroke-width="2.001" stroke-dasharray="0 3.956"/>
            </g>
            <g id="Grupo_7454" data-name="Grupo 7454" clip-path="url(#clip-path-12)">
              <g id="Grupo_7453" data-name="Grupo 7453" transform="translate(450.332 -100.119)">
                <path id="Caminho_7490" data-name="Caminho 7490" d="M0,0A17.026,17.026,0,0,0-13.128,14.681" fill="none" stroke="#fff" stroke-linecap="round" stroke-linejoin="round" stroke-width="2.001" stroke-dasharray="0 3.819"/>
              </g>
            </g>
            <g id="Grupo_7455" data-name="Grupo 7455" transform="translate(437.099 -79.532)">
              <path id="Caminho_7492" data-name="Caminho 7492" d="M0,0V86.035" fill="none" stroke="#fff" stroke-linecap="round" stroke-linejoin="round" stroke-width="2.001" stroke-dasharray="0 4.004"/>
            </g>
            <g id="Grupo_7457" data-name="Grupo 7457" clip-path="url(#clip-path-12)">
              <g id="Grupo_7456" data-name="Grupo 7456" transform="translate(621.501 -240.945)">
                <path id="Caminho_7493" data-name="Caminho 7493" d="M0,0H0M0,123.4H0M-17.022,140.4h0m-150.358,0h0M-184.4,157.411h0m0,92.037h0" fill="none" stroke="#fff" stroke-linecap="round" stroke-linejoin="round" stroke-width="2.001"/>
              </g>
            </g>
          </g>
        </g>
      </g>
      <g id="Grupo_7472" data-name="Grupo 7472" opacity="0.48">
        <g id="Grupo_7471" data-name="Grupo 7471">
          <g id="Grupo_7470" data-name="Grupo 7470" clip-path="url(#clip-path-15)">
            <g id="Grupo_7463" data-name="Grupo 7463" clip-path="url(#clip-path-16)">
              <g id="Grupo_7461" data-name="Grupo 7461" transform="translate(1219.672 -246.697)">
                <path id="Caminho_7495" data-name="Caminho 7495" d="M0,0H-53.619" fill="none" stroke="#7b93cc" stroke-linecap="round" stroke-linejoin="round" stroke-width="2.001" stroke-dasharray="0 3.971"/>
              </g>
              <g id="Grupo_7462" data-name="Grupo 7462" transform="translate(1159.725 -247.558)">
                <path id="Caminho_7496" data-name="Caminho 7496" d="M0,0A11.363,11.363,0,0,1-6.789-8.266" fill="none" stroke="#7b93cc" stroke-linecap="round" stroke-linejoin="round" stroke-width="2.001" stroke-dasharray="0 4.455"/>
              </g>
            </g>
            <g id="Grupo_7464" data-name="Grupo 7464" transform="translate(1152.72 -262.05)">
              <path id="Caminho_7498" data-name="Caminho 7498" d="M0,0V-379.326" fill="none" stroke="#7b93cc" stroke-linecap="round" stroke-linejoin="round" stroke-width="2.001" stroke-dasharray="0 4.016"/>
            </g>
            <g id="Grupo_7466" data-name="Grupo 7466" clip-path="url(#clip-path-16)">
              <g id="Grupo_7465" data-name="Grupo 7465" transform="translate(1153.581 -647.723)">
                <path id="Caminho_7499" data-name="Caminho 7499" d="M0,0A11.368,11.368,0,0,1,8.273-6.783" fill="none" stroke="#7b93cc" stroke-linecap="round" stroke-linejoin="round" stroke-width="2.001" stroke-dasharray="0 4.455"/>
              </g>
            </g>
            <g id="Grupo_7467" data-name="Grupo 7467" transform="translate(1168.058 -654.721)">
              <path id="Caminho_7501" data-name="Caminho 7501" d="M0,0H57.847" fill="none" stroke="#7b93cc" stroke-linecap="round" stroke-linejoin="round" stroke-width="2.001" stroke-dasharray="0 3.988"/>
            </g>
            <g id="Grupo_7469" data-name="Grupo 7469" clip-path="url(#clip-path-16)">
              <g id="Grupo_7468" data-name="Grupo 7468" transform="translate(1223.644 -246.697)">
                <path id="Caminho_7502" data-name="Caminho 7502" d="M0,0H0M-59.577,0h0M-70.924-11.339h0m0-385.347h0m11.347-11.338h0m63.832,0h0" fill="none" stroke="#7b93cc" stroke-linecap="round" stroke-linejoin="round" stroke-width="2.001"/>
              </g>
            </g>
          </g>
        </g>
      </g>
      <g id="Grupo_7483" data-name="Grupo 7483" opacity="0.48">
        <g id="Grupo_7482" data-name="Grupo 7482">
          <g id="Grupo_7481" data-name="Grupo 7481" clip-path="url(#clip-path-19)">
            <g id="Grupo_7473" data-name="Grupo 7473" transform="translate(-3.665 -549.921)">
              <path id="Caminho_7504" data-name="Caminho 7504" d="M0,0H45.173" fill="none" stroke="#7b93cc" stroke-linecap="round" stroke-linejoin="round" stroke-width="2.001" stroke-dasharray="0 3.927"/>
            </g>
            <g id="Grupo_7475" data-name="Grupo 7475" clip-path="url(#clip-path-20)">
              <g id="Grupo_7474" data-name="Grupo 7474" transform="translate(47.816 -549.06)">
                <path id="Caminho_7505" data-name="Caminho 7505" d="M0,0A11.363,11.363,0,0,1,6.789,8.266" fill="none" stroke="#7b93cc" stroke-linecap="round" stroke-linejoin="round" stroke-width="2.001" stroke-dasharray="0 4.455"/>
              </g>
            </g>
            <g id="Grupo_7476" data-name="Grupo 7476" transform="translate(54.82 -534.613)">
              <path id="Caminho_7507" data-name="Caminho 7507" d="M0,0V113.1" fill="none" stroke="#7b93cc" stroke-linecap="round" stroke-linejoin="round" stroke-width="2.001" stroke-dasharray="0 3.971"/>
            </g>
            <g id="Grupo_7480" data-name="Grupo 7480" clip-path="url(#clip-path-20)">
              <g id="Grupo_7477" data-name="Grupo 7477" transform="translate(53.959 -415.188)">
                <path id="Caminho_7508" data-name="Caminho 7508" d="M0,0A11.368,11.368,0,0,1-8.273,6.783" fill="none" stroke="#7b93cc" stroke-linecap="round" stroke-linejoin="round" stroke-width="2.001" stroke-dasharray="0 4.455"/>
              </g>
              <g id="Grupo_7478" data-name="Grupo 7478" transform="translate(39.394 -408.189)">
                <path id="Caminho_7509" data-name="Caminho 7509" d="M0,0H-42.82" fill="none" stroke="#7b93cc" stroke-linecap="round" stroke-linejoin="round" stroke-width="2.001" stroke-dasharray="0 4.077"/>
              </g>
              <g id="Grupo_7479" data-name="Grupo 7479" transform="translate(-7.593 -549.921)">
                <path id="Caminho_7510" data-name="Caminho 7510" d="M0,0H0M51.066,0h0M62.413,11.339h0m0,119.055h0M51.066,141.732h0m-48.938,0h0" fill="none" stroke="#7b93cc" stroke-linecap="round" stroke-linejoin="round" stroke-width="2.001"/>
              </g>
            </g>
          </g>
        </g>
      </g>
      <g id="Grupo_7494" data-name="Grupo 7494" opacity="0.48">
        <g id="Grupo_7493" data-name="Grupo 7493">
          <g id="Grupo_7492" data-name="Grupo 7492" clip-path="url(#clip-path-22)">
            <g id="Grupo_7484" data-name="Grupo 7484" transform="translate(1.037 -632.126)">
              <path id="Caminho_7512" data-name="Caminho 7512" d="M0,0H19.223" fill="none" stroke="#7b93cc" stroke-linecap="round" stroke-linejoin="round" stroke-width="2.001" stroke-dasharray="0 4.27"/>
            </g>
            <g id="Grupo_7486" data-name="Grupo 7486" clip-path="url(#clip-path-23)">
              <g id="Grupo_7485" data-name="Grupo 7485" transform="translate(26.74 -631.266)">
                <path id="Caminho_7513" data-name="Caminho 7513" d="M0,0A11.365,11.365,0,0,1,6.789,8.266" fill="none" stroke="#7b93cc" stroke-linecap="round" stroke-linejoin="round" stroke-width="2.001" stroke-dasharray="0 4.455"/>
              </g>
            </g>
            <g id="Grupo_7487" data-name="Grupo 7487" transform="translate(33.744 -616.818)">
              <path id="Caminho_7515" data-name="Caminho 7515" d="M0,0V132.944" fill="none" stroke="#7b93cc" stroke-linecap="round" stroke-linejoin="round" stroke-width="2.001" stroke-dasharray="0 3.971"/>
            </g>
            <g id="Grupo_7491" data-name="Grupo 7491" clip-path="url(#clip-path-23)">
              <g id="Grupo_7488" data-name="Grupo 7488" transform="translate(32.883 -477.549)">
                <path id="Caminho_7516" data-name="Caminho 7516" d="M0,0A11.364,11.364,0,0,1-8.273,6.782" fill="none" stroke="#7b93cc" stroke-linecap="round" stroke-linejoin="round" stroke-width="2.001" stroke-dasharray="0 4.455"/>
              </g>
              <g id="Grupo_7489" data-name="Grupo 7489" transform="translate(18.544 -470.551)">
                <path id="Caminho_7517" data-name="Caminho 7517" d="M0,0H-28.891" fill="none" stroke="#7b93cc" stroke-linecap="round" stroke-linejoin="round" stroke-width="2.001" stroke-dasharray="0 3.851"/>
              </g>
              <g id="Grupo_7490" data-name="Grupo 7490" transform="translate(-3.234 -632.126)">
                <path id="Caminho_7518" data-name="Caminho 7518" d="M0,0H0M25.631,0h0M36.978,11.339h0m0,138.9h0M25.631,161.575h0m-34.67,0h0" fill="none" stroke="#7b93cc" stroke-linecap="round" stroke-linejoin="round" stroke-width="2.001"/>
              </g>
            </g>
          </g>
        </g>
      </g>
      <g id="Grupo_7511" data-name="Grupo 7511" opacity="0.48">
        <g id="Grupo_7510" data-name="Grupo 7510">
          <g id="Grupo_7509" data-name="Grupo 7509" clip-path="url(#clip-path-25)">
            <g id="Grupo_7495" data-name="Grupo 7495" transform="translate(1211.146 -751.181)">
              <path id="Caminho_7520" data-name="Caminho 7520" d="M0,0H-141.541" fill="none" stroke="#7b93cc" stroke-linecap="round" stroke-linejoin="round" stroke-width="2.001" stroke-dasharray="0 3.986"/>
            </g>
            <g id="Grupo_7497" data-name="Grupo 7497" clip-path="url(#clip-path-26)">
              <g id="Grupo_7496" data-name="Grupo 7496" transform="translate(1063.268 -750.32)">
                <path id="Caminho_7521" data-name="Caminho 7521" d="M0,0A11.363,11.363,0,0,0-6.789,8.266" fill="none" stroke="#7b93cc" stroke-linecap="round" stroke-linejoin="round" stroke-width="2.001" stroke-dasharray="0 4.455"/>
              </g>
            </g>
            <g id="Grupo_7498" data-name="Grupo 7498" transform="translate(1056.264 -735.809)">
              <path id="Caminho_7523" data-name="Caminho 7523" d="M0,0V46.391" fill="none" stroke="#7b93cc" stroke-linecap="round" stroke-linejoin="round" stroke-width="2.001" stroke-dasharray="0 4.036"/>
            </g>
            <g id="Grupo_7500" data-name="Grupo 7500" clip-path="url(#clip-path-26)">
              <g id="Grupo_7499" data-name="Grupo 7499" transform="translate(1057.125 -683.062)">
                <path id="Caminho_7524" data-name="Caminho 7524" d="M0,0A11.368,11.368,0,0,0,8.273,6.783" fill="none" stroke="#7b93cc" stroke-linecap="round" stroke-linejoin="round" stroke-width="2.001" stroke-dasharray="0 4.455"/>
              </g>
            </g>
            <g id="Grupo_7501" data-name="Grupo 7501" transform="translate(1071.513 -676.063)">
              <path id="Caminho_7526" data-name="Caminho 7526" d="M0,0H40.958" fill="none" stroke="#7b93cc" stroke-linecap="round" stroke-linejoin="round" stroke-width="2.001" stroke-dasharray="0 3.9"/>
            </g>
            <g id="Grupo_7503" data-name="Grupo 7503" clip-path="url(#clip-path-26)">
              <g id="Grupo_7502" data-name="Grupo 7502" transform="translate(1118.765 -675.202)">
                <path id="Caminho_7527" data-name="Caminho 7527" d="M0,0A11.363,11.363,0,0,1,6.789,8.266" fill="none" stroke="#7b93cc" stroke-linecap="round" stroke-linejoin="round" stroke-width="2.001" stroke-dasharray="0 4.455"/>
              </g>
            </g>
            <g id="Grupo_7504" data-name="Grupo 7504" transform="translate(1125.769 -660.826)">
              <path id="Caminho_7529" data-name="Caminho 7529" d="M0,0V40.925" fill="none" stroke="#7b93cc" stroke-linecap="round" stroke-linejoin="round" stroke-width="2.001" stroke-dasharray="0 3.9"/>
            </g>
            <g id="Grupo_7508" data-name="Grupo 7508" clip-path="url(#clip-path-26)">
              <g id="Grupo_7505" data-name="Grupo 7505" transform="translate(1126.63 -613.612)">
                <path id="Caminho_7530" data-name="Caminho 7530" d="M0,0A11.368,11.368,0,0,0,8.273,6.783" fill="none" stroke="#7b93cc" stroke-linecap="round" stroke-linejoin="round" stroke-width="2.001" stroke-dasharray="0 4.455"/>
              </g>
              <g id="Grupo_7506" data-name="Grupo 7506" transform="translate(1141.124 -606.613)">
                <path id="Caminho_7531" data-name="Caminho 7531" d="M0,0H74.133" fill="none" stroke="#7b93cc" stroke-linecap="round" stroke-linejoin="round" stroke-width="2.001" stroke-dasharray="0 4.006"/>
              </g>
              <g id="Grupo_7507" data-name="Grupo 7507" transform="translate(1215.133 -751.181)">
                <path id="Caminho_7532" data-name="Caminho 7532" d="M0,0H0M-147.521,0h0m-11.348,11.339h0m0,52.44h0m11.348,11.339h0m46.809,0h0m11.348,11.339h0m0,46.772h0m11.348,11.338h0m80.144,0h0" fill="none" stroke="#7b93cc" stroke-linecap="round" stroke-linejoin="round" stroke-width="2.001"/>
              </g>
            </g>
          </g>
        </g>
      </g>
    </g>
  </g>
</svg>
