<svg xmlns="http://www.w3.org/2000/svg" xmlns:xlink="http://www.w3.org/1999/xlink" width="21.389" height="45.411" viewBox="0 0 21.389 45.411">
  <defs>
    <clipPath id="clip-path">
      <path id="Caminho_6591" data-name="Caminho 6591" d="M4.252-193.668A4.252,4.252,0,0,0,0-189.417H0v36.908a4.252,4.252,0,0,0,4.252,4.252H6.378v-17.816H21.389v-23.344a4.252,4.252,0,0,0-4.252-4.251H4.252Z" fill="none"/>
    </clipPath>
  </defs>
  <g id="bg_exptec_sumario" transform="translate(0 193.668)" clip-path="url(#clip-path)">
    <g id="Grupo_6490" data-name="Grupo 6490" transform="translate(65.479 -198.754)">
      <path id="Caminho_6564" data-name="Caminho 6564" d="M0,0-90.531,70.066" fill="none" stroke="#ff5f7e" stroke-width="0.589"/>
    </g>
    <g id="Grupo_6491" data-name="Grupo 6491" transform="translate(26.01 -198.754)">
      <path id="Caminho_6565" data-name="Caminho 6565" d="M0,0-42.464,32.863" fill="none" stroke="#ff5f7e" stroke-width="0.589"/>
    </g>
    <g id="Grupo_6492" data-name="Grupo 6492" transform="translate(6.275 -198.754)">
      <path id="Caminho_6566" data-name="Caminho 6566" d="M0,0-42.464,32.863" fill="none" stroke="#ff5f7e" stroke-width="0.589"/>
    </g>
    <g id="Grupo_6493" data-name="Grupo 6493" transform="translate(85.214 -198.754)">
      <path id="Caminho_6567" data-name="Caminho 6567" d="M0,0-42.464,32.863" fill="none" stroke="#ff5f7e" stroke-width="0.589"/>
    </g>
    <g id="Grupo_6494" data-name="Grupo 6494" transform="translate(45.745 -198.754)">
      <path id="Caminho_6568" data-name="Caminho 6568" d="M0,0-65.977,51.074" fill="none" stroke="#ff5f7e" stroke-width="0.589"/>
    </g>
    <g id="Grupo_6495" data-name="Grupo 6495" transform="translate(69.426 -198.754)">
      <path id="Caminho_6569" data-name="Caminho 6569" d="M0,0-93.769,72.617" fill="none" stroke="#ff5f7e" stroke-width="0.589"/>
    </g>
    <g id="Grupo_6496" data-name="Grupo 6496" transform="translate(29.957 -198.754)">
      <path id="Caminho_6570" data-name="Caminho 6570" d="M0,0-42.464,32.863" fill="none" stroke="#ff5f7e" stroke-width="0.589"/>
    </g>
    <g id="Grupo_6497" data-name="Grupo 6497" transform="translate(10.222 -198.754)">
      <path id="Caminho_6571" data-name="Caminho 6571" d="M0,0-42.464,32.863" fill="none" stroke="#ff5f7e" stroke-width="0.589"/>
    </g>
    <g id="Grupo_6498" data-name="Grupo 6498" transform="translate(89.161 -198.754)">
      <path id="Caminho_6572" data-name="Caminho 6572" d="M0,0-42.464,32.863" fill="none" stroke="#ff5f7e" stroke-width="0.589"/>
    </g>
    <g id="Grupo_6499" data-name="Grupo 6499" transform="translate(49.692 -198.754)">
      <path id="Caminho_6573" data-name="Caminho 6573" d="M0,0-69.924,54.192" fill="none" stroke="#ff5f7e" stroke-width="0.589"/>
    </g>
    <g id="Grupo_6500" data-name="Grupo 6500" transform="translate(73.373 -198.754)">
      <path id="Caminho_6574" data-name="Caminho 6574" d="M0,0-95.732,74.46" fill="none" stroke="#ff5f7e" stroke-width="0.589"/>
    </g>
    <g id="Grupo_6501" data-name="Grupo 6501" transform="translate(33.904 -198.754)">
      <path id="Caminho_6575" data-name="Caminho 6575" d="M0,0-42.464,32.863" fill="none" stroke="#ff5f7e" stroke-width="0.589"/>
    </g>
    <g id="Grupo_6502" data-name="Grupo 6502" transform="translate(14.169 -198.754)">
      <path id="Caminho_6576" data-name="Caminho 6576" d="M0,0-42.464,32.863" fill="none" stroke="#ff5f7e" stroke-width="0.589"/>
    </g>
    <g id="Grupo_6503" data-name="Grupo 6503" transform="translate(93.108 -198.754)">
      <path id="Caminho_6577" data-name="Caminho 6577" d="M0,0-42.464,32.863" fill="none" stroke="#ff5f7e" stroke-width="0.589"/>
    </g>
    <g id="Grupo_6504" data-name="Grupo 6504" transform="translate(97.055 -198.754)">
      <path id="Caminho_6578" data-name="Caminho 6578" d="M0,0-42.464,32.863" fill="none" stroke="#ff5f7e" stroke-width="0.589"/>
    </g>
    <g id="Grupo_6505" data-name="Grupo 6505" transform="translate(101.002 -198.754)">
      <path id="Caminho_6579" data-name="Caminho 6579" d="M0,0-42.464,32.863" fill="none" stroke="#ff5f7e" stroke-width="0.589"/>
    </g>
    <g id="Grupo_6506" data-name="Grupo 6506" transform="translate(104.949 -198.754)">
      <path id="Caminho_6580" data-name="Caminho 6580" d="M0,0-42.464,32.863" fill="none" stroke="#ff5f7e" stroke-width="0.589"/>
    </g>
    <g id="Grupo_6507" data-name="Grupo 6507" transform="translate(53.639 -198.754)">
      <path id="Caminho_6581" data-name="Caminho 6581" d="M0,0-75.855,58.728" fill="none" stroke="#ff5f7e" stroke-width="0.589"/>
    </g>
    <g id="Grupo_6508" data-name="Grupo 6508" transform="translate(77.32 -198.754)">
      <path id="Caminho_6582" data-name="Caminho 6582" d="M0,0-101.1,78.428" fill="none" stroke="#ff5f7e" stroke-width="0.589"/>
    </g>
    <g id="Grupo_6509" data-name="Grupo 6509" transform="translate(37.851 -198.754)">
      <path id="Caminho_6583" data-name="Caminho 6583" d="M0,0-42.464,32.863" fill="none" stroke="#ff5f7e" stroke-width="0.589"/>
    </g>
    <g id="Grupo_6510" data-name="Grupo 6510" transform="translate(18.116 -198.754)">
      <path id="Caminho_6584" data-name="Caminho 6584" d="M0,0-42.464,32.863" fill="none" stroke="#ff5f7e" stroke-width="0.589"/>
    </g>
    <g id="Grupo_6511" data-name="Grupo 6511" transform="translate(57.585 -198.754)">
      <path id="Caminho_6585" data-name="Caminho 6585" d="M0,0-82.778,64.113" fill="none" stroke="#ff5f7e" stroke-width="0.589"/>
    </g>
    <g id="Grupo_6512" data-name="Grupo 6512" transform="translate(2.328 -198.754)">
      <path id="Caminho_6586" data-name="Caminho 6586" d="M0,0-42.464,32.863" fill="none" stroke="#ff5f7e" stroke-width="0.589"/>
    </g>
    <g id="Grupo_6513" data-name="Grupo 6513" transform="translate(81.267 -198.754)">
      <path id="Caminho_6587" data-name="Caminho 6587" d="M0,0-107.027,83.105" fill="none" stroke="#ff5f7e" stroke-width="0.589"/>
    </g>
    <g id="Grupo_6514" data-name="Grupo 6514" transform="translate(41.798 -198.754)">
      <path id="Caminho_6588" data-name="Caminho 6588" d="M0,0-59.9,46.4" fill="none" stroke="#ff5f7e" stroke-width="0.589"/>
    </g>
    <g id="Grupo_6515" data-name="Grupo 6515" transform="translate(22.063 -198.754)">
      <path id="Caminho_6589" data-name="Caminho 6589" d="M0,0-42.464,32.863" fill="none" stroke="#ff5f7e" stroke-width="0.589"/>
    </g>
    <g id="Grupo_6516" data-name="Grupo 6516" transform="translate(61.532 -198.754)">
      <path id="Caminho_6590" data-name="Caminho 6590" d="M0,0-87.859,67.8" fill="none" stroke="#ff5f7e" stroke-width="0.589"/>
    </g>
  </g>
</svg>
