<svg xmlns="http://www.w3.org/2000/svg" width="166.847" height="52.884" viewBox="0 0 166.847 52.884">
  <g id="bg_emacao_ti" transform="translate(-224.268 -245.12)">
    <path id="Caminho_3397" data-name="Caminho 3397" d="M0,0V-25.412A13.607,13.607,0,0,0-13.606-39.019H-152.981a13.606,13.606,0,0,0-13.606,13.607V-6.2A13.605,13.605,0,0,0-152.981,7.4h71.5a13.584,13.584,0,0,0,11.407,6.2h56.466A13.606,13.606,0,0,0,0,0" transform="translate(391.115 284.398)" fill="#152030"/>
    <g id="Grupo_3326" data-name="Grupo 3326" transform="translate(237.874 245.375)">
      <path id="Caminho_3398" data-name="Caminho 3398" d="M0,0A13.606,13.606,0,0,0-13.606,13.606V32.825A13.606,13.606,0,0,0,0,46.432H32.735V0Z" fill="#1c9c9a"/>
    </g>
    <g id="Grupo_3459" data-name="Grupo 3459" transform="translate(270.019 245.12)">
      <path id="Caminho_3531" data-name="Caminho 3531" d="M0,0V48.3" fill="none" stroke="#fff" stroke-width="3.6"/>
    </g>
    <g id="Grupo_6418" data-name="Grupo 6418" transform="translate(229.469 253.12)">
      <path id="Caminho_6490" data-name="Caminho 6490" d="M23.562,17.45l.722,1.621-1.622.722-.721-1.621-.722-1.622-1.621.723.722,1.62.722,1.622-1.61.716L18.71,19.61l-.722-1.621-.721-1.621-1.622.722.722,1.621.722,1.621.721,1.621.718,1.61-1.622.722-.716-1.61-.722-1.622-1.61.718.722,1.621L15.3,25l.722,1.622.722,1.621,1.61-.718.722,1.622,1.621-.722.716,1.61,1.622-.721L24.64,28.6l1.621-.722,1.622-.721-.717-1.61,1.621-.722-.722-1.62-.722-1.622-.721-1.621L25.9,18.35l-.722-1.622Z" fill="#f17873"/>
      <path id="Caminho_6491" data-name="Caminho 6491" d="M24.993,3.243l-.722-1.621-1.621.721-1.622.722-1.609.717L17.8,4.5l-1.621.722L16.9,6.847l1.622-.722.716,1.61-1.62.721.721,1.622,1.621-.722.722,1.621-1.621.722.722,1.62L21.4,12.6l1.621-.722.717,1.61-1.621.722-1.622.721.722,1.622,1.621-.722,1.622-.721,1.609-.718,1.621-.722-.721-1.62,1.621-.723-.717-1.609L29.5,8.995l-.722-1.622-.721-1.621-.722-1.621-.717-1.61Z" fill="#7c4648"/>
      <path id="Caminho_6492" data-name="Caminho 6492" d="M11.325,7.386l1.621-.722,1.61-.716,1.621-.722L15.455,3.6l-1.621.721-1.609.717L10.6,5.765l-1.621.721L7.372,7.2l-1.621.721L4.13,8.647l-1.62.722.721,1.62-1.61.718.722,1.62.716,1.61.722,1.622.722,1.62,1.61-.716.722,1.621,1.621-.722.716,1.61,1.622-.721,1.62-.723,1.61-.717,1.622-.721-.717-1.61-1.621.721-1.61.718L10.976,15.3l1.61-.716,1.621-.722,1.621-.721,1.61-.718,1.621-.722-.722-1.62-1.621.722-1.61.716-1.621.722-1.621.722-.721-1.622,1.62-.722,1.622-.721,1.61-.717,1.62-.721L16.9,6.847l-1.621.721-1.61.718-1.621.721-1.621.722L9.7,8.108Z" fill="#f48f89"/>
      <path id="Caminho_6493" data-name="Caminho 6493" d="M26.261,27.874,24.64,28.6l-1.61.717-1.62.72.722,1.623,1.62-.722,1.61-.717,1.621-.722,1.621-.722-.722-1.621Z" fill="#06141a"/>
      <rect id="Retângulo_36" data-name="Retângulo 36" width="1.775" height="1.761" transform="translate(19.071 29.148) rotate(-24.002)" fill="#06141a"/>
      <rect id="Retângulo_37" data-name="Retângulo 37" width="1.775" height="1.762" transform="translate(27.166 25.544) rotate(-24.008)" fill="#06141a"/>
      <rect id="Retângulo_38" data-name="Retângulo 38" width="1.762" height="1.774" transform="matrix(0.913, -0.407, 0.407, 0.913, 16.74, 28.244)" fill="#06141a"/>
      <path id="Caminho_6494" data-name="Caminho 6494" d="M15.3,25l-.716-1.61-.722-1.62-1.622.721.722,1.621.717,1.61.721,1.621.722,1.621,1.621-.722-.721-1.621Z" fill="#06141a"/>
      <path id="Caminho_6495" data-name="Caminho 6495" d="M16.19,22.675l.716,1.61,1.622-.722-.717-1.61-.722-1.621-.722-1.621-.722-1.621-1.62.722-1.61.716-1.621.722-1.621.722.722,1.621,1.62-.722,1.622-.721.721,1.621,1.61-.717Z" fill="#06141a"/>
      <path id="Caminho_6496" data-name="Caminho 6496" d="M26.071,14.391l-1.609.716-1.621.722-1.621.722.722,1.621.722,1.622,1.62-.722-.722-1.621,1.622-.722.721,1.62.717,1.61.722,1.621.721,1.621.722,1.622,1.61-.717-.722-1.621-.721-1.622-.722-1.621-.718-1.609-.721-1.622,1.621-.721-.722-1.622Z" fill="#06141a"/>
      <rect id="Retângulo_39" data-name="Retângulo 39" width="1.775" height="1.774" transform="matrix(0.913, -0.407, 0.407, 0.913, 26.97, 12.047)" fill="#06141a"/>
      <rect id="Retângulo_40" data-name="Retângulo 40" width="1.775" height="1.762" transform="translate(6.834 19.083) rotate(-23.976)" fill="#06141a"/>
      <rect id="Retângulo_41" data-name="Retângulo 41" width="1.775" height="1.762" transform="translate(27.875 9.715) rotate(-23.976)" fill="#06141a"/>
      <rect id="Retângulo_42" data-name="Retângulo 42" width="1.762" height="1.774" transform="translate(4.503 18.179) rotate(-24.008)" fill="#06141a"/>
      <path id="Caminho_6497" data-name="Caminho 6497" d="M15.828,13.137l-1.621.722-1.621.721-1.61.717.722,1.621,1.61-.716,1.62-.722.718,1.609,1.62-.722.722,1.622.722,1.621.722,1.621,1.609-.717-.721-1.621L19.6,17.272l1.621-.721L20.5,14.929l1.62-.721,1.621-.722-.716-1.61L21.4,12.6l-1.622.721-.722-1.62-1.62.722Z" fill="#06141a"/>
      <rect id="Retângulo_43" data-name="Retângulo 43" width="1.774" height="1.775" transform="translate(18.337 10.077) rotate(-24.008)" fill="#06141a"/>
      <path id="Caminho_6498" data-name="Caminho 6498" d="M0,12.428l.722,1.621.717,1.61L2.16,17.28,2.883,18.9l1.62-.722-.722-1.621L3.06,14.937l-.717-1.61L1.62,11.706Z" fill="#06141a"/>
      <path id="Caminho_6499" data-name="Caminho 6499" d="M14.384,9.895l-1.621.722-1.621.721.722,1.622,1.62-.722,1.622-.722,1.61-.717,1.621-.722-.723-1.62-1.62.722Z" fill="#06141a"/>
      <rect id="Retângulo_44" data-name="Retângulo 44" width="1.775" height="1.762" transform="matrix(0.914, -0.406, 0.406, 0.914, 16.899, 6.846)" fill="#06141a"/>
      <path id="Caminho_6500" data-name="Caminho 6500" d="M26.614,2.521l.716,1.608.722,1.622.722,1.622.722,1.62,1.61-.717-.722-1.62-.722-1.621L28.94,3.413l-.717-1.608Z" fill="#06141a"/>
      <path id="Caminho_6501" data-name="Caminho 6501" d="M12.946,6.664l-1.621.722L9.7,8.107l.722,1.622,1.62-.722,1.622-.722,1.61-.717L16.9,6.846l-.723-1.62-1.62.722Z" fill="#06141a"/>
      <rect id="Retângulo_45" data-name="Retângulo 45" width="1.774" height="1.775" transform="translate(24.271 1.622) rotate(-24.008)" fill="#06141a"/>
      <rect id="Retângulo_46" data-name="Retângulo 46" width="1.762" height="1.774" transform="translate(0.899 10.085) rotate(-24.008)" fill="#06141a"/>
      <path id="Caminho_6502" data-name="Caminho 6502" d="M23.549,0,21.927.723l-1.621.722L18.7,2.161l-1.622.722-1.62.722.722,1.621L17.8,4.5l1.622-.722,1.61-.718,1.62-.721,1.622-.722Z" fill="#06141a"/>
      <path id="Caminho_6503" data-name="Caminho 6503" d="M5.751,7.925,7.372,7.2l1.61-.716L10.6,5.765l1.621-.722,1.61-.717L15.455,3.6l-.717-1.609-1.621.722-1.609.716-1.622.722-1.621.722-1.609.716-1.621.722-1.622.722-1.62.721.716,1.61L4.13,8.647Z" fill="#06141a"/>
    </g>
  </g>
</svg>
