<svg xmlns="http://www.w3.org/2000/svg" width="330.86" height="52.625" viewBox="0 0 330.86 52.625">
  <g id="bg_exptecnoligia_ti" transform="translate(-573.605 -911.413)">
    <g id="Grupo_5425" data-name="Grupo 5425" transform="translate(587.211 911.413)">
      <path id="Caminho_5251" data-name="Caminho 5251" d="M0,0A13.606,13.606,0,0,0-13.606,13.606V32.849A13.606,13.606,0,0,0,0,46.455H30.175V0Z" fill="#ff5f7e"/>
    </g>
    <g id="Grupo_5445" data-name="Grupo 5445" transform="translate(619.186 911.414)">
      <path id="Caminho_5288" data-name="Caminho 5288" d="M0,0V46.455" fill="none" stroke="#fff" stroke-width="3.6"/>
    </g>
    <g id="Grupo_5446" data-name="Grupo 5446" transform="translate(904.465 950.432)">
      <path id="Caminho_5325" data-name="Caminho 5325" d="M0,0V-25.412A13.607,13.607,0,0,0-13.606-39.019H-283.479V7.4h37.818a13.584,13.584,0,0,0,11.406,6.2H-13.606A13.606,13.606,0,0,0,0,0" fill="#152030"/>
    </g>
    <g id="Grupo_5447" data-name="Grupo 5447" transform="translate(601.875 928.261)">
      <path id="Caminho_5358" data-name="Caminho 5358" d="M0,0V4.25H1.41V0Z" fill="#ff8625"/>
    </g>
    <path id="Caminho_5543" data-name="Caminho 5543" d="M105.455-103.818h1.42v-1.42h-1.42Z" transform="translate(495 1032.079)" fill="#ff8625"/>
    <g id="Grupo_5448" data-name="Grupo 5448" transform="translate(599.035 931.102)">
      <path id="Caminho_5360" data-name="Caminho 5360" d="M0,0V1.41H1.42V-1.42H0Z" fill="#ff8625"/>
    </g>
    <g id="Grupo_5449" data-name="Grupo 5449" transform="translate(599.035 925.431)">
      <path id="Caminho_5361" data-name="Caminho 5361" d="M0,0H-2.83V1.41H1.42V0Z" fill="#ff8625"/>
    </g>
    <g id="Grupo_5450" data-name="Grupo 5450" transform="translate(597.615 928.261)">
      <path id="Caminho_5362" data-name="Caminho 5362" d="M0,0H-1.41V1.42H1.42V0Z" fill="#ff8625"/>
    </g>
    <path id="Caminho_5544" data-name="Caminho 5544" d="M101.205-99.568h1.41v-1.41h-1.41Z" transform="translate(495 1032.079)" fill="#ff8625"/>
    <path id="Caminho_5545" data-name="Caminho 5545" d="M106.875-91.058h1.41v-1.42h-1.41Z" transform="translate(495 1032.079)" fill="#85868a"/>
    <path id="Caminho_5546" data-name="Caminho 5546" d="M105.455-92.478h1.42V-93.9h-1.42Z" transform="translate(495 1032.079)" fill="#85868a"/>
    <path id="Caminho_5547" data-name="Caminho 5547" d="M104.035-91.058h1.42v-1.42h-1.42Z" transform="translate(495 1032.079)" fill="#85868a"/>
    <path id="Caminho_5548" data-name="Caminho 5548" d="M102.615-92.478h1.42V-93.9h-1.42Z" transform="translate(495 1032.079)" fill="#85868a"/>
    <path id="Caminho_5549" data-name="Caminho 5549" d="M101.205-91.058h1.41v-1.42h-1.41Z" transform="translate(495 1032.079)" fill="#85868a"/>
    <path id="Caminho_5550" data-name="Caminho 5550" d="M99.785-92.478h1.42V-93.9h-1.42Z" transform="translate(495 1032.079)" fill="#85868a"/>
    <path id="Caminho_5551" data-name="Caminho 5551" d="M98.365-91.058h1.42v-1.42h-1.42Z" transform="translate(495 1032.079)" fill="#85868a"/>
    <path id="Caminho_5552" data-name="Caminho 5552" d="M95.535-91.058h1.41v-1.42h-1.41Z" transform="translate(495 1032.079)" fill="#85868a"/>
    <path id="Caminho_5553" data-name="Caminho 5553" d="M94.115-92.478h1.42V-93.9h-1.42Z" transform="translate(495 1032.079)" fill="#85868a"/>
    <g id="Grupo_5451" data-name="Grupo 5451" transform="translate(604.705 939.602)">
      <path id="Caminho_5373" data-name="Caminho 5373" d="M0,0V-2.83H-9.92v1.41H-8.5V0h1.41V-1.42h1.42V0h1.42V-1.42h1.42V0h1.41V1.42H-2.83V0H-4.25V1.42H-5.67V0H-7.09V1.42H-8.5V0H-9.92V1.42h-1.42V0h-1.42V1.42h-1.41V0h-1.42V1.42h-1.42V2.84H1.42V0Z" fill="#d8d8da"/>
    </g>
    <path id="Caminho_5554" data-name="Caminho 5554" d="M96.945-93.9h-1.41v1.42h1.41Z" transform="translate(495 1032.079)" fill="#d8d8da"/>
    <g id="Grupo_5452" data-name="Grupo 5452" transform="translate(603.285 924.011)">
      <path id="Caminho_5375" data-name="Caminho 5375" d="M0,0H-8.5V11.34H1.42V0ZM-7.08,4.25h2.83V5.67h1.42V8.5H-4.25V5.67H-7.08Zm0,2.84h1.41V8.5H-7.08ZM0,5.67V8.5H-1.41V4.25H-2.83V2.83H-7.08V1.42h4.25V2.83h1.42V4.25H0Z" fill="#fff"/>
    </g>
    <g id="Grupo_5453" data-name="Grupo 5453" transform="translate(590.535 924.011)">
      <path id="Caminho_5376" data-name="Caminho 5376" d="M0,0H-4.25V7.09h1.41V5.67h1.42V4.25H0V2.83H1.41V1.42H2.83V0H0Z" fill="#fff"/>
    </g>
    <g id="Grupo_5454" data-name="Grupo 5454" transform="translate(604.705 943.852)">
      <path id="Caminho_5377" data-name="Caminho 5377" d="M0,0H-19.84V1.42H1.42V0Z" fill="#afb0b3"/>
    </g>
    <g id="Grupo_5455" data-name="Grupo 5455" transform="translate(591.945 926.841)">
      <path id="Caminho_5378" data-name="Caminho 5378" d="M0,0V1.42H-1.41V2.84H-2.83V4.26H-4.25V5.67H-5.66V7.09H-7.08V8.51h2.83v2.83h1.42V9.93H0v1.41H1.42V0Z" fill="#34b3e5"/>
    </g>
    <g id="Grupo_5456" data-name="Grupo 5456" transform="translate(586.285 939.602)">
      <path id="Caminho_5379" data-name="Caminho 5379" d="M0,0V1.42H1.41V-1.42H0Z" fill="#34b3e5"/>
    </g>
    <g id="Grupo_5457" data-name="Grupo 5457" transform="translate(584.866 938.181)">
      <path id="Caminho_5380" data-name="Caminho 5380" d="M0,0V1.42H-1.42V7.09H0V5.67H21.26V7.09h1.42V1.42H21.26V4.261H2.83V2.84H1.42V0Z" fill="#152030"/>
    </g>
    <g id="Grupo_5458" data-name="Grupo 5458" transform="translate(604.705 939.602)">
      <path id="Caminho_5381" data-name="Caminho 5381" d="M0,0H1.42V-2.83H0V0Z" fill="#152030"/>
    </g>
    <g id="Grupo_5459" data-name="Grupo 5459" transform="translate(604.705 926.841)">
      <path id="Caminho_5382" data-name="Caminho 5382" d="M0,0V8.51H1.42V-2.83H0V0Z" fill="#152030"/>
    </g>
    <g id="Grupo_5460" data-name="Grupo 5460" transform="translate(604.705 945.271)">
      <path id="Caminho_5383" data-name="Caminho 5383" d="M0,0H-19.84V1.42H1.42V0Z" fill="#152030"/>
    </g>
    <g id="Grupo_5461" data-name="Grupo 5461" transform="translate(591.945 938.181)">
      <path id="Caminho_5384" data-name="Caminho 5384" d="M0,0V-1.41H-2.83V0H0Z" fill="#152030"/>
    </g>
    <path id="Caminho_5555" data-name="Caminho 5555" d="M95.535-103.818h1.41v-1.42h-1.41Z" transform="translate(495 1032.079)" fill="#152030"/>
    <path id="Caminho_5556" data-name="Caminho 5556" d="M94.115-102.4h1.42v-1.42h-1.42Z" transform="translate(495 1032.079)" fill="#152030"/>
    <g id="Grupo_5462" data-name="Grupo 5462" transform="translate(589.115 939.602)">
      <path id="Caminho_5387" data-name="Caminho 5387" d="M0,0V-1.42H-1.42V1.42H0Z" fill="#152030"/>
    </g>
    <path id="Caminho_5557" data-name="Caminho 5557" d="M92.695-100.978h1.42v-1.42h-1.42Z" transform="translate(495 1032.079)" fill="#152030"/>
    <g id="Grupo_5463" data-name="Grupo 5463" transform="translate(586.286 922.591)">
      <path id="Caminho_5389" data-name="Caminho 5389" d="M0,0V1.42H7.079V2.84H5.659V4.251h1.42V15.59H5.659v1.42H8.5V14.18h9.919V12.76H8.5V1.42h9.919V0Z" fill="#152030"/>
    </g>
    <g id="Grupo_5464" data-name="Grupo 5464" transform="translate(583.445 933.931)">
      <path id="Caminho_5390" data-name="Caminho 5390" d="M0,0V2.84H2.84V4.25H4.25V1.42H1.42V0Z" fill="#152030"/>
    </g>
    <g id="Grupo_5465" data-name="Grupo 5465" transform="translate(586.285 932.511)">
      <path id="Caminho_5391" data-name="Caminho 5391" d="M0,0H1.41V-1.41H0V-8.5H-1.42V1.42H0Z" fill="#152030"/>
    </g>
  </g>
</svg>
