<svg xmlns="http://www.w3.org/2000/svg" xmlns:xlink="http://www.w3.org/1999/xlink" width="58.001" height="104.386" viewBox="0 0 58.001 104.386">
  <defs>
    <clipPath id="clip-path">
      <path id="Caminho_5802" data-name="Caminho 5802" d="M0-22.449H44.146V-80.5H0Z" fill="none"/>
    </clipPath>
  </defs>
  <g id="bg_exptecnologia2" transform="translate(-495.999 -4748.614)">
    <g id="Grupo_5863" data-name="Grupo 5863">
      <g id="Grupo_5725" data-name="Grupo 5725" transform="translate(495.999 4748.614)">
        <path id="Caminho_5103" data-name="Caminho 5103" d="M0,0V103.465H20.551a8.5,8.5,0,0,0,8.5-8.5V8.5a8.5,8.5,0,0,0-8.5-8.5Z" fill="#ff8625"/>
      </g>
      <g id="Grupo_5724" data-name="Grupo 5724" transform="translate(495.999 4852.079)" clip-path="url(#clip-path)">
        <g id="Grupo_5707" data-name="Grupo 5707" transform="translate(12.799 -80.514)">
          <path id="Caminho_5785" data-name="Caminho 5785" d="M0,0-70.9,54.87" fill="none" stroke="#ff5f7e" stroke-width="0.75"/>
        </g>
        <g id="Grupo_5708" data-name="Grupo 5708" transform="translate(45.749 -80.514)">
          <path id="Caminho_5786" data-name="Caminho 5786" d="M0,0-70.9,54.87" fill="none" stroke="#ff5f7e" stroke-width="0.75"/>
        </g>
        <g id="Grupo_5709" data-name="Grupo 5709" transform="translate(19.389 -80.514)">
          <path id="Caminho_5787" data-name="Caminho 5787" d="M0,0-70.9,54.87" fill="none" stroke="#ff5f7e" stroke-width="0.75"/>
        </g>
        <g id="Grupo_5710" data-name="Grupo 5710" transform="translate(52.339 -80.514)">
          <path id="Caminho_5788" data-name="Caminho 5788" d="M0,0-70.9,54.87" fill="none" stroke="#ff5f7e" stroke-width="0.75"/>
        </g>
        <g id="Grupo_5711" data-name="Grupo 5711" transform="translate(25.979 -80.514)">
          <path id="Caminho_5789" data-name="Caminho 5789" d="M0,0-70.9,54.87" fill="none" stroke="#ff5f7e" stroke-width="0.75"/>
        </g>
        <g id="Grupo_5712" data-name="Grupo 5712" transform="translate(58.929 -80.514)">
          <path id="Caminho_5790" data-name="Caminho 5790" d="M0,0-70.9,54.87" fill="none" stroke="#ff5f7e" stroke-width="0.75"/>
        </g>
        <g id="Grupo_5713" data-name="Grupo 5713" transform="translate(65.519 -80.514)">
          <path id="Caminho_5791" data-name="Caminho 5791" d="M0,0-70.9,54.87" fill="none" stroke="#ff5f7e" stroke-width="0.75"/>
        </g>
        <g id="Grupo_5714" data-name="Grupo 5714" transform="translate(72.108 -80.514)">
          <path id="Caminho_5792" data-name="Caminho 5792" d="M0,0-70.9,54.87" fill="none" stroke="#ff5f7e" stroke-width="0.75"/>
        </g>
        <g id="Grupo_5715" data-name="Grupo 5715" transform="translate(78.698 -80.514)">
          <path id="Caminho_5793" data-name="Caminho 5793" d="M0,0-70.9,54.87" fill="none" stroke="#ff5f7e" stroke-width="0.75"/>
        </g>
        <g id="Grupo_5716" data-name="Grupo 5716" transform="translate(85.288 -80.514)">
          <path id="Caminho_5794" data-name="Caminho 5794" d="M0,0-70.9,54.87" fill="none" stroke="#ff5f7e" stroke-width="0.75"/>
        </g>
        <g id="Grupo_5717" data-name="Grupo 5717" transform="translate(91.878 -80.514)">
          <path id="Caminho_5795" data-name="Caminho 5795" d="M0,0-70.9,54.87" fill="none" stroke="#ff5f7e" stroke-width="0.75"/>
        </g>
        <g id="Grupo_5718" data-name="Grupo 5718" transform="translate(105.058 -80.514)">
          <path id="Caminho_5796" data-name="Caminho 5796" d="M0,0-70.9,54.87" fill="none" stroke="#ff5f7e" stroke-width="0.75"/>
        </g>
        <g id="Grupo_5719" data-name="Grupo 5719" transform="translate(98.468 -80.514)">
          <path id="Caminho_5797" data-name="Caminho 5797" d="M0,0-70.9,54.87" fill="none" stroke="#ff5f7e" stroke-width="0.75"/>
        </g>
        <g id="Grupo_5720" data-name="Grupo 5720" transform="translate(111.648 -80.514)">
          <path id="Caminho_5798" data-name="Caminho 5798" d="M0,0-70.9,54.87" fill="none" stroke="#ff5f7e" stroke-width="0.75"/>
        </g>
        <g id="Grupo_5721" data-name="Grupo 5721" transform="translate(32.569 -80.514)">
          <path id="Caminho_5799" data-name="Caminho 5799" d="M0,0-70.9,54.87" fill="none" stroke="#ff5f7e" stroke-width="0.75"/>
        </g>
        <g id="Grupo_5722" data-name="Grupo 5722" transform="translate(39.159 -80.514)">
          <path id="Caminho_5800" data-name="Caminho 5800" d="M0,0-70.9,54.87" fill="none" stroke="#ff5f7e" stroke-width="0.75"/>
        </g>
        <g id="Grupo_5723" data-name="Grupo 5723" transform="translate(6.209 -80.514)">
          <path id="Caminho_5801" data-name="Caminho 5801" d="M0,0-70.9,54.87" fill="none" stroke="#ff5f7e" stroke-width="0.75"/>
        </g>
      </g>
      <g id="Grupo_5706" data-name="Grupo 5706" transform="translate(495.999 4771.966)">
        <path id="Caminho_5271" data-name="Caminho 5271" d="M0,0H36.567a10.206,10.206,0,0,1,10.2,10.2V48.861a10.2,10.2,0,0,1-10.2,10.2H0" fill="none" stroke="#ff5f7e" stroke-width="8.4"/>
      </g>
    </g>
    <rect id="Retângulo_34" data-name="Retângulo 34" width="58" height="104" transform="translate(496 4749)" fill="none"/>
  </g>
</svg>
