<svg xmlns="http://www.w3.org/2000/svg" xmlns:xlink="http://www.w3.org/1999/xlink" width="1190.551" height="85.838" viewBox="0 0 1190.551 85.838">
  <defs>
    <clipPath id="clip-path">
      <path id="Caminho_5191" data-name="Caminho 5191" d="M209.9-178.583V-142.7H75.543a3.4,3.4,0,0,0-3.4,3.4h0V-124.8a7.042,7.042,0,0,0-1.12,1.077h0s.44,3.139-3.643,4.5h0c-4.081,1.362-14.291,1.871-14.291,1.871h0a3.386,3.386,0,0,0-3.213,3.567h0s-1.884,5.448.5,9.189h0c2.382,3.742,4.423,5.783,7.824,6.124h0c3.4.339,19.39.339,19.39.339h0a7.171,7.171,0,0,0,5.309-2.816h0s8.3-18.953,12.378-18.274h0a3.084,3.084,0,0,0,2.956-1.28H985.465a3.4,3.4,0,0,0,3.4-3.4h0v-7.9a3.374,3.374,0,0,0-.287-1.361H1190.55v-45.411Z" fill="none"/>
    </clipPath>
    <clipPath id="clip-path-2">
      <path id="Caminho_5249" data-name="Caminho 5249" d="M413.32-178.583v22.162a10.2,10.2,0,0,0,10.2,10.205H524.6a10.2,10.2,0,0,0,10.2-10.205h0v-22.162Z" fill="none"/>
    </clipPath>
    <clipPath id="clip-path-3">
      <path id="Caminho_5287" data-name="Caminho 5287" d="M51.874-120.047H70.725v-19.984H51.874Z" fill="none"/>
    </clipPath>
    <clipPath id="clip-path-4">
      <path id="Caminho_5324" data-name="Caminho 5324" d="M72.482-143.377H210.8V-178.6H72.482Z" fill="none"/>
    </clipPath>
  </defs>
  <g id="bg_exptecnologia1" transform="translate(-504 -633.986)">
    <path id="Caminho_5105" data-name="Caminho 5105" d="M0-115.4H74.438v-63.184H0Z" transform="translate(504 813.079)" fill="#fff"/>
    <g id="Grupo_5024" data-name="Grupo 5024" transform="translate(1694.551 679.907)">
      <path id="Caminho_5107" data-name="Caminho 5107" d="M0,0V-45.411H-980.645V-9.524h-134.363a3.4,3.4,0,0,0-3.4,3.4V8.37a7.047,7.047,0,0,0-1.12,1.077s.439,3.139-3.642,4.5-14.291,1.871-14.291,1.871a3.386,3.386,0,0,0-3.214,3.567s-1.885,5.448.5,9.189,4.422,5.783,7.823,6.123,19.389.34,19.389.34a7.171,7.171,0,0,0,5.31-2.816s8.3-18.953,12.378-18.274a3.083,3.083,0,0,0,2.955-1.28h887.237a3.4,3.4,0,0,0,3.4-3.4V1.36A3.391,3.391,0,0,0-201.972,0Z" fill="#ffbab0"/>
    </g>
    <g id="Grupo_5108" data-name="Grupo 5108" transform="translate(504 813.079)" clip-path="url(#clip-path)">
      <g id="Grupo_5026" data-name="Grupo 5026" transform="translate(1083.541 -188.394)">
        <path id="Caminho_5109" data-name="Caminho 5109" d="M0,0-70.9,54.87" fill="none" stroke="#fff" stroke-width="0.75"/>
      </g>
      <g id="Grupo_5027" data-name="Grupo 5027" transform="translate(1215.339 -188.394)">
        <path id="Caminho_5110" data-name="Caminho 5110" d="M0,0-70.9,54.87" fill="none" stroke="#fff" stroke-width="0.75"/>
      </g>
      <g id="Grupo_5028" data-name="Grupo 5028" transform="translate(1149.44 -188.394)">
        <path id="Caminho_5111" data-name="Caminho 5111" d="M0,0-70.9,54.87" fill="none" stroke="#fff" stroke-width="0.75"/>
      </g>
      <g id="Grupo_5029" data-name="Grupo 5029" transform="translate(1116.49 -188.394)">
        <path id="Caminho_5112" data-name="Caminho 5112" d="M0,0-70.9,54.87" fill="none" stroke="#fff" stroke-width="0.75"/>
      </g>
      <g id="Grupo_5030" data-name="Grupo 5030" transform="translate(1248.289 -188.394)">
        <path id="Caminho_5113" data-name="Caminho 5113" d="M0,0-70.9,54.87" fill="none" stroke="#fff" stroke-width="0.75"/>
      </g>
      <g id="Grupo_5031" data-name="Grupo 5031" transform="translate(1182.39 -188.394)">
        <path id="Caminho_5114" data-name="Caminho 5114" d="M0,0-70.9,54.87" fill="none" stroke="#fff" stroke-width="0.75"/>
      </g>
      <g id="Grupo_5032" data-name="Grupo 5032" transform="translate(1090.13 -188.394)">
        <path id="Caminho_5115" data-name="Caminho 5115" d="M0,0-70.9,54.87" fill="none" stroke="#fff" stroke-width="0.75"/>
      </g>
      <g id="Grupo_5033" data-name="Grupo 5033" transform="translate(1221.929 -188.394)">
        <path id="Caminho_5116" data-name="Caminho 5116" d="M0,0-70.9,54.87" fill="none" stroke="#fff" stroke-width="0.75"/>
      </g>
      <g id="Grupo_5034" data-name="Grupo 5034" transform="translate(1156.03 -188.394)">
        <path id="Caminho_5117" data-name="Caminho 5117" d="M0,0-70.9,54.87" fill="none" stroke="#fff" stroke-width="0.75"/>
      </g>
      <g id="Grupo_5035" data-name="Grupo 5035" transform="translate(1123.08 -188.394)">
        <path id="Caminho_5118" data-name="Caminho 5118" d="M0,0-70.9,54.87" fill="none" stroke="#fff" stroke-width="0.75"/>
      </g>
      <g id="Grupo_5036" data-name="Grupo 5036" transform="translate(1254.879 -188.394)">
        <path id="Caminho_5119" data-name="Caminho 5119" d="M0,0-70.9,54.87" fill="none" stroke="#fff" stroke-width="0.75"/>
      </g>
      <g id="Grupo_5037" data-name="Grupo 5037" transform="translate(1188.979 -188.394)">
        <path id="Caminho_5120" data-name="Caminho 5120" d="M0,0-70.9,54.87" fill="none" stroke="#fff" stroke-width="0.75"/>
      </g>
      <g id="Grupo_5038" data-name="Grupo 5038" transform="translate(1096.72 -188.394)">
        <path id="Caminho_5121" data-name="Caminho 5121" d="M0,0-70.9,54.87" fill="none" stroke="#fff" stroke-width="0.75"/>
      </g>
      <g id="Grupo_5039" data-name="Grupo 5039" transform="translate(1228.519 -188.394)">
        <path id="Caminho_5122" data-name="Caminho 5122" d="M0,0-70.9,54.87" fill="none" stroke="#fff" stroke-width="0.75"/>
      </g>
      <g id="Grupo_5040" data-name="Grupo 5040" transform="translate(1162.62 -188.394)">
        <path id="Caminho_5123" data-name="Caminho 5123" d="M0,0-70.9,54.87" fill="none" stroke="#fff" stroke-width="0.75"/>
      </g>
      <g id="Grupo_5041" data-name="Grupo 5041" transform="translate(1129.67 -188.394)">
        <path id="Caminho_5124" data-name="Caminho 5124" d="M0,0-70.9,54.87" fill="none" stroke="#fff" stroke-width="0.75"/>
      </g>
      <g id="Grupo_5042" data-name="Grupo 5042" transform="translate(1261.469 -188.394)">
        <path id="Caminho_5125" data-name="Caminho 5125" d="M0,0-70.9,54.87" fill="none" stroke="#fff" stroke-width="0.75"/>
      </g>
      <g id="Grupo_5043" data-name="Grupo 5043" transform="translate(1195.569 -188.394)">
        <path id="Caminho_5126" data-name="Caminho 5126" d="M0,0-70.9,54.87" fill="none" stroke="#fff" stroke-width="0.75"/>
      </g>
      <g id="Grupo_5044" data-name="Grupo 5044" transform="translate(1103.31 -188.394)">
        <path id="Caminho_5127" data-name="Caminho 5127" d="M0,0-70.9,54.87" fill="none" stroke="#fff" stroke-width="0.75"/>
      </g>
      <g id="Grupo_5045" data-name="Grupo 5045" transform="translate(1235.109 -188.394)">
        <path id="Caminho_5128" data-name="Caminho 5128" d="M0,0-70.9,54.87" fill="none" stroke="#fff" stroke-width="0.75"/>
      </g>
      <g id="Grupo_5046" data-name="Grupo 5046" transform="translate(1169.21 -188.394)">
        <path id="Caminho_5129" data-name="Caminho 5129" d="M0,0-70.9,54.87" fill="none" stroke="#fff" stroke-width="0.75"/>
      </g>
      <g id="Grupo_5047" data-name="Grupo 5047" transform="translate(1136.26 -188.394)">
        <path id="Caminho_5130" data-name="Caminho 5130" d="M0,0-70.9,54.87" fill="none" stroke="#fff" stroke-width="0.75"/>
      </g>
      <g id="Grupo_5048" data-name="Grupo 5048" transform="translate(1202.159 -188.394)">
        <path id="Caminho_5131" data-name="Caminho 5131" d="M0,0-70.9,54.87" fill="none" stroke="#fff" stroke-width="0.75"/>
      </g>
      <g id="Grupo_5049" data-name="Grupo 5049" transform="translate(1109.9 -188.394)">
        <path id="Caminho_5132" data-name="Caminho 5132" d="M0,0-70.9,54.87" fill="none" stroke="#fff" stroke-width="0.75"/>
      </g>
      <g id="Grupo_5050" data-name="Grupo 5050" transform="translate(1241.699 -188.394)">
        <path id="Caminho_5133" data-name="Caminho 5133" d="M0,0-70.9,54.87" fill="none" stroke="#fff" stroke-width="0.75"/>
      </g>
      <g id="Grupo_5051" data-name="Grupo 5051" transform="translate(1175.8 -188.394)">
        <path id="Caminho_5134" data-name="Caminho 5134" d="M0,0-70.9,54.87" fill="none" stroke="#fff" stroke-width="0.75"/>
      </g>
      <g id="Grupo_5052" data-name="Grupo 5052" transform="translate(1142.85 -188.394)">
        <path id="Caminho_5135" data-name="Caminho 5135" d="M0,0-70.9,54.87" fill="none" stroke="#fff" stroke-width="0.75"/>
      </g>
      <g id="Grupo_5053" data-name="Grupo 5053" transform="translate(1208.749 -188.394)">
        <path id="Caminho_5136" data-name="Caminho 5136" d="M0,0-70.9,54.87" fill="none" stroke="#fff" stroke-width="0.75"/>
      </g>
      <g id="Grupo_5054" data-name="Grupo 5054" transform="translate(727.628 -188.394)">
        <path id="Caminho_5137" data-name="Caminho 5137" d="M0,0-70.9,54.87" fill="none" stroke="#fff" stroke-width="0.75"/>
      </g>
      <g id="Grupo_5055" data-name="Grupo 5055" transform="translate(859.427 -188.394)">
        <path id="Caminho_5138" data-name="Caminho 5138" d="M0,0-70.9,54.87" fill="none" stroke="#fff" stroke-width="0.75"/>
      </g>
      <g id="Grupo_5056" data-name="Grupo 5056" transform="translate(793.528 -188.394)">
        <path id="Caminho_5139" data-name="Caminho 5139" d="M0,0-70.9,54.87" fill="none" stroke="#fff" stroke-width="0.75"/>
      </g>
      <g id="Grupo_5057" data-name="Grupo 5057" transform="translate(760.578 -188.394)">
        <path id="Caminho_5140" data-name="Caminho 5140" d="M0,0-70.9,54.87" fill="none" stroke="#fff" stroke-width="0.75"/>
      </g>
      <g id="Grupo_5058" data-name="Grupo 5058" transform="translate(892.377 -188.394)">
        <path id="Caminho_5141" data-name="Caminho 5141" d="M0,0-70.9,54.87" fill="none" stroke="#fff" stroke-width="0.75"/>
      </g>
      <g id="Grupo_5059" data-name="Grupo 5059" transform="translate(826.477 -188.394)">
        <path id="Caminho_5142" data-name="Caminho 5142" d="M0,0-70.9,54.87" fill="none" stroke="#fff" stroke-width="0.75"/>
      </g>
      <g id="Grupo_5060" data-name="Grupo 5060" transform="translate(734.218 -188.394)">
        <path id="Caminho_5143" data-name="Caminho 5143" d="M0,0-70.9,54.87" fill="none" stroke="#fff" stroke-width="0.75"/>
      </g>
      <g id="Grupo_5061" data-name="Grupo 5061" transform="translate(866.017 -188.394)">
        <path id="Caminho_5144" data-name="Caminho 5144" d="M0,0-70.9,54.87" fill="none" stroke="#fff" stroke-width="0.75"/>
      </g>
      <g id="Grupo_5062" data-name="Grupo 5062" transform="translate(800.118 -188.394)">
        <path id="Caminho_5145" data-name="Caminho 5145" d="M0,0-70.9,54.87" fill="none" stroke="#fff" stroke-width="0.75"/>
      </g>
      <g id="Grupo_5063" data-name="Grupo 5063" transform="translate(767.168 -188.394)">
        <path id="Caminho_5146" data-name="Caminho 5146" d="M0,0-70.9,54.87" fill="none" stroke="#fff" stroke-width="0.75"/>
      </g>
      <g id="Grupo_5064" data-name="Grupo 5064" transform="translate(898.967 -188.394)">
        <path id="Caminho_5147" data-name="Caminho 5147" d="M0,0-70.9,54.87" fill="none" stroke="#fff" stroke-width="0.75"/>
      </g>
      <g id="Grupo_5065" data-name="Grupo 5065" transform="translate(833.067 -188.394)">
        <path id="Caminho_5148" data-name="Caminho 5148" d="M0,0-70.9,54.87" fill="none" stroke="#fff" stroke-width="0.75"/>
      </g>
      <g id="Grupo_5066" data-name="Grupo 5066" transform="translate(740.808 -188.394)">
        <path id="Caminho_5149" data-name="Caminho 5149" d="M0,0-70.9,54.87" fill="none" stroke="#fff" stroke-width="0.75"/>
      </g>
      <g id="Grupo_5067" data-name="Grupo 5067" transform="translate(872.607 -188.394)">
        <path id="Caminho_5150" data-name="Caminho 5150" d="M0,0-70.9,54.87" fill="none" stroke="#fff" stroke-width="0.75"/>
      </g>
      <g id="Grupo_5068" data-name="Grupo 5068" transform="translate(806.708 -188.394)">
        <path id="Caminho_5151" data-name="Caminho 5151" d="M0,0-70.9,54.87" fill="none" stroke="#fff" stroke-width="0.75"/>
      </g>
      <g id="Grupo_5069" data-name="Grupo 5069" transform="translate(773.758 -188.394)">
        <path id="Caminho_5152" data-name="Caminho 5152" d="M0,0-70.9,54.87" fill="none" stroke="#fff" stroke-width="0.75"/>
      </g>
      <g id="Grupo_5070" data-name="Grupo 5070" transform="translate(905.557 -188.394)">
        <path id="Caminho_5153" data-name="Caminho 5153" d="M0,0-70.9,54.87" fill="none" stroke="#fff" stroke-width="0.75"/>
      </g>
      <g id="Grupo_5071" data-name="Grupo 5071" transform="translate(912.147 -188.394)">
        <path id="Caminho_5154" data-name="Caminho 5154" d="M0,0-70.9,54.87" fill="none" stroke="#fff" stroke-width="0.75"/>
      </g>
      <g id="Grupo_5072" data-name="Grupo 5072" transform="translate(918.737 -188.394)">
        <path id="Caminho_5155" data-name="Caminho 5155" d="M0,0-70.9,54.87" fill="none" stroke="#fff" stroke-width="0.75"/>
      </g>
      <g id="Grupo_5073" data-name="Grupo 5073" transform="translate(925.327 -188.394)">
        <path id="Caminho_5156" data-name="Caminho 5156" d="M0,0-70.9,54.87" fill="none" stroke="#fff" stroke-width="0.75"/>
      </g>
      <g id="Grupo_5074" data-name="Grupo 5074" transform="translate(931.916 -188.394)">
        <path id="Caminho_5157" data-name="Caminho 5157" d="M0,0-70.9,54.87" fill="none" stroke="#fff" stroke-width="0.75"/>
      </g>
      <g id="Grupo_5075" data-name="Grupo 5075" transform="translate(938.506 -188.394)">
        <path id="Caminho_5158" data-name="Caminho 5158" d="M0,0-70.9,54.87" fill="none" stroke="#fff" stroke-width="0.75"/>
      </g>
      <g id="Grupo_5076" data-name="Grupo 5076" transform="translate(951.686 -188.394)">
        <path id="Caminho_5159" data-name="Caminho 5159" d="M0,0-70.9,54.87" fill="none" stroke="#fff" stroke-width="0.75"/>
      </g>
      <g id="Grupo_5077" data-name="Grupo 5077" transform="translate(964.866 -188.394)">
        <path id="Caminho_5160" data-name="Caminho 5160" d="M0,0-70.9,54.87" fill="none" stroke="#fff" stroke-width="0.75"/>
      </g>
      <g id="Grupo_5078" data-name="Grupo 5078" transform="translate(945.096 -188.394)">
        <path id="Caminho_5161" data-name="Caminho 5161" d="M0,0-70.9,54.87" fill="none" stroke="#fff" stroke-width="0.75"/>
      </g>
      <g id="Grupo_5079" data-name="Grupo 5079" transform="translate(991.226 -188.394)">
        <path id="Caminho_5162" data-name="Caminho 5162" d="M0,0-70.9,54.87" fill="none" stroke="#fff" stroke-width="0.75"/>
      </g>
      <g id="Grupo_5080" data-name="Grupo 5080" transform="translate(971.456 -188.394)">
        <path id="Caminho_5163" data-name="Caminho 5163" d="M0,0-70.9,54.87" fill="none" stroke="#fff" stroke-width="0.75"/>
      </g>
      <g id="Grupo_5081" data-name="Grupo 5081" transform="translate(978.046 -188.394)">
        <path id="Caminho_5164" data-name="Caminho 5164" d="M0,0-70.9,54.87" fill="none" stroke="#fff" stroke-width="0.75"/>
      </g>
      <g id="Grupo_5082" data-name="Grupo 5082" transform="translate(958.276 -188.394)">
        <path id="Caminho_5165" data-name="Caminho 5165" d="M0,0-70.9,54.87" fill="none" stroke="#fff" stroke-width="0.75"/>
      </g>
      <g id="Grupo_5083" data-name="Grupo 5083" transform="translate(1004.406 -188.394)">
        <path id="Caminho_5166" data-name="Caminho 5166" d="M0,0-70.9,54.87" fill="none" stroke="#fff" stroke-width="0.75"/>
      </g>
      <g id="Grupo_5084" data-name="Grupo 5084" transform="translate(984.636 -188.394)">
        <path id="Caminho_5167" data-name="Caminho 5167" d="M0,0-70.9,54.87" fill="none" stroke="#fff" stroke-width="0.75"/>
      </g>
      <g id="Grupo_5085" data-name="Grupo 5085" transform="translate(1043.945 -188.394)">
        <path id="Caminho_5168" data-name="Caminho 5168" d="M0,0-70.9,54.87" fill="none" stroke="#fff" stroke-width="0.75"/>
      </g>
      <g id="Grupo_5086" data-name="Grupo 5086" transform="translate(1024.176 -188.394)">
        <path id="Caminho_5169" data-name="Caminho 5169" d="M0,0-70.9,54.87" fill="none" stroke="#fff" stroke-width="0.75"/>
      </g>
      <g id="Grupo_5087" data-name="Grupo 5087" transform="translate(1017.586 -188.394)">
        <path id="Caminho_5170" data-name="Caminho 5170" d="M0,0-70.9,54.87" fill="none" stroke="#fff" stroke-width="0.75"/>
      </g>
      <g id="Grupo_5088" data-name="Grupo 5088" transform="translate(997.816 -188.394)">
        <path id="Caminho_5171" data-name="Caminho 5171" d="M0,0-70.9,54.87" fill="none" stroke="#fff" stroke-width="0.75"/>
      </g>
      <g id="Grupo_5089" data-name="Grupo 5089" transform="translate(1030.766 -188.394)">
        <path id="Caminho_5172" data-name="Caminho 5172" d="M0,0-70.9,54.87" fill="none" stroke="#fff" stroke-width="0.75"/>
      </g>
      <g id="Grupo_5090" data-name="Grupo 5090" transform="translate(1010.996 -188.394)">
        <path id="Caminho_5173" data-name="Caminho 5173" d="M0,0-70.9,54.87" fill="none" stroke="#fff" stroke-width="0.75"/>
      </g>
      <g id="Grupo_5091" data-name="Grupo 5091" transform="translate(1050.535 -188.394)">
        <path id="Caminho_5174" data-name="Caminho 5174" d="M0,0-70.9,54.87" fill="none" stroke="#fff" stroke-width="0.75"/>
      </g>
      <g id="Grupo_5092" data-name="Grupo 5092" transform="translate(1057.125 -188.394)">
        <path id="Caminho_5175" data-name="Caminho 5175" d="M0,0-70.9,54.87" fill="none" stroke="#fff" stroke-width="0.75"/>
      </g>
      <g id="Grupo_5093" data-name="Grupo 5093" transform="translate(1063.715 -188.394)">
        <path id="Caminho_5176" data-name="Caminho 5176" d="M0,0-70.9,54.87" fill="none" stroke="#fff" stroke-width="0.75"/>
      </g>
      <g id="Grupo_5094" data-name="Grupo 5094" transform="translate(1070.305 -188.394)">
        <path id="Caminho_5177" data-name="Caminho 5177" d="M0,0-70.9,54.87" fill="none" stroke="#fff" stroke-width="0.75"/>
      </g>
      <g id="Grupo_5095" data-name="Grupo 5095" transform="translate(1076.895 -188.394)">
        <path id="Caminho_5178" data-name="Caminho 5178" d="M0,0-70.9,54.87" fill="none" stroke="#fff" stroke-width="0.75"/>
      </g>
      <g id="Grupo_5096" data-name="Grupo 5096" transform="translate(1037.355 -188.394)">
        <path id="Caminho_5179" data-name="Caminho 5179" d="M0,0-70.9,54.87" fill="none" stroke="#fff" stroke-width="0.75"/>
      </g>
      <g id="Grupo_5097" data-name="Grupo 5097" transform="translate(839.657 -188.394)">
        <path id="Caminho_5180" data-name="Caminho 5180" d="M0,0-70.9,54.87" fill="none" stroke="#fff" stroke-width="0.75"/>
      </g>
      <g id="Grupo_5098" data-name="Grupo 5098" transform="translate(747.398 -188.394)">
        <path id="Caminho_5181" data-name="Caminho 5181" d="M0,0-70.9,54.87" fill="none" stroke="#fff" stroke-width="0.75"/>
      </g>
      <g id="Grupo_5099" data-name="Grupo 5099" transform="translate(879.197 -188.394)">
        <path id="Caminho_5182" data-name="Caminho 5182" d="M0,0-70.9,54.87" fill="none" stroke="#fff" stroke-width="0.75"/>
      </g>
      <g id="Grupo_5100" data-name="Grupo 5100" transform="translate(813.297 -188.394)">
        <path id="Caminho_5183" data-name="Caminho 5183" d="M0,0-70.9,54.87" fill="none" stroke="#fff" stroke-width="0.75"/>
      </g>
      <g id="Grupo_5101" data-name="Grupo 5101" transform="translate(780.348 -188.394)">
        <path id="Caminho_5184" data-name="Caminho 5184" d="M0,0-70.9,54.87" fill="none" stroke="#fff" stroke-width="0.75"/>
      </g>
      <g id="Grupo_5102" data-name="Grupo 5102" transform="translate(846.247 -188.394)">
        <path id="Caminho_5185" data-name="Caminho 5185" d="M0,0-70.9,54.87" fill="none" stroke="#fff" stroke-width="0.75"/>
      </g>
      <g id="Grupo_5103" data-name="Grupo 5103" transform="translate(753.988 -188.394)">
        <path id="Caminho_5186" data-name="Caminho 5186" d="M0,0-70.9,54.87" fill="none" stroke="#fff" stroke-width="0.75"/>
      </g>
      <g id="Grupo_5104" data-name="Grupo 5104" transform="translate(885.787 -188.394)">
        <path id="Caminho_5187" data-name="Caminho 5187" d="M0,0-70.9,54.87" fill="none" stroke="#fff" stroke-width="0.75"/>
      </g>
      <g id="Grupo_5105" data-name="Grupo 5105" transform="translate(819.888 -188.394)">
        <path id="Caminho_5188" data-name="Caminho 5188" d="M0,0-70.9,54.87" fill="none" stroke="#fff" stroke-width="0.75"/>
      </g>
      <g id="Grupo_5106" data-name="Grupo 5106" transform="translate(786.938 -188.394)">
        <path id="Caminho_5189" data-name="Caminho 5189" d="M0,0-70.9,54.87" fill="none" stroke="#fff" stroke-width="0.75"/>
      </g>
      <g id="Grupo_5107" data-name="Grupo 5107" transform="translate(852.837 -188.394)">
        <path id="Caminho_5190" data-name="Caminho 5190" d="M0,0-70.9,54.87" fill="none" stroke="#fff" stroke-width="0.75"/>
      </g>
    </g>
    <g id="Grupo_5109" data-name="Grupo 5109" transform="translate(1038.808 634.497)">
      <path id="Caminho_5193" data-name="Caminho 5193" d="M0,0V22.162a10.2,10.2,0,0,1-10.2,10.2H-111.283a10.2,10.2,0,0,1-10.2-10.2V0" fill="#fff"/>
    </g>
    <g id="Grupo_5165" data-name="Grupo 5165" transform="translate(504 813.079)" clip-path="url(#clip-path-2)">
      <g id="Grupo_5111" data-name="Grupo 5111" transform="translate(320.29 -185.761)">
        <path id="Caminho_5195" data-name="Caminho 5195" d="M0,0-70.9,54.87" fill="none" stroke="#fe6534" stroke-width="0.75"/>
      </g>
      <g id="Grupo_5112" data-name="Grupo 5112" transform="translate(452.089 -185.761)">
        <path id="Caminho_5196" data-name="Caminho 5196" d="M0,0-70.9,54.87" fill="none" stroke="#fe6534" stroke-width="0.75"/>
      </g>
      <g id="Grupo_5113" data-name="Grupo 5113" transform="translate(386.189 -185.761)">
        <path id="Caminho_5197" data-name="Caminho 5197" d="M0,0-70.9,54.87" fill="none" stroke="#fe6534" stroke-width="0.75"/>
      </g>
      <g id="Grupo_5114" data-name="Grupo 5114" transform="translate(353.24 -185.761)">
        <path id="Caminho_5198" data-name="Caminho 5198" d="M0,0-70.9,54.87" fill="none" stroke="#fe6534" stroke-width="0.75"/>
      </g>
      <g id="Grupo_5115" data-name="Grupo 5115" transform="translate(485.039 -185.761)">
        <path id="Caminho_5199" data-name="Caminho 5199" d="M0,0-70.9,54.87" fill="none" stroke="#fe6534" stroke-width="0.75"/>
      </g>
      <g id="Grupo_5116" data-name="Grupo 5116" transform="translate(419.139 -185.761)">
        <path id="Caminho_5200" data-name="Caminho 5200" d="M0,0-70.9,54.87" fill="none" stroke="#fe6534" stroke-width="0.75"/>
      </g>
      <g id="Grupo_5117" data-name="Grupo 5117" transform="translate(326.88 -185.761)">
        <path id="Caminho_5201" data-name="Caminho 5201" d="M0,0-70.9,54.87" fill="none" stroke="#fe6534" stroke-width="0.75"/>
      </g>
      <g id="Grupo_5118" data-name="Grupo 5118" transform="translate(458.679 -185.761)">
        <path id="Caminho_5202" data-name="Caminho 5202" d="M0,0-70.9,54.87" fill="none" stroke="#fe6534" stroke-width="0.75"/>
      </g>
      <g id="Grupo_5119" data-name="Grupo 5119" transform="translate(392.779 -185.761)">
        <path id="Caminho_5203" data-name="Caminho 5203" d="M0,0-70.9,54.87" fill="none" stroke="#fe6534" stroke-width="0.75"/>
      </g>
      <g id="Grupo_5120" data-name="Grupo 5120" transform="translate(359.83 -185.761)">
        <path id="Caminho_5204" data-name="Caminho 5204" d="M0,0-70.9,54.87" fill="none" stroke="#fe6534" stroke-width="0.75"/>
      </g>
      <g id="Grupo_5121" data-name="Grupo 5121" transform="translate(491.629 -185.761)">
        <path id="Caminho_5205" data-name="Caminho 5205" d="M0,0-70.9,54.87" fill="none" stroke="#fe6534" stroke-width="0.75"/>
      </g>
      <g id="Grupo_5122" data-name="Grupo 5122" transform="translate(425.729 -185.761)">
        <path id="Caminho_5206" data-name="Caminho 5206" d="M0,0-70.9,54.87" fill="none" stroke="#fe6534" stroke-width="0.75"/>
      </g>
      <g id="Grupo_5123" data-name="Grupo 5123" transform="translate(333.47 -185.761)">
        <path id="Caminho_5207" data-name="Caminho 5207" d="M0,0-70.9,54.87" fill="none" stroke="#fe6534" stroke-width="0.75"/>
      </g>
      <g id="Grupo_5124" data-name="Grupo 5124" transform="translate(465.269 -185.761)">
        <path id="Caminho_5208" data-name="Caminho 5208" d="M0,0-70.9,54.87" fill="none" stroke="#fe6534" stroke-width="0.75"/>
      </g>
      <g id="Grupo_5125" data-name="Grupo 5125" transform="translate(399.369 -185.761)">
        <path id="Caminho_5209" data-name="Caminho 5209" d="M0,0-70.9,54.87" fill="none" stroke="#fe6534" stroke-width="0.75"/>
      </g>
      <g id="Grupo_5126" data-name="Grupo 5126" transform="translate(366.42 -185.761)">
        <path id="Caminho_5210" data-name="Caminho 5210" d="M0,0-70.9,54.87" fill="none" stroke="#fe6534" stroke-width="0.75"/>
      </g>
      <g id="Grupo_5127" data-name="Grupo 5127" transform="translate(498.218 -185.761)">
        <path id="Caminho_5211" data-name="Caminho 5211" d="M0,0-70.9,54.87" fill="none" stroke="#fe6534" stroke-width="0.75"/>
      </g>
      <g id="Grupo_5128" data-name="Grupo 5128" transform="translate(504.808 -185.761)">
        <path id="Caminho_5212" data-name="Caminho 5212" d="M0,0-70.9,54.87" fill="none" stroke="#fe6534" stroke-width="0.75"/>
      </g>
      <g id="Grupo_5129" data-name="Grupo 5129" transform="translate(511.398 -185.761)">
        <path id="Caminho_5213" data-name="Caminho 5213" d="M0,0-70.9,54.87" fill="none" stroke="#fe6534" stroke-width="0.75"/>
      </g>
      <g id="Grupo_5130" data-name="Grupo 5130" transform="translate(517.988 -185.761)">
        <path id="Caminho_5214" data-name="Caminho 5214" d="M0,0-70.9,54.87" fill="none" stroke="#fe6534" stroke-width="0.75"/>
      </g>
      <g id="Grupo_5131" data-name="Grupo 5131" transform="translate(524.578 -185.761)">
        <path id="Caminho_5215" data-name="Caminho 5215" d="M0,0-70.9,54.87" fill="none" stroke="#fe6534" stroke-width="0.75"/>
      </g>
      <g id="Grupo_5132" data-name="Grupo 5132" transform="translate(531.168 -185.761)">
        <path id="Caminho_5216" data-name="Caminho 5216" d="M0,0-70.9,54.87" fill="none" stroke="#fe6534" stroke-width="0.75"/>
      </g>
      <g id="Grupo_5133" data-name="Grupo 5133" transform="translate(544.348 -185.761)">
        <path id="Caminho_5217" data-name="Caminho 5217" d="M0,0-70.9,54.87" fill="none" stroke="#fe6534" stroke-width="0.75"/>
      </g>
      <g id="Grupo_5134" data-name="Grupo 5134" transform="translate(557.528 -185.761)">
        <path id="Caminho_5218" data-name="Caminho 5218" d="M0,0-70.9,54.87" fill="none" stroke="#fe6534" stroke-width="0.75"/>
      </g>
      <g id="Grupo_5135" data-name="Grupo 5135" transform="translate(537.758 -185.761)">
        <path id="Caminho_5219" data-name="Caminho 5219" d="M0,0-70.9,54.87" fill="none" stroke="#fe6534" stroke-width="0.75"/>
      </g>
      <g id="Grupo_5136" data-name="Grupo 5136" transform="translate(583.888 -185.761)">
        <path id="Caminho_5220" data-name="Caminho 5220" d="M0,0-70.9,54.87" fill="none" stroke="#fe6534" stroke-width="0.75"/>
      </g>
      <g id="Grupo_5137" data-name="Grupo 5137" transform="translate(564.118 -185.761)">
        <path id="Caminho_5221" data-name="Caminho 5221" d="M0,0-70.9,54.87" fill="none" stroke="#fe6534" stroke-width="0.75"/>
      </g>
      <g id="Grupo_5138" data-name="Grupo 5138" transform="translate(570.708 -185.761)">
        <path id="Caminho_5222" data-name="Caminho 5222" d="M0,0-70.9,54.87" fill="none" stroke="#fe6534" stroke-width="0.75"/>
      </g>
      <g id="Grupo_5139" data-name="Grupo 5139" transform="translate(550.938 -185.761)">
        <path id="Caminho_5223" data-name="Caminho 5223" d="M0,0-70.9,54.87" fill="none" stroke="#fe6534" stroke-width="0.75"/>
      </g>
      <g id="Grupo_5140" data-name="Grupo 5140" transform="translate(597.067 -185.761)">
        <path id="Caminho_5224" data-name="Caminho 5224" d="M0,0-70.9,54.87" fill="none" stroke="#fe6534" stroke-width="0.75"/>
      </g>
      <g id="Grupo_5141" data-name="Grupo 5141" transform="translate(577.298 -185.761)">
        <path id="Caminho_5225" data-name="Caminho 5225" d="M0,0-70.9,54.87" fill="none" stroke="#fe6534" stroke-width="0.75"/>
      </g>
      <g id="Grupo_5142" data-name="Grupo 5142" transform="translate(636.607 -185.761)">
        <path id="Caminho_5226" data-name="Caminho 5226" d="M0,0-70.9,54.87" fill="none" stroke="#fe6534" stroke-width="0.75"/>
      </g>
      <g id="Grupo_5143" data-name="Grupo 5143" transform="translate(616.837 -185.761)">
        <path id="Caminho_5227" data-name="Caminho 5227" d="M0,0-70.9,54.87" fill="none" stroke="#fe6534" stroke-width="0.75"/>
      </g>
      <g id="Grupo_5144" data-name="Grupo 5144" transform="translate(610.247 -185.761)">
        <path id="Caminho_5228" data-name="Caminho 5228" d="M0,0-70.9,54.87" fill="none" stroke="#fe6534" stroke-width="0.75"/>
      </g>
      <g id="Grupo_5145" data-name="Grupo 5145" transform="translate(590.477 -185.761)">
        <path id="Caminho_5229" data-name="Caminho 5229" d="M0,0-70.9,54.87" fill="none" stroke="#fe6534" stroke-width="0.75"/>
      </g>
      <g id="Grupo_5146" data-name="Grupo 5146" transform="translate(623.427 -185.761)">
        <path id="Caminho_5230" data-name="Caminho 5230" d="M0,0-70.9,54.87" fill="none" stroke="#fe6534" stroke-width="0.75"/>
      </g>
      <g id="Grupo_5147" data-name="Grupo 5147" transform="translate(603.657 -185.761)">
        <path id="Caminho_5231" data-name="Caminho 5231" d="M0,0-70.9,54.87" fill="none" stroke="#fe6534" stroke-width="0.75"/>
      </g>
      <g id="Grupo_5148" data-name="Grupo 5148" transform="translate(643.197 -185.761)">
        <path id="Caminho_5232" data-name="Caminho 5232" d="M0,0-70.9,54.87" fill="none" stroke="#fe6534" stroke-width="0.75"/>
      </g>
      <g id="Grupo_5149" data-name="Grupo 5149" transform="translate(649.787 -185.761)">
        <path id="Caminho_5233" data-name="Caminho 5233" d="M0,0-70.9,54.87" fill="none" stroke="#fe6534" stroke-width="0.75"/>
      </g>
      <g id="Grupo_5150" data-name="Grupo 5150" transform="translate(656.377 -185.761)">
        <path id="Caminho_5234" data-name="Caminho 5234" d="M0,0-70.9,54.87" fill="none" stroke="#fe6534" stroke-width="0.75"/>
      </g>
      <g id="Grupo_5151" data-name="Grupo 5151" transform="translate(662.967 -185.761)">
        <path id="Caminho_5235" data-name="Caminho 5235" d="M0,0-70.9,54.87" fill="none" stroke="#fe6534" stroke-width="0.75"/>
      </g>
      <g id="Grupo_5152" data-name="Grupo 5152" transform="translate(669.557 -185.761)">
        <path id="Caminho_5236" data-name="Caminho 5236" d="M0,0-70.9,54.87" fill="none" stroke="#fe6534" stroke-width="0.75"/>
      </g>
      <g id="Grupo_5153" data-name="Grupo 5153" transform="translate(630.017 -185.761)">
        <path id="Caminho_5237" data-name="Caminho 5237" d="M0,0-70.9,54.87" fill="none" stroke="#fe6534" stroke-width="0.75"/>
      </g>
      <g id="Grupo_5154" data-name="Grupo 5154" transform="translate(432.319 -185.761)">
        <path id="Caminho_5238" data-name="Caminho 5238" d="M0,0-70.9,54.87" fill="none" stroke="#fe6534" stroke-width="0.75"/>
      </g>
      <g id="Grupo_5155" data-name="Grupo 5155" transform="translate(340.06 -185.761)">
        <path id="Caminho_5239" data-name="Caminho 5239" d="M0,0-70.9,54.87" fill="none" stroke="#fe6534" stroke-width="0.75"/>
      </g>
      <g id="Grupo_5156" data-name="Grupo 5156" transform="translate(471.859 -185.761)">
        <path id="Caminho_5240" data-name="Caminho 5240" d="M0,0-70.9,54.87" fill="none" stroke="#fe6534" stroke-width="0.75"/>
      </g>
      <g id="Grupo_5157" data-name="Grupo 5157" transform="translate(405.959 -185.761)">
        <path id="Caminho_5241" data-name="Caminho 5241" d="M0,0-70.9,54.87" fill="none" stroke="#fe6534" stroke-width="0.75"/>
      </g>
      <g id="Grupo_5158" data-name="Grupo 5158" transform="translate(373.009 -185.761)">
        <path id="Caminho_5242" data-name="Caminho 5242" d="M0,0-70.9,54.87" fill="none" stroke="#fe6534" stroke-width="0.75"/>
      </g>
      <g id="Grupo_5159" data-name="Grupo 5159" transform="translate(438.909 -185.761)">
        <path id="Caminho_5243" data-name="Caminho 5243" d="M0,0-70.9,54.87" fill="none" stroke="#fe6534" stroke-width="0.75"/>
      </g>
      <g id="Grupo_5160" data-name="Grupo 5160" transform="translate(346.65 -185.761)">
        <path id="Caminho_5244" data-name="Caminho 5244" d="M0,0-70.9,54.87" fill="none" stroke="#fe6534" stroke-width="0.75"/>
      </g>
      <g id="Grupo_5161" data-name="Grupo 5161" transform="translate(478.448 -185.761)">
        <path id="Caminho_5245" data-name="Caminho 5245" d="M0,0-70.9,54.87" fill="none" stroke="#fe6534" stroke-width="0.75"/>
      </g>
      <g id="Grupo_5162" data-name="Grupo 5162" transform="translate(412.549 -185.761)">
        <path id="Caminho_5246" data-name="Caminho 5246" d="M0,0-70.9,54.87" fill="none" stroke="#fe6534" stroke-width="0.75"/>
      </g>
      <g id="Grupo_5163" data-name="Grupo 5163" transform="translate(379.599 -185.761)">
        <path id="Caminho_5247" data-name="Caminho 5247" d="M0,0-70.9,54.87" fill="none" stroke="#fe6534" stroke-width="0.75"/>
      </g>
      <g id="Grupo_5164" data-name="Grupo 5164" transform="translate(445.499 -185.761)">
        <path id="Caminho_5248" data-name="Caminho 5248" d="M0,0-70.9,54.87" fill="none" stroke="#fe6534" stroke-width="0.75"/>
      </g>
    </g>
    <g id="Grupo_5166" data-name="Grupo 5166" transform="translate(1038.808 634.497)">
      <path id="Caminho_5250" data-name="Caminho 5250" d="M0,0V22.162a10.2,10.2,0,0,1-10.2,10.2H-111.283a10.2,10.2,0,0,1-10.2-10.2V0" fill="none" stroke="#fe6534" stroke-width="8.4"/>
    </g>
    <g id="Grupo_5203" data-name="Grupo 5203" transform="translate(504 813.079)" clip-path="url(#clip-path-3)">
      <g id="Grupo_5189" data-name="Grupo 5189" transform="translate(99.896 -149.274)">
        <path id="Caminho_5273" data-name="Caminho 5273" d="M0,0-70.9,54.87" fill="none" stroke="#fe6534" stroke-width="0.75"/>
      </g>
      <g id="Grupo_5190" data-name="Grupo 5190" transform="translate(132.846 -149.274)">
        <path id="Caminho_5274" data-name="Caminho 5274" d="M0,0-70.9,54.87" fill="none" stroke="#fe6534" stroke-width="0.75"/>
      </g>
      <g id="Grupo_5191" data-name="Grupo 5191" transform="translate(66.947 -149.274)">
        <path id="Caminho_5275" data-name="Caminho 5275" d="M0,0-70.9,54.87" fill="none" stroke="#fe6534" stroke-width="0.75"/>
      </g>
      <g id="Grupo_5192" data-name="Grupo 5192" transform="translate(106.487 -149.274)">
        <path id="Caminho_5276" data-name="Caminho 5276" d="M0,0-70.9,54.87" fill="none" stroke="#fe6534" stroke-width="0.75"/>
      </g>
      <g id="Grupo_5193" data-name="Grupo 5193" transform="translate(139.436 -149.274)">
        <path id="Caminho_5277" data-name="Caminho 5277" d="M0,0-70.9,54.87" fill="none" stroke="#fe6534" stroke-width="0.75"/>
      </g>
      <g id="Grupo_5194" data-name="Grupo 5194" transform="translate(73.537 -149.274)">
        <path id="Caminho_5278" data-name="Caminho 5278" d="M0,0-70.9,54.87" fill="none" stroke="#fe6534" stroke-width="0.75"/>
      </g>
      <g id="Grupo_5195" data-name="Grupo 5195" transform="translate(113.076 -149.274)">
        <path id="Caminho_5279" data-name="Caminho 5279" d="M0,0-70.9,54.87" fill="none" stroke="#fe6534" stroke-width="0.75"/>
      </g>
      <g id="Grupo_5196" data-name="Grupo 5196" transform="translate(80.127 -149.274)">
        <path id="Caminho_5280" data-name="Caminho 5280" d="M0,0-70.9,54.87" fill="none" stroke="#fe6534" stroke-width="0.75"/>
      </g>
      <g id="Grupo_5197" data-name="Grupo 5197" transform="translate(119.666 -149.274)">
        <path id="Caminho_5281" data-name="Caminho 5281" d="M0,0-70.9,54.87" fill="none" stroke="#fe6534" stroke-width="0.75"/>
      </g>
      <g id="Grupo_5198" data-name="Grupo 5198" transform="translate(53.767 -149.274)">
        <path id="Caminho_5282" data-name="Caminho 5282" d="M0,0-70.9,54.87" fill="none" stroke="#fe6534" stroke-width="0.75"/>
      </g>
      <g id="Grupo_5199" data-name="Grupo 5199" transform="translate(86.717 -149.274)">
        <path id="Caminho_5283" data-name="Caminho 5283" d="M0,0-70.9,54.87" fill="none" stroke="#fe6534" stroke-width="0.75"/>
      </g>
      <g id="Grupo_5200" data-name="Grupo 5200" transform="translate(126.256 -149.274)">
        <path id="Caminho_5284" data-name="Caminho 5284" d="M0,0-70.9,54.87" fill="none" stroke="#fe6534" stroke-width="0.75"/>
      </g>
      <g id="Grupo_5201" data-name="Grupo 5201" transform="translate(60.357 -149.274)">
        <path id="Caminho_5285" data-name="Caminho 5285" d="M0,0-70.9,54.87" fill="none" stroke="#fe6534" stroke-width="0.75"/>
      </g>
      <g id="Grupo_5202" data-name="Grupo 5202" transform="translate(93.307 -149.274)">
        <path id="Caminho_5286" data-name="Caminho 5286" d="M0,0-70.9,54.87" fill="none" stroke="#fe6534" stroke-width="0.75"/>
      </g>
    </g>
    <g id="Grupo_5205" data-name="Grupo 5205" transform="translate(716.882 633.986)">
      <path id="Caminho_5289" data-name="Caminho 5289" d="M0,0V25.512a10.2,10.2,0,0,1-10.2,10.2h-143.91A10.205,10.205,0,0,0-164.32,45.921V71.433a10.206,10.206,0,0,0,10.205,10.205H-131.6" fill="none" stroke="#ff5f7e" stroke-width="8.4"/>
    </g>
    <path id="Caminho_5291" data-name="Caminho 5291" d="M72.482-143.377H210.8V-178.6H72.482Z" transform="translate(504 813.079)" fill="#fff"/>
    <g id="Grupo_5239" data-name="Grupo 5239" transform="translate(504 813.079)" clip-path="url(#clip-path-4)">
      <g id="Grupo_5207" data-name="Grupo 5207" transform="translate(73.95 -185.847)">
        <path id="Caminho_5292" data-name="Caminho 5292" d="M0,0-70.9,54.87" fill="none" stroke="#ff5f7e" stroke-width="0.75"/>
      </g>
      <g id="Grupo_5208" data-name="Grupo 5208" transform="translate(205.748 -185.847)">
        <path id="Caminho_5293" data-name="Caminho 5293" d="M0,0-70.9,54.87" fill="none" stroke="#ff5f7e" stroke-width="0.75"/>
      </g>
      <g id="Grupo_5209" data-name="Grupo 5209" transform="translate(139.849 -185.847)">
        <path id="Caminho_5294" data-name="Caminho 5294" d="M0,0-70.9,54.87" fill="none" stroke="#ff5f7e" stroke-width="0.75"/>
      </g>
      <g id="Grupo_5210" data-name="Grupo 5210" transform="translate(106.899 -185.847)">
        <path id="Caminho_5295" data-name="Caminho 5295" d="M0,0-70.9,54.87" fill="none" stroke="#ff5f7e" stroke-width="0.75"/>
      </g>
      <g id="Grupo_5211" data-name="Grupo 5211" transform="translate(238.698 -185.847)">
        <path id="Caminho_5296" data-name="Caminho 5296" d="M0,0-70.9,54.87" fill="none" stroke="#ff5f7e" stroke-width="0.75"/>
      </g>
      <g id="Grupo_5212" data-name="Grupo 5212" transform="translate(172.799 -185.847)">
        <path id="Caminho_5297" data-name="Caminho 5297" d="M0,0-70.9,54.87" fill="none" stroke="#ff5f7e" stroke-width="0.75"/>
      </g>
      <g id="Grupo_5213" data-name="Grupo 5213" transform="translate(80.54 -185.847)">
        <path id="Caminho_5298" data-name="Caminho 5298" d="M0,0-70.9,54.87" fill="none" stroke="#ff5f7e" stroke-width="0.75"/>
      </g>
      <g id="Grupo_5214" data-name="Grupo 5214" transform="translate(212.338 -185.847)">
        <path id="Caminho_5299" data-name="Caminho 5299" d="M0,0-70.9,54.87" fill="none" stroke="#ff5f7e" stroke-width="0.75"/>
      </g>
      <g id="Grupo_5215" data-name="Grupo 5215" transform="translate(146.439 -185.847)">
        <path id="Caminho_5300" data-name="Caminho 5300" d="M0,0-70.9,54.87" fill="none" stroke="#ff5f7e" stroke-width="0.75"/>
      </g>
      <g id="Grupo_5216" data-name="Grupo 5216" transform="translate(113.489 -185.847)">
        <path id="Caminho_5301" data-name="Caminho 5301" d="M0,0-70.9,54.87" fill="none" stroke="#ff5f7e" stroke-width="0.75"/>
      </g>
      <g id="Grupo_5217" data-name="Grupo 5217" transform="translate(245.288 -185.847)">
        <path id="Caminho_5302" data-name="Caminho 5302" d="M0,0-70.9,54.87" fill="none" stroke="#ff5f7e" stroke-width="0.75"/>
      </g>
      <g id="Grupo_5218" data-name="Grupo 5218" transform="translate(179.389 -185.847)">
        <path id="Caminho_5303" data-name="Caminho 5303" d="M0,0-70.9,54.87" fill="none" stroke="#ff5f7e" stroke-width="0.75"/>
      </g>
      <g id="Grupo_5219" data-name="Grupo 5219" transform="translate(87.13 -185.847)">
        <path id="Caminho_5304" data-name="Caminho 5304" d="M0,0-70.9,54.87" fill="none" stroke="#ff5f7e" stroke-width="0.75"/>
      </g>
      <g id="Grupo_5220" data-name="Grupo 5220" transform="translate(218.928 -185.847)">
        <path id="Caminho_5305" data-name="Caminho 5305" d="M0,0-70.9,54.87" fill="none" stroke="#ff5f7e" stroke-width="0.75"/>
      </g>
      <g id="Grupo_5221" data-name="Grupo 5221" transform="translate(153.029 -185.847)">
        <path id="Caminho_5306" data-name="Caminho 5306" d="M0,0-70.9,54.87" fill="none" stroke="#ff5f7e" stroke-width="0.75"/>
      </g>
      <g id="Grupo_5222" data-name="Grupo 5222" transform="translate(120.079 -185.847)">
        <path id="Caminho_5307" data-name="Caminho 5307" d="M0,0-70.9,54.87" fill="none" stroke="#ff5f7e" stroke-width="0.75"/>
      </g>
      <g id="Grupo_5223" data-name="Grupo 5223" transform="translate(251.878 -185.847)">
        <path id="Caminho_5308" data-name="Caminho 5308" d="M0,0-70.9,54.87" fill="none" stroke="#ff5f7e" stroke-width="0.75"/>
      </g>
      <g id="Grupo_5224" data-name="Grupo 5224" transform="translate(258.468 -185.847)">
        <path id="Caminho_5309" data-name="Caminho 5309" d="M0,0-70.9,54.87" fill="none" stroke="#ff5f7e" stroke-width="0.75"/>
      </g>
      <g id="Grupo_5225" data-name="Grupo 5225" transform="translate(265.058 -185.847)">
        <path id="Caminho_5310" data-name="Caminho 5310" d="M0,0-70.9,54.87" fill="none" stroke="#ff5f7e" stroke-width="0.75"/>
      </g>
      <g id="Grupo_5226" data-name="Grupo 5226" transform="translate(271.648 -185.847)">
        <path id="Caminho_5311" data-name="Caminho 5311" d="M0,0-70.9,54.87" fill="none" stroke="#ff5f7e" stroke-width="0.75"/>
      </g>
      <g id="Grupo_5227" data-name="Grupo 5227" transform="translate(278.238 -185.847)">
        <path id="Caminho_5312" data-name="Caminho 5312" d="M0,0-70.9,54.87" fill="none" stroke="#ff5f7e" stroke-width="0.75"/>
      </g>
      <g id="Grupo_5228" data-name="Grupo 5228" transform="translate(185.979 -185.847)">
        <path id="Caminho_5313" data-name="Caminho 5313" d="M0,0-70.9,54.87" fill="none" stroke="#ff5f7e" stroke-width="0.75"/>
      </g>
      <g id="Grupo_5229" data-name="Grupo 5229" transform="translate(93.719 -185.847)">
        <path id="Caminho_5314" data-name="Caminho 5314" d="M0,0-70.9,54.87" fill="none" stroke="#ff5f7e" stroke-width="0.75"/>
      </g>
      <g id="Grupo_5230" data-name="Grupo 5230" transform="translate(225.518 -185.847)">
        <path id="Caminho_5315" data-name="Caminho 5315" d="M0,0-70.9,54.87" fill="none" stroke="#ff5f7e" stroke-width="0.75"/>
      </g>
      <g id="Grupo_5231" data-name="Grupo 5231" transform="translate(159.619 -185.847)">
        <path id="Caminho_5316" data-name="Caminho 5316" d="M0,0-70.9,54.87" fill="none" stroke="#ff5f7e" stroke-width="0.75"/>
      </g>
      <g id="Grupo_5232" data-name="Grupo 5232" transform="translate(126.669 -185.847)">
        <path id="Caminho_5317" data-name="Caminho 5317" d="M0,0-70.9,54.87" fill="none" stroke="#ff5f7e" stroke-width="0.75"/>
      </g>
      <g id="Grupo_5233" data-name="Grupo 5233" transform="translate(192.568 -185.847)">
        <path id="Caminho_5318" data-name="Caminho 5318" d="M0,0-70.9,54.87" fill="none" stroke="#ff5f7e" stroke-width="0.75"/>
      </g>
      <g id="Grupo_5234" data-name="Grupo 5234" transform="translate(100.309 -185.847)">
        <path id="Caminho_5319" data-name="Caminho 5319" d="M0,0-70.9,54.87" fill="none" stroke="#ff5f7e" stroke-width="0.75"/>
      </g>
      <g id="Grupo_5235" data-name="Grupo 5235" transform="translate(232.108 -185.847)">
        <path id="Caminho_5320" data-name="Caminho 5320" d="M0,0-70.9,54.87" fill="none" stroke="#ff5f7e" stroke-width="0.75"/>
      </g>
      <g id="Grupo_5236" data-name="Grupo 5236" transform="translate(166.209 -185.847)">
        <path id="Caminho_5321" data-name="Caminho 5321" d="M0,0-70.9,54.87" fill="none" stroke="#ff5f7e" stroke-width="0.75"/>
      </g>
      <g id="Grupo_5237" data-name="Grupo 5237" transform="translate(133.259 -185.847)">
        <path id="Caminho_5322" data-name="Caminho 5322" d="M0,0-70.9,54.87" fill="none" stroke="#ff5f7e" stroke-width="0.75"/>
      </g>
      <g id="Grupo_5238" data-name="Grupo 5238" transform="translate(199.158 -185.847)">
        <path id="Caminho_5323" data-name="Caminho 5323" d="M0,0-70.9,54.87" fill="none" stroke="#ff5f7e" stroke-width="0.75"/>
      </g>
    </g>
    <g id="Grupo_5241" data-name="Grupo 5241" transform="translate(1184.802 634.497)">
      <path id="Caminho_5326" data-name="Caminho 5326" d="M0,0V21.116a10.2,10.2,0,0,1-10.2,10.2H-35.83a10.2,10.2,0,0,1-10.2-10.2V0" fill="none" stroke="#fe6534" stroke-width="8.4"/>
    </g>
    <path id="Caminho_5328" data-name="Caminho 5328" d="M679.11-178.583H638.951v29.551H679.11Z" transform="translate(504 813.079)" fill="#fff"/>
    <path id="Caminho_5332" data-name="Caminho 5332" d="M677.693-178.583H638.951v27.32h38.742Z" transform="translate(504 813.079)" fill="#fff"/>
    <g id="Grupo_5246" data-name="Grupo 5246" transform="translate(1184.802 634.692)">
      <path id="Caminho_5333" data-name="Caminho 5333" d="M0,0V20.92a10.2,10.2,0,0,1-10.2,10.2H-35.83a10.2,10.2,0,0,1-10.2-10.2V.51" fill="none" stroke="#fe6534" stroke-width="8.4"/>
    </g>
    <g id="Grupo_5269" data-name="Grupo 5269" transform="translate(504 696.117)">
      <path id="Caminho_5356" data-name="Caminho 5356" d="M0,0H63.69a10.2,10.2,0,0,0,10.2-10.2V-61.621" fill="none" stroke="#ff8625" stroke-width="8.4"/>
    </g>
  </g>
</svg>
