<svg xmlns="http://www.w3.org/2000/svg" xmlns:xlink="http://www.w3.org/1999/xlink" width="23" height="126" viewBox="0 0 23 126">
  <defs>
    <clipPath id="clip-path">
      <rect id="Retângulo_55" data-name="Retângulo 55" width="23" height="126" transform="translate(431 72)" fill="none"/>
    </clipPath>
    <clipPath id="clip-path-2">
      <path id="Caminho_6623" data-name="Caminho 6623" d="M0,0H133.585V-126.485H0Z" fill="none"/>
    </clipPath>
  </defs>
  <g id="bg_folhalilas" transform="translate(-431 -72)" clip-path="url(#clip-path)">
    <g id="Grupo_6553" data-name="Grupo 6553" transform="translate(431 198.155)">
      <g id="Grupo_6552" data-name="Grupo 6552" clip-path="url(#clip-path-2)">
        <path id="Caminho_6622" data-name="Caminho 6622" d="M133.586-126.485H0V0H133.586ZM11.652-12.574a1.552,1.552,0,0,1,1.585,1.584v3.878a1.552,1.552,0,0,1-1.585,1.585H6.336A1.552,1.552,0,0,1,4.752-7.112V-10.99a1.551,1.551,0,0,1,1.584-1.584Zm0-12.043a1.552,1.552,0,0,1,1.585,1.585v3.878a1.552,1.552,0,0,1-1.585,1.584H6.336a1.551,1.551,0,0,1-1.584-1.584v-3.878a1.552,1.552,0,0,1,1.584-1.585Zm0-12.042a1.552,1.552,0,0,1,1.585,1.584V-31.2a1.552,1.552,0,0,1-1.585,1.585H6.336A1.552,1.552,0,0,1,4.752-31.2v-3.878a1.551,1.551,0,0,1,1.584-1.584Zm0-12.043a1.552,1.552,0,0,1,1.585,1.585v3.877a1.552,1.552,0,0,1-1.585,1.585H6.336A1.552,1.552,0,0,1,4.752-43.24v-3.877A1.552,1.552,0,0,1,6.336-48.7Zm0-12.043a1.552,1.552,0,0,1,1.585,1.585v3.878A1.552,1.552,0,0,1,11.652-53.7H6.336a1.551,1.551,0,0,1-1.584-1.584V-59.16a1.552,1.552,0,0,1,1.584-1.585Zm0-12.042A1.552,1.552,0,0,1,13.237-71.2v3.878a1.552,1.552,0,0,1-1.585,1.585H6.336a1.552,1.552,0,0,1-1.584-1.585V-71.2a1.551,1.551,0,0,1,1.584-1.584Zm0-12.043a1.552,1.552,0,0,1,1.585,1.585v3.877a1.552,1.552,0,0,1-1.585,1.585H6.336a1.552,1.552,0,0,1-1.584-1.585v-3.877A1.552,1.552,0,0,1,6.336-84.83Zm0-12.043a1.552,1.552,0,0,1,1.585,1.585v3.878a1.552,1.552,0,0,1-1.585,1.584H6.336A1.551,1.551,0,0,1,4.752-91.41v-3.878a1.552,1.552,0,0,1,1.584-1.585Zm0-12.042a1.552,1.552,0,0,1,1.585,1.584v3.878a1.552,1.552,0,0,1-1.585,1.585H6.336a1.552,1.552,0,0,1-1.584-1.585v-3.878a1.551,1.551,0,0,1,1.584-1.584Zm0-12.043a1.552,1.552,0,0,1,1.585,1.585v3.878a1.552,1.552,0,0,1-1.585,1.584H6.336A1.551,1.551,0,0,1,4.752-115.5v-3.878a1.552,1.552,0,0,1,1.584-1.585Z" fill="#d4d7ec"/>
      </g>
    </g>
  </g>
</svg>
