<svg xmlns="http://www.w3.org/2000/svg" xmlns:xlink="http://www.w3.org/1999/xlink" width="31" height="5" viewBox="0 0 31 5">
  <defs>
    <clipPath id="clip-path">
      <rect id="Retângulo_24" data-name="Retângulo 24" width="31" height="5" transform="translate(451 440)" fill="none"/>
    </clipPath>
    <clipPath id="clip-path-2">
      <path id="Caminho_2011" data-name="Caminho 2011" d="M0-4.724V0H98.395c.113-1.69.179-3.38.217-4.724H0Z" fill="none"/>
    </clipPath>
  </defs>
  <g id="bg_fimatividades" transform="translate(-451 -440)" clip-path="url(#clip-path)">
    <g id="Grupo_1934" data-name="Grupo 1934" transform="translate(451 444.724)" clip-path="url(#clip-path-2)">
      <g id="Grupo_1867" data-name="Grupo 1867" transform="translate(61.409 -30.187)">
        <path id="Caminho_1944" data-name="Caminho 1944" d="M0,0-49.874,38.6" fill="none" stroke="#7390cb" stroke-width="0.844"/>
      </g>
      <g id="Grupo_1868" data-name="Grupo 1868" transform="translate(154.123 -30.187)">
        <path id="Caminho_1945" data-name="Caminho 1945" d="M0,0-49.874,38.6" fill="none" stroke="#7390cb" stroke-width="0.844"/>
      </g>
      <g id="Grupo_1869" data-name="Grupo 1869" transform="translate(107.766 -30.187)">
        <path id="Caminho_1946" data-name="Caminho 1946" d="M0,0-49.874,38.6" fill="none" stroke="#7390cb" stroke-width="0.844"/>
      </g>
      <g id="Grupo_1870" data-name="Grupo 1870" transform="translate(84.587 -30.187)">
        <path id="Caminho_1947" data-name="Caminho 1947" d="M0,0-49.874,38.6" fill="none" stroke="#7390cb" stroke-width="0.844"/>
      </g>
      <g id="Grupo_1871" data-name="Grupo 1871" transform="translate(177.302 -30.187)">
        <path id="Caminho_1948" data-name="Caminho 1948" d="M0,0-49.874,38.6" fill="none" stroke="#7390cb" stroke-width="0.844"/>
      </g>
      <g id="Grupo_1872" data-name="Grupo 1872" transform="translate(130.945 -30.187)">
        <path id="Caminho_1949" data-name="Caminho 1949" d="M0,0-49.874,38.6" fill="none" stroke="#7390cb" stroke-width="0.844"/>
      </g>
      <g id="Grupo_1873" data-name="Grupo 1873" transform="translate(66.044 -30.187)">
        <path id="Caminho_1950" data-name="Caminho 1950" d="M0,0-49.874,38.6" fill="none" stroke="#7390cb" stroke-width="0.844"/>
      </g>
      <g id="Grupo_1874" data-name="Grupo 1874" transform="translate(158.759 -30.187)">
        <path id="Caminho_1951" data-name="Caminho 1951" d="M0,0-49.874,38.6" fill="none" stroke="#7390cb" stroke-width="0.844"/>
      </g>
      <g id="Grupo_1875" data-name="Grupo 1875" transform="translate(112.402 -30.187)">
        <path id="Caminho_1952" data-name="Caminho 1952" d="M0,0-49.874,38.6" fill="none" stroke="#7390cb" stroke-width="0.844"/>
      </g>
      <g id="Grupo_1876" data-name="Grupo 1876" transform="translate(89.223 -30.187)">
        <path id="Caminho_1953" data-name="Caminho 1953" d="M0,0-49.874,38.6" fill="none" stroke="#7390cb" stroke-width="0.844"/>
      </g>
      <g id="Grupo_1877" data-name="Grupo 1877" transform="translate(181.938 -30.187)">
        <path id="Caminho_1954" data-name="Caminho 1954" d="M0,0-49.874,38.6" fill="none" stroke="#7390cb" stroke-width="0.844"/>
      </g>
      <g id="Grupo_1878" data-name="Grupo 1878" transform="translate(135.581 -30.187)">
        <path id="Caminho_1955" data-name="Caminho 1955" d="M0,0-49.874,38.6" fill="none" stroke="#7390cb" stroke-width="0.844"/>
      </g>
      <g id="Grupo_1879" data-name="Grupo 1879" transform="translate(70.68 -30.187)">
        <path id="Caminho_1956" data-name="Caminho 1956" d="M0,0-49.874,38.6" fill="none" stroke="#7390cb" stroke-width="0.844"/>
      </g>
      <g id="Grupo_1880" data-name="Grupo 1880" transform="translate(163.395 -30.187)">
        <path id="Caminho_1957" data-name="Caminho 1957" d="M0,0-49.874,38.6" fill="none" stroke="#7390cb" stroke-width="0.844"/>
      </g>
      <g id="Grupo_1881" data-name="Grupo 1881" transform="translate(117.037 -30.187)">
        <path id="Caminho_1958" data-name="Caminho 1958" d="M0,0-49.874,38.6" fill="none" stroke="#7390cb" stroke-width="0.844"/>
      </g>
      <g id="Grupo_1882" data-name="Grupo 1882" transform="translate(93.859 -30.187)">
        <path id="Caminho_1959" data-name="Caminho 1959" d="M0,0-49.874,38.6" fill="none" stroke="#7390cb" stroke-width="0.844"/>
      </g>
      <g id="Grupo_1883" data-name="Grupo 1883" transform="translate(186.574 -30.187)">
        <path id="Caminho_1960" data-name="Caminho 1960" d="M0,0-49.874,38.6" fill="none" stroke="#7390cb" stroke-width="0.844"/>
      </g>
      <g id="Grupo_1884" data-name="Grupo 1884" transform="translate(191.209 -30.187)">
        <path id="Caminho_1961" data-name="Caminho 1961" d="M0,0-49.874,38.6" fill="none" stroke="#7390cb" stroke-width="0.844"/>
      </g>
      <g id="Grupo_1885" data-name="Grupo 1885" transform="translate(195.845 -30.187)">
        <path id="Caminho_1962" data-name="Caminho 1962" d="M0,0-49.874,38.6" fill="none" stroke="#7390cb" stroke-width="0.844"/>
      </g>
      <g id="Grupo_1886" data-name="Grupo 1886" transform="translate(200.481 -30.187)">
        <path id="Caminho_1963" data-name="Caminho 1963" d="M0,0-49.874,38.6" fill="none" stroke="#7390cb" stroke-width="0.844"/>
      </g>
      <g id="Grupo_1887" data-name="Grupo 1887" transform="translate(205.117 -30.187)">
        <path id="Caminho_1964" data-name="Caminho 1964" d="M0,0-49.874,38.6" fill="none" stroke="#7390cb" stroke-width="0.844"/>
      </g>
      <g id="Grupo_1888" data-name="Grupo 1888" transform="translate(209.752 -30.187)">
        <path id="Caminho_1965" data-name="Caminho 1965" d="M0,0-49.874,38.6" fill="none" stroke="#7390cb" stroke-width="0.844"/>
      </g>
      <g id="Grupo_1889" data-name="Grupo 1889" transform="translate(219.024 -30.187)">
        <path id="Caminho_1966" data-name="Caminho 1966" d="M0,0-49.874,38.6" fill="none" stroke="#7390cb" stroke-width="0.844"/>
      </g>
      <g id="Grupo_1890" data-name="Grupo 1890" transform="translate(228.295 -30.187)">
        <path id="Caminho_1967" data-name="Caminho 1967" d="M0,0-49.874,38.6" fill="none" stroke="#7390cb" stroke-width="0.844"/>
      </g>
      <g id="Grupo_1891" data-name="Grupo 1891" transform="translate(214.388 -30.187)">
        <path id="Caminho_1968" data-name="Caminho 1968" d="M0,0-49.874,38.6" fill="none" stroke="#7390cb" stroke-width="0.844"/>
      </g>
      <g id="Grupo_1892" data-name="Grupo 1892" transform="translate(246.838 -30.187)">
        <path id="Caminho_1969" data-name="Caminho 1969" d="M0,0-49.874,38.6" fill="none" stroke="#7390cb" stroke-width="0.844"/>
      </g>
      <g id="Grupo_1893" data-name="Grupo 1893" transform="translate(232.931 -30.187)">
        <path id="Caminho_1970" data-name="Caminho 1970" d="M0,0-49.874,38.6" fill="none" stroke="#7390cb" stroke-width="0.844"/>
      </g>
      <g id="Grupo_1894" data-name="Grupo 1894" transform="translate(237.567 -30.187)">
        <path id="Caminho_1971" data-name="Caminho 1971" d="M0,0-49.874,38.6" fill="none" stroke="#7390cb" stroke-width="0.844"/>
      </g>
      <g id="Grupo_1895" data-name="Grupo 1895" transform="translate(223.66 -30.187)">
        <path id="Caminho_1972" data-name="Caminho 1972" d="M0,0-49.874,38.6" fill="none" stroke="#7390cb" stroke-width="0.844"/>
      </g>
      <g id="Grupo_1896" data-name="Grupo 1896" transform="translate(256.11 -30.187)">
        <path id="Caminho_1973" data-name="Caminho 1973" d="M0,0-49.874,38.6" fill="none" stroke="#7390cb" stroke-width="0.844"/>
      </g>
      <g id="Grupo_1897" data-name="Grupo 1897" transform="translate(242.202 -30.187)">
        <path id="Caminho_1974" data-name="Caminho 1974" d="M0,0-49.874,38.6" fill="none" stroke="#7390cb" stroke-width="0.844"/>
      </g>
      <g id="Grupo_1898" data-name="Grupo 1898" transform="translate(283.924 -30.187)">
        <path id="Caminho_1975" data-name="Caminho 1975" d="M0,0-49.874,38.6" fill="none" stroke="#7390cb" stroke-width="0.844"/>
      </g>
      <g id="Grupo_1899" data-name="Grupo 1899" transform="translate(270.017 -30.187)">
        <path id="Caminho_1976" data-name="Caminho 1976" d="M0,0-49.874,38.6" fill="none" stroke="#7390cb" stroke-width="0.844"/>
      </g>
      <g id="Grupo_1900" data-name="Grupo 1900" transform="translate(265.381 -30.187)">
        <path id="Caminho_1977" data-name="Caminho 1977" d="M0,0-49.874,38.6" fill="none" stroke="#7390cb" stroke-width="0.844"/>
      </g>
      <g id="Grupo_1901" data-name="Grupo 1901" transform="translate(251.474 -30.187)">
        <path id="Caminho_1978" data-name="Caminho 1978" d="M0,0-49.874,38.6" fill="none" stroke="#7390cb" stroke-width="0.844"/>
      </g>
      <g id="Grupo_1902" data-name="Grupo 1902" transform="translate(274.653 -30.187)">
        <path id="Caminho_1979" data-name="Caminho 1979" d="M0,0-49.874,38.6" fill="none" stroke="#7390cb" stroke-width="0.844"/>
      </g>
      <g id="Grupo_1903" data-name="Grupo 1903" transform="translate(260.745 -30.187)">
        <path id="Caminho_1980" data-name="Caminho 1980" d="M0,0-49.874,38.6" fill="none" stroke="#7390cb" stroke-width="0.844"/>
      </g>
      <g id="Grupo_1904" data-name="Grupo 1904" transform="translate(288.56 -30.187)">
        <path id="Caminho_1981" data-name="Caminho 1981" d="M0,0-49.874,38.6" fill="none" stroke="#7390cb" stroke-width="0.844"/>
      </g>
      <g id="Grupo_1905" data-name="Grupo 1905" transform="translate(293.196 -30.187)">
        <path id="Caminho_1982" data-name="Caminho 1982" d="M0,0-49.874,38.6" fill="none" stroke="#7390cb" stroke-width="0.844"/>
      </g>
      <g id="Grupo_1906" data-name="Grupo 1906" transform="translate(297.831 -30.187)">
        <path id="Caminho_1983" data-name="Caminho 1983" d="M0,0-49.874,38.6" fill="none" stroke="#7390cb" stroke-width="0.844"/>
      </g>
      <g id="Grupo_1907" data-name="Grupo 1907" transform="translate(302.467 -30.187)">
        <path id="Caminho_1984" data-name="Caminho 1984" d="M0,0-49.874,38.6" fill="none" stroke="#7390cb" stroke-width="0.844"/>
      </g>
      <g id="Grupo_1908" data-name="Grupo 1908" transform="translate(307.103 -30.187)">
        <path id="Caminho_1985" data-name="Caminho 1985" d="M0,0-49.874,38.6" fill="none" stroke="#7390cb" stroke-width="0.844"/>
      </g>
      <g id="Grupo_1909" data-name="Grupo 1909" transform="translate(279.288 -30.187)">
        <path id="Caminho_1986" data-name="Caminho 1986" d="M0,0-49.874,38.6" fill="none" stroke="#7390cb" stroke-width="0.844"/>
      </g>
      <g id="Grupo_1910" data-name="Grupo 1910" transform="translate(140.216 -30.187)">
        <path id="Caminho_1987" data-name="Caminho 1987" d="M0,0-49.874,38.6" fill="none" stroke="#7390cb" stroke-width="0.844"/>
      </g>
      <g id="Grupo_1911" data-name="Grupo 1911" transform="translate(75.316 -30.187)">
        <path id="Caminho_1988" data-name="Caminho 1988" d="M0,0-49.874,38.6" fill="none" stroke="#7390cb" stroke-width="0.844"/>
      </g>
      <g id="Grupo_1912" data-name="Grupo 1912" transform="translate(168.031 -30.187)">
        <path id="Caminho_1989" data-name="Caminho 1989" d="M0,0-49.874,38.6" fill="none" stroke="#7390cb" stroke-width="0.844"/>
      </g>
      <g id="Grupo_1913" data-name="Grupo 1913" transform="translate(121.673 -30.187)">
        <path id="Caminho_1990" data-name="Caminho 1990" d="M0,0-49.874,38.6" fill="none" stroke="#7390cb" stroke-width="0.844"/>
      </g>
      <g id="Grupo_1914" data-name="Grupo 1914" transform="translate(98.495 -30.187)">
        <path id="Caminho_1991" data-name="Caminho 1991" d="M0,0-49.874,38.6" fill="none" stroke="#7390cb" stroke-width="0.844"/>
      </g>
      <g id="Grupo_1915" data-name="Grupo 1915" transform="translate(144.852 -30.187)">
        <path id="Caminho_1992" data-name="Caminho 1992" d="M0,0-49.874,38.6" fill="none" stroke="#7390cb" stroke-width="0.844"/>
      </g>
      <g id="Grupo_1916" data-name="Grupo 1916" transform="translate(79.952 -30.187)">
        <path id="Caminho_1993" data-name="Caminho 1993" d="M0,0-49.874,38.6" fill="none" stroke="#7390cb" stroke-width="0.844"/>
      </g>
      <g id="Grupo_1917" data-name="Grupo 1917" transform="translate(172.666 -30.187)">
        <path id="Caminho_1994" data-name="Caminho 1994" d="M0,0-49.874,38.6" fill="none" stroke="#7390cb" stroke-width="0.844"/>
      </g>
      <g id="Grupo_1918" data-name="Grupo 1918" transform="translate(126.309 -30.187)">
        <path id="Caminho_1995" data-name="Caminho 1995" d="M0,0-49.874,38.6" fill="none" stroke="#7390cb" stroke-width="0.844"/>
      </g>
      <g id="Grupo_1919" data-name="Grupo 1919" transform="translate(103.13 -30.187)">
        <path id="Caminho_1996" data-name="Caminho 1996" d="M0,0-49.874,38.6" fill="none" stroke="#7390cb" stroke-width="0.844"/>
      </g>
      <g id="Grupo_1920" data-name="Grupo 1920" transform="translate(149.488 -30.187)">
        <path id="Caminho_1997" data-name="Caminho 1997" d="M0,0-49.874,38.6" fill="none" stroke="#7390cb" stroke-width="0.844"/>
      </g>
      <g id="Grupo_1921" data-name="Grupo 1921" transform="translate(5.741 -30.187)">
        <path id="Caminho_1998" data-name="Caminho 1998" d="M0,0-49.874,38.6" fill="none" stroke="#7390cb" stroke-width="0.844"/>
      </g>
      <g id="Grupo_1922" data-name="Grupo 1922" transform="translate(33.555 -30.187)">
        <path id="Caminho_1999" data-name="Caminho 1999" d="M0,0-49.874,38.6" fill="none" stroke="#7390cb" stroke-width="0.844"/>
      </g>
      <g id="Grupo_1923" data-name="Grupo 1923" transform="translate(19.648 -30.187)">
        <path id="Caminho_2000" data-name="Caminho 2000" d="M0,0-49.874,38.6" fill="none" stroke="#7390cb" stroke-width="0.844"/>
      </g>
      <g id="Grupo_1924" data-name="Grupo 1924" transform="translate(15.012 -30.187)">
        <path id="Caminho_2001" data-name="Caminho 2001" d="M0,0-49.874,38.6" fill="none" stroke="#7390cb" stroke-width="0.844"/>
      </g>
      <g id="Grupo_1925" data-name="Grupo 1925" transform="translate(1.105 -30.187)">
        <path id="Caminho_2002" data-name="Caminho 2002" d="M0,0-49.874,38.6" fill="none" stroke="#7390cb" stroke-width="0.844"/>
      </g>
      <g id="Grupo_1926" data-name="Grupo 1926" transform="translate(24.284 -30.187)">
        <path id="Caminho_2003" data-name="Caminho 2003" d="M0,0-49.874,38.6" fill="none" stroke="#7390cb" stroke-width="0.844"/>
      </g>
      <g id="Grupo_1927" data-name="Grupo 1927" transform="translate(10.377 -30.187)">
        <path id="Caminho_2004" data-name="Caminho 2004" d="M0,0-49.874,38.6" fill="none" stroke="#7390cb" stroke-width="0.844"/>
      </g>
      <g id="Grupo_1928" data-name="Grupo 1928" transform="translate(38.191 -30.187)">
        <path id="Caminho_2005" data-name="Caminho 2005" d="M0,0-49.874,38.6" fill="none" stroke="#7390cb" stroke-width="0.844"/>
      </g>
      <g id="Grupo_1929" data-name="Grupo 1929" transform="translate(42.827 -30.187)">
        <path id="Caminho_2006" data-name="Caminho 2006" d="M0,0-49.874,38.6" fill="none" stroke="#7390cb" stroke-width="0.844"/>
      </g>
      <g id="Grupo_1930" data-name="Grupo 1930" transform="translate(47.463 -30.187)">
        <path id="Caminho_2007" data-name="Caminho 2007" d="M0,0-49.874,38.6" fill="none" stroke="#7390cb" stroke-width="0.844"/>
      </g>
      <g id="Grupo_1931" data-name="Grupo 1931" transform="translate(52.098 -30.187)">
        <path id="Caminho_2008" data-name="Caminho 2008" d="M0,0-49.874,38.6" fill="none" stroke="#7390cb" stroke-width="0.844"/>
      </g>
      <g id="Grupo_1932" data-name="Grupo 1932" transform="translate(56.734 -30.187)">
        <path id="Caminho_2009" data-name="Caminho 2009" d="M0,0-49.874,38.6" fill="none" stroke="#7390cb" stroke-width="0.844"/>
      </g>
      <g id="Grupo_1933" data-name="Grupo 1933" transform="translate(28.92 -30.187)">
        <path id="Caminho_2010" data-name="Caminho 2010" d="M0,0-49.874,38.6" fill="none" stroke="#7390cb" stroke-width="0.844"/>
      </g>
    </g>
  </g>
</svg>
