<svg xmlns="http://www.w3.org/2000/svg" xmlns:xlink="http://www.w3.org/1999/xlink" width="12.465" height="53.14" viewBox="0 0 12.465 53.14">
  <defs>
    <clipPath id="clip-path">
      <path id="Caminho_1446" data-name="Caminho 1446" d="M2.763-53.141A2.835,2.835,0,0,0,0-50.307H0V-2.835A2.834,2.834,0,0,0,2.835,0h6.8a2.835,2.835,0,0,0,2.835-2.834h0V-50.307A2.835,2.835,0,0,0,9.7-53.141H2.763Z" fill="none"/>
    </clipPath>
  </defs>
  <g id="bg_ficadica" transform="translate(0 53.141)">
    <g id="Grupo_1446" data-name="Grupo 1446" clip-path="url(#clip-path)">
      <g id="Grupo_1425" data-name="Grupo 1425" transform="translate(63.81 -52.417)">
        <path id="Caminho_1425" data-name="Caminho 1425" d="M0,0-90.531,70.066" fill="none" stroke="#ff8625" stroke-width="0.589"/>
      </g>
      <g id="Grupo_1426" data-name="Grupo 1426" transform="translate(24.34 -52.417)">
        <path id="Caminho_1426" data-name="Caminho 1426" d="M0,0-42.464,32.863" fill="none" stroke="#ff8625" stroke-width="0.589"/>
      </g>
      <g id="Grupo_1427" data-name="Grupo 1427" transform="translate(4.606 -52.417)">
        <path id="Caminho_1427" data-name="Caminho 1427" d="M0,0-42.464,32.863" fill="none" stroke="#ff8625" stroke-width="0.589"/>
      </g>
      <g id="Grupo_1428" data-name="Grupo 1428" transform="translate(44.075 -52.417)">
        <path id="Caminho_1428" data-name="Caminho 1428" d="M0,0-65.977,51.074" fill="none" stroke="#ff8625" stroke-width="0.589"/>
      </g>
      <g id="Grupo_1429" data-name="Grupo 1429" transform="translate(67.757 -52.417)">
        <path id="Caminho_1429" data-name="Caminho 1429" d="M0,0-93.769,72.617" fill="none" stroke="#ff8625" stroke-width="0.589"/>
      </g>
      <g id="Grupo_1430" data-name="Grupo 1430" transform="translate(28.287 -52.417)">
        <path id="Caminho_1430" data-name="Caminho 1430" d="M0,0-42.464,32.863" fill="none" stroke="#ff8625" stroke-width="0.589"/>
      </g>
      <g id="Grupo_1431" data-name="Grupo 1431" transform="translate(8.553 -52.417)">
        <path id="Caminho_1431" data-name="Caminho 1431" d="M0,0-42.464,32.863" fill="none" stroke="#ff8625" stroke-width="0.589"/>
      </g>
      <g id="Grupo_1432" data-name="Grupo 1432" transform="translate(48.022 -52.417)">
        <path id="Caminho_1432" data-name="Caminho 1432" d="M0,0-69.924,54.192" fill="none" stroke="#ff8625" stroke-width="0.589"/>
      </g>
      <g id="Grupo_1433" data-name="Grupo 1433" transform="translate(71.704 -52.417)">
        <path id="Caminho_1433" data-name="Caminho 1433" d="M0,0-95.732,74.46" fill="none" stroke="#ff8625" stroke-width="0.589"/>
      </g>
      <g id="Grupo_1434" data-name="Grupo 1434" transform="translate(32.234 -52.417)">
        <path id="Caminho_1434" data-name="Caminho 1434" d="M0,0-42.464,32.863" fill="none" stroke="#ff8625" stroke-width="0.589"/>
      </g>
      <g id="Grupo_1435" data-name="Grupo 1435" transform="translate(12.5 -52.417)">
        <path id="Caminho_1435" data-name="Caminho 1435" d="M0,0-42.464,32.863" fill="none" stroke="#ff8625" stroke-width="0.589"/>
      </g>
      <g id="Grupo_1436" data-name="Grupo 1436" transform="translate(51.969 -52.417)">
        <path id="Caminho_1436" data-name="Caminho 1436" d="M0,0-75.855,58.728" fill="none" stroke="#ff8625" stroke-width="0.589"/>
      </g>
      <g id="Grupo_1437" data-name="Grupo 1437" transform="translate(75.651 -52.417)">
        <path id="Caminho_1437" data-name="Caminho 1437" d="M0,0-101.1,78.428" fill="none" stroke="#ff8625" stroke-width="0.589"/>
      </g>
      <g id="Grupo_1438" data-name="Grupo 1438" transform="translate(36.181 -52.417)">
        <path id="Caminho_1438" data-name="Caminho 1438" d="M0,0-42.464,32.863" fill="none" stroke="#ff8625" stroke-width="0.589"/>
      </g>
      <g id="Grupo_1439" data-name="Grupo 1439" transform="translate(16.447 -52.417)">
        <path id="Caminho_1439" data-name="Caminho 1439" d="M0,0-42.464,32.863" fill="none" stroke="#ff8625" stroke-width="0.589"/>
      </g>
      <g id="Grupo_1440" data-name="Grupo 1440" transform="translate(55.916 -52.417)">
        <path id="Caminho_1440" data-name="Caminho 1440" d="M0,0-82.778,64.113" fill="none" stroke="#ff8625" stroke-width="0.589"/>
      </g>
      <g id="Grupo_1441" data-name="Grupo 1441" transform="translate(0.659 -52.417)">
        <path id="Caminho_1441" data-name="Caminho 1441" d="M0,0-42.464,32.863" fill="none" stroke="#ff8625" stroke-width="0.589"/>
      </g>
      <g id="Grupo_1442" data-name="Grupo 1442" transform="translate(79.598 -52.417)">
        <path id="Caminho_1442" data-name="Caminho 1442" d="M0,0-107.027,83.105" fill="none" stroke="#ff8625" stroke-width="0.589"/>
      </g>
      <g id="Grupo_1443" data-name="Grupo 1443" transform="translate(40.128 -52.417)">
        <path id="Caminho_1443" data-name="Caminho 1443" d="M0,0-59.9,46.4" fill="none" stroke="#ff8625" stroke-width="0.589"/>
      </g>
      <g id="Grupo_1444" data-name="Grupo 1444" transform="translate(20.393 -52.417)">
        <path id="Caminho_1444" data-name="Caminho 1444" d="M0,0-42.464,32.863" fill="none" stroke="#ff8625" stroke-width="0.589"/>
      </g>
      <g id="Grupo_1445" data-name="Grupo 1445" transform="translate(59.863 -52.417)">
        <path id="Caminho_1445" data-name="Caminho 1445" d="M0,0-87.859,67.8" fill="none" stroke="#ff8625" stroke-width="0.589"/>
      </g>
    </g>
  </g>
</svg>
