<svg xmlns="http://www.w3.org/2000/svg" xmlns:xlink="http://www.w3.org/1999/xlink" width="109" height="167" viewBox="0 0 109 167">
  <defs>
    <clipPath id="clip-path">
      <rect id="Retângulo_91" data-name="Retângulo 91" width="109" height="167" transform="translate(2019 2163)" fill="none"/>
    </clipPath>
    <clipPath id="clip-path-2">
      <path id="Caminho_8611" data-name="Caminho 8611" d="M46.672-167.067a10.594,10.594,0,0,0-10.594,10.593h0v62.019A10.594,10.594,0,0,0,46.672-83.861H60.365A10.594,10.594,0,0,0,70.959-94.455h0v-62.019a10.594,10.594,0,0,0-10.594-10.593H46.672Z" fill="none"/>
    </clipPath>
    <clipPath id="clip-path-3">
      <path id="Caminho_8613" data-name="Caminho 8613" d="M0,0H262.821V-187.087H0Z" fill="none"/>
    </clipPath>
    <clipPath id="clip-path-4">
      <path id="Caminho_8630" data-name="Caminho 8630" d="M.045,0H43.457V-68.032H.045Z" fill="none"/>
    </clipPath>
  </defs>
  <g id="bg_gabarito" transform="translate(-2019 -2163)" clip-path="url(#clip-path)">
    <g id="Grupo_8603" data-name="Grupo 8603" transform="translate(2003 2335.174)" clip-path="url(#clip-path-2)">
      <g id="Grupo_8585" data-name="Grupo 8585" transform="translate(129.174 -164.166)">
        <path id="Caminho_8593" data-name="Caminho 8593" d="M0,0-93.563,72.172" fill="none" stroke="#fe6534" stroke-width="1.01"/>
      </g>
      <g id="Grupo_8586" data-name="Grupo 8586" transform="translate(61.534 -164.166)">
        <path id="Caminho_8594" data-name="Caminho 8594" d="M0,0-72.772,56.32" fill="none" stroke="#fe6534" stroke-width="1.01"/>
      </g>
      <g id="Grupo_8587" data-name="Grupo 8587" transform="translate(95.354 -164.166)">
        <path id="Caminho_8595" data-name="Caminho 8595" d="M0,0-72.772,56.32" fill="none" stroke="#fe6534" stroke-width="1.01"/>
      </g>
      <g id="Grupo_8588" data-name="Grupo 8588" transform="translate(135.938 -164.166)">
        <path id="Caminho_8596" data-name="Caminho 8596" d="M0,0-99.076,76.864" fill="none" stroke="#fe6534" stroke-width="1.01"/>
      </g>
      <g id="Grupo_8589" data-name="Grupo 8589" transform="translate(68.298 -164.166)">
        <path id="Caminho_8597" data-name="Caminho 8597" d="M0,0-72.772,56.32" fill="none" stroke="#fe6534" stroke-width="1.01"/>
      </g>
      <g id="Grupo_8590" data-name="Grupo 8590" transform="translate(102.118 -164.166)">
        <path id="Caminho_8598" data-name="Caminho 8598" d="M0,0-72.772,56.32" fill="none" stroke="#fe6534" stroke-width="1.01"/>
      </g>
      <g id="Grupo_8591" data-name="Grupo 8591" transform="translate(142.702 -164.166)">
        <path id="Caminho_8599" data-name="Caminho 8599" d="M0,0-106.152,82.182" fill="none" stroke="#fe6534" stroke-width="1.01"/>
      </g>
      <g id="Grupo_8592" data-name="Grupo 8592" transform="translate(75.062 -164.166)">
        <path id="Caminho_8600" data-name="Caminho 8600" d="M0,0-72.772,56.32" fill="none" stroke="#fe6534" stroke-width="1.01"/>
      </g>
      <g id="Grupo_8593" data-name="Grupo 8593" transform="translate(41.241 -164.166)">
        <path id="Caminho_8601" data-name="Caminho 8601" d="M0,0-72.772,56.32" fill="none" stroke="#fe6534" stroke-width="1.01"/>
      </g>
      <g id="Grupo_8594" data-name="Grupo 8594" transform="translate(108.882 -164.166)">
        <path id="Caminho_8602" data-name="Caminho 8602" d="M0,0-72.772,56.32" fill="none" stroke="#fe6534" stroke-width="1.01"/>
      </g>
      <g id="Grupo_8595" data-name="Grupo 8595" transform="translate(149.466 -164.166)">
        <path id="Caminho_8603" data-name="Caminho 8603" d="M0,0-105.722,81.556" fill="none" stroke="#fe6534" stroke-width="1.01"/>
      </g>
      <g id="Grupo_8596" data-name="Grupo 8596" transform="translate(81.826 -164.166)">
        <path id="Caminho_8604" data-name="Caminho 8604" d="M0,0-72.772,56.32" fill="none" stroke="#fe6534" stroke-width="1.01"/>
      </g>
      <g id="Grupo_8597" data-name="Grupo 8597" transform="translate(48.005 -164.166)">
        <path id="Caminho_8605" data-name="Caminho 8605" d="M0,0-72.772,56.32" fill="none" stroke="#fe6534" stroke-width="1.01"/>
      </g>
      <g id="Grupo_8598" data-name="Grupo 8598" transform="translate(115.646 -164.166)">
        <path id="Caminho_8606" data-name="Caminho 8606" d="M0,0-88.08,68.418" fill="none" stroke="#fe6534" stroke-width="1.01"/>
      </g>
      <g id="Grupo_8599" data-name="Grupo 8599" transform="translate(156.23 -164.166)">
        <path id="Caminho_8607" data-name="Caminho 8607" d="M0,0-104.979,80.931" fill="none" stroke="#fe6534" stroke-width="1.01"/>
      </g>
      <g id="Grupo_8600" data-name="Grupo 8600" transform="translate(88.59 -164.166)">
        <path id="Caminho_8608" data-name="Caminho 8608" d="M0,0-72.772,56.32" fill="none" stroke="#fe6534" stroke-width="1.01"/>
      </g>
      <g id="Grupo_8601" data-name="Grupo 8601" transform="translate(54.77 -164.166)">
        <path id="Caminho_8609" data-name="Caminho 8609" d="M0,0-72.772,56.32" fill="none" stroke="#fe6534" stroke-width="1.01"/>
      </g>
      <g id="Grupo_8602" data-name="Grupo 8602" transform="translate(122.41 -164.166)">
        <path id="Caminho_8610" data-name="Caminho 8610" d="M0,0-90.552,69.982" fill="none" stroke="#fe6534" stroke-width="1.01"/>
      </g>
    </g>
    <g id="Grupo_8605" data-name="Grupo 8605" transform="translate(2003 2335.174)" clip-path="url(#clip-path-3)">
      <g id="Grupo_8604" data-name="Grupo 8604" transform="translate(72.118 -104.232)">
        <path id="Caminho_8612" data-name="Caminho 8612" d="M0,0,.259-51.161A15.763,15.763,0,0,0-4.335-62.352a15.765,15.765,0,0,0-11.151-4.692l-56.553-.295-.04,9.076,56.554.3a6.715,6.715,0,0,1,4.745,2A6.713,6.713,0,0,1-8.818-51.2L-9.076-.04Z" fill="#fe6534"/>
      </g>
    </g>
    <g id="Grupo_8622" data-name="Grupo 8622" transform="translate(2003 2335.174)" clip-path="url(#clip-path-4)">
      <g id="Grupo_8606" data-name="Grupo 8606" transform="translate(66.954 -64.802)">
        <path id="Caminho_8614" data-name="Caminho 8614" d="M0,0-72.063,55.771" fill="none" stroke="#7479be" stroke-width="1"/>
      </g>
      <g id="Grupo_8607" data-name="Grupo 8607" transform="translate(-0.028 -64.802)">
        <path id="Caminho_8615" data-name="Caminho 8615" d="M0,0-72.063,55.771" fill="none" stroke="#7479be" stroke-width="1"/>
      </g>
      <g id="Grupo_8608" data-name="Grupo 8608" transform="translate(100.444 -64.802)">
        <path id="Caminho_8616" data-name="Caminho 8616" d="M0,0-72.063,55.771" fill="none" stroke="#7479be" stroke-width="1"/>
      </g>
      <g id="Grupo_8609" data-name="Grupo 8609" transform="translate(33.463 -64.802)">
        <path id="Caminho_8617" data-name="Caminho 8617" d="M0,0-72.063,55.771" fill="none" stroke="#7479be" stroke-width="1"/>
      </g>
      <g id="Grupo_8610" data-name="Grupo 8610" transform="translate(73.652 -64.802)">
        <path id="Caminho_8618" data-name="Caminho 8618" d="M0,0-72.063,55.771" fill="none" stroke="#7479be" stroke-width="1"/>
      </g>
      <g id="Grupo_8611" data-name="Grupo 8611" transform="translate(6.67 -64.802)">
        <path id="Caminho_8619" data-name="Caminho 8619" d="M0,0-72.063,55.771" fill="none" stroke="#7479be" stroke-width="1"/>
      </g>
      <g id="Grupo_8612" data-name="Grupo 8612" transform="translate(40.161 -64.802)">
        <path id="Caminho_8620" data-name="Caminho 8620" d="M0,0-72.063,55.771" fill="none" stroke="#7479be" stroke-width="1"/>
      </g>
      <g id="Grupo_8613" data-name="Grupo 8613" transform="translate(80.35 -64.802)">
        <path id="Caminho_8621" data-name="Caminho 8621" d="M0,0-72.063,55.771" fill="none" stroke="#7479be" stroke-width="1"/>
      </g>
      <g id="Grupo_8614" data-name="Grupo 8614" transform="translate(13.369 -64.802)">
        <path id="Caminho_8622" data-name="Caminho 8622" d="M0,0-72.063,55.771" fill="none" stroke="#7479be" stroke-width="1"/>
      </g>
      <g id="Grupo_8615" data-name="Grupo 8615" transform="translate(46.859 -64.802)">
        <path id="Caminho_8623" data-name="Caminho 8623" d="M0,0-72.063,55.771" fill="none" stroke="#7479be" stroke-width="1"/>
      </g>
      <g id="Grupo_8616" data-name="Grupo 8616" transform="translate(87.048 -64.802)">
        <path id="Caminho_8624" data-name="Caminho 8624" d="M0,0-72.063,55.771" fill="none" stroke="#7479be" stroke-width="1"/>
      </g>
      <g id="Grupo_8617" data-name="Grupo 8617" transform="translate(20.067 -64.802)">
        <path id="Caminho_8625" data-name="Caminho 8625" d="M0,0-72.063,55.771" fill="none" stroke="#7479be" stroke-width="1"/>
      </g>
      <g id="Grupo_8618" data-name="Grupo 8618" transform="translate(53.557 -64.802)">
        <path id="Caminho_8626" data-name="Caminho 8626" d="M0,0-72.063,55.771" fill="none" stroke="#7479be" stroke-width="1"/>
      </g>
      <g id="Grupo_8619" data-name="Grupo 8619" transform="translate(93.746 -64.802)">
        <path id="Caminho_8627" data-name="Caminho 8627" d="M0,0-72.063,55.771" fill="none" stroke="#7479be" stroke-width="1"/>
      </g>
      <g id="Grupo_8620" data-name="Grupo 8620" transform="translate(26.765 -64.802)">
        <path id="Caminho_8628" data-name="Caminho 8628" d="M0,0-72.063,55.771" fill="none" stroke="#7479be" stroke-width="1"/>
      </g>
      <g id="Grupo_8621" data-name="Grupo 8621" transform="translate(60.256 -64.802)">
        <path id="Caminho_8629" data-name="Caminho 8629" d="M0,0-72.063,55.771" fill="none" stroke="#7479be" stroke-width="1"/>
      </g>
    </g>
    <g id="Grupo_8627" data-name="Grupo 8627" transform="translate(2003 2335.174)" clip-path="url(#clip-path-3)">
      <g id="Grupo_8623" data-name="Grupo 8623" transform="translate(116.03 -118.499)">
        <path id="Caminho_8631" data-name="Caminho 8631" d="M0,0-.048-7.539a6.716,6.716,0,0,0-2-4.747,6.713,6.713,0,0,0-4.763-1.962l-47.03.151a6.714,6.714,0,0,0-4.745,2A6.713,6.713,0,0,0-60.552-7.33l.181,16.479a15.766,15.766,0,0,1-4.594,11.192,15.768,15.768,0,0,1-11.151,4.691l-39.874.223-.04-9.077,39.874-.223a6.718,6.718,0,0,0,4.746-2,6.717,6.717,0,0,0,1.962-4.764L-69.629-7.29a15.77,15.77,0,0,1,4.593-11.193,15.768,15.768,0,0,1,11.152-4.69l47.029-.151A15.771,15.771,0,0,1,4.338-18.731,15.77,15.77,0,0,1,9.028-7.579L9.076-.04Z" fill="#7b93cc"/>
      </g>
      <g id="Grupo_8624" data-name="Grupo 8624" transform="translate(125.096 -125.815)">
        <path id="Caminho_8632" data-name="Caminho 8632" d="M0,0,.032,7.276A15.766,15.766,0,0,1-4.562,18.468a15.764,15.764,0,0,1-11.151,4.691l-10.72.047a15.769,15.769,0,0,1-11.192-4.593A15.769,15.769,0,0,1-42.316,7.461l.148-68.693,9.077-.039-.148,68.692a6.712,6.712,0,0,0,2,4.746,6.709,6.709,0,0,0,4.763,1.962l10.719-.046a6.709,6.709,0,0,0,4.745-2A6.713,6.713,0,0,0-9.045,7.316L-9.076.04Z" fill="#7b93cc"/>
      </g>
      <g id="Grupo_8625" data-name="Grupo 8625" transform="translate(38.581 -40.079)">
        <path id="Caminho_8633" data-name="Caminho 8633" d="M0,0-.5-147.008l-9.077.04L-9.076.04A6.713,6.713,0,0,1-11.039,4.8a6.719,6.719,0,0,1-4.745,2l-22.757.1v9.076l22.8-.1A15.773,15.773,0,0,0-4.593,11.192,15.767,15.767,0,0,0,0,0" fill="#ff8625"/>
      </g>
      <g id="Grupo_8626" data-name="Grupo 8626" transform="translate(72.339 -145.796)">
        <path id="Caminho_8634" data-name="Caminho 8634" d="M0,0-.182,51.161A15.763,15.763,0,0,1-4.776,62.352a15.765,15.765,0,0,1-11.151,4.692l-56.373.295-.039-9.076,56.373-.3a6.715,6.715,0,0,0,4.745-2A6.713,6.713,0,0,0-9.259,51.2L-9.076.04Z" fill="#fe6534"/>
      </g>
    </g>
  </g>
</svg>
