<svg xmlns="http://www.w3.org/2000/svg" xmlns:xlink="http://www.w3.org/1999/xlink" width="47" height="15" viewBox="0 0 47 15">
  <defs>
    <clipPath id="clip-path">
      <rect id="Retângulo_23" data-name="Retângulo 23" width="47" height="15" transform="translate(199 280)" fill="none"/>
    </clipPath>
    <clipPath id="clip-path-2">
      <path id="Caminho_1690" data-name="Caminho 1690" d="M145.351-268.066a2.835,2.835,0,0,0-2.835,2.835h0v8.759a2.834,2.834,0,0,0,2.835,2.834h47.472a2.834,2.834,0,0,0,2.834-2.834h0v-8.759a2.834,2.834,0,0,0-2.834-2.835H145.351Z" fill="none"/>
    </clipPath>
  </defs>
  <g id="bg_matdestaque" transform="translate(-199 -280)" clip-path="url(#clip-path)">
    <g id="Grupo_1679" data-name="Grupo 1679" transform="translate(54 548.378)" clip-path="url(#clip-path-2)">
      <g id="Grupo_1658" data-name="Grupo 1658" transform="translate(194.932 -204.256)">
        <path id="Caminho_1669" data-name="Caminho 1669" d="M0,0-70.066-90.531" fill="none" stroke="#ff8625" stroke-width="0.589"/>
      </g>
      <g id="Grupo_1659" data-name="Grupo 1659" transform="translate(194.932 -243.726)">
        <path id="Caminho_1670" data-name="Caminho 1670" d="M0,0-32.863-42.464" fill="none" stroke="#ff8625" stroke-width="0.589"/>
      </g>
      <g id="Grupo_1660" data-name="Grupo 1660" transform="translate(194.932 -263.46)">
        <path id="Caminho_1671" data-name="Caminho 1671" d="M0,0-32.863-42.464" fill="none" stroke="#ff8625" stroke-width="0.589"/>
      </g>
      <g id="Grupo_1661" data-name="Grupo 1661" transform="translate(194.932 -223.991)">
        <path id="Caminho_1672" data-name="Caminho 1672" d="M0,0-51.074-65.977" fill="none" stroke="#ff8625" stroke-width="0.589"/>
      </g>
      <g id="Grupo_1662" data-name="Grupo 1662" transform="translate(194.932 -200.309)">
        <path id="Caminho_1673" data-name="Caminho 1673" d="M0,0-72.617-93.769" fill="none" stroke="#ff8625" stroke-width="0.589"/>
      </g>
      <g id="Grupo_1663" data-name="Grupo 1663" transform="translate(194.932 -239.779)">
        <path id="Caminho_1674" data-name="Caminho 1674" d="M0,0-32.863-42.464" fill="none" stroke="#ff8625" stroke-width="0.589"/>
      </g>
      <g id="Grupo_1664" data-name="Grupo 1664" transform="translate(194.932 -259.513)">
        <path id="Caminho_1675" data-name="Caminho 1675" d="M0,0-32.863-42.464" fill="none" stroke="#ff8625" stroke-width="0.589"/>
      </g>
      <g id="Grupo_1665" data-name="Grupo 1665" transform="translate(194.932 -220.044)">
        <path id="Caminho_1676" data-name="Caminho 1676" d="M0,0-54.192-69.924" fill="none" stroke="#ff8625" stroke-width="0.589"/>
      </g>
      <g id="Grupo_1666" data-name="Grupo 1666" transform="translate(194.932 -196.362)">
        <path id="Caminho_1677" data-name="Caminho 1677" d="M0,0-74.46-95.732" fill="none" stroke="#ff8625" stroke-width="0.589"/>
      </g>
      <g id="Grupo_1667" data-name="Grupo 1667" transform="translate(194.932 -235.832)">
        <path id="Caminho_1678" data-name="Caminho 1678" d="M0,0-32.863-42.464" fill="none" stroke="#ff8625" stroke-width="0.589"/>
      </g>
      <g id="Grupo_1668" data-name="Grupo 1668" transform="translate(194.932 -255.566)">
        <path id="Caminho_1679" data-name="Caminho 1679" d="M0,0-32.863-42.464" fill="none" stroke="#ff8625" stroke-width="0.589"/>
      </g>
      <g id="Grupo_1669" data-name="Grupo 1669" transform="translate(194.932 -216.097)">
        <path id="Caminho_1680" data-name="Caminho 1680" d="M0,0-58.728-75.855" fill="none" stroke="#ff8625" stroke-width="0.589"/>
      </g>
      <g id="Grupo_1670" data-name="Grupo 1670" transform="translate(194.932 -192.415)">
        <path id="Caminho_1681" data-name="Caminho 1681" d="M0,0-78.428-101.1" fill="none" stroke="#ff8625" stroke-width="0.589"/>
      </g>
      <g id="Grupo_1671" data-name="Grupo 1671" transform="translate(194.932 -231.885)">
        <path id="Caminho_1682" data-name="Caminho 1682" d="M0,0-32.863-42.464" fill="none" stroke="#ff8625" stroke-width="0.589"/>
      </g>
      <g id="Grupo_1672" data-name="Grupo 1672" transform="translate(194.932 -251.62)">
        <path id="Caminho_1683" data-name="Caminho 1683" d="M0,0-32.863-42.464" fill="none" stroke="#ff8625" stroke-width="0.589"/>
      </g>
      <g id="Grupo_1673" data-name="Grupo 1673" transform="translate(194.932 -212.15)">
        <path id="Caminho_1684" data-name="Caminho 1684" d="M0,0-64.113-82.778" fill="none" stroke="#ff8625" stroke-width="0.589"/>
      </g>
      <g id="Grupo_1674" data-name="Grupo 1674" transform="translate(194.932 -267.407)">
        <path id="Caminho_1685" data-name="Caminho 1685" d="M0,0-32.863-42.464" fill="none" stroke="#ff8625" stroke-width="0.589"/>
      </g>
      <g id="Grupo_1675" data-name="Grupo 1675" transform="translate(194.932 -188.468)">
        <path id="Caminho_1686" data-name="Caminho 1686" d="M0,0-83.105-107.027" fill="none" stroke="#ff8625" stroke-width="0.589"/>
      </g>
      <g id="Grupo_1676" data-name="Grupo 1676" transform="translate(194.932 -227.938)">
        <path id="Caminho_1687" data-name="Caminho 1687" d="M0,0-46.4-59.9" fill="none" stroke="#ff8625" stroke-width="0.589"/>
      </g>
      <g id="Grupo_1677" data-name="Grupo 1677" transform="translate(194.932 -247.673)">
        <path id="Caminho_1688" data-name="Caminho 1688" d="M0,0-32.863-42.464" fill="none" stroke="#ff8625" stroke-width="0.589"/>
      </g>
      <g id="Grupo_1678" data-name="Grupo 1678" transform="translate(194.932 -208.203)">
        <path id="Caminho_1689" data-name="Caminho 1689" d="M0,0-67.8-87.859" fill="none" stroke="#ff8625" stroke-width="0.589"/>
      </g>
    </g>
  </g>
</svg>
