<svg xmlns="http://www.w3.org/2000/svg" xmlns:xlink="http://www.w3.org/1999/xlink" width="34" height="8" viewBox="0 0 34 8">
  <defs>
    <clipPath id="clip-path">
      <rect id="Ret창ngulo_19" data-name="Ret창ngulo 19" width="34" height="8" transform="translate(624 953)" fill="none"/>
    </clipPath>
    <clipPath id="clip-path-2">
      <path id="Ret창ngulo_18" data-name="Ret창ngulo 18" d="M2.834,0H36.851a2.833,2.833,0,0,1,2.833,2.833V9.354a2.834,2.834,0,0,1-2.834,2.834H2.835A2.835,2.835,0,0,1,0,9.353V2.834A2.834,2.834,0,0,1,2.834,0Z" transform="translate(38.428 8.295)" fill="none"/>
    </clipPath>
  </defs>
  <g id="bg_pesquisatop" transform="translate(658 961) rotate(180)" clip-path="url(#clip-path)">
    <g id="Grupo_1450" data-name="Grupo 1450" transform="translate(582.572 939.705)" clip-path="url(#clip-path-2)">
      <line id="Linha_49" data-name="Linha 49" x1="71.338" y2="55.212" transform="translate(12.029 0.184)" fill="none" stroke="#e04a1f" stroke-width="0.464"/>
      <line id="Linha_50" data-name="Linha 50" x1="33.462" y2="25.896" transform="translate(18.803 0.184)" fill="none" stroke="#e04a1f" stroke-width="0.464"/>
      <line id="Linha_51" data-name="Linha 51" x1="33.462" y2="25.896" transform="translate(65.456 0.184)" fill="none" stroke="#e04a1f" stroke-width="0.464"/>
      <line id="Linha_52" data-name="Linha 52" x1="51.99" y2="40.246" transform="translate(15.826 0.184)" fill="none" stroke="#e04a1f" stroke-width="0.464"/>
      <line id="Linha_53" data-name="Linha 53" x1="73.89" y2="57.222" transform="translate(12.588 0.184)" fill="none" stroke="#e04a1f" stroke-width="0.464"/>
      <line id="Linha_54" data-name="Linha 54" x1="33.462" y2="25.896" transform="translate(21.913 0.184)" fill="none" stroke="#e04a1f" stroke-width="0.464"/>
      <line id="Linha_55" data-name="Linha 55" x1="33.462" y2="25.896" transform="translate(6.362 0.184)" fill="none" stroke="#e04a1f" stroke-width="0.464"/>
      <line id="Linha_56" data-name="Linha 56" x1="33.462" y2="25.896" transform="translate(68.566 0.184)" fill="none" stroke="#e04a1f" stroke-width="0.464"/>
      <line id="Linha_57" data-name="Linha 57" x1="55.1" y2="42.703" transform="translate(15.826 0.184)" fill="none" stroke="#e04a1f" stroke-width="0.464"/>
      <line id="Linha_58" data-name="Linha 58" x1="75.436" y2="58.674" transform="translate(14.152 0.184)" fill="none" stroke="#e04a1f" stroke-width="0.464"/>
      <line id="Linha_59" data-name="Linha 59" x1="33.462" y2="25.896" transform="translate(25.024 0.184)" fill="none" stroke="#e04a1f" stroke-width="0.464"/>
      <line id="Linha_60" data-name="Linha 60" x1="33.462" y2="25.896" transform="translate(9.473 0.184)" fill="none" stroke="#e04a1f" stroke-width="0.464"/>
      <line id="Linha_61" data-name="Linha 61" x1="33.462" y2="25.896" transform="translate(71.677 0.184)" fill="none" stroke="#e04a1f" stroke-width="0.464"/>
      <line id="Linha_62" data-name="Linha 62" x1="33.462" y2="25.896" transform="translate(74.787 0.184)" fill="none" stroke="#e04a1f" stroke-width="0.464"/>
      <line id="Linha_63" data-name="Linha 63" x1="33.462" y2="25.896" transform="translate(77.897 0.184)" fill="none" stroke="#e04a1f" stroke-width="0.464"/>
      <line id="Linha_64" data-name="Linha 64" x1="59.774" y2="46.277" transform="translate(14.263 0.184)" fill="none" stroke="#e04a1f" stroke-width="0.464"/>
      <line id="Linha_65" data-name="Linha 65" x1="79.664" y2="61.802" transform="translate(13.034 0.184)" fill="none" stroke="#e04a1f" stroke-width="0.464"/>
      <line id="Linha_66" data-name="Linha 66" x1="33.462" y2="25.896" transform="translate(28.134 0.184)" fill="none" stroke="#e04a1f" stroke-width="0.464"/>
      <line id="Linha_67" data-name="Linha 67" x1="33.462" y2="25.896" transform="translate(12.583 0.184)" fill="none" stroke="#e04a1f" stroke-width="0.464"/>
      <line id="Linha_68" data-name="Linha 68" x1="65.229" y2="50.521" transform="translate(11.918 0.184)" fill="none" stroke="#e04a1f" stroke-width="0.464"/>
      <line id="Linha_69" data-name="Linha 69" x1="84.337" y2="65.487" transform="translate(11.471 0.184)" fill="none" stroke="#e04a1f" stroke-width="0.464"/>
      <line id="Linha_70" data-name="Linha 70" x1="47.204" y2="36.561" transform="translate(17.502 0.184)" fill="none" stroke="#e04a1f" stroke-width="0.464"/>
      <line id="Linha_71" data-name="Linha 71" x1="33.462" y2="25.896" transform="translate(15.693 0.184)" fill="none" stroke="#e04a1f" stroke-width="0.464"/>
      <line id="Linha_72" data-name="Linha 72" x1="69.233" y2="53.425" transform="translate(11.024 0.184)" fill="none" stroke="#e04a1f" stroke-width="0.464"/>
    </g>
  </g>
</svg>
