<svg xmlns="http://www.w3.org/2000/svg" xmlns:xlink="http://www.w3.org/1999/xlink" width="198.624" height="11.905" viewBox="0 0 198.624 11.905">
  <defs>
    <clipPath id="clip-path">
      <path id="Caminho_7455" data-name="Caminho 7455" d="M0,0H198.624V-11.9H0Z" fill="none"/>
    </clipPath>
  </defs>
  <g id="bg_sumaunidade" transform="translate(0 11.905)">
    <g id="Grupo_7403" data-name="Grupo 7403" clip-path="url(#clip-path)">
      <g id="Grupo_7349" data-name="Grupo 7349" transform="translate(8.79 -26.682)">
        <path id="Caminho_7401" data-name="Caminho 7401" d="M0,0-45.08,34.888" fill="none" stroke="#2b2e34" stroke-width="0.5"/>
      </g>
      <g id="Grupo_7350" data-name="Grupo 7350" transform="translate(92.592 -26.682)">
        <path id="Caminho_7402" data-name="Caminho 7402" d="M0,0-45.08,34.888" fill="none" stroke="#2b2e34" stroke-width="0.5"/>
      </g>
      <g id="Grupo_7351" data-name="Grupo 7351" transform="translate(50.691 -26.682)">
        <path id="Caminho_7403" data-name="Caminho 7403" d="M0,0-45.08,34.888" fill="none" stroke="#2b2e34" stroke-width="0.5"/>
      </g>
      <g id="Grupo_7352" data-name="Grupo 7352" transform="translate(29.74 -26.682)">
        <path id="Caminho_7404" data-name="Caminho 7404" d="M0,0-45.08,34.888" fill="none" stroke="#2b2e34" stroke-width="0.5"/>
      </g>
      <g id="Grupo_7353" data-name="Grupo 7353" transform="translate(113.542 -26.682)">
        <path id="Caminho_7405" data-name="Caminho 7405" d="M0,0-45.08,34.888" fill="none" stroke="#2b2e34" stroke-width="0.5"/>
      </g>
      <g id="Grupo_7354" data-name="Grupo 7354" transform="translate(71.641 -26.682)">
        <path id="Caminho_7406" data-name="Caminho 7406" d="M0,0-45.08,34.888" fill="none" stroke="#2b2e34" stroke-width="0.5"/>
      </g>
      <g id="Grupo_7355" data-name="Grupo 7355" transform="translate(12.98 -26.682)">
        <path id="Caminho_7407" data-name="Caminho 7407" d="M0,0-45.08,34.888" fill="none" stroke="#2b2e34" stroke-width="0.5"/>
      </g>
      <g id="Grupo_7356" data-name="Grupo 7356" transform="translate(96.782 -26.682)">
        <path id="Caminho_7408" data-name="Caminho 7408" d="M0,0-45.08,34.888" fill="none" stroke="#2b2e34" stroke-width="0.5"/>
      </g>
      <g id="Grupo_7357" data-name="Grupo 7357" transform="translate(54.881 -26.682)">
        <path id="Caminho_7409" data-name="Caminho 7409" d="M0,0-45.08,34.888" fill="none" stroke="#2b2e34" stroke-width="0.5"/>
      </g>
      <g id="Grupo_7358" data-name="Grupo 7358" transform="translate(33.931 -26.682)">
        <path id="Caminho_7410" data-name="Caminho 7410" d="M0,0-45.08,34.888" fill="none" stroke="#2b2e34" stroke-width="0.5"/>
      </g>
      <g id="Grupo_7359" data-name="Grupo 7359" transform="translate(117.732 -26.682)">
        <path id="Caminho_7411" data-name="Caminho 7411" d="M0,0-45.08,34.888" fill="none" stroke="#2b2e34" stroke-width="0.5"/>
      </g>
      <g id="Grupo_7360" data-name="Grupo 7360" transform="translate(75.831 -26.682)">
        <path id="Caminho_7412" data-name="Caminho 7412" d="M0,0-45.08,34.888" fill="none" stroke="#2b2e34" stroke-width="0.5"/>
      </g>
      <g id="Grupo_7361" data-name="Grupo 7361" transform="translate(17.17 -26.682)">
        <path id="Caminho_7413" data-name="Caminho 7413" d="M0,0-45.08,34.888" fill="none" stroke="#2b2e34" stroke-width="0.5"/>
      </g>
      <g id="Grupo_7362" data-name="Grupo 7362" transform="translate(100.972 -26.682)">
        <path id="Caminho_7414" data-name="Caminho 7414" d="M0,0-45.08,34.888" fill="none" stroke="#2b2e34" stroke-width="0.5"/>
      </g>
      <g id="Grupo_7363" data-name="Grupo 7363" transform="translate(59.071 -26.682)">
        <path id="Caminho_7415" data-name="Caminho 7415" d="M0,0-45.08,34.888" fill="none" stroke="#2b2e34" stroke-width="0.5"/>
      </g>
      <g id="Grupo_7364" data-name="Grupo 7364" transform="translate(38.121 -26.682)">
        <path id="Caminho_7416" data-name="Caminho 7416" d="M0,0-45.08,34.888" fill="none" stroke="#2b2e34" stroke-width="0.5"/>
      </g>
      <g id="Grupo_7365" data-name="Grupo 7365" transform="translate(121.923 -26.682)">
        <path id="Caminho_7417" data-name="Caminho 7417" d="M0,0-45.08,34.888" fill="none" stroke="#2b2e34" stroke-width="0.5"/>
      </g>
      <g id="Grupo_7366" data-name="Grupo 7366" transform="translate(126.113 -26.682)">
        <path id="Caminho_7418" data-name="Caminho 7418" d="M0,0-45.08,34.888" fill="none" stroke="#2b2e34" stroke-width="0.5"/>
      </g>
      <g id="Grupo_7367" data-name="Grupo 7367" transform="translate(130.303 -26.682)">
        <path id="Caminho_7419" data-name="Caminho 7419" d="M0,0-45.08,34.888" fill="none" stroke="#2b2e34" stroke-width="0.5"/>
      </g>
      <g id="Grupo_7368" data-name="Grupo 7368" transform="translate(134.493 -26.682)">
        <path id="Caminho_7420" data-name="Caminho 7420" d="M0,0-45.08,34.888" fill="none" stroke="#2b2e34" stroke-width="0.5"/>
      </g>
      <g id="Grupo_7369" data-name="Grupo 7369" transform="translate(138.683 -26.682)">
        <path id="Caminho_7421" data-name="Caminho 7421" d="M0,0-45.08,34.888" fill="none" stroke="#2b2e34" stroke-width="0.5"/>
      </g>
      <g id="Grupo_7370" data-name="Grupo 7370" transform="translate(142.873 -26.682)">
        <path id="Caminho_7422" data-name="Caminho 7422" d="M0,0-45.08,34.888" fill="none" stroke="#2b2e34" stroke-width="0.5"/>
      </g>
      <g id="Grupo_7371" data-name="Grupo 7371" transform="translate(151.253 -26.682)">
        <path id="Caminho_7423" data-name="Caminho 7423" d="M0,0-45.08,34.888" fill="none" stroke="#2b2e34" stroke-width="0.5"/>
      </g>
      <g id="Grupo_7372" data-name="Grupo 7372" transform="translate(159.634 -26.682)">
        <path id="Caminho_7424" data-name="Caminho 7424" d="M0,0-45.08,34.888" fill="none" stroke="#2b2e34" stroke-width="0.5"/>
      </g>
      <g id="Grupo_7373" data-name="Grupo 7373" transform="translate(147.063 -26.682)">
        <path id="Caminho_7425" data-name="Caminho 7425" d="M0,0-45.08,34.888" fill="none" stroke="#2b2e34" stroke-width="0.5"/>
      </g>
      <g id="Grupo_7374" data-name="Grupo 7374" transform="translate(176.394 -26.682)">
        <path id="Caminho_7426" data-name="Caminho 7426" d="M0,0-45.08,34.888" fill="none" stroke="#2b2e34" stroke-width="0.5"/>
      </g>
      <g id="Grupo_7375" data-name="Grupo 7375" transform="translate(163.824 -26.682)">
        <path id="Caminho_7427" data-name="Caminho 7427" d="M0,0-45.08,34.888" fill="none" stroke="#2b2e34" stroke-width="0.5"/>
      </g>
      <g id="Grupo_7376" data-name="Grupo 7376" transform="translate(168.014 -26.682)">
        <path id="Caminho_7428" data-name="Caminho 7428" d="M0,0-45.08,34.888" fill="none" stroke="#2b2e34" stroke-width="0.5"/>
      </g>
      <g id="Grupo_7377" data-name="Grupo 7377" transform="translate(155.443 -26.682)">
        <path id="Caminho_7429" data-name="Caminho 7429" d="M0,0-45.08,34.888" fill="none" stroke="#2b2e34" stroke-width="0.5"/>
      </g>
      <g id="Grupo_7378" data-name="Grupo 7378" transform="translate(184.774 -26.682)">
        <path id="Caminho_7430" data-name="Caminho 7430" d="M0,0-45.08,34.888" fill="none" stroke="#2b2e34" stroke-width="0.5"/>
      </g>
      <g id="Grupo_7379" data-name="Grupo 7379" transform="translate(172.204 -26.682)">
        <path id="Caminho_7431" data-name="Caminho 7431" d="M0,0-45.08,34.888" fill="none" stroke="#2b2e34" stroke-width="0.5"/>
      </g>
      <g id="Grupo_7380" data-name="Grupo 7380" transform="translate(209.915 -26.682)">
        <path id="Caminho_7432" data-name="Caminho 7432" d="M0,0-45.08,34.888" fill="none" stroke="#2b2e34" stroke-width="0.5"/>
      </g>
      <g id="Grupo_7381" data-name="Grupo 7381" transform="translate(197.344 -26.682)">
        <path id="Caminho_7433" data-name="Caminho 7433" d="M0,0-45.08,34.888" fill="none" stroke="#2b2e34" stroke-width="0.5"/>
      </g>
      <g id="Grupo_7382" data-name="Grupo 7382" transform="translate(193.154 -26.682)">
        <path id="Caminho_7434" data-name="Caminho 7434" d="M0,0-45.08,34.888" fill="none" stroke="#2b2e34" stroke-width="0.5"/>
      </g>
      <g id="Grupo_7383" data-name="Grupo 7383" transform="translate(180.584 -26.682)">
        <path id="Caminho_7435" data-name="Caminho 7435" d="M0,0-45.08,34.888" fill="none" stroke="#2b2e34" stroke-width="0.5"/>
      </g>
      <g id="Grupo_7384" data-name="Grupo 7384" transform="translate(201.535 -26.682)">
        <path id="Caminho_7436" data-name="Caminho 7436" d="M0,0-45.08,34.888" fill="none" stroke="#2b2e34" stroke-width="0.5"/>
      </g>
      <g id="Grupo_7385" data-name="Grupo 7385" transform="translate(188.964 -26.682)">
        <path id="Caminho_7437" data-name="Caminho 7437" d="M0,0-45.08,34.888" fill="none" stroke="#2b2e34" stroke-width="0.5"/>
      </g>
      <g id="Grupo_7386" data-name="Grupo 7386" transform="translate(214.105 -26.682)">
        <path id="Caminho_7438" data-name="Caminho 7438" d="M0,0-45.08,34.888" fill="none" stroke="#2b2e34" stroke-width="0.5"/>
      </g>
      <g id="Grupo_7387" data-name="Grupo 7387" transform="translate(218.295 -26.682)">
        <path id="Caminho_7439" data-name="Caminho 7439" d="M0,0-45.08,34.888" fill="none" stroke="#2b2e34" stroke-width="0.5"/>
      </g>
      <g id="Grupo_7388" data-name="Grupo 7388" transform="translate(222.485 -26.682)">
        <path id="Caminho_7440" data-name="Caminho 7440" d="M0,0-45.08,34.888" fill="none" stroke="#2b2e34" stroke-width="0.5"/>
      </g>
      <g id="Grupo_7389" data-name="Grupo 7389" transform="translate(226.675 -26.682)">
        <path id="Caminho_7441" data-name="Caminho 7441" d="M0,0-45.08,34.888" fill="none" stroke="#2b2e34" stroke-width="0.5"/>
      </g>
      <g id="Grupo_7390" data-name="Grupo 7390" transform="translate(230.865 -26.682)">
        <path id="Caminho_7442" data-name="Caminho 7442" d="M0,0-45.08,34.888" fill="none" stroke="#2b2e34" stroke-width="0.5"/>
      </g>
      <g id="Grupo_7391" data-name="Grupo 7391" transform="translate(205.725 -26.682)">
        <path id="Caminho_7443" data-name="Caminho 7443" d="M0,0-45.08,34.888" fill="none" stroke="#2b2e34" stroke-width="0.5"/>
      </g>
      <g id="Grupo_7392" data-name="Grupo 7392" transform="translate(80.022 -26.682)">
        <path id="Caminho_7444" data-name="Caminho 7444" d="M0,0-45.08,34.888" fill="none" stroke="#2b2e34" stroke-width="0.5"/>
      </g>
      <g id="Grupo_7393" data-name="Grupo 7393" transform="translate(21.36 -26.682)">
        <path id="Caminho_7445" data-name="Caminho 7445" d="M0,0-45.08,34.888" fill="none" stroke="#2b2e34" stroke-width="0.5"/>
      </g>
      <g id="Grupo_7394" data-name="Grupo 7394" transform="translate(105.162 -26.682)">
        <path id="Caminho_7446" data-name="Caminho 7446" d="M0,0-45.08,34.888" fill="none" stroke="#2b2e34" stroke-width="0.5"/>
      </g>
      <g id="Grupo_7395" data-name="Grupo 7395" transform="translate(63.261 -26.682)">
        <path id="Caminho_7447" data-name="Caminho 7447" d="M0,0-45.08,34.888" fill="none" stroke="#2b2e34" stroke-width="0.5"/>
      </g>
      <g id="Grupo_7396" data-name="Grupo 7396" transform="translate(42.311 -26.682)">
        <path id="Caminho_7448" data-name="Caminho 7448" d="M0,0-45.08,34.888" fill="none" stroke="#2b2e34" stroke-width="0.5"/>
      </g>
      <g id="Grupo_7397" data-name="Grupo 7397" transform="translate(84.212 -26.682)">
        <path id="Caminho_7449" data-name="Caminho 7449" d="M0,0-45.08,34.888" fill="none" stroke="#2b2e34" stroke-width="0.5"/>
      </g>
      <g id="Grupo_7398" data-name="Grupo 7398" transform="translate(25.55 -26.682)">
        <path id="Caminho_7450" data-name="Caminho 7450" d="M0,0-45.08,34.888" fill="none" stroke="#2b2e34" stroke-width="0.5"/>
      </g>
      <g id="Grupo_7399" data-name="Grupo 7399" transform="translate(109.352 -26.682)">
        <path id="Caminho_7451" data-name="Caminho 7451" d="M0,0-45.08,34.888" fill="none" stroke="#2b2e34" stroke-width="0.5"/>
      </g>
      <g id="Grupo_7400" data-name="Grupo 7400" transform="translate(67.451 -26.682)">
        <path id="Caminho_7452" data-name="Caminho 7452" d="M0,0-45.08,34.888" fill="none" stroke="#2b2e34" stroke-width="0.5"/>
      </g>
      <g id="Grupo_7401" data-name="Grupo 7401" transform="translate(46.501 -26.682)">
        <path id="Caminho_7453" data-name="Caminho 7453" d="M0,0-45.08,34.888" fill="none" stroke="#2b2e34" stroke-width="0.5"/>
      </g>
      <g id="Grupo_7402" data-name="Grupo 7402" transform="translate(88.402 -26.682)">
        <path id="Caminho_7454" data-name="Caminho 7454" d="M0,0-45.08,34.888" fill="none" stroke="#2b2e34" stroke-width="0.5"/>
      </g>
    </g>
  </g>
</svg>
