<svg xmlns="http://www.w3.org/2000/svg" xmlns:xlink="http://www.w3.org/1999/xlink" width="1222" height="318" viewBox="0 0 1222 318">
  <defs>
    <clipPath id="clip-path">
      <rect id="Retângulo_74" data-name="Retângulo 74" width="1222" height="318" transform="translate(3155 5600)" fill="none"/>
    </clipPath>
    <clipPath id="clip-path-2">
      <rect id="Retângulo_72" data-name="Retângulo 72" width="1219.852" height="208.101" transform="translate(-9.152 -187.218)" fill="none"/>
    </clipPath>
    <clipPath id="clip-path-3">
      <path id="Caminho_7468" data-name="Caminho 7468" d="M-9.152,20.883H1210.7v-208.1H-9.152Z" fill="none"/>
    </clipPath>
    <clipPath id="clip-path-4">
      <rect id="Retângulo_73" data-name="Retângulo 73" width="1321.257" height="122.15" transform="translate(-54.928 -167.643)" fill="none"/>
    </clipPath>
    <clipPath id="clip-path-5">
      <path id="Caminho_7470" data-name="Caminho 7470" d="M-54.928-45.492H1266.33V-167.643H-54.928Z" fill="none"/>
    </clipPath>
  </defs>
  <g id="bg_sumaini02" transform="translate(-3155 -5600)" clip-path="url(#clip-path)">
    <g id="Grupo_7407" data-name="Grupo 7407" transform="translate(3154.926 5918.433)">
      <path id="Caminho_7459" data-name="Caminho 7459" d="M0,0V-245.618a8.474,8.474,0,0,1,8.5-8.444H208.361a8.474,8.474,0,0,0,8.506-8.442v-29.55a8.473,8.473,0,0,1,8.5-8.443H425.229a8.473,8.473,0,0,1,8.5,8.443v63.322a8.473,8.473,0,0,0,8.5,8.441h121.9a8.472,8.472,0,0,0,8.5-8.441v-37.994a8.475,8.475,0,0,1,8.506-8.442h430.9a8.473,8.473,0,0,1,8.5,8.442v73.172a8.475,8.475,0,0,0,8.5,8.443h163.006a8.474,8.474,0,0,0,8.5-8.443v-27.4a4.984,4.984,0,0,1,5-4.965h7.757a8.474,8.474,0,0,1,8.505,8.443V9.074" fill="#7b93cc"/>
    </g>
    <g id="Grupo_7419" data-name="Grupo 7419" transform="translate(3164 5914.748)" opacity="0.48">
      <g id="Grupo_7418" data-name="Grupo 7418">
        <g id="Grupo_7417" data-name="Grupo 7417" clip-path="url(#clip-path-2)">
          <g id="Grupo_7416" data-name="Grupo 7416" clip-path="url(#clip-path-3)">
            <g id="Grupo_7408" data-name="Grupo 7408" transform="translate(253.859 -2.106)">
              <path id="Caminho_7460" data-name="Caminho 7460" d="M0,0V-158.132" fill="none" stroke="#fff" stroke-linecap="round" stroke-linejoin="round" stroke-width="1.999" stroke-dasharray="0 4.006"/>
            </g>
            <g id="Grupo_7409" data-name="Grupo 7409" transform="translate(254.282 -166.021)">
              <path id="Caminho_7461" data-name="Caminho 7461" d="M0,0A17.016,17.016,0,0,1,14.682-13.1" fill="none" stroke="#fff" stroke-linecap="round" stroke-linejoin="round" stroke-width="1.999" stroke-dasharray="0 3.815"/>
            </g>
            <g id="Grupo_7410" data-name="Grupo 7410" transform="translate(274.884 -179.227)">
              <path id="Caminho_7462" data-name="Caminho 7462" d="M0,0H343.372" fill="none" stroke="#fff" stroke-linecap="round" stroke-linejoin="round" stroke-width="1.999" stroke-dasharray="0 4.014"/>
            </g>
            <g id="Grupo_7411" data-name="Grupo 7411" transform="translate(624.05 -178.805)">
              <path id="Caminho_7463" data-name="Caminho 7463" d="M0,0A17.01,17.01,0,0,1,13.118,14.663" fill="none" stroke="#fff" stroke-linecap="round" stroke-linejoin="round" stroke-width="1.999" stroke-dasharray="0 3.815"/>
            </g>
            <g id="Grupo_7412" data-name="Grupo 7412" transform="translate(637.274 -158.125)">
              <path id="Caminho_7464" data-name="Caminho 7464" d="M0,0V51.433" fill="none" stroke="#fff" stroke-linecap="round" stroke-linejoin="round" stroke-width="1.999" stroke-dasharray="0 4.117"/>
            </g>
            <g id="Grupo_7413" data-name="Grupo 7413" transform="translate(637.697 -100.853)">
              <path id="Caminho_7465" data-name="Caminho 7465" d="M0,0A17.016,17.016,0,0,0,14.682,13.1" fill="none" stroke="#fff" stroke-linecap="round" stroke-linejoin="round" stroke-width="1.999" stroke-dasharray="0 3.815"/>
            </g>
            <g id="Grupo_7414" data-name="Grupo 7414" transform="translate(658.271 -87.646)">
              <path id="Caminho_7466" data-name="Caminho 7466" d="M0,0H540.437" fill="none" stroke="#fff" stroke-linecap="round" stroke-linejoin="round" stroke-width="1.999" stroke-dasharray="0 3.986"/>
            </g>
            <g id="Grupo_7415" data-name="Grupo 7415" transform="translate(0.848 18.886)">
              <path id="Caminho_7467" data-name="Caminho 7467" d="M0,0H0M236,0h0m17.01-16.988h0m0-164.137h0m17.009-16.988h0m349.4,0h0m17.009,16.988h0m0,57.605h0m17.01,16.988h0m546.419,0h0" fill="none" stroke="#fff" stroke-linecap="round" stroke-linejoin="round" stroke-width="1.999"/>
            </g>
          </g>
        </g>
      </g>
    </g>
    <g id="Grupo_7424" data-name="Grupo 7424" transform="translate(3164 5914.748)" opacity="0.1">
      <g id="Grupo_7423" data-name="Grupo 7423">
        <g id="Grupo_7422" data-name="Grupo 7422" clip-path="url(#clip-path-4)">
          <g id="Grupo_7421" data-name="Grupo 7421" clip-path="url(#clip-path-5)">
            <g id="Grupo_7420" data-name="Grupo 7420" transform="translate(-45.927 -87.29)">
              <path id="Caminho_7469" data-name="Caminho 7469" d="M0,0H14.93a11.994,11.994,0,0,0,12-11.987v-36.9a11.994,11.994,0,0,1,12-11.985H727.9a12.1,12.1,0,0,1,12.087,11.985l.472,65.217a12.1,12.1,0,0,0,12.088,11.985h550.718" fill="none" stroke="#fff" stroke-width="24.987"/>
            </g>
          </g>
        </g>
      </g>
    </g>
  </g>
</svg>
