<svg xmlns="http://www.w3.org/2000/svg" xmlns:xlink="http://www.w3.org/1999/xlink" width="36.35" height="17.357" viewBox="0 0 36.35 17.357">
  <defs>
    <clipPath id="clip-path">
      <rect id="Retângulo_94" data-name="Retângulo 94" width="36.35" height="17.357" transform="translate(32.324 10.693)" fill="none"/>
    </clipPath>
    <clipPath id="clip-path-2">
      <path id="Retângulo_95" data-name="Retângulo 95" d="M2.835,0h30.68A2.835,2.835,0,0,1,36.35,2.835V14.523a2.834,2.834,0,0,1-2.834,2.834H2.835A2.835,2.835,0,0,1,0,14.522V2.835A2.835,2.835,0,0,1,2.835,0Z" transform="translate(32.324 10.693)" fill="none"/>
    </clipPath>
  </defs>
  <g id="bg_sumaMP" transform="translate(-32.324 -10.693)">
    <g id="Grupo_8879" data-name="Grupo 8879">
      <g id="Grupo_8878" data-name="Grupo 8878" clip-path="url(#clip-path)">
        <path id="Retângulo_93" data-name="Retângulo 93" d="M2.835,0H33.517a2.834,2.834,0,0,1,2.834,2.834V14.523a2.835,2.835,0,0,1-2.835,2.835H2.835A2.835,2.835,0,0,1,0,14.523V2.835A2.835,2.835,0,0,1,2.835,0Z" transform="translate(32.324 10.692)" fill="#fff"/>
      </g>
    </g>
    <g id="Grupo_8881" data-name="Grupo 8881">
      <g id="Grupo_8880" data-name="Grupo 8880" clip-path="url(#clip-path-2)">
        <line id="Linha_73" data-name="Linha 73" x1="33.976" y2="26.295" transform="translate(60.126 0.159)" fill="none" stroke="#e04a1f" stroke-width="0.403"/>
        <line id="Linha_74" data-name="Linha 74" x1="33.976" y2="26.295" transform="translate(28.546 0.159)" fill="none" stroke="#e04a1f" stroke-width="0.403"/>
        <line id="Linha_75" data-name="Linha 75" x1="33.976" y2="26.295" transform="translate(12.755 0.159)" fill="none" stroke="#e04a1f" stroke-width="0.403"/>
        <line id="Linha_76" data-name="Linha 76" x1="33.976" y2="26.295" transform="translate(44.336 0.159)" fill="none" stroke="#e04a1f" stroke-width="0.403"/>
        <line id="Linha_77" data-name="Linha 77" x1="33.976" y2="26.295" transform="translate(0.123 0.159)" fill="none" stroke="#e04a1f" stroke-width="0.403"/>
        <line id="Linha_78" data-name="Linha 78" x1="33.976" y2="26.295" transform="translate(63.284 0.159)" fill="none" stroke="#e04a1f" stroke-width="0.403"/>
        <line id="Linha_79" data-name="Linha 79" x1="33.976" y2="26.295" transform="translate(31.704 0.159)" fill="none" stroke="#e04a1f" stroke-width="0.403"/>
        <line id="Linha_80" data-name="Linha 80" x1="33.976" y2="26.295" transform="translate(15.913 0.159)" fill="none" stroke="#e04a1f" stroke-width="0.403"/>
        <line id="Linha_81" data-name="Linha 81" x1="33.976" y2="26.295" transform="translate(47.494 0.159)" fill="none" stroke="#e04a1f" stroke-width="0.403"/>
        <line id="Linha_82" data-name="Linha 82" x1="33.976" y2="26.295" transform="translate(3.281 0.159)" fill="none" stroke="#e04a1f" stroke-width="0.403"/>
        <line id="Linha_83" data-name="Linha 83" x1="33.976" y2="26.295" transform="translate(66.442 0.159)" fill="none" stroke="#e04a1f" stroke-width="0.403"/>
        <line id="Linha_84" data-name="Linha 84" x1="33.976" y2="26.295" transform="translate(34.862 0.159)" fill="none" stroke="#e04a1f" stroke-width="0.403"/>
        <line id="Linha_85" data-name="Linha 85" x1="33.976" y2="26.295" transform="translate(19.071 0.159)" fill="none" stroke="#e04a1f" stroke-width="0.403"/>
        <line id="Linha_86" data-name="Linha 86" x1="33.976" y2="26.295" transform="translate(50.652 0.159)" fill="none" stroke="#e04a1f" stroke-width="0.403"/>
        <line id="Linha_87" data-name="Linha 87" x1="33.976" y2="26.295" transform="translate(6.439 0.159)" fill="none" stroke="#e04a1f" stroke-width="0.403"/>
        <line id="Linha_88" data-name="Linha 88" x1="33.976" y2="26.295" transform="translate(38.02 0.159)" fill="none" stroke="#e04a1f" stroke-width="0.403"/>
        <line id="Linha_89" data-name="Linha 89" x1="33.976" y2="26.295" transform="translate(22.229 0.159)" fill="none" stroke="#e04a1f" stroke-width="0.403"/>
        <line id="Linha_90" data-name="Linha 90" x1="33.976" y2="26.295" transform="translate(53.81 0.159)" fill="none" stroke="#e04a1f" stroke-width="0.403"/>
        <line id="Linha_91" data-name="Linha 91" x1="33.976" y2="26.295" transform="translate(9.597 0.159)" fill="none" stroke="#e04a1f" stroke-width="0.403"/>
        <line id="Linha_92" data-name="Linha 92" x1="33.976" y2="26.295" transform="translate(41.178 0.159)" fill="none" stroke="#e04a1f" stroke-width="0.403"/>
        <line id="Linha_93" data-name="Linha 93" x1="33.976" y2="26.295" transform="translate(25.387 0.159)" fill="none" stroke="#e04a1f" stroke-width="0.403"/>
        <line id="Linha_94" data-name="Linha 94" x1="33.976" y2="26.295" transform="translate(56.968 0.159)" fill="none" stroke="#e04a1f" stroke-width="0.403"/>
        <line id="Linha_95" data-name="Linha 95" x1="33.976" y2="26.295" transform="translate(42.195 26.257)" fill="none" stroke="#e04a1f" stroke-width="0.403"/>
        <line id="Linha_96" data-name="Linha 96" x1="33.976" y2="26.295" transform="translate(10.614 26.257)" fill="none" stroke="#e04a1f" stroke-width="0.403"/>
        <line id="Linha_97" data-name="Linha 97" x1="33.976" y2="26.295" transform="translate(57.985 26.257)" fill="none" stroke="#e04a1f" stroke-width="0.403"/>
        <line id="Linha_98" data-name="Linha 98" x1="33.976" y2="26.295" transform="translate(26.405 26.257)" fill="none" stroke="#e04a1f" stroke-width="0.403"/>
        <line id="Linha_99" data-name="Linha 99" x1="33.976" y2="26.295" transform="translate(45.353 26.257)" fill="none" stroke="#e04a1f" stroke-width="0.403"/>
        <line id="Linha_100" data-name="Linha 100" x1="33.976" y2="26.295" transform="translate(13.772 26.257)" fill="none" stroke="#e04a1f" stroke-width="0.403"/>
        <line id="Linha_101" data-name="Linha 101" x1="33.976" y2="26.295" transform="translate(61.143 26.257)" fill="none" stroke="#e04a1f" stroke-width="0.403"/>
        <line id="Linha_102" data-name="Linha 102" x1="33.976" y2="26.295" transform="translate(29.563 26.257)" fill="none" stroke="#e04a1f" stroke-width="0.403"/>
        <line id="Linha_103" data-name="Linha 103" x1="33.976" y2="26.295" transform="translate(48.511 26.257)" fill="none" stroke="#e04a1f" stroke-width="0.403"/>
        <line id="Linha_104" data-name="Linha 104" x1="33.976" y2="26.295" transform="translate(16.931 26.257)" fill="none" stroke="#e04a1f" stroke-width="0.403"/>
        <line id="Linha_105" data-name="Linha 105" x1="33.976" y2="26.295" transform="translate(1.14 26.257)" fill="none" stroke="#e04a1f" stroke-width="0.403"/>
        <line id="Linha_106" data-name="Linha 106" x1="33.976" y2="26.295" transform="translate(64.301 26.257)" fill="none" stroke="#e04a1f" stroke-width="0.403"/>
        <line id="Linha_107" data-name="Linha 107" x1="33.976" y2="26.295" transform="translate(67.459 26.257)" fill="none" stroke="#e04a1f" stroke-width="0.403"/>
        <line id="Linha_108" data-name="Linha 108" x1="33.976" y2="26.295" transform="translate(32.721 26.257)" fill="none" stroke="#e04a1f" stroke-width="0.403"/>
        <line id="Linha_109" data-name="Linha 109" x1="33.976" y2="26.295" transform="translate(51.669 26.257)" fill="none" stroke="#e04a1f" stroke-width="0.403"/>
        <line id="Linha_110" data-name="Linha 110" x1="33.976" y2="26.295" transform="translate(20.088 26.257)" fill="none" stroke="#e04a1f" stroke-width="0.403"/>
        <line id="Linha_111" data-name="Linha 111" x1="33.976" y2="26.295" transform="translate(4.298 26.257)" fill="none" stroke="#e04a1f" stroke-width="0.403"/>
        <line id="Linha_112" data-name="Linha 112" x1="33.976" y2="26.295" transform="translate(35.879 26.257)" fill="none" stroke="#e04a1f" stroke-width="0.403"/>
        <line id="Linha_113" data-name="Linha 113" x1="33.976" y2="26.295" transform="translate(54.827 26.257)" fill="none" stroke="#e04a1f" stroke-width="0.403"/>
        <line id="Linha_114" data-name="Linha 114" x1="33.976" y2="26.295" transform="translate(23.247 26.257)" fill="none" stroke="#e04a1f" stroke-width="0.403"/>
        <line id="Linha_115" data-name="Linha 115" x1="33.976" y2="26.295" transform="translate(7.456 26.257)" fill="none" stroke="#e04a1f" stroke-width="0.403"/>
        <line id="Linha_116" data-name="Linha 116" x1="33.976" y2="26.295" transform="translate(39.037 26.257)" fill="none" stroke="#e04a1f" stroke-width="0.403"/>
      </g>
    </g>
  </g>
</svg>
