<svg xmlns="http://www.w3.org/2000/svg" xmlns:xlink="http://www.w3.org/1999/xlink" width="87" height="77" viewBox="0 0 87 77">
  <defs>
    <clipPath id="clip-path">
      <rect id="Retângulo_3" data-name="Retângulo 3" width="87" height="77" transform="translate(417 198)" fill="none"/>
    </clipPath>
    <clipPath id="clip-path-2">
      <rect id="Retângulo_2" data-name="Retângulo 2" width="10" height="35" rx="5" transform="translate(482 231)" fill="none"/>
    </clipPath>
    <clipPath id="clip-path-3">
      <path id="Caminho_274" data-name="Caminho 274" d="M41.309-20.984H74.615V-51.6H41.309Z" fill="none"/>
    </clipPath>
    <clipPath id="clip-path-4">
      <path id="Caminho_293" data-name="Caminho 293" d="M0-57.332H37.073V-79.251H0Z" fill="none"/>
    </clipPath>
    <clipPath id="clip-path-5">
      <path id="Caminho_295" data-name="Caminho 295" d="M0,0H156.731V-88.428H0Z" fill="none"/>
    </clipPath>
  </defs>
  <g id="bg_tit1_m" transform="translate(-417 -198)" clip-path="url(#clip-path)">
    <g id="Grupo_de_máscara_1" data-name="Grupo de máscara 1" clip-path="url(#clip-path-2)">
      <g id="Grupo_257" data-name="Grupo 257" transform="translate(573.732 232.518)">
        <path id="Caminho_254" data-name="Caminho 254" d="M0,0A17.008,17.008,0,0,0-17.008-17.008H-74.771A17.008,17.008,0,0,0-91.779,0V37.33A17.008,17.008,0,0,0-74.771,54.338h57.763A17.008,17.008,0,0,0,0,37.33Z" fill="#ff8625"/>
      </g>
    </g>
    <g id="Grupo_256" data-name="Grupo 256" transform="translate(463.2 242.614)">
      <path id="Caminho_253" data-name="Caminho 253" d="M0,0V-26.272A17.857,17.857,0,0,0-5.259-38.927a17.858,17.858,0,0,0-12.654-5.259H-51.594v10.312l33.681-.031a7.607,7.607,0,0,1,5.385,2.247,7.607,7.607,0,0,1,2.247,5.386V0Z" fill="#fe6534"/>
    </g>
    <path id="Caminho_255" data-name="Caminho 255" d="M0,0H156.731V-88.428H0Z" transform="translate(417 286.856)" fill="none"/>
    <g id="Grupo_276" data-name="Grupo 276" transform="translate(417 286.856)" clip-path="url(#clip-path-3)">
      <g id="Grupo_260" data-name="Grupo 260" transform="translate(102.352 -57.049)">
        <path id="Caminho_258" data-name="Caminho 258" d="M0,0-72.063,55.771" fill="none" stroke="#fff" stroke-width="0.75"/>
      </g>
      <g id="Grupo_261" data-name="Grupo 261" transform="translate(68.861 -57.049)">
        <path id="Caminho_259" data-name="Caminho 259" d="M0,0-72.063,55.771" fill="none" stroke="#fff" stroke-width="0.75"/>
      </g>
      <g id="Grupo_262" data-name="Grupo 262" transform="translate(135.842 -57.049)">
        <path id="Caminho_260" data-name="Caminho 260" d="M0,0-72.063,55.771" fill="none" stroke="#fff" stroke-width="0.75"/>
      </g>
      <g id="Grupo_263" data-name="Grupo 263" transform="translate(42.069 -57.049)">
        <path id="Caminho_261" data-name="Caminho 261" d="M0,0-72.063,55.771" fill="none" stroke="#fff" stroke-width="0.75"/>
      </g>
      <g id="Grupo_264" data-name="Grupo 264" transform="translate(109.05 -57.049)">
        <path id="Caminho_262" data-name="Caminho 262" d="M0,0-72.063,55.771" fill="none" stroke="#fff" stroke-width="0.75"/>
      </g>
      <g id="Grupo_265" data-name="Grupo 265" transform="translate(75.559 -57.049)">
        <path id="Caminho_263" data-name="Caminho 263" d="M0,0-72.063,55.771" fill="none" stroke="#fff" stroke-width="0.75"/>
      </g>
      <g id="Grupo_266" data-name="Grupo 266" transform="translate(142.541 -57.049)">
        <path id="Caminho_264" data-name="Caminho 264" d="M0,0-72.063,55.771" fill="none" stroke="#fff" stroke-width="0.75"/>
      </g>
      <g id="Grupo_267" data-name="Grupo 267" transform="translate(48.767 -57.049)">
        <path id="Caminho_265" data-name="Caminho 265" d="M0,0-72.063,55.771" fill="none" stroke="#fff" stroke-width="0.75"/>
      </g>
      <g id="Grupo_268" data-name="Grupo 268" transform="translate(115.748 -57.049)">
        <path id="Caminho_266" data-name="Caminho 266" d="M0,0-72.063,55.771" fill="none" stroke="#fff" stroke-width="0.75"/>
      </g>
      <g id="Grupo_269" data-name="Grupo 269" transform="translate(82.257 -57.049)">
        <path id="Caminho_267" data-name="Caminho 267" d="M0,0-72.063,55.771" fill="none" stroke="#fff" stroke-width="0.75"/>
      </g>
      <g id="Grupo_270" data-name="Grupo 270" transform="translate(55.465 -57.049)">
        <path id="Caminho_268" data-name="Caminho 268" d="M0,0-72.063,55.771" fill="none" stroke="#fff" stroke-width="0.75"/>
      </g>
      <g id="Grupo_271" data-name="Grupo 271" transform="translate(122.446 -57.049)">
        <path id="Caminho_269" data-name="Caminho 269" d="M0,0-72.063,55.771" fill="none" stroke="#fff" stroke-width="0.75"/>
      </g>
      <g id="Grupo_272" data-name="Grupo 272" transform="translate(88.956 -57.049)">
        <path id="Caminho_270" data-name="Caminho 270" d="M0,0-72.063,55.771" fill="none" stroke="#fff" stroke-width="0.75"/>
      </g>
      <g id="Grupo_273" data-name="Grupo 273" transform="translate(62.163 -57.049)">
        <path id="Caminho_271" data-name="Caminho 271" d="M0,0-72.063,55.771" fill="none" stroke="#fff" stroke-width="0.75"/>
      </g>
      <g id="Grupo_274" data-name="Grupo 274" transform="translate(129.144 -57.049)">
        <path id="Caminho_272" data-name="Caminho 272" d="M0,0-72.063,55.771" fill="none" stroke="#fff" stroke-width="0.75"/>
      </g>
      <g id="Grupo_275" data-name="Grupo 275" transform="translate(95.654 -57.049)">
        <path id="Caminho_273" data-name="Caminho 273" d="M0,0-72.063,55.771" fill="none" stroke="#fff" stroke-width="0.75"/>
      </g>
    </g>
    <g id="Grupo_295" data-name="Grupo 295" transform="translate(417 286.856)" clip-path="url(#clip-path-4)">
      <g id="Grupo_277" data-name="Grupo 277" transform="translate(6.748 -88.819)">
        <path id="Caminho_275" data-name="Caminho 275" d="M0,0-59.082,45.725" fill="none" stroke="#fe6534" stroke-width="0.75"/>
      </g>
      <g id="Grupo_278" data-name="Grupo 278" transform="translate(12.24 -88.819)">
        <path id="Caminho_276" data-name="Caminho 276" d="M0,0-59.082,45.725" fill="none" stroke="#fe6534" stroke-width="0.75"/>
      </g>
      <g id="Grupo_279" data-name="Grupo 279" transform="translate(17.732 -88.819)">
        <path id="Caminho_277" data-name="Caminho 277" d="M0,0-59.082,45.725" fill="none" stroke="#fe6534" stroke-width="0.75"/>
      </g>
      <g id="Grupo_280" data-name="Grupo 280" transform="translate(23.223 -88.819)">
        <path id="Caminho_278" data-name="Caminho 278" d="M0,0-59.082,45.725" fill="none" stroke="#fe6534" stroke-width="0.75"/>
      </g>
      <g id="Grupo_281" data-name="Grupo 281" transform="translate(28.715 -88.819)">
        <path id="Caminho_279" data-name="Caminho 279" d="M0,0-59.082,45.725" fill="none" stroke="#fe6534" stroke-width="0.75"/>
      </g>
      <g id="Grupo_282" data-name="Grupo 282" transform="translate(34.207 -88.819)">
        <path id="Caminho_280" data-name="Caminho 280" d="M0,0-59.082,45.725" fill="none" stroke="#fe6534" stroke-width="0.75"/>
      </g>
      <g id="Grupo_283" data-name="Grupo 283" transform="translate(39.698 -88.819)">
        <path id="Caminho_281" data-name="Caminho 281" d="M0,0-59.082,45.725" fill="none" stroke="#fe6534" stroke-width="0.75"/>
      </g>
      <g id="Grupo_284" data-name="Grupo 284" transform="translate(45.19 -88.819)">
        <path id="Caminho_282" data-name="Caminho 282" d="M0,0-59.082,45.725" fill="none" stroke="#fe6534" stroke-width="0.75"/>
      </g>
      <g id="Grupo_285" data-name="Grupo 285" transform="translate(56.173 -88.819)">
        <path id="Caminho_283" data-name="Caminho 283" d="M0,0-59.082,45.725" fill="none" stroke="#fe6534" stroke-width="0.75"/>
      </g>
      <g id="Grupo_286" data-name="Grupo 286" transform="translate(67.156 -88.819)">
        <path id="Caminho_284" data-name="Caminho 284" d="M0,0-59.082,45.725" fill="none" stroke="#fe6534" stroke-width="0.75"/>
      </g>
      <g id="Grupo_287" data-name="Grupo 287" transform="translate(50.681 -88.819)">
        <path id="Caminho_285" data-name="Caminho 285" d="M0,0-59.082,45.725" fill="none" stroke="#fe6534" stroke-width="0.75"/>
      </g>
      <g id="Grupo_288" data-name="Grupo 288" transform="translate(89.123 -88.819)">
        <path id="Caminho_286" data-name="Caminho 286" d="M0,0-59.082,45.725" fill="none" stroke="#fe6534" stroke-width="0.75"/>
      </g>
      <g id="Grupo_289" data-name="Grupo 289" transform="translate(72.648 -88.819)">
        <path id="Caminho_287" data-name="Caminho 287" d="M0,0-59.082,45.725" fill="none" stroke="#fe6534" stroke-width="0.75"/>
      </g>
      <g id="Grupo_290" data-name="Grupo 290" transform="translate(78.14 -88.819)">
        <path id="Caminho_288" data-name="Caminho 288" d="M0,0-59.082,45.725" fill="none" stroke="#fe6534" stroke-width="0.75"/>
      </g>
      <g id="Grupo_291" data-name="Grupo 291" transform="translate(61.665 -88.819)">
        <path id="Caminho_289" data-name="Caminho 289" d="M0,0-59.082,45.725" fill="none" stroke="#fe6534" stroke-width="0.75"/>
      </g>
      <g id="Grupo_292" data-name="Grupo 292" transform="translate(83.631 -88.819)">
        <path id="Caminho_290" data-name="Caminho 290" d="M0,0-59.082,45.725" fill="none" stroke="#fe6534" stroke-width="0.75"/>
      </g>
      <g id="Grupo_293" data-name="Grupo 293" transform="translate(94.614 -88.819)">
        <path id="Caminho_291" data-name="Caminho 291" d="M0,0-59.082,45.725" fill="none" stroke="#fe6534" stroke-width="0.75"/>
      </g>
      <g id="Grupo_294" data-name="Grupo 294" transform="translate(1.257 -88.819)">
        <path id="Caminho_292" data-name="Caminho 292" d="M0,0-59.082,45.725" fill="none" stroke="#fe6534" stroke-width="0.75"/>
      </g>
    </g>
    <g id="Grupo_297" data-name="Grupo 297" transform="translate(417 286.856)" clip-path="url(#clip-path-5)">
      <g id="Grupo_296" data-name="Grupo 296" transform="translate(83.888 -31.109)">
        <path id="Caminho_294" data-name="Caminho 294" d="M0,0V-9.559A17.862,17.862,0,0,0-5.258-22.214a17.862,17.862,0,0,0-12.655-5.258H-89.282v10.281h41.313V0a17.86,17.86,0,0,0,5.258,12.655,17.857,17.857,0,0,0,12.655,5.258h12.143A17.859,17.859,0,0,0-5.259,12.655,17.86,17.86,0,0,0,0,0M-10.281,0a7.609,7.609,0,0,1-2.247,5.386,7.606,7.606,0,0,1-5.385,2.246H-30.056a7.606,7.606,0,0,1-5.386-2.246A7.607,7.607,0,0,1-37.688,0V-17.191h19.774a7.6,7.6,0,0,1,5.386,2.246,7.609,7.609,0,0,1,2.246,5.386Z" fill="#5a599f"/>
      </g>
    </g>
  </g>
</svg>
