<svg xmlns="http://www.w3.org/2000/svg" xmlns:xlink="http://www.w3.org/1999/xlink" width="11.472" height="11.472" viewBox="0 0 11.472 11.472">
  <defs>
    <clipPath id="clip-path">
      <path id="Caminho_8637" data-name="Caminho 8637" d="M0,0H11.472V-11.472H0Z" fill="none"/>
    </clipPath>
    <clipPath id="clip-path-2">
      <path id="Caminho_8653" data-name="Caminho 8653" d="M2.835-11.472A2.834,2.834,0,0,0,0-8.638H0v5.8A2.835,2.835,0,0,0,2.835,0h5.8a2.834,2.834,0,0,0,2.834-2.835h0v-5.8a2.834,2.834,0,0,0-2.834-2.834h-5.8Z" fill="none"/>
    </clipPath>
  </defs>
  <g id="bg_titulo2mpg" transform="translate(0 11.472)">
    <g id="Grupo_8629" data-name="Grupo 8629" clip-path="url(#clip-path)">
      <g id="Grupo_8628" data-name="Grupo 8628" transform="translate(2.835 -11.472)">
        <path id="Caminho_8636" data-name="Caminho 8636" d="M0,0A2.835,2.835,0,0,0-2.835,2.835v5.8A2.834,2.834,0,0,0,0,11.472H5.8A2.834,2.834,0,0,0,8.638,8.638v-5.8A2.835,2.835,0,0,0,5.8,0Z" fill="#fe6534"/>
      </g>
    </g>
    <g id="Grupo_8645" data-name="Grupo 8645" clip-path="url(#clip-path-2)">
      <g id="Grupo_8630" data-name="Grupo 8630" transform="translate(0.168 -17.199)">
        <path id="Caminho_8638" data-name="Caminho 8638" d="M0,0-33.976,26.3" fill="none" stroke="#fff" stroke-width="0.403"/>
      </g>
      <g id="Grupo_8631" data-name="Grupo 8631" transform="translate(3.326 -17.199)">
        <path id="Caminho_8639" data-name="Caminho 8639" d="M0,0-33.976,26.3" fill="none" stroke="#fff" stroke-width="0.403"/>
      </g>
      <g id="Grupo_8632" data-name="Grupo 8632" transform="translate(6.484 -17.199)">
        <path id="Caminho_8640" data-name="Caminho 8640" d="M0,0-33.976,26.3" fill="none" stroke="#fff" stroke-width="0.403"/>
      </g>
      <g id="Grupo_8633" data-name="Grupo 8633" transform="translate(9.642 -17.199)">
        <path id="Caminho_8641" data-name="Caminho 8641" d="M0,0-33.976,26.3" fill="none" stroke="#fff" stroke-width="0.403"/>
      </g>
      <g id="Grupo_8634" data-name="Grupo 8634" transform="translate(12.8 -17.199)">
        <path id="Caminho_8642" data-name="Caminho 8642" d="M0,0-33.976,26.3" fill="none" stroke="#fff" stroke-width="0.403"/>
      </g>
      <g id="Grupo_8635" data-name="Grupo 8635" transform="translate(15.958 -17.199)">
        <path id="Caminho_8643" data-name="Caminho 8643" d="M0,0-33.976,26.3" fill="none" stroke="#fff" stroke-width="0.403"/>
      </g>
      <g id="Grupo_8636" data-name="Grupo 8636" transform="translate(22.274 -17.199)">
        <path id="Caminho_8644" data-name="Caminho 8644" d="M0,0-33.976,26.3" fill="none" stroke="#fff" stroke-width="0.403"/>
      </g>
      <g id="Grupo_8637" data-name="Grupo 8637" transform="translate(28.59 -17.199)">
        <path id="Caminho_8645" data-name="Caminho 8645" d="M0,0-33.976,26.3" fill="none" stroke="#fff" stroke-width="0.403"/>
      </g>
      <g id="Grupo_8638" data-name="Grupo 8638" transform="translate(19.116 -17.199)">
        <path id="Caminho_8646" data-name="Caminho 8646" d="M0,0-33.976,26.3" fill="none" stroke="#fff" stroke-width="0.403"/>
      </g>
      <g id="Grupo_8639" data-name="Grupo 8639" transform="translate(41.222 -17.199)">
        <path id="Caminho_8647" data-name="Caminho 8647" d="M0,0-33.976,26.3" fill="none" stroke="#fff" stroke-width="0.403"/>
      </g>
      <g id="Grupo_8640" data-name="Grupo 8640" transform="translate(31.748 -17.199)">
        <path id="Caminho_8648" data-name="Caminho 8648" d="M0,0-33.976,26.3" fill="none" stroke="#fff" stroke-width="0.403"/>
      </g>
      <g id="Grupo_8641" data-name="Grupo 8641" transform="translate(34.906 -17.199)">
        <path id="Caminho_8649" data-name="Caminho 8649" d="M0,0-33.976,26.3" fill="none" stroke="#fff" stroke-width="0.403"/>
      </g>
      <g id="Grupo_8642" data-name="Grupo 8642" transform="translate(25.432 -17.199)">
        <path id="Caminho_8650" data-name="Caminho 8650" d="M0,0-33.976,26.3" fill="none" stroke="#fff" stroke-width="0.403"/>
      </g>
      <g id="Grupo_8643" data-name="Grupo 8643" transform="translate(38.064 -17.199)">
        <path id="Caminho_8651" data-name="Caminho 8651" d="M0,0-33.976,26.3" fill="none" stroke="#fff" stroke-width="0.403"/>
      </g>
      <g id="Grupo_8644" data-name="Grupo 8644" transform="translate(44.38 -17.199)">
        <path id="Caminho_8652" data-name="Caminho 8652" d="M0,0-33.976,26.3" fill="none" stroke="#fff" stroke-width="0.403"/>
      </g>
    </g>
  </g>
</svg>
