<svg xmlns="http://www.w3.org/2000/svg" xmlns:xlink="http://www.w3.org/1999/xlink" width="1190.552" height="128.333" viewBox="0 0 1190.552 128.333">
  <defs>
    <clipPath id="clip-path">
      <path id="Caminho_7536" data-name="Caminho 7536" d="M0,0H1190.552V-128.333H0Z" fill="none"/>
    </clipPath>
    <clipPath id="clip-path-2">
      <path id="Caminho_7591" data-name="Caminho 7591" d="M1016.7-128.333a11.953,11.953,0,0,0-2.6,7.465h0v9.016a12,12,0,0,0,12,12h11.851a12,12,0,0,0,12-12h0v-9.016a11.948,11.948,0,0,0-2.6-7.465H1016.7Z" fill="none"/>
    </clipPath>
    <clipPath id="clip-path-3">
      <path id="Caminho_7593" data-name="Caminho 7593" d="M0,0H1189.551V-128.333H0Z" fill="none"/>
    </clipPath>
  </defs>
  <g id="bg_topconheca" transform="translate(0 128.333)">
    <g id="Grupo_7514" data-name="Grupo 7514" clip-path="url(#clip-path)">
      <g id="Grupo_7513" data-name="Grupo 7513" transform="translate(1205.642 -137.337)">
        <path id="Caminho_7535" data-name="Caminho 7535" d="M0,0V39.969a5.669,5.669,0,0,1-5.669,5.669h-1223.15a5.669,5.669,0,0,1-5.669-5.669V11.039a5.669,5.669,0,0,1,5.669-5.67H0" fill="#ff8625"/>
      </g>
    </g>
    <g id="Grupo_7569" data-name="Grupo 7569" clip-path="url(#clip-path-2)">
      <g id="Grupo_7515" data-name="Grupo 7515" transform="translate(832.13 -128.084)">
        <path id="Caminho_7537" data-name="Caminho 7537" d="M0,0-59.083,45.725" fill="none" stroke="#fff" stroke-width="0.82"/>
      </g>
      <g id="Grupo_7516" data-name="Grupo 7516" transform="translate(941.963 -128.084)">
        <path id="Caminho_7538" data-name="Caminho 7538" d="M0,0-59.083,45.725" fill="none" stroke="#fff" stroke-width="0.82"/>
      </g>
      <g id="Grupo_7517" data-name="Grupo 7517" transform="translate(887.047 -128.084)">
        <path id="Caminho_7539" data-name="Caminho 7539" d="M0,0-59.083,45.725" fill="none" stroke="#fff" stroke-width="0.82"/>
      </g>
      <g id="Grupo_7518" data-name="Grupo 7518" transform="translate(859.589 -128.084)">
        <path id="Caminho_7540" data-name="Caminho 7540" d="M0,0-59.083,45.725" fill="none" stroke="#fff" stroke-width="0.82"/>
      </g>
      <g id="Grupo_7519" data-name="Grupo 7519" transform="translate(969.421 -128.084)">
        <path id="Caminho_7541" data-name="Caminho 7541" d="M0,0-59.083,45.725" fill="none" stroke="#fff" stroke-width="0.82"/>
      </g>
      <g id="Grupo_7520" data-name="Grupo 7520" transform="translate(914.505 -128.084)">
        <path id="Caminho_7542" data-name="Caminho 7542" d="M0,0-59.083,45.725" fill="none" stroke="#fff" stroke-width="0.82"/>
      </g>
      <g id="Grupo_7521" data-name="Grupo 7521" transform="translate(837.622 -128.084)">
        <path id="Caminho_7543" data-name="Caminho 7543" d="M0,0-59.083,45.725" fill="none" stroke="#fff" stroke-width="0.82"/>
      </g>
      <g id="Grupo_7522" data-name="Grupo 7522" transform="translate(947.454 -128.084)">
        <path id="Caminho_7544" data-name="Caminho 7544" d="M0,0-59.083,45.725" fill="none" stroke="#fff" stroke-width="0.82"/>
      </g>
      <g id="Grupo_7523" data-name="Grupo 7523" transform="translate(892.538 -128.084)">
        <path id="Caminho_7545" data-name="Caminho 7545" d="M0,0-59.083,45.725" fill="none" stroke="#fff" stroke-width="0.82"/>
      </g>
      <g id="Grupo_7524" data-name="Grupo 7524" transform="translate(865.08 -128.084)">
        <path id="Caminho_7546" data-name="Caminho 7546" d="M0,0-59.083,45.725" fill="none" stroke="#fff" stroke-width="0.82"/>
      </g>
      <g id="Grupo_7525" data-name="Grupo 7525" transform="translate(974.912 -128.084)">
        <path id="Caminho_7547" data-name="Caminho 7547" d="M0,0-59.083,45.725" fill="none" stroke="#fff" stroke-width="0.82"/>
      </g>
      <g id="Grupo_7526" data-name="Grupo 7526" transform="translate(919.996 -128.084)">
        <path id="Caminho_7548" data-name="Caminho 7548" d="M0,0-59.083,45.725" fill="none" stroke="#fff" stroke-width="0.82"/>
      </g>
      <g id="Grupo_7527" data-name="Grupo 7527" transform="translate(843.114 -128.084)">
        <path id="Caminho_7549" data-name="Caminho 7549" d="M0,0-59.083,45.725" fill="none" stroke="#fff" stroke-width="0.82"/>
      </g>
      <g id="Grupo_7528" data-name="Grupo 7528" transform="translate(952.946 -128.084)">
        <path id="Caminho_7550" data-name="Caminho 7550" d="M0,0-59.083,45.725" fill="none" stroke="#fff" stroke-width="0.82"/>
      </g>
      <g id="Grupo_7529" data-name="Grupo 7529" transform="translate(898.03 -128.084)">
        <path id="Caminho_7551" data-name="Caminho 7551" d="M0,0-59.083,45.725" fill="none" stroke="#fff" stroke-width="0.82"/>
      </g>
      <g id="Grupo_7530" data-name="Grupo 7530" transform="translate(870.572 -128.084)">
        <path id="Caminho_7552" data-name="Caminho 7552" d="M0,0-59.083,45.725" fill="none" stroke="#fff" stroke-width="0.82"/>
      </g>
      <g id="Grupo_7531" data-name="Grupo 7531" transform="translate(980.404 -128.084)">
        <path id="Caminho_7553" data-name="Caminho 7553" d="M0,0-59.083,45.725" fill="none" stroke="#fff" stroke-width="0.82"/>
      </g>
      <g id="Grupo_7532" data-name="Grupo 7532" transform="translate(985.896 -128.084)">
        <path id="Caminho_7554" data-name="Caminho 7554" d="M0,0-59.083,45.725" fill="none" stroke="#fff" stroke-width="0.82"/>
      </g>
      <g id="Grupo_7533" data-name="Grupo 7533" transform="translate(991.387 -128.084)">
        <path id="Caminho_7555" data-name="Caminho 7555" d="M0,0-59.083,45.725" fill="none" stroke="#fff" stroke-width="0.82"/>
      </g>
      <g id="Grupo_7534" data-name="Grupo 7534" transform="translate(996.879 -128.084)">
        <path id="Caminho_7556" data-name="Caminho 7556" d="M0,0-59.083,45.725" fill="none" stroke="#fff" stroke-width="0.82"/>
      </g>
      <g id="Grupo_7535" data-name="Grupo 7535" transform="translate(1002.371 -128.084)">
        <path id="Caminho_7557" data-name="Caminho 7557" d="M0,0-59.083,45.725" fill="none" stroke="#fff" stroke-width="0.82"/>
      </g>
      <g id="Grupo_7536" data-name="Grupo 7536" transform="translate(1007.862 -128.084)">
        <path id="Caminho_7558" data-name="Caminho 7558" d="M0,0-59.083,45.725" fill="none" stroke="#fff" stroke-width="0.82"/>
      </g>
      <g id="Grupo_7537" data-name="Grupo 7537" transform="translate(1018.846 -128.084)">
        <path id="Caminho_7559" data-name="Caminho 7559" d="M0,0-59.083,45.725" fill="none" stroke="#fff" stroke-width="0.82"/>
      </g>
      <g id="Grupo_7538" data-name="Grupo 7538" transform="translate(1029.829 -128.084)">
        <path id="Caminho_7560" data-name="Caminho 7560" d="M0,0-59.083,45.725" fill="none" stroke="#fff" stroke-width="0.82"/>
      </g>
      <g id="Grupo_7539" data-name="Grupo 7539" transform="translate(1013.354 -128.084)">
        <path id="Caminho_7561" data-name="Caminho 7561" d="M0,0-59.083,45.725" fill="none" stroke="#fff" stroke-width="0.82"/>
      </g>
      <g id="Grupo_7540" data-name="Grupo 7540" transform="translate(1051.795 -128.084)">
        <path id="Caminho_7562" data-name="Caminho 7562" d="M0,0-59.083,45.725" fill="none" stroke="#fff" stroke-width="0.82"/>
      </g>
      <g id="Grupo_7541" data-name="Grupo 7541" transform="translate(1035.32 -128.084)">
        <path id="Caminho_7563" data-name="Caminho 7563" d="M0,0-59.083,45.725" fill="none" stroke="#fff" stroke-width="0.82"/>
      </g>
      <g id="Grupo_7542" data-name="Grupo 7542" transform="translate(1040.812 -128.084)">
        <path id="Caminho_7564" data-name="Caminho 7564" d="M0,0-59.083,45.725" fill="none" stroke="#fff" stroke-width="0.82"/>
      </g>
      <g id="Grupo_7543" data-name="Grupo 7543" transform="translate(1024.337 -128.084)">
        <path id="Caminho_7565" data-name="Caminho 7565" d="M0,0-59.083,45.725" fill="none" stroke="#fff" stroke-width="0.82"/>
      </g>
      <g id="Grupo_7544" data-name="Grupo 7544" transform="translate(1062.778 -128.084)">
        <path id="Caminho_7566" data-name="Caminho 7566" d="M0,0-59.083,45.725" fill="none" stroke="#fff" stroke-width="0.82"/>
      </g>
      <g id="Grupo_7545" data-name="Grupo 7545" transform="translate(1046.303 -128.084)">
        <path id="Caminho_7567" data-name="Caminho 7567" d="M0,0-59.083,45.725" fill="none" stroke="#fff" stroke-width="0.82"/>
      </g>
      <g id="Grupo_7546" data-name="Grupo 7546" transform="translate(1095.728 -128.084)">
        <path id="Caminho_7568" data-name="Caminho 7568" d="M0,0-59.083,45.725" fill="none" stroke="#fff" stroke-width="0.82"/>
      </g>
      <g id="Grupo_7547" data-name="Grupo 7547" transform="translate(1079.253 -128.084)">
        <path id="Caminho_7569" data-name="Caminho 7569" d="M0,0-59.083,45.725" fill="none" stroke="#fff" stroke-width="0.82"/>
      </g>
      <g id="Grupo_7548" data-name="Grupo 7548" transform="translate(1073.762 -128.084)">
        <path id="Caminho_7570" data-name="Caminho 7570" d="M0,0-59.083,45.725" fill="none" stroke="#fff" stroke-width="0.82"/>
      </g>
      <g id="Grupo_7549" data-name="Grupo 7549" transform="translate(1057.287 -128.084)">
        <path id="Caminho_7571" data-name="Caminho 7571" d="M0,0-59.083,45.725" fill="none" stroke="#fff" stroke-width="0.82"/>
      </g>
      <g id="Grupo_7550" data-name="Grupo 7550" transform="translate(1084.745 -128.084)">
        <path id="Caminho_7572" data-name="Caminho 7572" d="M0,0-59.083,45.725" fill="none" stroke="#fff" stroke-width="0.82"/>
      </g>
      <g id="Grupo_7551" data-name="Grupo 7551" transform="translate(1068.27 -128.084)">
        <path id="Caminho_7573" data-name="Caminho 7573" d="M0,0-59.083,45.725" fill="none" stroke="#fff" stroke-width="0.82"/>
      </g>
      <g id="Grupo_7552" data-name="Grupo 7552" transform="translate(1101.22 -128.084)">
        <path id="Caminho_7574" data-name="Caminho 7574" d="M0,0-59.083,45.725" fill="none" stroke="#fff" stroke-width="0.82"/>
      </g>
      <g id="Grupo_7553" data-name="Grupo 7553" transform="translate(1106.711 -128.084)">
        <path id="Caminho_7575" data-name="Caminho 7575" d="M0,0-59.083,45.725" fill="none" stroke="#fff" stroke-width="0.82"/>
      </g>
      <g id="Grupo_7554" data-name="Grupo 7554" transform="translate(1112.203 -128.084)">
        <path id="Caminho_7576" data-name="Caminho 7576" d="M0,0-59.083,45.725" fill="none" stroke="#fff" stroke-width="0.82"/>
      </g>
      <g id="Grupo_7555" data-name="Grupo 7555" transform="translate(1117.694 -128.084)">
        <path id="Caminho_7577" data-name="Caminho 7577" d="M0,0-59.083,45.725" fill="none" stroke="#fff" stroke-width="0.82"/>
      </g>
      <g id="Grupo_7556" data-name="Grupo 7556" transform="translate(1123.186 -128.084)">
        <path id="Caminho_7578" data-name="Caminho 7578" d="M0,0-59.083,45.725" fill="none" stroke="#fff" stroke-width="0.82"/>
      </g>
      <g id="Grupo_7557" data-name="Grupo 7557" transform="translate(1090.236 -128.084)">
        <path id="Caminho_7579" data-name="Caminho 7579" d="M0,0-59.083,45.725" fill="none" stroke="#fff" stroke-width="0.82"/>
      </g>
      <g id="Grupo_7558" data-name="Grupo 7558" transform="translate(925.488 -128.084)">
        <path id="Caminho_7580" data-name="Caminho 7580" d="M0,0-59.083,45.725" fill="none" stroke="#fff" stroke-width="0.82"/>
      </g>
      <g id="Grupo_7559" data-name="Grupo 7559" transform="translate(848.605 -128.084)">
        <path id="Caminho_7581" data-name="Caminho 7581" d="M0,0-59.083,45.725" fill="none" stroke="#fff" stroke-width="0.82"/>
      </g>
      <g id="Grupo_7560" data-name="Grupo 7560" transform="translate(958.438 -128.084)">
        <path id="Caminho_7582" data-name="Caminho 7582" d="M0,0-59.083,45.725" fill="none" stroke="#fff" stroke-width="0.82"/>
      </g>
      <g id="Grupo_7561" data-name="Grupo 7561" transform="translate(903.521 -128.084)">
        <path id="Caminho_7583" data-name="Caminho 7583" d="M0,0-59.083,45.725" fill="none" stroke="#fff" stroke-width="0.82"/>
      </g>
      <g id="Grupo_7562" data-name="Grupo 7562" transform="translate(876.063 -128.084)">
        <path id="Caminho_7584" data-name="Caminho 7584" d="M0,0-59.083,45.725" fill="none" stroke="#fff" stroke-width="0.82"/>
      </g>
      <g id="Grupo_7563" data-name="Grupo 7563" transform="translate(930.979 -128.084)">
        <path id="Caminho_7585" data-name="Caminho 7585" d="M0,0-59.083,45.725" fill="none" stroke="#fff" stroke-width="0.82"/>
      </g>
      <g id="Grupo_7564" data-name="Grupo 7564" transform="translate(854.097 -128.084)">
        <path id="Caminho_7586" data-name="Caminho 7586" d="M0,0-59.083,45.725" fill="none" stroke="#fff" stroke-width="0.82"/>
      </g>
      <g id="Grupo_7565" data-name="Grupo 7565" transform="translate(963.929 -128.084)">
        <path id="Caminho_7587" data-name="Caminho 7587" d="M0,0-59.083,45.725" fill="none" stroke="#fff" stroke-width="0.82"/>
      </g>
      <g id="Grupo_7566" data-name="Grupo 7566" transform="translate(909.013 -128.084)">
        <path id="Caminho_7588" data-name="Caminho 7588" d="M0,0-59.083,45.725" fill="none" stroke="#fff" stroke-width="0.82"/>
      </g>
      <g id="Grupo_7567" data-name="Grupo 7567" transform="translate(881.555 -128.084)">
        <path id="Caminho_7589" data-name="Caminho 7589" d="M0,0-59.083,45.725" fill="none" stroke="#fff" stroke-width="0.82"/>
      </g>
      <g id="Grupo_7568" data-name="Grupo 7568" transform="translate(936.471 -128.084)">
        <path id="Caminho_7590" data-name="Caminho 7590" d="M0,0-59.083,45.725" fill="none" stroke="#fff" stroke-width="0.82"/>
      </g>
    </g>
    <g id="Grupo_7571" data-name="Grupo 7571" clip-path="url(#clip-path-3)">
      <g id="Grupo_7570" data-name="Grupo 7570" transform="translate(1009.379 -159.988)">
        <path id="Caminho_7592" data-name="Caminho 7592" d="M0,0-.036,50.972A17.956,17.956,0,0,0,17.8,68.963l12.142.053A17.952,17.952,0,0,0,47.933,51.181l.614-203.1-10.281-.045-.615,203.1a7.669,7.669,0,0,1-7.665,7.6l-12.142-.053a7.672,7.672,0,0,1-7.6-7.666L10.281.045Z" fill="#fff"/>
      </g>
    </g>
  </g>
</svg>
