<svg xmlns="http://www.w3.org/2000/svg" xmlns:xlink="http://www.w3.org/1999/xlink" width="22.961" height="15.565" viewBox="0 0 22.961 15.565">
  <defs>
    <clipPath id="clip-path">
      <path id="Caminho_2" data-name="Caminho 2" d="M0,0H22.961V-15.564H0Z" fill="none"/>
    </clipPath>
    <clipPath id="clip-path-2">
      <path id="Caminho_20" data-name="Caminho 20" d="M3.01-15.565A2.834,2.834,0,0,0,.176-12.73h0v9.31a2.5,2.5,0,0,0,2.5,2.5H20.462a2.5,2.5,0,0,0,2.5-2.5h0v-9.646a2.5,2.5,0,0,0-2.5-2.5H3.01Z" fill="none"/>
    </clipPath>
    <clipPath id="clip-path-3">
      <rect id="Retângulo_1" data-name="Retângulo 1" width="286.014" height="47.329" transform="translate(-67.457 -38.366)" fill="none"/>
    </clipPath>
  </defs>
  <g id="bg_tit2" transform="translate(0 15.565)">
    <g id="Grupo_2" data-name="Grupo 2" clip-path="url(#clip-path)">
      <g id="Grupo_1" data-name="Grupo 1" transform="translate(3.01 -15.564)">
        <path id="Caminho_1" data-name="Caminho 1" d="M0,0A2.835,2.835,0,0,0-2.835,2.835v9.309a2.5,2.5,0,0,0,2.5,2.5H17.452a2.5,2.5,0,0,0,2.5-2.5V2.5a2.5,2.5,0,0,0-2.5-2.5Z" fill="#ff8625"/>
      </g>
    </g>
    <g id="Grupo_23" data-name="Grupo 23" clip-path="url(#clip-path-2)">
      <g id="Grupo_22" data-name="Grupo 22" opacity="0.44">
        <g id="Grupo_21" data-name="Grupo 21">
          <g id="Grupo_20" data-name="Grupo 20" clip-path="url(#clip-path-3)">
            <g id="Grupo_3" data-name="Grupo 3" transform="translate(31.657 -25.133)">
              <path id="Caminho_3" data-name="Caminho 3" d="M0,0-42.464,32.863" fill="none" stroke="#fff" stroke-width="0.589"/>
            </g>
            <g id="Grupo_4" data-name="Grupo 4" transform="translate(11.922 -25.133)">
              <path id="Caminho_4" data-name="Caminho 4" d="M0,0-42.464,32.863" fill="none" stroke="#fff" stroke-width="0.589"/>
            </g>
            <g id="Grupo_5" data-name="Grupo 5" transform="translate(51.392 -25.133)">
              <path id="Caminho_5" data-name="Caminho 5" d="M0,0-42.464,32.863" fill="none" stroke="#fff" stroke-width="0.589"/>
            </g>
            <g id="Grupo_6" data-name="Grupo 6" transform="translate(35.604 -25.133)">
              <path id="Caminho_6" data-name="Caminho 6" d="M0,0-42.464,32.863" fill="none" stroke="#fff" stroke-width="0.589"/>
            </g>
            <g id="Grupo_7" data-name="Grupo 7" transform="translate(15.87 -25.133)">
              <path id="Caminho_7" data-name="Caminho 7" d="M0,0-42.464,32.863" fill="none" stroke="#fff" stroke-width="0.589"/>
            </g>
            <g id="Grupo_8" data-name="Grupo 8" transform="translate(55.339 -25.133)">
              <path id="Caminho_8" data-name="Caminho 8" d="M0,0-42.464,32.863" fill="none" stroke="#fff" stroke-width="0.589"/>
            </g>
            <g id="Grupo_9" data-name="Grupo 9" transform="translate(0.082 -25.133)">
              <path id="Caminho_9" data-name="Caminho 9" d="M0,0-42.464,32.863" fill="none" stroke="#fff" stroke-width="0.589"/>
            </g>
            <g id="Grupo_10" data-name="Grupo 10" transform="translate(39.551 -25.133)">
              <path id="Caminho_10" data-name="Caminho 10" d="M0,0-42.464,32.863" fill="none" stroke="#fff" stroke-width="0.589"/>
            </g>
            <g id="Grupo_11" data-name="Grupo 11" transform="translate(19.816 -25.133)">
              <path id="Caminho_11" data-name="Caminho 11" d="M0,0-42.464,32.863" fill="none" stroke="#fff" stroke-width="0.589"/>
            </g>
            <g id="Grupo_12" data-name="Grupo 12" transform="translate(59.286 -25.133)">
              <path id="Caminho_12" data-name="Caminho 12" d="M0,0-42.464,32.863" fill="none" stroke="#fff" stroke-width="0.589"/>
            </g>
            <g id="Grupo_13" data-name="Grupo 13" transform="translate(4.029 -25.133)">
              <path id="Caminho_13" data-name="Caminho 13" d="M0,0-42.464,32.863" fill="none" stroke="#fff" stroke-width="0.589"/>
            </g>
            <g id="Grupo_14" data-name="Grupo 14" transform="translate(43.498 -25.133)">
              <path id="Caminho_14" data-name="Caminho 14" d="M0,0-42.464,32.863" fill="none" stroke="#fff" stroke-width="0.589"/>
            </g>
            <g id="Grupo_15" data-name="Grupo 15" transform="translate(23.763 -25.133)">
              <path id="Caminho_15" data-name="Caminho 15" d="M0,0-42.464,32.863" fill="none" stroke="#fff" stroke-width="0.589"/>
            </g>
            <g id="Grupo_16" data-name="Grupo 16" transform="translate(63.233 -25.133)">
              <path id="Caminho_16" data-name="Caminho 16" d="M0,0-42.464,32.863" fill="none" stroke="#fff" stroke-width="0.589"/>
            </g>
            <g id="Grupo_17" data-name="Grupo 17" transform="translate(7.976 -25.133)">
              <path id="Caminho_17" data-name="Caminho 17" d="M0,0-42.464,32.863" fill="none" stroke="#fff" stroke-width="0.589"/>
            </g>
            <g id="Grupo_18" data-name="Grupo 18" transform="translate(47.445 -25.133)">
              <path id="Caminho_18" data-name="Caminho 18" d="M0,0-42.464,32.863" fill="none" stroke="#fff" stroke-width="0.589"/>
            </g>
            <g id="Grupo_19" data-name="Grupo 19" transform="translate(27.71 -25.133)">
              <path id="Caminho_19" data-name="Caminho 19" d="M0,0-42.464,32.863" fill="none" stroke="#fff" stroke-width="0.589"/>
            </g>
          </g>
        </g>
      </g>
    </g>
    <g id="Grupo_26" data-name="Grupo 26" clip-path="url(#clip-path)">
      <g id="Grupo_24" data-name="Grupo 24" transform="translate(10.664 -10.75)">
        <path id="Caminho_21" data-name="Caminho 21" d="M0,0V10.127H-7.536a2.978,2.978,0,0,1-2.979-2.978V0Z" fill="#5a599f"/>
      </g>
      <g id="Grupo_25" data-name="Grupo 25" transform="translate(1 -10.993)">
        <path id="Caminho_22" data-name="Caminho 22" d="M0,0H7.271A2.051,2.051,0,0,1,9.322,2.051V9.993" fill="none" stroke="#fff" stroke-linecap="square" stroke-width="2"/>
      </g>
    </g>
  </g>
</svg>
