<svg xmlns="http://www.w3.org/2000/svg" xmlns:xlink="http://www.w3.org/1999/xlink" width="90.945" height="12.881" viewBox="0 0 90.945 12.881">
  <defs>
    <clipPath id="clip-path">
      <path id="Caminho_6902" data-name="Caminho 6902" d="M2.835-12.881A2.835,2.835,0,0,0,0-10.046H0v7.211A2.835,2.835,0,0,0,2.835,0H88.11a2.835,2.835,0,0,0,2.835-2.835h0v-7.211a2.835,2.835,0,0,0-2.835-2.835H2.835Z" fill="none"/>
    </clipPath>
  </defs>
  <g id="bg_vinheta" transform="translate(0 12.881)">
    <g id="Grupo_6849" data-name="Grupo 6849" clip-path="url(#clip-path)">
      <g id="Grupo_6793" data-name="Grupo 6793" transform="translate(-82.864 -18.455)">
        <path id="Caminho_6846" data-name="Caminho 6846" d="M0,0-31.97,24.142" fill="none" stroke="#6585c5" stroke-width="0.53"/>
      </g>
      <g id="Grupo_6794" data-name="Grupo 6794" transform="translate(-79.311 -18.455)">
        <path id="Caminho_6847" data-name="Caminho 6847" d="M0,0-31.97,24.142" fill="none" stroke="#6585c5" stroke-width="0.53"/>
      </g>
      <g id="Grupo_6795" data-name="Grupo 6795" transform="translate(-75.759 -18.455)">
        <path id="Caminho_6848" data-name="Caminho 6848" d="M0,0-31.97,24.142" fill="none" stroke="#6585c5" stroke-width="0.53"/>
      </g>
      <g id="Grupo_6796" data-name="Grupo 6796" transform="translate(-72.207 -18.455)">
        <path id="Caminho_6849" data-name="Caminho 6849" d="M0,0-31.97,24.142" fill="none" stroke="#6585c5" stroke-width="0.53"/>
      </g>
      <g id="Grupo_6797" data-name="Grupo 6797" transform="translate(-68.655 -18.455)">
        <path id="Caminho_6850" data-name="Caminho 6850" d="M0,0-31.97,24.142" fill="none" stroke="#6585c5" stroke-width="0.53"/>
      </g>
      <g id="Grupo_6798" data-name="Grupo 6798" transform="translate(-65.102 -18.455)">
        <path id="Caminho_6851" data-name="Caminho 6851" d="M0,0-31.97,24.142" fill="none" stroke="#6585c5" stroke-width="0.53"/>
      </g>
      <g id="Grupo_6799" data-name="Grupo 6799" transform="translate(-61.55 -18.455)">
        <path id="Caminho_6852" data-name="Caminho 6852" d="M0,0-31.97,24.142" fill="none" stroke="#6585c5" stroke-width="0.53"/>
      </g>
      <g id="Grupo_6800" data-name="Grupo 6800" transform="translate(-57.998 -18.455)">
        <path id="Caminho_6853" data-name="Caminho 6853" d="M0,0-31.97,24.142" fill="none" stroke="#6585c5" stroke-width="0.53"/>
      </g>
      <g id="Grupo_6801" data-name="Grupo 6801" transform="translate(-50.893 -18.455)">
        <path id="Caminho_6854" data-name="Caminho 6854" d="M0,0-31.97,24.142" fill="none" stroke="#6585c5" stroke-width="0.53"/>
      </g>
      <g id="Grupo_6802" data-name="Grupo 6802" transform="translate(-43.789 -18.455)">
        <path id="Caminho_6855" data-name="Caminho 6855" d="M0,0-31.97,24.142" fill="none" stroke="#6585c5" stroke-width="0.53"/>
      </g>
      <g id="Grupo_6803" data-name="Grupo 6803" transform="translate(-54.446 -18.455)">
        <path id="Caminho_6856" data-name="Caminho 6856" d="M0,0-31.97,24.142" fill="none" stroke="#6585c5" stroke-width="0.53"/>
      </g>
      <g id="Grupo_6804" data-name="Grupo 6804" transform="translate(-29.58 -18.455)">
        <path id="Caminho_6857" data-name="Caminho 6857" d="M0,0-31.97,24.142" fill="none" stroke="#6585c5" stroke-width="0.53"/>
      </g>
      <g id="Grupo_6805" data-name="Grupo 6805" transform="translate(-40.236 -18.455)">
        <path id="Caminho_6858" data-name="Caminho 6858" d="M0,0-31.97,24.142" fill="none" stroke="#6585c5" stroke-width="0.53"/>
      </g>
      <g id="Grupo_6806" data-name="Grupo 6806" transform="translate(-36.684 -18.455)">
        <path id="Caminho_6859" data-name="Caminho 6859" d="M0,0-31.97,24.142" fill="none" stroke="#6585c5" stroke-width="0.53"/>
      </g>
      <g id="Grupo_6807" data-name="Grupo 6807" transform="translate(-47.341 -18.455)">
        <path id="Caminho_6860" data-name="Caminho 6860" d="M0,0-31.97,24.142" fill="none" stroke="#6585c5" stroke-width="0.53"/>
      </g>
      <g id="Grupo_6808" data-name="Grupo 6808" transform="translate(-22.475 -18.455)">
        <path id="Caminho_6861" data-name="Caminho 6861" d="M0,0-31.97,24.142" fill="none" stroke="#6585c5" stroke-width="0.53"/>
      </g>
      <g id="Grupo_6809" data-name="Grupo 6809" transform="translate(-33.132 -18.455)">
        <path id="Caminho_6862" data-name="Caminho 6862" d="M0,0-31.97,24.142" fill="none" stroke="#6585c5" stroke-width="0.53"/>
      </g>
      <g id="Grupo_6810" data-name="Grupo 6810" transform="translate(-1.162 -18.455)">
        <path id="Caminho_6863" data-name="Caminho 6863" d="M0,0-31.97,24.142" fill="none" stroke="#6585c5" stroke-width="0.53"/>
      </g>
      <g id="Grupo_6811" data-name="Grupo 6811" transform="translate(-11.818 -18.455)">
        <path id="Caminho_6864" data-name="Caminho 6864" d="M0,0-31.97,24.142" fill="none" stroke="#6585c5" stroke-width="0.53"/>
      </g>
      <g id="Grupo_6812" data-name="Grupo 6812" transform="translate(-15.371 -18.455)">
        <path id="Caminho_6865" data-name="Caminho 6865" d="M0,0-31.97,24.142" fill="none" stroke="#6585c5" stroke-width="0.53"/>
      </g>
      <g id="Grupo_6813" data-name="Grupo 6813" transform="translate(-26.028 -18.455)">
        <path id="Caminho_6866" data-name="Caminho 6866" d="M0,0-31.97,24.142" fill="none" stroke="#6585c5" stroke-width="0.53"/>
      </g>
      <g id="Grupo_6814" data-name="Grupo 6814" transform="translate(-8.266 -18.455)">
        <path id="Caminho_6867" data-name="Caminho 6867" d="M0,0-31.97,24.142" fill="none" stroke="#6585c5" stroke-width="0.53"/>
      </g>
      <g id="Grupo_6815" data-name="Grupo 6815" transform="translate(-18.923 -18.455)">
        <path id="Caminho_6868" data-name="Caminho 6868" d="M0,0-31.97,24.142" fill="none" stroke="#6585c5" stroke-width="0.53"/>
      </g>
      <g id="Grupo_6816" data-name="Grupo 6816" transform="translate(2.391 -18.455)">
        <path id="Caminho_6869" data-name="Caminho 6869" d="M0,0-31.97,24.142" fill="none" stroke="#6585c5" stroke-width="0.53"/>
      </g>
      <g id="Grupo_6817" data-name="Grupo 6817" transform="translate(5.943 -18.455)">
        <path id="Caminho_6870" data-name="Caminho 6870" d="M0,0-31.97,24.142" fill="none" stroke="#6585c5" stroke-width="0.53"/>
      </g>
      <g id="Grupo_6818" data-name="Grupo 6818" transform="translate(9.495 -18.455)">
        <path id="Caminho_6871" data-name="Caminho 6871" d="M0,0-31.97,24.142" fill="none" stroke="#6585c5" stroke-width="0.53"/>
      </g>
      <g id="Grupo_6819" data-name="Grupo 6819" transform="translate(13.047 -18.455)">
        <path id="Caminho_6872" data-name="Caminho 6872" d="M0,0-31.97,24.142" fill="none" stroke="#6585c5" stroke-width="0.53"/>
      </g>
      <g id="Grupo_6820" data-name="Grupo 6820" transform="translate(16.6 -18.455)">
        <path id="Caminho_6873" data-name="Caminho 6873" d="M0,0-31.97,24.142" fill="none" stroke="#6585c5" stroke-width="0.53"/>
      </g>
      <g id="Grupo_6821" data-name="Grupo 6821" transform="translate(-4.714 -18.455)">
        <path id="Caminho_6874" data-name="Caminho 6874" d="M0,0-31.97,24.142" fill="none" stroke="#6585c5" stroke-width="0.53"/>
      </g>
      <g id="Grupo_6822" data-name="Grupo 6822" transform="translate(20.689 -18.455)">
        <path id="Caminho_6875" data-name="Caminho 6875" d="M0,0-31.97,24.142" fill="none" stroke="#6585c5" stroke-width="0.53"/>
      </g>
      <g id="Grupo_6823" data-name="Grupo 6823" transform="translate(24.241 -18.455)">
        <path id="Caminho_6876" data-name="Caminho 6876" d="M0,0-31.97,24.142" fill="none" stroke="#6585c5" stroke-width="0.53"/>
      </g>
      <g id="Grupo_6824" data-name="Grupo 6824" transform="translate(27.793 -18.455)">
        <path id="Caminho_6877" data-name="Caminho 6877" d="M0,0-31.97,24.142" fill="none" stroke="#6585c5" stroke-width="0.53"/>
      </g>
      <g id="Grupo_6825" data-name="Grupo 6825" transform="translate(31.345 -18.455)">
        <path id="Caminho_6878" data-name="Caminho 6878" d="M0,0-31.97,24.142" fill="none" stroke="#6585c5" stroke-width="0.53"/>
      </g>
      <g id="Grupo_6826" data-name="Grupo 6826" transform="translate(34.898 -18.455)">
        <path id="Caminho_6879" data-name="Caminho 6879" d="M0,0-31.97,24.142" fill="none" stroke="#6585c5" stroke-width="0.53"/>
      </g>
      <g id="Grupo_6827" data-name="Grupo 6827" transform="translate(38.45 -18.455)">
        <path id="Caminho_6880" data-name="Caminho 6880" d="M0,0-31.97,24.142" fill="none" stroke="#6585c5" stroke-width="0.53"/>
      </g>
      <g id="Grupo_6828" data-name="Grupo 6828" transform="translate(42.002 -18.455)">
        <path id="Caminho_6881" data-name="Caminho 6881" d="M0,0-31.97,24.142" fill="none" stroke="#6585c5" stroke-width="0.53"/>
      </g>
      <g id="Grupo_6829" data-name="Grupo 6829" transform="translate(49.107 -18.455)">
        <path id="Caminho_6882" data-name="Caminho 6882" d="M0,0-31.97,24.142" fill="none" stroke="#6585c5" stroke-width="0.53"/>
      </g>
      <g id="Grupo_6830" data-name="Grupo 6830" transform="translate(56.211 -18.455)">
        <path id="Caminho_6883" data-name="Caminho 6883" d="M0,0-31.97,24.142" fill="none" stroke="#6585c5" stroke-width="0.53"/>
      </g>
      <g id="Grupo_6831" data-name="Grupo 6831" transform="translate(45.554 -18.455)">
        <path id="Caminho_6884" data-name="Caminho 6884" d="M0,0-31.97,24.142" fill="none" stroke="#6585c5" stroke-width="0.53"/>
      </g>
      <g id="Grupo_6832" data-name="Grupo 6832" transform="translate(70.42 -18.455)">
        <path id="Caminho_6885" data-name="Caminho 6885" d="M0,0-31.97,24.142" fill="none" stroke="#6585c5" stroke-width="0.53"/>
      </g>
      <g id="Grupo_6833" data-name="Grupo 6833" transform="translate(59.764 -18.455)">
        <path id="Caminho_6886" data-name="Caminho 6886" d="M0,0-31.97,24.142" fill="none" stroke="#6585c5" stroke-width="0.53"/>
      </g>
      <g id="Grupo_6834" data-name="Grupo 6834" transform="translate(63.316 -18.455)">
        <path id="Caminho_6887" data-name="Caminho 6887" d="M0,0-31.97,24.142" fill="none" stroke="#6585c5" stroke-width="0.53"/>
      </g>
      <g id="Grupo_6835" data-name="Grupo 6835" transform="translate(52.659 -18.455)">
        <path id="Caminho_6888" data-name="Caminho 6888" d="M0,0-31.97,24.142" fill="none" stroke="#6585c5" stroke-width="0.53"/>
      </g>
      <g id="Grupo_6836" data-name="Grupo 6836" transform="translate(77.525 -18.455)">
        <path id="Caminho_6889" data-name="Caminho 6889" d="M0,0-31.97,24.142" fill="none" stroke="#6585c5" stroke-width="0.53"/>
      </g>
      <g id="Grupo_6837" data-name="Grupo 6837" transform="translate(66.868 -18.455)">
        <path id="Caminho_6890" data-name="Caminho 6890" d="M0,0-31.97,24.142" fill="none" stroke="#6585c5" stroke-width="0.53"/>
      </g>
      <g id="Grupo_6838" data-name="Grupo 6838" transform="translate(98.838 -18.455)">
        <path id="Caminho_6891" data-name="Caminho 6891" d="M0,0-31.97,24.142" fill="none" stroke="#6585c5" stroke-width="0.53"/>
      </g>
      <g id="Grupo_6839" data-name="Grupo 6839" transform="translate(88.182 -18.455)">
        <path id="Caminho_6892" data-name="Caminho 6892" d="M0,0-31.97,24.142" fill="none" stroke="#6585c5" stroke-width="0.53"/>
      </g>
      <g id="Grupo_6840" data-name="Grupo 6840" transform="translate(84.629 -18.455)">
        <path id="Caminho_6893" data-name="Caminho 6893" d="M0,0-31.97,24.142" fill="none" stroke="#6585c5" stroke-width="0.53"/>
      </g>
      <g id="Grupo_6841" data-name="Grupo 6841" transform="translate(73.973 -18.455)">
        <path id="Caminho_6894" data-name="Caminho 6894" d="M0,0-31.97,24.142" fill="none" stroke="#6585c5" stroke-width="0.53"/>
      </g>
      <g id="Grupo_6842" data-name="Grupo 6842" transform="translate(91.734 -18.455)">
        <path id="Caminho_6895" data-name="Caminho 6895" d="M0,0-31.97,24.142" fill="none" stroke="#6585c5" stroke-width="0.53"/>
      </g>
      <g id="Grupo_6843" data-name="Grupo 6843" transform="translate(81.077 -18.455)">
        <path id="Caminho_6896" data-name="Caminho 6896" d="M0,0-31.97,24.142" fill="none" stroke="#6585c5" stroke-width="0.53"/>
      </g>
      <g id="Grupo_6844" data-name="Grupo 6844" transform="translate(102.391 -18.455)">
        <path id="Caminho_6897" data-name="Caminho 6897" d="M0,0-31.97,24.142" fill="none" stroke="#6585c5" stroke-width="0.53"/>
      </g>
      <g id="Grupo_6845" data-name="Grupo 6845" transform="translate(105.943 -18.455)">
        <path id="Caminho_6898" data-name="Caminho 6898" d="M0,0-31.97,24.142" fill="none" stroke="#6585c5" stroke-width="0.53"/>
      </g>
      <g id="Grupo_6846" data-name="Grupo 6846" transform="translate(109.495 -18.455)">
        <path id="Caminho_6899" data-name="Caminho 6899" d="M0,0-31.97,24.142" fill="none" stroke="#6585c5" stroke-width="0.53"/>
      </g>
      <g id="Grupo_6847" data-name="Grupo 6847" transform="translate(113.048 -18.455)">
        <path id="Caminho_6900" data-name="Caminho 6900" d="M0,0-31.97,24.142" fill="none" stroke="#6585c5" stroke-width="0.53"/>
      </g>
      <g id="Grupo_6848" data-name="Grupo 6848" transform="translate(95.286 -18.455)">
        <path id="Caminho_6901" data-name="Caminho 6901" d="M0,0-31.97,24.142" fill="none" stroke="#6585c5" stroke-width="0.53"/>
      </g>
    </g>
  </g>
</svg>
