<svg xmlns="http://www.w3.org/2000/svg" xmlns:xlink="http://www.w3.org/1999/xlink" width="43.228" height="9.355" viewBox="0 0 43.228 9.355">
  <defs>
    <clipPath id="clip-path">
      <path id="Caminho_1536" data-name="Caminho 1536" d="M0,0H43.228V-9.355H0Z" fill="none"/>
    </clipPath>
  </defs>
  <g id="hachura2" transform="translate(0 9.355)">
    <g id="Grupo_1543" data-name="Grupo 1543" clip-path="url(#clip-path)">
      <g id="Grupo_1522" data-name="Grupo 1522" transform="translate(4.731 -22.799)">
        <path id="Caminho_1515" data-name="Caminho 1515" d="M0,0-42.464,32.863" fill="none" stroke="#6f7175" stroke-width="0.589"/>
      </g>
      <g id="Grupo_1523" data-name="Grupo 1523" transform="translate(83.67 -22.799)">
        <path id="Caminho_1516" data-name="Caminho 1516" d="M0,0-42.464,32.863" fill="none" stroke="#6f7175" stroke-width="0.589"/>
      </g>
      <g id="Grupo_1524" data-name="Grupo 1524" transform="translate(44.201 -22.799)">
        <path id="Caminho_1517" data-name="Caminho 1517" d="M0,0-42.464,32.863" fill="none" stroke="#6f7175" stroke-width="0.589"/>
      </g>
      <g id="Grupo_1525" data-name="Grupo 1525" transform="translate(24.466 -22.799)">
        <path id="Caminho_1518" data-name="Caminho 1518" d="M0,0-42.464,32.863" fill="none" stroke="#6f7175" stroke-width="0.589"/>
      </g>
      <g id="Grupo_1526" data-name="Grupo 1526" transform="translate(63.936 -22.799)">
        <path id="Caminho_1519" data-name="Caminho 1519" d="M0,0-42.464,32.863" fill="none" stroke="#6f7175" stroke-width="0.589"/>
      </g>
      <g id="Grupo_1527" data-name="Grupo 1527" transform="translate(8.678 -22.799)">
        <path id="Caminho_1520" data-name="Caminho 1520" d="M0,0-42.464,32.863" fill="none" stroke="#6f7175" stroke-width="0.589"/>
      </g>
      <g id="Grupo_1528" data-name="Grupo 1528" transform="translate(48.148 -22.799)">
        <path id="Caminho_1521" data-name="Caminho 1521" d="M0,0-42.464,32.863" fill="none" stroke="#6f7175" stroke-width="0.589"/>
      </g>
      <g id="Grupo_1529" data-name="Grupo 1529" transform="translate(28.413 -22.799)">
        <path id="Caminho_1522" data-name="Caminho 1522" d="M0,0-42.464,32.863" fill="none" stroke="#6f7175" stroke-width="0.589"/>
      </g>
      <g id="Grupo_1530" data-name="Grupo 1530" transform="translate(67.882 -22.799)">
        <path id="Caminho_1523" data-name="Caminho 1523" d="M0,0-42.464,32.863" fill="none" stroke="#6f7175" stroke-width="0.589"/>
      </g>
      <g id="Grupo_1531" data-name="Grupo 1531" transform="translate(12.625 -22.799)">
        <path id="Caminho_1524" data-name="Caminho 1524" d="M0,0-42.464,32.863" fill="none" stroke="#6f7175" stroke-width="0.589"/>
      </g>
      <g id="Grupo_1532" data-name="Grupo 1532" transform="translate(52.095 -22.799)">
        <path id="Caminho_1525" data-name="Caminho 1525" d="M0,0-42.464,32.863" fill="none" stroke="#6f7175" stroke-width="0.589"/>
      </g>
      <g id="Grupo_1533" data-name="Grupo 1533" transform="translate(32.36 -22.799)">
        <path id="Caminho_1526" data-name="Caminho 1526" d="M0,0-42.464,32.863" fill="none" stroke="#6f7175" stroke-width="0.589"/>
      </g>
      <g id="Grupo_1534" data-name="Grupo 1534" transform="translate(71.829 -22.799)">
        <path id="Caminho_1527" data-name="Caminho 1527" d="M0,0-42.464,32.863" fill="none" stroke="#6f7175" stroke-width="0.589"/>
      </g>
      <g id="Grupo_1535" data-name="Grupo 1535" transform="translate(16.572 -22.799)">
        <path id="Caminho_1528" data-name="Caminho 1528" d="M0,0-42.464,32.863" fill="none" stroke="#6f7175" stroke-width="0.589"/>
      </g>
      <g id="Grupo_1536" data-name="Grupo 1536" transform="translate(56.042 -22.799)">
        <path id="Caminho_1529" data-name="Caminho 1529" d="M0,0-42.464,32.863" fill="none" stroke="#6f7175" stroke-width="0.589"/>
      </g>
      <g id="Grupo_1537" data-name="Grupo 1537" transform="translate(36.307 -22.799)">
        <path id="Caminho_1530" data-name="Caminho 1530" d="M0,0-42.464,32.863" fill="none" stroke="#6f7175" stroke-width="0.589"/>
      </g>
      <g id="Grupo_1538" data-name="Grupo 1538" transform="translate(75.776 -22.799)">
        <path id="Caminho_1531" data-name="Caminho 1531" d="M0,0-42.464,32.863" fill="none" stroke="#6f7175" stroke-width="0.589"/>
      </g>
      <g id="Grupo_1539" data-name="Grupo 1539" transform="translate(20.519 -22.799)">
        <path id="Caminho_1532" data-name="Caminho 1532" d="M0,0-42.464,32.863" fill="none" stroke="#6f7175" stroke-width="0.589"/>
      </g>
      <g id="Grupo_1540" data-name="Grupo 1540" transform="translate(59.988 -22.799)">
        <path id="Caminho_1533" data-name="Caminho 1533" d="M0,0-42.464,32.863" fill="none" stroke="#6f7175" stroke-width="0.589"/>
      </g>
      <g id="Grupo_1541" data-name="Grupo 1541" transform="translate(40.254 -22.799)">
        <path id="Caminho_1534" data-name="Caminho 1534" d="M0,0-42.464,32.863" fill="none" stroke="#6f7175" stroke-width="0.589"/>
      </g>
      <g id="Grupo_1542" data-name="Grupo 1542" transform="translate(79.723 -22.799)">
        <path id="Caminho_1535" data-name="Caminho 1535" d="M0,0-42.464,32.863" fill="none" stroke="#6f7175" stroke-width="0.589"/>
      </g>
    </g>
  </g>
</svg>
