<svg xmlns="http://www.w3.org/2000/svg" xmlns:xlink="http://www.w3.org/1999/xlink" width="84.208" height="48.756" viewBox="0 0 84.208 48.756">
  <defs>
    <clipPath id="clip-path">
      <path id="Caminho_1514" data-name="Caminho 1514" d="M0,0H84.208V-48.756H0Z" fill="none"/>
    </clipPath>
  </defs>
  <g id="hachura" transform="translate(0 48.756)">
    <g id="Grupo_1521" data-name="Grupo 1521" clip-path="url(#clip-path)">
      <g id="Grupo_1456" data-name="Grupo 1456" transform="translate(30.166 -24.107)">
        <path id="Caminho_1449" data-name="Caminho 1449" d="M0,0-42.464,32.863" fill="none" stroke="#6f7175" stroke-width="0.589"/>
      </g>
      <g id="Grupo_1457" data-name="Grupo 1457" transform="translate(49.901 -24.107)">
        <path id="Caminho_1450" data-name="Caminho 1450" d="M0,0-42.464,32.863" fill="none" stroke="#6f7175" stroke-width="0.589"/>
      </g>
      <g id="Grupo_1458" data-name="Grupo 1458" transform="translate(10.432 -24.107)">
        <path id="Caminho_1451" data-name="Caminho 1451" d="M0,0-42.464,32.863" fill="none" stroke="#6f7175" stroke-width="0.589"/>
      </g>
      <g id="Grupo_1459" data-name="Grupo 1459" transform="translate(34.113 -24.107)">
        <path id="Caminho_1452" data-name="Caminho 1452" d="M0,0-42.464,32.863" fill="none" stroke="#6f7175" stroke-width="0.589"/>
      </g>
      <g id="Grupo_1460" data-name="Grupo 1460" transform="translate(53.848 -24.107)">
        <path id="Caminho_1453" data-name="Caminho 1453" d="M0,0-42.464,32.863" fill="none" stroke="#6f7175" stroke-width="0.589"/>
      </g>
      <g id="Grupo_1461" data-name="Grupo 1461" transform="translate(14.378 -24.107)">
        <path id="Caminho_1454" data-name="Caminho 1454" d="M0,0-42.464,32.863" fill="none" stroke="#6f7175" stroke-width="0.589"/>
      </g>
      <g id="Grupo_1462" data-name="Grupo 1462" transform="translate(38.06 -24.107)">
        <path id="Caminho_1455" data-name="Caminho 1455" d="M0,0-42.464,32.863" fill="none" stroke="#6f7175" stroke-width="0.589"/>
      </g>
      <g id="Grupo_1463" data-name="Grupo 1463" transform="translate(57.795 -24.107)">
        <path id="Caminho_1456" data-name="Caminho 1456" d="M0,0-42.464,32.863" fill="none" stroke="#6f7175" stroke-width="0.589"/>
      </g>
      <g id="Grupo_1464" data-name="Grupo 1464" transform="translate(61.742 -24.107)">
        <path id="Caminho_1457" data-name="Caminho 1457" d="M0,0-42.464,32.863" fill="none" stroke="#6f7175" stroke-width="0.589"/>
      </g>
      <g id="Grupo_1465" data-name="Grupo 1465" transform="translate(65.689 -24.107)">
        <path id="Caminho_1458" data-name="Caminho 1458" d="M0,0-42.464,32.863" fill="none" stroke="#6f7175" stroke-width="0.589"/>
      </g>
      <g id="Grupo_1466" data-name="Grupo 1466" transform="translate(69.636 -24.107)">
        <path id="Caminho_1459" data-name="Caminho 1459" d="M0,0-42.464,32.863" fill="none" stroke="#6f7175" stroke-width="0.589"/>
      </g>
      <g id="Grupo_1467" data-name="Grupo 1467" transform="translate(73.583 -24.107)">
        <path id="Caminho_1460" data-name="Caminho 1460" d="M0,0-42.464,32.863" fill="none" stroke="#6f7175" stroke-width="0.589"/>
      </g>
      <g id="Grupo_1468" data-name="Grupo 1468" transform="translate(77.53 -24.107)">
        <path id="Caminho_1461" data-name="Caminho 1461" d="M0,0-42.464,32.863" fill="none" stroke="#6f7175" stroke-width="0.589"/>
      </g>
      <g id="Grupo_1469" data-name="Grupo 1469" transform="translate(85.424 -24.107)">
        <path id="Caminho_1462" data-name="Caminho 1462" d="M0,0-42.464,32.863" fill="none" stroke="#6f7175" stroke-width="0.589"/>
      </g>
      <g id="Grupo_1470" data-name="Grupo 1470" transform="translate(93.318 -24.107)">
        <path id="Caminho_1463" data-name="Caminho 1463" d="M0,0-42.464,32.863" fill="none" stroke="#6f7175" stroke-width="0.589"/>
      </g>
      <g id="Grupo_1471" data-name="Grupo 1471" transform="translate(81.477 -24.107)">
        <path id="Caminho_1464" data-name="Caminho 1464" d="M0,0-42.464,32.863" fill="none" stroke="#6f7175" stroke-width="0.589"/>
      </g>
      <g id="Grupo_1472" data-name="Grupo 1472" transform="translate(109.106 -24.107)">
        <path id="Caminho_1465" data-name="Caminho 1465" d="M0,0-42.464,32.863" fill="none" stroke="#6f7175" stroke-width="0.589"/>
      </g>
      <g id="Grupo_1473" data-name="Grupo 1473" transform="translate(97.265 -24.107)">
        <path id="Caminho_1466" data-name="Caminho 1466" d="M0,0-42.464,32.863" fill="none" stroke="#6f7175" stroke-width="0.589"/>
      </g>
      <g id="Grupo_1474" data-name="Grupo 1474" transform="translate(101.212 -24.107)">
        <path id="Caminho_1467" data-name="Caminho 1467" d="M0,0-42.464,32.863" fill="none" stroke="#6f7175" stroke-width="0.589"/>
      </g>
      <g id="Grupo_1475" data-name="Grupo 1475" transform="translate(89.371 -24.107)">
        <path id="Caminho_1468" data-name="Caminho 1468" d="M0,0-42.464,32.863" fill="none" stroke="#6f7175" stroke-width="0.589"/>
      </g>
      <g id="Grupo_1476" data-name="Grupo 1476" transform="translate(116.999 -24.107)">
        <path id="Caminho_1469" data-name="Caminho 1469" d="M0,0-42.464,32.863" fill="none" stroke="#6f7175" stroke-width="0.589"/>
      </g>
      <g id="Grupo_1477" data-name="Grupo 1477" transform="translate(105.159 -24.107)">
        <path id="Caminho_1470" data-name="Caminho 1470" d="M0,0-42.464,32.863" fill="none" stroke="#6f7175" stroke-width="0.589"/>
      </g>
      <g id="Grupo_1478" data-name="Grupo 1478" transform="translate(124.894 -24.107)">
        <path id="Caminho_1471" data-name="Caminho 1471" d="M0,0-42.464,32.863" fill="none" stroke="#6f7175" stroke-width="0.589"/>
      </g>
      <g id="Grupo_1479" data-name="Grupo 1479" transform="translate(113.053 -24.107)">
        <path id="Caminho_1472" data-name="Caminho 1472" d="M0,0-42.464,32.863" fill="none" stroke="#6f7175" stroke-width="0.589"/>
      </g>
      <g id="Grupo_1480" data-name="Grupo 1480" transform="translate(120.947 -24.107)">
        <path id="Caminho_1473" data-name="Caminho 1473" d="M0,0-42.464,32.863" fill="none" stroke="#6f7175" stroke-width="0.589"/>
      </g>
      <g id="Grupo_1481" data-name="Grupo 1481" transform="translate(18.326 -24.107)">
        <path id="Caminho_1474" data-name="Caminho 1474" d="M0,0-42.464,32.863" fill="none" stroke="#6f7175" stroke-width="0.589"/>
      </g>
      <g id="Grupo_1482" data-name="Grupo 1482" transform="translate(42.007 -24.107)">
        <path id="Caminho_1475" data-name="Caminho 1475" d="M0,0-42.464,32.863" fill="none" stroke="#6f7175" stroke-width="0.589"/>
      </g>
      <g id="Grupo_1483" data-name="Grupo 1483" transform="translate(2.538 -24.107)">
        <path id="Caminho_1476" data-name="Caminho 1476" d="M0,0-42.464,32.863" fill="none" stroke="#6f7175" stroke-width="0.589"/>
      </g>
      <g id="Grupo_1484" data-name="Grupo 1484" transform="translate(22.272 -24.107)">
        <path id="Caminho_1477" data-name="Caminho 1477" d="M0,0-42.464,32.863" fill="none" stroke="#6f7175" stroke-width="0.589"/>
      </g>
      <g id="Grupo_1485" data-name="Grupo 1485" transform="translate(45.954 -24.107)">
        <path id="Caminho_1478" data-name="Caminho 1478" d="M0,0-42.464,32.863" fill="none" stroke="#6f7175" stroke-width="0.589"/>
      </g>
      <g id="Grupo_1486" data-name="Grupo 1486" transform="translate(6.485 -24.107)">
        <path id="Caminho_1479" data-name="Caminho 1479" d="M0,0-42.464,32.863" fill="none" stroke="#6f7175" stroke-width="0.589"/>
      </g>
      <g id="Grupo_1487" data-name="Grupo 1487" transform="translate(26.219 -24.107)">
        <path id="Caminho_1480" data-name="Caminho 1480" d="M0,0-42.464,32.863" fill="none" stroke="#6f7175" stroke-width="0.589"/>
      </g>
      <g id="Grupo_1488" data-name="Grupo 1488" transform="translate(67.488 -56.035)">
        <path id="Caminho_1481" data-name="Caminho 1481" d="M0,0-42.464,32.863" fill="none" stroke="#6f7175" stroke-width="0.589"/>
      </g>
      <g id="Grupo_1489" data-name="Grupo 1489" transform="translate(28.018 -56.035)">
        <path id="Caminho_1482" data-name="Caminho 1482" d="M0,0-42.464,32.863" fill="none" stroke="#6f7175" stroke-width="0.589"/>
      </g>
      <g id="Grupo_1490" data-name="Grupo 1490" transform="translate(8.283 -56.035)">
        <path id="Caminho_1483" data-name="Caminho 1483" d="M0,0-42.464,32.863" fill="none" stroke="#6f7175" stroke-width="0.589"/>
      </g>
      <g id="Grupo_1491" data-name="Grupo 1491" transform="translate(87.222 -56.035)">
        <path id="Caminho_1484" data-name="Caminho 1484" d="M0,0-42.464,32.863" fill="none" stroke="#6f7175" stroke-width="0.589"/>
      </g>
      <g id="Grupo_1492" data-name="Grupo 1492" transform="translate(47.753 -56.035)">
        <path id="Caminho_1485" data-name="Caminho 1485" d="M0,0-42.464,32.863" fill="none" stroke="#6f7175" stroke-width="0.589"/>
      </g>
      <g id="Grupo_1493" data-name="Grupo 1493" transform="translate(71.435 -56.035)">
        <path id="Caminho_1486" data-name="Caminho 1486" d="M0,0-42.464,32.863" fill="none" stroke="#6f7175" stroke-width="0.589"/>
      </g>
      <g id="Grupo_1494" data-name="Grupo 1494" transform="translate(31.965 -56.035)">
        <path id="Caminho_1487" data-name="Caminho 1487" d="M0,0-42.464,32.863" fill="none" stroke="#6f7175" stroke-width="0.589"/>
      </g>
      <g id="Grupo_1495" data-name="Grupo 1495" transform="translate(12.23 -56.035)">
        <path id="Caminho_1488" data-name="Caminho 1488" d="M0,0-42.464,32.863" fill="none" stroke="#6f7175" stroke-width="0.589"/>
      </g>
      <g id="Grupo_1496" data-name="Grupo 1496" transform="translate(91.169 -56.035)">
        <path id="Caminho_1489" data-name="Caminho 1489" d="M0,0-42.464,32.863" fill="none" stroke="#6f7175" stroke-width="0.589"/>
      </g>
      <g id="Grupo_1497" data-name="Grupo 1497" transform="translate(51.7 -56.035)">
        <path id="Caminho_1490" data-name="Caminho 1490" d="M0,0-42.464,32.863" fill="none" stroke="#6f7175" stroke-width="0.589"/>
      </g>
      <g id="Grupo_1498" data-name="Grupo 1498" transform="translate(75.382 -56.035)">
        <path id="Caminho_1491" data-name="Caminho 1491" d="M0,0-42.464,32.863" fill="none" stroke="#6f7175" stroke-width="0.589"/>
      </g>
      <g id="Grupo_1499" data-name="Grupo 1499" transform="translate(35.912 -56.035)">
        <path id="Caminho_1492" data-name="Caminho 1492" d="M0,0-42.464,32.863" fill="none" stroke="#6f7175" stroke-width="0.589"/>
      </g>
      <g id="Grupo_1500" data-name="Grupo 1500" transform="translate(16.177 -56.035)">
        <path id="Caminho_1493" data-name="Caminho 1493" d="M0,0-42.464,32.863" fill="none" stroke="#6f7175" stroke-width="0.589"/>
      </g>
      <g id="Grupo_1501" data-name="Grupo 1501" transform="translate(95.116 -56.035)">
        <path id="Caminho_1494" data-name="Caminho 1494" d="M0,0-42.464,32.863" fill="none" stroke="#6f7175" stroke-width="0.589"/>
      </g>
      <g id="Grupo_1502" data-name="Grupo 1502" transform="translate(99.063 -56.035)">
        <path id="Caminho_1495" data-name="Caminho 1495" d="M0,0-42.464,32.863" fill="none" stroke="#6f7175" stroke-width="0.589"/>
      </g>
      <g id="Grupo_1503" data-name="Grupo 1503" transform="translate(103.01 -56.035)">
        <path id="Caminho_1496" data-name="Caminho 1496" d="M0,0-42.464,32.863" fill="none" stroke="#6f7175" stroke-width="0.589"/>
      </g>
      <g id="Grupo_1504" data-name="Grupo 1504" transform="translate(106.957 -56.035)">
        <path id="Caminho_1497" data-name="Caminho 1497" d="M0,0-42.464,32.863" fill="none" stroke="#6f7175" stroke-width="0.589"/>
      </g>
      <g id="Grupo_1505" data-name="Grupo 1505" transform="translate(110.904 -56.035)">
        <path id="Caminho_1498" data-name="Caminho 1498" d="M0,0-42.464,32.863" fill="none" stroke="#6f7175" stroke-width="0.589"/>
      </g>
      <g id="Grupo_1506" data-name="Grupo 1506" transform="translate(114.851 -56.035)">
        <path id="Caminho_1499" data-name="Caminho 1499" d="M0,0-42.464,32.863" fill="none" stroke="#6f7175" stroke-width="0.589"/>
      </g>
      <g id="Grupo_1507" data-name="Grupo 1507" transform="translate(122.745 -56.035)">
        <path id="Caminho_1500" data-name="Caminho 1500" d="M0,0-42.464,32.863" fill="none" stroke="#6f7175" stroke-width="0.589"/>
      </g>
      <g id="Grupo_1508" data-name="Grupo 1508" transform="translate(118.798 -56.035)">
        <path id="Caminho_1501" data-name="Caminho 1501" d="M0,0-42.464,32.863" fill="none" stroke="#6f7175" stroke-width="0.589"/>
      </g>
      <g id="Grupo_1509" data-name="Grupo 1509" transform="translate(126.692 -56.035)">
        <path id="Caminho_1502" data-name="Caminho 1502" d="M0,0-42.464,32.863" fill="none" stroke="#6f7175" stroke-width="0.589"/>
      </g>
      <g id="Grupo_1510" data-name="Grupo 1510" transform="translate(55.647 -56.035)">
        <path id="Caminho_1503" data-name="Caminho 1503" d="M0,0-42.464,32.863" fill="none" stroke="#6f7175" stroke-width="0.589"/>
      </g>
      <g id="Grupo_1511" data-name="Grupo 1511" transform="translate(0.389 -56.035)">
        <path id="Caminho_1504" data-name="Caminho 1504" d="M0,0-42.464,32.863" fill="none" stroke="#6f7175" stroke-width="0.589"/>
      </g>
      <g id="Grupo_1512" data-name="Grupo 1512" transform="translate(79.328 -56.035)">
        <path id="Caminho_1505" data-name="Caminho 1505" d="M0,0-42.464,32.863" fill="none" stroke="#6f7175" stroke-width="0.589"/>
      </g>
      <g id="Grupo_1513" data-name="Grupo 1513" transform="translate(39.859 -56.035)">
        <path id="Caminho_1506" data-name="Caminho 1506" d="M0,0-42.464,32.863" fill="none" stroke="#6f7175" stroke-width="0.589"/>
      </g>
      <g id="Grupo_1514" data-name="Grupo 1514" transform="translate(20.124 -56.035)">
        <path id="Caminho_1507" data-name="Caminho 1507" d="M0,0-42.464,32.863" fill="none" stroke="#6f7175" stroke-width="0.589"/>
      </g>
      <g id="Grupo_1515" data-name="Grupo 1515" transform="translate(59.594 -56.035)">
        <path id="Caminho_1508" data-name="Caminho 1508" d="M0,0-42.464,32.863" fill="none" stroke="#6f7175" stroke-width="0.589"/>
      </g>
      <g id="Grupo_1516" data-name="Grupo 1516" transform="translate(4.336 -56.035)">
        <path id="Caminho_1509" data-name="Caminho 1509" d="M0,0-42.464,32.863" fill="none" stroke="#6f7175" stroke-width="0.589"/>
      </g>
      <g id="Grupo_1517" data-name="Grupo 1517" transform="translate(83.275 -56.035)">
        <path id="Caminho_1510" data-name="Caminho 1510" d="M0,0-42.464,32.863" fill="none" stroke="#6f7175" stroke-width="0.589"/>
      </g>
      <g id="Grupo_1518" data-name="Grupo 1518" transform="translate(43.806 -56.035)">
        <path id="Caminho_1511" data-name="Caminho 1511" d="M0,0-42.464,32.863" fill="none" stroke="#6f7175" stroke-width="0.589"/>
      </g>
      <g id="Grupo_1519" data-name="Grupo 1519" transform="translate(24.071 -56.035)">
        <path id="Caminho_1512" data-name="Caminho 1512" d="M0,0-42.464,32.863" fill="none" stroke="#6f7175" stroke-width="0.589"/>
      </g>
      <g id="Grupo_1520" data-name="Grupo 1520" transform="translate(63.541 -56.035)">
        <path id="Caminho_1513" data-name="Caminho 1513" d="M0,0-42.464,32.863" fill="none" stroke="#6f7175" stroke-width="0.589"/>
      </g>
    </g>
  </g>
</svg>
