<svg xmlns="http://www.w3.org/2000/svg" width="17.011" height="17.012" viewBox="0 0 17.011 17.012">
  <g id="ico_elaboracaotext" transform="translate(-33 -651.904)">
    <g id="ico_elaboracaotext-2" data-name="ico_elaboracaotext" transform="translate(35.004 651.904)">
      <path id="Caminho_1794" data-name="Caminho 1794" d="M0,0V1H-1v1H-2v13h1v1H0v1H13v-1h1v-1h1v-13h-1V1H13V0Z" fill="#ff8625"/>
    </g>
    <g id="Grupo_1733" data-name="Grupo 1733" transform="translate(46.008 655.906)">
      <path id="Caminho_1795" data-name="Caminho 1795" d="M0,0V1H-1V0h-1V1h-1V0H-4V1h-1V0h-1V10.009H1V0Z" fill="#6969b6"/>
    </g>
    <g id="Grupo_1734" data-name="Grupo 1734" transform="translate(35.999 658.906)">
      <path id="Caminho_1796" data-name="Caminho 1796" d="M0,0V7.009H1V-1H0Z" fill="#6969b6"/>
    </g>
    <g id="Grupo_1735" data-name="Grupo 1735" transform="translate(47.004 655.906)">
      <path id="Caminho_1797" data-name="Caminho 1797" d="M0,0V10.009H1V0Z" fill="#152030"/>
    </g>
    <g id="Grupo_1736" data-name="Grupo 1736" transform="translate(46.009 665.916)">
      <path id="Caminho_1798" data-name="Caminho 1798" d="M0,0H-6.008V.994h7V0Z" fill="#152030"/>
    </g>
    <g id="Grupo_1737" data-name="Grupo 1737" transform="translate(41.004 656.908)">
      <path id="Caminho_1799" data-name="Caminho 1799" d="M0,0H1V-1H2V0H3V-1H4V0h1V-1H6V-2H5.005V-3H4v1H3V-3H2v1H1V-3H0v1H-1v1H0Z" fill="#152030"/>
    </g>
    <g id="Grupo_1738" data-name="Grupo 1738" transform="translate(40.001 663.911)">
      <path id="Caminho_1800" data-name="Caminho 1800" d="M0,0V-8.005H-1V2.005H0V0Z" fill="#152030"/>
    </g>
    <g id="Grupo_1739" data-name="Grupo 1739" transform="translate(37.001 656.908)">
      <path id="Caminho_1801" data-name="Caminho 1801" d="M0,0H-1V-1H-2V10H1V-1H0ZM0,2V9.007H-1V1H0Z" fill="#152030"/>
    </g>
    <path id="Caminho_1803" data-name="Caminho 1803" d="M8.013-50.23h4.932v-.995H8.013Z" transform="translate(33 709.114)" fill="#152030"/>
    <path id="Caminho_1804" data-name="Caminho 1804" d="M8.013-48.217h4.932v-1H8.013Z" transform="translate(33 709.114)" fill="#152030"/>
    <path id="Caminho_1805" data-name="Caminho 1805" d="M8.013-48.207h4.932V-49.2H8.013Z" transform="translate(33 709.114)" fill="#152030"/>
  </g>
</svg>
