<svg xmlns="http://www.w3.org/2000/svg" width="17.011" height="17.012" viewBox="0 0 17.011 17.012">
  <g id="ico_caulculomental" transform="translate(-198.565 -655.819)">
    <g id="Grupo_1692" data-name="Grupo 1692" transform="translate(200.569 655.819)">
      <path id="Caminho_1711" data-name="Caminho 1711" d="M0,0V1H-1v1H-2v13h1v1H0v1H13v-1h1v-1h1v-13h-1V1H13V0Z" fill="#ff8625"/>
    </g>
    <g id="Grupo_1693" data-name="Grupo 1693" transform="translate(212.568 662.821)">
      <path id="Caminho_1712" data-name="Caminho 1712" d="M0,0V-1H-1V-2H-4v1H-5V-2h1v-2H-5V-5H-8.005v1H-9V-3h-1v1h1v1h.995V0H-9V-1h-2.005V0H-12V3.007h2V4h4V3.007h2V4H-1V3.007H1V0Z" fill="#6969b6"/>
    </g>
    <path id="Caminho_1713" data-name="Caminho 1713" d="M175.567-38.288h1v-1h-1Z" transform="translate(33 709.114)" fill="#6969b6"/>
    <path id="Caminho_1714" data-name="Caminho 1714" d="M172.566-40.285h1v-1h-1Z" transform="translate(33 709.114)" fill="#6969b6"/>
    <path id="Caminho_1719" data-name="Caminho 1719" d="M176.567-38.288h1v-1h-1Z" transform="translate(33 709.114)" fill="#152030"/>
    <g id="Grupo_1696" data-name="Grupo 1696" transform="translate(209.568 666.823)">
      <path id="Caminho_1720" data-name="Caminho 1720" d="M0,0H-1V1H2.005V0H0Z" fill="#152030"/>
    </g>
    <path id="Caminho_1721" data-name="Caminho 1721" d="M175.566-37.285h1v-1h-1Z" transform="translate(33 709.114)" fill="#152030"/>
    <path id="Caminho_1722" data-name="Caminho 1722" d="M176.569-40.285h-1v1h1Z" transform="translate(33 709.114)" fill="#152030"/>
    <g id="Grupo_1697" data-name="Grupo 1697" transform="translate(208.566 660.823)">
      <path id="Caminho_1723" data-name="Caminho 1723" d="M0,0H3.007V-1H1V-2H0V0Z" fill="#152030"/>
    </g>
    <path id="Caminho_1724" data-name="Caminho 1724" d="M174.57-38.288h.995v-1h-.995Z" transform="translate(33 709.114)" fill="#152030"/>
    <g id="Grupo_1698" data-name="Grupo 1698" transform="translate(207.572 665.829)">
      <path id="Caminho_1725" data-name="Caminho 1725" d="M0,0H-1V.994h2V0Z" fill="#152030"/>
    </g>
    <path id="Caminho_1726" data-name="Caminho 1726" d="M174.57-47.288h.995v-1h-.995Z" transform="translate(33 709.114)" fill="#152030"/>
    <path id="Caminho_1727" data-name="Caminho 1727" d="M174.57-50.288h.995v-1h-.995Z" transform="translate(33 709.114)" fill="#152030"/>
    <path id="Caminho_1728" data-name="Caminho 1728" d="M174.571-41.288h-1v1h1Z" transform="translate(33 709.114)" fill="#152030"/>
    <path id="Caminho_1729" data-name="Caminho 1729" d="M172.566-39.283h1v-1h-1Z" transform="translate(33 709.114)" fill="#152030"/>
    <g id="Grupo_1699" data-name="Grupo 1699" transform="translate(206.568 657.823)">
      <path id="Caminho_1730" data-name="Caminho 1730" d="M0,0H1V-1H-2.005V0H0Z" fill="#152030"/>
    </g>
    <g id="Grupo_1700" data-name="Grupo 1700" transform="translate(204.564 666.823)">
      <path id="Caminho_1731" data-name="Caminho 1731" d="M0,0H-2V1H0v1H1V1h1V0H0Z" fill="#152030"/>
    </g>
    <path id="Caminho_1732" data-name="Caminho 1732" d="M170.57-46.293h.995v-.995h-.995Z" transform="translate(33 709.114)" fill="#152030"/>
    <path id="Caminho_1733" data-name="Caminho 1733" d="M170.57-50.288h.995v-1h-.995Z" transform="translate(33 709.114)" fill="#152030"/>
    <g id="Grupo_1701" data-name="Grupo 1701" transform="translate(203.568 661.826)">
      <path id="Caminho_1734" data-name="Caminho 1734" d="M0,0V-1H-1v-1h-1V0H0Z" fill="#152030"/>
    </g>
    <path id="Caminho_1735" data-name="Caminho 1735" d="M169.565-49.294h1v-1h-1Z" transform="translate(33 709.114)" fill="#152030"/>
    <g id="Grupo_1702" data-name="Grupo 1702" transform="translate(201.563 665.829)">
      <path id="Caminho_1736" data-name="Caminho 1736" d="M0,0H-.994V.994H1V0Z" fill="#152030"/>
    </g>
    <path id="Caminho_1737" data-name="Caminho 1737" d="M167.567-46.293h.995v-.995h-.995Z" transform="translate(33 709.114)" fill="#152030"/>
    <g id="Grupo_1703" data-name="Grupo 1703" transform="translate(200.568 663.823)">
      <path id="Caminho_1738" data-name="Caminho 1738" d="M0,0V-1H-1V2.005H0V0Z" fill="#152030"/>
    </g>
  </g>
</svg>
