<svg xmlns="http://www.w3.org/2000/svg" width="17.011" height="17.012" viewBox="0 0 17.011 17.012">
  <g id="ico_desafio" transform="translate(-33 -688.188)">
    <g id="ico_desafio-2" data-name="ico_desafio" transform="translate(35.004 688.188)">
      <path id="Caminho_1739" data-name="Caminho 1739" d="M0,0V1H-1v1H-2v13h1v1H0v1H13v-1h1v-1h1v-13h-1V1H13V0Z" fill="#ff8625"/>
    </g>
    <g id="Grupo_1705" data-name="Grupo 1705" transform="translate(46.008 700.194)">
      <path id="Caminho_1740" data-name="Caminho 1740" d="M0,0V-1H-1V-2h-1v1h-1V-2H-4v1h-1V0h-1V-1h-1V-2h-1v1h-1V0h-1V2.005H1V0Z" fill="#6969b6"/>
    </g>
    <g id="Grupo_1706" data-name="Grupo 1706" transform="translate(43.002 691.194)">
      <path id="Caminho_1741" data-name="Caminho 1741" d="M0,0H-1V.994H1V0Z" fill="#6969b6"/>
    </g>
    <g id="Grupo_1707" data-name="Grupo 1707" transform="translate(47.004 700.194)">
      <path id="Caminho_1742" data-name="Caminho 1742" d="M0,0V2.005H-11.005V0H-12V3H1V0Z" fill="#152030"/>
    </g>
    <path id="Caminho_1743" data-name="Caminho 1743" d="M13.01-8.92h.995v-1H13.01Z" transform="translate(33 709.114)" fill="#152030"/>
    <path id="Caminho_1744" data-name="Caminho 1744" d="M12.007-9.923h1v-.995h-1Z" transform="translate(33 709.114)" fill="#152030"/>
    <path id="Caminho_1745" data-name="Caminho 1745" d="M12.007-11.92h-1v1h1Z" transform="translate(33 709.114)" fill="#152030"/>
    <path id="Caminho_1746" data-name="Caminho 1746" d="M10-9.923h1v-.995H10Z" transform="translate(33 709.114)" fill="#152030"/>
    <path id="Caminho_1747" data-name="Caminho 1747" d="M11.005-12.922H10v1h1Z" transform="translate(33 709.114)" fill="#152030"/>
    <path id="Caminho_1748" data-name="Caminho 1748" d="M9.005-10.917H10v-1H9.005Z" transform="translate(33 709.114)" fill="#152030"/>
    <path id="Caminho_1749" data-name="Caminho 1749" d="M9.005-12.922H10v-1H9.005Z" transform="translate(33 709.114)" fill="#152030"/>
    <path id="Caminho_1750" data-name="Caminho 1750" d="M8.005-9.923h1v-.995h-1Z" transform="translate(33 709.114)" fill="#152030"/>
    <g id="Grupo_1708" data-name="Grupo 1708" transform="translate(42.006 694.194)">
      <path id="Caminho_1751" data-name="Caminho 1751" d="M0,0V-1H4v-1H3V-3H4V-4H0v-1H-1V1H0ZM0-3H2v.995H0Z" fill="#152030"/>
    </g>
    <path id="Caminho_1752" data-name="Caminho 1752" d="M7-8.92H8v-1H7Z" transform="translate(33 709.114)" fill="#152030"/>
    <path id="Caminho_1753" data-name="Caminho 1753" d="M8.005-13.924H7v1h1Z" transform="translate(33 709.114)" fill="#152030"/>
    <path id="Caminho_1754" data-name="Caminho 1754" d="M6-9.923H7v-.995H6Z" transform="translate(33 709.114)" fill="#152030"/>
    <path id="Caminho_1755" data-name="Caminho 1755" d="M7-12.922H6v1H7Z" transform="translate(33 709.114)" fill="#152030"/>
    <path id="Caminho_1756" data-name="Caminho 1756" d="M5.005-10.917H6v-1H5.005Z" transform="translate(33 709.114)" fill="#152030"/>
    <path id="Caminho_1757" data-name="Caminho 1757" d="M4-9.923H5v-.995H4Z" transform="translate(33 709.114)" fill="#152030"/>
    <path id="Caminho_1758" data-name="Caminho 1758" d="M4-9.922H3v1H4Z" transform="translate(33 709.114)" fill="#152030"/>
  </g>
</svg>
