<svg xmlns="http://www.w3.org/2000/svg" width="17.011" height="17.012" viewBox="0 0 17.011 17.012">
  <g id="ico_calculadora" transform="translate(-198.565 -692.103)">
    <g id="Grupo_1685" data-name="Grupo 1685" transform="translate(200.569 692.103)">
      <path id="Caminho_1695" data-name="Caminho 1695" d="M0,0V1H-1v1H-2v13h1v1H0v1H13v-1h1v-1h1v-13h-1V1H13V0Z" fill="#ff8625"/>
    </g>
    <g id="Grupo_1686" data-name="Grupo 1686" transform="translate(209.568 695.109)">
      <path id="Caminho_1696" data-name="Caminho 1696" d="M0,0H-6V11.005H1V0ZM-2,6H-3V5h1Zm0,2H-3V7h1ZM-5.005,5h1V6h-1Zm0,2h1V8h-1Zm0,2h1v1h-1ZM-3,9h1v1H-3Zm3,1H-1V9H0ZM0,8H-1V7H0ZM0,6H-1V5H0ZM0,2V3H-5.005V1H0Z" fill="#6969b6"/>
    </g>
    <g id="Grupo_1687" data-name="Grupo 1687" transform="translate(210.571 695.109)">
      <path id="Caminho_1697" data-name="Caminho 1697" d="M0,0V11.005H1V0Z" fill="#152030"/>
    </g>
    <g id="Grupo_1688" data-name="Grupo 1688" transform="translate(209.569 706.115)">
      <path id="Caminho_1698" data-name="Caminho 1698" d="M0,0H-6V.994H1V0Z" fill="#152030"/>
    </g>
    <path id="Caminho_1699" data-name="Caminho 1699" d="M175.566-4h1V-5h-1Z" transform="translate(33 709.114)" fill="#152030"/>
    <path id="Caminho_1700" data-name="Caminho 1700" d="M175.567-6.008h1V-7h-1Z" transform="translate(33 709.114)" fill="#152030"/>
    <path id="Caminho_1701" data-name="Caminho 1701" d="M175.566-8.005h1v-1h-1Z" transform="translate(33 709.114)" fill="#152030"/>
    <g id="Grupo_1689" data-name="Grupo 1689" transform="translate(207.571 696.105)">
      <path id="Caminho_1702" data-name="Caminho 1702" d="M0,0H-3.007V2.005H2V0H0Z" fill="#152030"/>
    </g>
    <path id="Caminho_1703" data-name="Caminho 1703" d="M173.569-4h1V-5h-1Z" transform="translate(33 709.114)" fill="#152030"/>
    <path id="Caminho_1704" data-name="Caminho 1704" d="M173.57-6.008h1V-7h-1Z" transform="translate(33 709.114)" fill="#152030"/>
    <path id="Caminho_1705" data-name="Caminho 1705" d="M173.569-8.005h1v-1h-1Z" transform="translate(33 709.114)" fill="#152030"/>
    <path id="Caminho_1706" data-name="Caminho 1706" d="M171.564-4h1V-5h-1Z" transform="translate(33 709.114)" fill="#152030"/>
    <path id="Caminho_1707" data-name="Caminho 1707" d="M171.563-6.008h1V-7h-1Z" transform="translate(33 709.114)" fill="#152030"/>
    <path id="Caminho_1708" data-name="Caminho 1708" d="M171.564-8.005h1v-1h-1Z" transform="translate(33 709.114)" fill="#152030"/>
    <g id="Grupo_1690" data-name="Grupo 1690" transform="translate(205.566 695.109)">
      <path id="Caminho_1709" data-name="Caminho 1709" d="M0,0H5.005V-1H-2V0H0Z" fill="#152030"/>
    </g>
    <g id="Grupo_1691" data-name="Grupo 1691" transform="translate(203.568 704.109)">
      <path id="Caminho_1710" data-name="Caminho 1710" d="M0,0V-9H-1V2.005H0V0Z" fill="#152030"/>
    </g>
  </g>
</svg>
