<svg xmlns="http://www.w3.org/2000/svg" width="17.011" height="17.012" viewBox="0 0 17.011 17.012">
  <g id="ico_estimativa" transform="translate(-33 -618.455)">
    <g id="Grupo_1709" data-name="Grupo 1709" transform="translate(35.004 618.455)">
      <path id="Caminho_1759" data-name="Caminho 1759" d="M0,0V1H-1v1H-2v13h1v1H0v1H13v-1h1v-1h1v-13h-1V1H13V0Z" fill="#ff8625"/>
    </g>
    <g id="Grupo_1710" data-name="Grupo 1710" transform="translate(45.006 628.464)">
      <path id="Caminho_1760" data-name="Caminho 1760" d="M0,0V4H1V0Z" fill="#6969b6"/>
    </g>
    <g id="Grupo_1711" data-name="Grupo 1711" transform="translate(41.004 631.464)">
      <path id="Caminho_1761" data-name="Caminho 1761" d="M0,0V1H1V-1H0Z" fill="#6969b6"/>
    </g>
    <g id="Grupo_1712" data-name="Grupo 1712" transform="translate(37.001 630.462)">
      <path id="Caminho_1762" data-name="Caminho 1762" d="M0,0V2.005H1V-1H0Z" fill="#6969b6"/>
    </g>
    <g id="Grupo_1713" data-name="Grupo 1713" transform="translate(47.004 621.462)">
      <path id="Caminho_1763" data-name="Caminho 1763" d="M0,0H-2V1h1V2H0V3H1V0Z" fill="#152030"/>
    </g>
    <g id="Grupo_1714" data-name="Grupo 1714" transform="translate(45.006 627.462)">
      <path id="Caminho_1764" data-name="Caminho 1764" d="M0,0H-1V6H2V0H0ZM1,2V5.005H0V1H1Z" fill="#152030"/>
    </g>
    <path id="Caminho_1765" data-name="Caminho 1765" d="M12.007-84.652h1v-1h-1Z" transform="translate(33 709.114)" fill="#152030"/>
    <path id="Caminho_1766" data-name="Caminho 1766" d="M11-83.658h1v-1H11Z" transform="translate(33 709.114)" fill="#152030"/>
    <path id="Caminho_1767" data-name="Caminho 1767" d="M10-82.654h1v-1H10Z" transform="translate(33 709.114)" fill="#152030"/>
    <path id="Caminho_1768" data-name="Caminho 1768" d="M9.005-81.652H10v-1H9.005Z" transform="translate(33 709.114)" fill="#152030"/>
    <g id="Grupo_1715" data-name="Grupo 1715" transform="translate(41.004 629.459)">
      <path id="Caminho_1769" data-name="Caminho 1769" d="M0,0H-1V4H2V0H0ZM1,2.005v1H0V1H1Z" fill="#152030"/>
    </g>
    <path id="Caminho_1770" data-name="Caminho 1770" d="M8.005-80.65h1v-1h-1Z" transform="translate(33 709.114)" fill="#152030"/>
    <path id="Caminho_1771" data-name="Caminho 1771" d="M7-81.652H8v-1H7Z" transform="translate(33 709.114)" fill="#152030"/>
    <path id="Caminho_1772" data-name="Caminho 1772" d="M6-82.654H7v-1H6Z" transform="translate(33 709.114)" fill="#152030"/>
    <path id="Caminho_1773" data-name="Caminho 1773" d="M5.005-83.658H6v-1H5.005Z" transform="translate(33 709.114)" fill="#152030"/>
    <g id="Grupo_1716" data-name="Grupo 1716" transform="translate(37.001 628.464)">
      <path id="Caminho_1774" data-name="Caminho 1774" d="M0,0H-1V5H2V0H0ZM1,2V4H0V1H1Z" fill="#152030"/>
    </g>
    <path id="Caminho_1775" data-name="Caminho 1775" d="M4-84.652H5v-1H4Z" transform="translate(33 709.114)" fill="#152030"/>
    <path id="Caminho_1776" data-name="Caminho 1776" d="M3-83.658H4v-1H3Z" transform="translate(33 709.114)" fill="#152030"/>
    <path id="Caminho_1777" data-name="Caminho 1777" d="M2-82.654H3v-1H2Z" transform="translate(33 709.114)" fill="#152030"/>
  </g>
</svg>
