<svg xmlns="http://www.w3.org/2000/svg" width="13.9" height="13.346" viewBox="0 0 13.9 13.346">
  <path id="ico_favorito" d="M0,0,.909,2.8a.932.932,0,0,0,.887.645H4.737A.933.933,0,0,1,5.286,5.13L2.907,6.859A.931.931,0,0,0,2.568,7.9l.908,2.8A.933.933,0,0,1,2.04,11.743L-.339,10.014a.932.932,0,0,0-1.1,0l-2.379,1.729A.933.933,0,0,1-5.251,10.7l.908-2.8a.933.933,0,0,0-.339-1.043L-7.061,5.13a.933.933,0,0,1,.549-1.688h2.941A.932.932,0,0,0-2.684,2.8L-1.775,0A.933.933,0,0,1,0,0Z" transform="translate(7.838 1.02)" fill="none" stroke="#a4ccd6" stroke-linecap="round" stroke-linejoin="round" stroke-width="0.75"/>
</svg>
