<?xml version="1.0" encoding="utf-8"?>
<!-- Generator: Adobe Illustrator 26.0.3, SVG Export Plug-In . SVG Version: 6.00 Build 0)  -->
<svg version="1.1" id="Layer_1" xmlns="http://www.w3.org/2000/svg" xmlns:xlink="http://www.w3.org/1999/xlink" x="0px" y="0px"
	 viewBox="0 0 22.7 28.4" style="enable-background:new 0 0 22.7 28.4;" xml:space="preserve">
<style type="text/css">
	.st0{fill:#00AFA9;}
	.st1{fill:none;}
	.st2{fill:#231F20;}
	.st3{fill:#00837C;}
	.st4{fill:#FFFFFF;}
</style>
<polygon class="st0" points="0,0 0,19.8 2.8,22.7 22.7,22.7 22.7,7.1 15.6,0 "/>
<rect y="0" class="st1" width="22.7" height="28.4"/>
<path class="st2" d="M9.5,11.3c2.3,0,4.2-1.9,4.2-4.2c0-2.3-1.9-4.2-4.2-4.2C7.2,2.8,5.3,4.7,5.3,7c0,0,0,0,0,0
	C5.3,9.4,7.2,11.3,9.5,11.3C9.5,11.3,9.5,11.3,9.5,11.3"/>
<path class="st3" d="M9.5,10.2c1.7,0,3.1-1.4,3.1-3.1c0-1.7-1.4-3.1-3.1-3.1C7.8,4,6.4,5.3,6.4,7.1C6.4,8.8,7.8,10.2,9.5,10.2
	C9.5,10.2,9.5,10.2,9.5,10.2"/>
<path class="st2" d="M19.8,15c0-0.7-0.6-1.4-1.3-1.4c0,0,0,0,0,0h-1.4c-0.1-0.6-0.7-1.1-1.3-1.1h-1.5c-0.2-0.6-0.7-1-1.3-1h-1.4V7.2
	l0,0c-0.1-0.9-0.9-1.6-1.8-1.6H9.2c-1,0-1.8,0.8-1.8,1.8c0,0,0,0,0,0v8.9l-0.7-1.2c0,0,0-0.1,0-0.1l0,0v-0.1l0,0
	c-0.6-0.7-1.6-0.9-2.3-0.4l-0.5,0.4c-0.8,0.6-1.1,1.7-0.6,2.6l4.2,7.1c0.1,0.1,0.1,0.2,0.1,0.3v2c0,0.7,0.6,1.4,1.3,1.4c0,0,0,0,0,0
	h6.9c0.4,0,0.8-0.2,1.1-0.5l2.7-6.3c0.2-0.3,0.2-0.6,0.3-1v-5.5L19.8,15z"/>
<path class="st4" d="M18.8,15c0-0.1-0.1-0.2-0.2-0.2h-1.3v2c0,0.3-0.2,0.6-0.5,0.6c0,0,0,0-0.1,0c-0.3,0-0.5-0.3-0.5-0.6v-2.8
	c0-0.1-0.1-0.2-0.2-0.3c0,0,0,0,0,0h-1.4v2.6c0,0.3-0.2,0.6-0.5,0.6c0,0,0,0-0.1,0c-0.3,0-0.5-0.3-0.5-0.6v-3.4
	c0-0.1-0.1-0.2-0.2-0.2h-1.4v3.3c0,0.3-0.2,0.5-0.5,0.6c0,0,0,0-0.1,0c-0.3,0-0.5-0.3-0.5-0.6V7.4l0,0l0,0c0-0.4-0.3-0.6-0.7-0.6
	H9.2c-0.4,0-0.7,0.3-0.7,0.7c0,0,0,0,0,0v10.9c0,0.3-0.2,0.5-0.5,0.5c0,0,0,0-0.1,0c-0.2,0-0.4-0.1-0.5-0.4l-1.7-2.7l0,0l0,0
	c-0.2-0.3-0.6-0.3-0.9-0.1L4.3,16c-0.3,0.2-0.4,0.7-0.2,1l4.4,7.3c0.1,0.1,0.1,0.2,0.1,0.4v2.4c0,0.1,0.1,0.2,0.2,0.2h7
	c0.1,0,0.1,0,0.2-0.1l2.5-5.8c0.1-0.2,0.2-0.5,0.2-0.8L18.8,15z"/>
</svg>
