<svg xmlns="http://www.w3.org/2000/svg" width="17.011" height="17.012" viewBox="0 0 17.011 17.012">
  <g id="ico_constrgeometrica" transform="translate(-198.565 -619.535)">
    <g id="Grupo_1717" data-name="Grupo 1717" transform="translate(200.569 619.535)">
      <path id="Caminho_1778" data-name="Caminho 1778" d="M0,0V1H-1v1H-2v13h1v1H0v1H13v-1h1v-1h1v-13h-1V1H13V0Z" fill="#ff8625"/>
    </g>
    <g id="Grupo_1718" data-name="Grupo 1718" transform="translate(212.568 631.542)">
      <path id="Caminho_1779" data-name="Caminho 1779" d="M0,0V-2H-1V0H-3V-4h1V-6H-3V-8.005H-4V1H1V0Z" fill="#6969b6"/>
    </g>
    <g id="Grupo_1719" data-name="Grupo 1719" transform="translate(210.571 629.545)">
      <path id="Caminho_1780" data-name="Caminho 1780" d="M0,0H1V-2.005H0V0Z" fill="#6969b6"/>
    </g>
    <path id="Caminho_1781" data-name="Caminho 1781" d="M169.566-84.574h1v-1h-1Z" transform="translate(33 709.114)" fill="#6969b6"/>
    <g id="Grupo_1720" data-name="Grupo 1720" transform="translate(213.571 631.542)">
      <path id="Caminho_1782" data-name="Caminho 1782" d="M0,0V1H-5.005V-8.005h1V-9h-1v-1H-6V2.005H1V0Z" fill="#152030"/>
    </g>
    <g id="Grupo_1721" data-name="Grupo 1721" transform="translate(212.568 631.542)">
      <path id="Caminho_1783" data-name="Caminho 1783" d="M0,0H1V-2H0V0Z" fill="#152030"/>
    </g>
    <g id="Grupo_1722" data-name="Grupo 1722" transform="translate(211.574 627.54)">
      <path id="Caminho_1784" data-name="Caminho 1784" d="M0,0V2.005H.994V0Z" fill="#152030"/>
    </g>
    <g id="Grupo_1723" data-name="Grupo 1723" transform="translate(210.571 627.54)">
      <path id="Caminho_1785" data-name="Caminho 1785" d="M0,0H1V-2H0V0Z" fill="#152030"/>
    </g>
    <g id="Grupo_1724" data-name="Grupo 1724" transform="translate(210.571 628.542)">
      <path id="Caminho_1786" data-name="Caminho 1786" d="M0,0V-1H-1V3H1V1H0Z" fill="#152030"/>
    </g>
    <g id="Grupo_1725" data-name="Grupo 1725" transform="translate(209.568 625.542)">
      <path id="Caminho_1787" data-name="Caminho 1787" d="M0,0H1V-2.005H0V0Z" fill="#152030"/>
    </g>
    <g id="Grupo_1726" data-name="Grupo 1726" transform="translate(205.566 631.542)">
      <path id="Caminho_1788" data-name="Caminho 1788" d="M0,0V2.005H1V-1H0Z" fill="#152030"/>
    </g>
    <g id="Grupo_1727" data-name="Grupo 1727" transform="translate(205.566 628.542)">
      <path id="Caminho_1789" data-name="Caminho 1789" d="M0,0V-1H-1V2H0V0Z" fill="#152030"/>
    </g>
    <g id="Grupo_1728" data-name="Grupo 1728" transform="translate(204.564 625.542)">
      <path id="Caminho_1790" data-name="Caminho 1790" d="M0,0V-2.005H-1v1H-2v-1H-3V2h1V0h1V2H0V0Z" fill="#152030"/>
    </g>
    <g id="Grupo_1729" data-name="Grupo 1729" transform="translate(203.568 622.542)">
      <path id="Caminho_1791" data-name="Caminho 1791" d="M0,0V-1H-1V1H0Z" fill="#152030"/>
    </g>
    <g id="Grupo_1730" data-name="Grupo 1730" transform="translate(200.569 627.54)">
      <path id="Caminho_1792" data-name="Caminho 1792" d="M0,0V3H.994V0Z" fill="#152030"/>
    </g>
    <g id="Grupo_1731" data-name="Grupo 1731" transform="translate(199.566 631.542)">
      <path id="Caminho_1793" data-name="Caminho 1793" d="M0,0V2.005H1V-1H0Z" fill="#152030"/>
    </g>
  </g>
</svg>
