<svg xmlns="http://www.w3.org/2000/svg" xmlns:xlink="http://www.w3.org/1999/xlink" width="473.386" height="4.724" viewBox="0 0 473.386 4.724">
  <defs>
    <clipPath id="clip-path">
      <path id="Caminho_1943" data-name="Caminho 1943" d="M0-4.724V0H98.395c.113-1.69.179-3.38.217-4.724H0Z" fill="none"/>
    </clipPath>
  </defs>
  <g id="linha_fimatividades" transform="translate(0 4.724)">
    <path id="Caminho_1874" data-name="Caminho 1874" d="M96.821,0H239.794V-4.724H96.821Z" fill="#819bd0"/>
    <path id="Caminho_1875" data-name="Caminho 1875" d="M32.6,0H473.386V-4.724H32.6Z" fill="#7390cb"/>
    <g id="Grupo_1866" data-name="Grupo 1866" clip-path="url(#clip-path)">
      <g id="Grupo_1799" data-name="Grupo 1799" transform="translate(61.409 -30.187)">
        <path id="Caminho_1876" data-name="Caminho 1876" d="M0,0-49.874,38.6" fill="none" stroke="#7390cb" stroke-width="0.844"/>
      </g>
      <g id="Grupo_1800" data-name="Grupo 1800" transform="translate(154.123 -30.187)">
        <path id="Caminho_1877" data-name="Caminho 1877" d="M0,0-49.874,38.6" fill="none" stroke="#7390cb" stroke-width="0.844"/>
      </g>
      <g id="Grupo_1801" data-name="Grupo 1801" transform="translate(107.766 -30.187)">
        <path id="Caminho_1878" data-name="Caminho 1878" d="M0,0-49.874,38.6" fill="none" stroke="#7390cb" stroke-width="0.844"/>
      </g>
      <g id="Grupo_1802" data-name="Grupo 1802" transform="translate(84.587 -30.187)">
        <path id="Caminho_1879" data-name="Caminho 1879" d="M0,0-49.874,38.6" fill="none" stroke="#7390cb" stroke-width="0.844"/>
      </g>
      <g id="Grupo_1803" data-name="Grupo 1803" transform="translate(177.302 -30.187)">
        <path id="Caminho_1880" data-name="Caminho 1880" d="M0,0-49.874,38.6" fill="none" stroke="#7390cb" stroke-width="0.844"/>
      </g>
      <g id="Grupo_1804" data-name="Grupo 1804" transform="translate(130.945 -30.187)">
        <path id="Caminho_1881" data-name="Caminho 1881" d="M0,0-49.874,38.6" fill="none" stroke="#7390cb" stroke-width="0.844"/>
      </g>
      <g id="Grupo_1805" data-name="Grupo 1805" transform="translate(66.044 -30.187)">
        <path id="Caminho_1882" data-name="Caminho 1882" d="M0,0-49.874,38.6" fill="none" stroke="#7390cb" stroke-width="0.844"/>
      </g>
      <g id="Grupo_1806" data-name="Grupo 1806" transform="translate(158.759 -30.187)">
        <path id="Caminho_1883" data-name="Caminho 1883" d="M0,0-49.874,38.6" fill="none" stroke="#7390cb" stroke-width="0.844"/>
      </g>
      <g id="Grupo_1807" data-name="Grupo 1807" transform="translate(112.402 -30.187)">
        <path id="Caminho_1884" data-name="Caminho 1884" d="M0,0-49.874,38.6" fill="none" stroke="#7390cb" stroke-width="0.844"/>
      </g>
      <g id="Grupo_1808" data-name="Grupo 1808" transform="translate(89.223 -30.187)">
        <path id="Caminho_1885" data-name="Caminho 1885" d="M0,0-49.874,38.6" fill="none" stroke="#7390cb" stroke-width="0.844"/>
      </g>
      <g id="Grupo_1809" data-name="Grupo 1809" transform="translate(181.938 -30.187)">
        <path id="Caminho_1886" data-name="Caminho 1886" d="M0,0-49.874,38.6" fill="none" stroke="#7390cb" stroke-width="0.844"/>
      </g>
      <g id="Grupo_1810" data-name="Grupo 1810" transform="translate(135.581 -30.187)">
        <path id="Caminho_1887" data-name="Caminho 1887" d="M0,0-49.874,38.6" fill="none" stroke="#7390cb" stroke-width="0.844"/>
      </g>
      <g id="Grupo_1811" data-name="Grupo 1811" transform="translate(70.68 -30.187)">
        <path id="Caminho_1888" data-name="Caminho 1888" d="M0,0-49.874,38.6" fill="none" stroke="#7390cb" stroke-width="0.844"/>
      </g>
      <g id="Grupo_1812" data-name="Grupo 1812" transform="translate(163.395 -30.187)">
        <path id="Caminho_1889" data-name="Caminho 1889" d="M0,0-49.874,38.6" fill="none" stroke="#7390cb" stroke-width="0.844"/>
      </g>
      <g id="Grupo_1813" data-name="Grupo 1813" transform="translate(117.037 -30.187)">
        <path id="Caminho_1890" data-name="Caminho 1890" d="M0,0-49.874,38.6" fill="none" stroke="#7390cb" stroke-width="0.844"/>
      </g>
      <g id="Grupo_1814" data-name="Grupo 1814" transform="translate(93.859 -30.187)">
        <path id="Caminho_1891" data-name="Caminho 1891" d="M0,0-49.874,38.6" fill="none" stroke="#7390cb" stroke-width="0.844"/>
      </g>
      <g id="Grupo_1815" data-name="Grupo 1815" transform="translate(186.574 -30.187)">
        <path id="Caminho_1892" data-name="Caminho 1892" d="M0,0-49.874,38.6" fill="none" stroke="#7390cb" stroke-width="0.844"/>
      </g>
      <g id="Grupo_1816" data-name="Grupo 1816" transform="translate(191.209 -30.187)">
        <path id="Caminho_1893" data-name="Caminho 1893" d="M0,0-49.874,38.6" fill="none" stroke="#7390cb" stroke-width="0.844"/>
      </g>
      <g id="Grupo_1817" data-name="Grupo 1817" transform="translate(195.845 -30.187)">
        <path id="Caminho_1894" data-name="Caminho 1894" d="M0,0-49.874,38.6" fill="none" stroke="#7390cb" stroke-width="0.844"/>
      </g>
      <g id="Grupo_1818" data-name="Grupo 1818" transform="translate(200.481 -30.187)">
        <path id="Caminho_1895" data-name="Caminho 1895" d="M0,0-49.874,38.6" fill="none" stroke="#7390cb" stroke-width="0.844"/>
      </g>
      <g id="Grupo_1819" data-name="Grupo 1819" transform="translate(205.117 -30.187)">
        <path id="Caminho_1896" data-name="Caminho 1896" d="M0,0-49.874,38.6" fill="none" stroke="#7390cb" stroke-width="0.844"/>
      </g>
      <g id="Grupo_1820" data-name="Grupo 1820" transform="translate(209.752 -30.187)">
        <path id="Caminho_1897" data-name="Caminho 1897" d="M0,0-49.874,38.6" fill="none" stroke="#7390cb" stroke-width="0.844"/>
      </g>
      <g id="Grupo_1821" data-name="Grupo 1821" transform="translate(219.024 -30.187)">
        <path id="Caminho_1898" data-name="Caminho 1898" d="M0,0-49.874,38.6" fill="none" stroke="#7390cb" stroke-width="0.844"/>
      </g>
      <g id="Grupo_1822" data-name="Grupo 1822" transform="translate(228.295 -30.187)">
        <path id="Caminho_1899" data-name="Caminho 1899" d="M0,0-49.874,38.6" fill="none" stroke="#7390cb" stroke-width="0.844"/>
      </g>
      <g id="Grupo_1823" data-name="Grupo 1823" transform="translate(214.388 -30.187)">
        <path id="Caminho_1900" data-name="Caminho 1900" d="M0,0-49.874,38.6" fill="none" stroke="#7390cb" stroke-width="0.844"/>
      </g>
      <g id="Grupo_1824" data-name="Grupo 1824" transform="translate(246.838 -30.187)">
        <path id="Caminho_1901" data-name="Caminho 1901" d="M0,0-49.874,38.6" fill="none" stroke="#7390cb" stroke-width="0.844"/>
      </g>
      <g id="Grupo_1825" data-name="Grupo 1825" transform="translate(232.931 -30.187)">
        <path id="Caminho_1902" data-name="Caminho 1902" d="M0,0-49.874,38.6" fill="none" stroke="#7390cb" stroke-width="0.844"/>
      </g>
      <g id="Grupo_1826" data-name="Grupo 1826" transform="translate(237.567 -30.187)">
        <path id="Caminho_1903" data-name="Caminho 1903" d="M0,0-49.874,38.6" fill="none" stroke="#7390cb" stroke-width="0.844"/>
      </g>
      <g id="Grupo_1827" data-name="Grupo 1827" transform="translate(223.66 -30.187)">
        <path id="Caminho_1904" data-name="Caminho 1904" d="M0,0-49.874,38.6" fill="none" stroke="#7390cb" stroke-width="0.844"/>
      </g>
      <g id="Grupo_1828" data-name="Grupo 1828" transform="translate(256.11 -30.187)">
        <path id="Caminho_1905" data-name="Caminho 1905" d="M0,0-49.874,38.6" fill="none" stroke="#7390cb" stroke-width="0.844"/>
      </g>
      <g id="Grupo_1829" data-name="Grupo 1829" transform="translate(242.202 -30.187)">
        <path id="Caminho_1906" data-name="Caminho 1906" d="M0,0-49.874,38.6" fill="none" stroke="#7390cb" stroke-width="0.844"/>
      </g>
      <g id="Grupo_1830" data-name="Grupo 1830" transform="translate(283.924 -30.187)">
        <path id="Caminho_1907" data-name="Caminho 1907" d="M0,0-49.874,38.6" fill="none" stroke="#7390cb" stroke-width="0.844"/>
      </g>
      <g id="Grupo_1831" data-name="Grupo 1831" transform="translate(270.017 -30.187)">
        <path id="Caminho_1908" data-name="Caminho 1908" d="M0,0-49.874,38.6" fill="none" stroke="#7390cb" stroke-width="0.844"/>
      </g>
      <g id="Grupo_1832" data-name="Grupo 1832" transform="translate(265.381 -30.187)">
        <path id="Caminho_1909" data-name="Caminho 1909" d="M0,0-49.874,38.6" fill="none" stroke="#7390cb" stroke-width="0.844"/>
      </g>
      <g id="Grupo_1833" data-name="Grupo 1833" transform="translate(251.474 -30.187)">
        <path id="Caminho_1910" data-name="Caminho 1910" d="M0,0-49.874,38.6" fill="none" stroke="#7390cb" stroke-width="0.844"/>
      </g>
      <g id="Grupo_1834" data-name="Grupo 1834" transform="translate(274.653 -30.187)">
        <path id="Caminho_1911" data-name="Caminho 1911" d="M0,0-49.874,38.6" fill="none" stroke="#7390cb" stroke-width="0.844"/>
      </g>
      <g id="Grupo_1835" data-name="Grupo 1835" transform="translate(260.745 -30.187)">
        <path id="Caminho_1912" data-name="Caminho 1912" d="M0,0-49.874,38.6" fill="none" stroke="#7390cb" stroke-width="0.844"/>
      </g>
      <g id="Grupo_1836" data-name="Grupo 1836" transform="translate(288.56 -30.187)">
        <path id="Caminho_1913" data-name="Caminho 1913" d="M0,0-49.874,38.6" fill="none" stroke="#7390cb" stroke-width="0.844"/>
      </g>
      <g id="Grupo_1837" data-name="Grupo 1837" transform="translate(293.196 -30.187)">
        <path id="Caminho_1914" data-name="Caminho 1914" d="M0,0-49.874,38.6" fill="none" stroke="#7390cb" stroke-width="0.844"/>
      </g>
      <g id="Grupo_1838" data-name="Grupo 1838" transform="translate(297.831 -30.187)">
        <path id="Caminho_1915" data-name="Caminho 1915" d="M0,0-49.874,38.6" fill="none" stroke="#7390cb" stroke-width="0.844"/>
      </g>
      <g id="Grupo_1839" data-name="Grupo 1839" transform="translate(302.467 -30.187)">
        <path id="Caminho_1916" data-name="Caminho 1916" d="M0,0-49.874,38.6" fill="none" stroke="#7390cb" stroke-width="0.844"/>
      </g>
      <g id="Grupo_1840" data-name="Grupo 1840" transform="translate(307.103 -30.187)">
        <path id="Caminho_1917" data-name="Caminho 1917" d="M0,0-49.874,38.6" fill="none" stroke="#7390cb" stroke-width="0.844"/>
      </g>
      <g id="Grupo_1841" data-name="Grupo 1841" transform="translate(279.288 -30.187)">
        <path id="Caminho_1918" data-name="Caminho 1918" d="M0,0-49.874,38.6" fill="none" stroke="#7390cb" stroke-width="0.844"/>
      </g>
      <g id="Grupo_1842" data-name="Grupo 1842" transform="translate(140.216 -30.187)">
        <path id="Caminho_1919" data-name="Caminho 1919" d="M0,0-49.874,38.6" fill="none" stroke="#7390cb" stroke-width="0.844"/>
      </g>
      <g id="Grupo_1843" data-name="Grupo 1843" transform="translate(75.316 -30.187)">
        <path id="Caminho_1920" data-name="Caminho 1920" d="M0,0-49.874,38.6" fill="none" stroke="#7390cb" stroke-width="0.844"/>
      </g>
      <g id="Grupo_1844" data-name="Grupo 1844" transform="translate(168.031 -30.187)">
        <path id="Caminho_1921" data-name="Caminho 1921" d="M0,0-49.874,38.6" fill="none" stroke="#7390cb" stroke-width="0.844"/>
      </g>
      <g id="Grupo_1845" data-name="Grupo 1845" transform="translate(121.673 -30.187)">
        <path id="Caminho_1922" data-name="Caminho 1922" d="M0,0-49.874,38.6" fill="none" stroke="#7390cb" stroke-width="0.844"/>
      </g>
      <g id="Grupo_1846" data-name="Grupo 1846" transform="translate(98.495 -30.187)">
        <path id="Caminho_1923" data-name="Caminho 1923" d="M0,0-49.874,38.6" fill="none" stroke="#7390cb" stroke-width="0.844"/>
      </g>
      <g id="Grupo_1847" data-name="Grupo 1847" transform="translate(144.852 -30.187)">
        <path id="Caminho_1924" data-name="Caminho 1924" d="M0,0-49.874,38.6" fill="none" stroke="#7390cb" stroke-width="0.844"/>
      </g>
      <g id="Grupo_1848" data-name="Grupo 1848" transform="translate(79.952 -30.187)">
        <path id="Caminho_1925" data-name="Caminho 1925" d="M0,0-49.874,38.6" fill="none" stroke="#7390cb" stroke-width="0.844"/>
      </g>
      <g id="Grupo_1849" data-name="Grupo 1849" transform="translate(172.666 -30.187)">
        <path id="Caminho_1926" data-name="Caminho 1926" d="M0,0-49.874,38.6" fill="none" stroke="#7390cb" stroke-width="0.844"/>
      </g>
      <g id="Grupo_1850" data-name="Grupo 1850" transform="translate(126.309 -30.187)">
        <path id="Caminho_1927" data-name="Caminho 1927" d="M0,0-49.874,38.6" fill="none" stroke="#7390cb" stroke-width="0.844"/>
      </g>
      <g id="Grupo_1851" data-name="Grupo 1851" transform="translate(103.13 -30.187)">
        <path id="Caminho_1928" data-name="Caminho 1928" d="M0,0-49.874,38.6" fill="none" stroke="#7390cb" stroke-width="0.844"/>
      </g>
      <g id="Grupo_1852" data-name="Grupo 1852" transform="translate(149.488 -30.187)">
        <path id="Caminho_1929" data-name="Caminho 1929" d="M0,0-49.874,38.6" fill="none" stroke="#7390cb" stroke-width="0.844"/>
      </g>
      <g id="Grupo_1853" data-name="Grupo 1853" transform="translate(5.741 -30.187)">
        <path id="Caminho_1930" data-name="Caminho 1930" d="M0,0-49.874,38.6" fill="none" stroke="#7390cb" stroke-width="0.844"/>
      </g>
      <g id="Grupo_1854" data-name="Grupo 1854" transform="translate(33.555 -30.187)">
        <path id="Caminho_1931" data-name="Caminho 1931" d="M0,0-49.874,38.6" fill="none" stroke="#7390cb" stroke-width="0.844"/>
      </g>
      <g id="Grupo_1855" data-name="Grupo 1855" transform="translate(19.648 -30.187)">
        <path id="Caminho_1932" data-name="Caminho 1932" d="M0,0-49.874,38.6" fill="none" stroke="#7390cb" stroke-width="0.844"/>
      </g>
      <g id="Grupo_1856" data-name="Grupo 1856" transform="translate(15.012 -30.187)">
        <path id="Caminho_1933" data-name="Caminho 1933" d="M0,0-49.874,38.6" fill="none" stroke="#7390cb" stroke-width="0.844"/>
      </g>
      <g id="Grupo_1857" data-name="Grupo 1857" transform="translate(1.105 -30.187)">
        <path id="Caminho_1934" data-name="Caminho 1934" d="M0,0-49.874,38.6" fill="none" stroke="#7390cb" stroke-width="0.844"/>
      </g>
      <g id="Grupo_1858" data-name="Grupo 1858" transform="translate(24.284 -30.187)">
        <path id="Caminho_1935" data-name="Caminho 1935" d="M0,0-49.874,38.6" fill="none" stroke="#7390cb" stroke-width="0.844"/>
      </g>
      <g id="Grupo_1859" data-name="Grupo 1859" transform="translate(10.377 -30.187)">
        <path id="Caminho_1936" data-name="Caminho 1936" d="M0,0-49.874,38.6" fill="none" stroke="#7390cb" stroke-width="0.844"/>
      </g>
      <g id="Grupo_1860" data-name="Grupo 1860" transform="translate(38.191 -30.187)">
        <path id="Caminho_1937" data-name="Caminho 1937" d="M0,0-49.874,38.6" fill="none" stroke="#7390cb" stroke-width="0.844"/>
      </g>
      <g id="Grupo_1861" data-name="Grupo 1861" transform="translate(42.827 -30.187)">
        <path id="Caminho_1938" data-name="Caminho 1938" d="M0,0-49.874,38.6" fill="none" stroke="#7390cb" stroke-width="0.844"/>
      </g>
      <g id="Grupo_1862" data-name="Grupo 1862" transform="translate(47.463 -30.187)">
        <path id="Caminho_1939" data-name="Caminho 1939" d="M0,0-49.874,38.6" fill="none" stroke="#7390cb" stroke-width="0.844"/>
      </g>
      <g id="Grupo_1863" data-name="Grupo 1863" transform="translate(52.098 -30.187)">
        <path id="Caminho_1940" data-name="Caminho 1940" d="M0,0-49.874,38.6" fill="none" stroke="#7390cb" stroke-width="0.844"/>
      </g>
      <g id="Grupo_1864" data-name="Grupo 1864" transform="translate(56.734 -30.187)">
        <path id="Caminho_1941" data-name="Caminho 1941" d="M0,0-49.874,38.6" fill="none" stroke="#7390cb" stroke-width="0.844"/>
      </g>
      <g id="Grupo_1865" data-name="Grupo 1865" transform="translate(28.92 -30.187)">
        <path id="Caminho_1942" data-name="Caminho 1942" d="M0,0-49.874,38.6" fill="none" stroke="#7390cb" stroke-width="0.844"/>
      </g>
    </g>
  </g>
</svg>
