<svg xmlns="http://www.w3.org/2000/svg" xmlns:xlink="http://www.w3.org/1999/xlink" width="20.153" height="20.153" viewBox="0 0 20.153 20.153">
  <defs>
    <clipPath id="clip-path">
      <path id="Caminho_1134" data-name="Caminho 1134" d="M115.65-92.062a2.448,2.448,0,0,0-2.449,2.449h0v12.856a2.449,2.449,0,0,0,2.449,2.448h12.856a2.449,2.449,0,0,0,2.448-2.448h0V-89.613a2.449,2.449,0,0,0-2.448-2.449H115.65Z" fill="none"/>
    </clipPath>
  </defs>
  <g id="separador_quadrado" transform="translate(-634.8 -586.8)">
    <g id="Grupo_1078" data-name="Grupo 1078" transform="translate(638.449 588)">
      <path id="Caminho_1078" data-name="Caminho 1078" d="M0,0A2.45,2.45,0,0,0-2.449,2.449V15.3A2.449,2.449,0,0,0,0,17.753H12.856A2.448,2.448,0,0,0,15.3,15.3V2.449A2.449,2.449,0,0,0,12.856,0Z" fill="#ffb953"/>
    </g>
    <g id="Grupo_1134" data-name="Grupo 1134" transform="translate(522.799 680.062)" clip-path="url(#clip-path)">
      <g id="Grupo_1080" data-name="Grupo 1080" transform="translate(55.15 -97.075)">
        <path id="Caminho_1080" data-name="Caminho 1080" d="M0,0-42.116,32.594" fill="none" stroke="#fe6534" stroke-width="0.5"/>
      </g>
      <g id="Grupo_1081" data-name="Grupo 1081" transform="translate(133.443 -97.075)">
        <path id="Caminho_1081" data-name="Caminho 1081" d="M0,0-42.116,32.594" fill="none" stroke="#fe6534" stroke-width="0.5"/>
      </g>
      <g id="Grupo_1082" data-name="Grupo 1082" transform="translate(94.297 -97.075)">
        <path id="Caminho_1082" data-name="Caminho 1082" d="M0,0-42.116,32.594" fill="none" stroke="#fe6534" stroke-width="0.5"/>
      </g>
      <g id="Grupo_1083" data-name="Grupo 1083" transform="translate(74.724 -97.075)">
        <path id="Caminho_1083" data-name="Caminho 1083" d="M0,0-42.116,32.594" fill="none" stroke="#fe6534" stroke-width="0.5"/>
      </g>
      <g id="Grupo_1084" data-name="Grupo 1084" transform="translate(153.016 -97.075)">
        <path id="Caminho_1084" data-name="Caminho 1084" d="M0,0-42.116,32.594" fill="none" stroke="#fe6534" stroke-width="0.5"/>
      </g>
      <g id="Grupo_1085" data-name="Grupo 1085" transform="translate(113.87 -97.075)">
        <path id="Caminho_1085" data-name="Caminho 1085" d="M0,0-42.116,32.594" fill="none" stroke="#fe6534" stroke-width="0.5"/>
      </g>
      <g id="Grupo_1086" data-name="Grupo 1086" transform="translate(59.065 -97.075)">
        <path id="Caminho_1086" data-name="Caminho 1086" d="M0,0-42.116,32.594" fill="none" stroke="#fe6534" stroke-width="0.5"/>
      </g>
      <g id="Grupo_1087" data-name="Grupo 1087" transform="translate(137.357 -97.075)">
        <path id="Caminho_1087" data-name="Caminho 1087" d="M0,0-42.116,32.594" fill="none" stroke="#fe6534" stroke-width="0.5"/>
      </g>
      <g id="Grupo_1088" data-name="Grupo 1088" transform="translate(98.211 -97.075)">
        <path id="Caminho_1088" data-name="Caminho 1088" d="M0,0-42.116,32.594" fill="none" stroke="#fe6534" stroke-width="0.5"/>
      </g>
      <g id="Grupo_1089" data-name="Grupo 1089" transform="translate(78.638 -97.075)">
        <path id="Caminho_1089" data-name="Caminho 1089" d="M0,0-42.116,32.594" fill="none" stroke="#fe6534" stroke-width="0.5"/>
      </g>
      <g id="Grupo_1090" data-name="Grupo 1090" transform="translate(156.931 -97.075)">
        <path id="Caminho_1090" data-name="Caminho 1090" d="M0,0-42.116,32.594" fill="none" stroke="#fe6534" stroke-width="0.5"/>
      </g>
      <g id="Grupo_1091" data-name="Grupo 1091" transform="translate(117.784 -97.075)">
        <path id="Caminho_1091" data-name="Caminho 1091" d="M0,0-42.116,32.594" fill="none" stroke="#fe6534" stroke-width="0.5"/>
      </g>
      <g id="Grupo_1092" data-name="Grupo 1092" transform="translate(62.98 -97.075)">
        <path id="Caminho_1092" data-name="Caminho 1092" d="M0,0-42.116,32.594" fill="none" stroke="#fe6534" stroke-width="0.5"/>
      </g>
      <g id="Grupo_1093" data-name="Grupo 1093" transform="translate(141.272 -97.075)">
        <path id="Caminho_1093" data-name="Caminho 1093" d="M0,0-42.116,32.594" fill="none" stroke="#fe6534" stroke-width="0.5"/>
      </g>
      <g id="Grupo_1094" data-name="Grupo 1094" transform="translate(102.126 -97.075)">
        <path id="Caminho_1094" data-name="Caminho 1094" d="M0,0-42.116,32.594" fill="none" stroke="#fe6534" stroke-width="0.5"/>
      </g>
      <g id="Grupo_1095" data-name="Grupo 1095" transform="translate(82.553 -97.075)">
        <path id="Caminho_1095" data-name="Caminho 1095" d="M0,0-42.116,32.594" fill="none" stroke="#fe6534" stroke-width="0.5"/>
      </g>
      <g id="Grupo_1096" data-name="Grupo 1096" transform="translate(160.845 -97.075)">
        <path id="Caminho_1096" data-name="Caminho 1096" d="M0,0-42.116,32.594" fill="none" stroke="#fe6534" stroke-width="0.5"/>
      </g>
      <g id="Grupo_1097" data-name="Grupo 1097" transform="translate(164.76 -97.075)">
        <path id="Caminho_1097" data-name="Caminho 1097" d="M0,0-42.116,32.594" fill="none" stroke="#fe6534" stroke-width="0.5"/>
      </g>
      <g id="Grupo_1098" data-name="Grupo 1098" transform="translate(168.675 -97.075)">
        <path id="Caminho_1098" data-name="Caminho 1098" d="M0,0-42.116,32.594" fill="none" stroke="#fe6534" stroke-width="0.5"/>
      </g>
      <g id="Grupo_1099" data-name="Grupo 1099" transform="translate(172.589 -97.075)">
        <path id="Caminho_1099" data-name="Caminho 1099" d="M0,0-42.116,32.594" fill="none" stroke="#fe6534" stroke-width="0.5"/>
      </g>
      <g id="Grupo_1100" data-name="Grupo 1100" transform="translate(176.504 -97.075)">
        <path id="Caminho_1100" data-name="Caminho 1100" d="M0,0-42.116,32.594" fill="none" stroke="#fe6534" stroke-width="0.5"/>
      </g>
      <g id="Grupo_1101" data-name="Grupo 1101" transform="translate(180.419 -97.075)">
        <path id="Caminho_1101" data-name="Caminho 1101" d="M0,0-42.116,32.594" fill="none" stroke="#fe6534" stroke-width="0.5"/>
      </g>
      <g id="Grupo_1102" data-name="Grupo 1102" transform="translate(188.248 -97.075)">
        <path id="Caminho_1102" data-name="Caminho 1102" d="M0,0-42.116,32.594" fill="none" stroke="#fe6534" stroke-width="0.5"/>
      </g>
      <g id="Grupo_1103" data-name="Grupo 1103" transform="translate(196.077 -97.075)">
        <path id="Caminho_1103" data-name="Caminho 1103" d="M0,0-42.116,32.594" fill="none" stroke="#fe6534" stroke-width="0.5"/>
      </g>
      <g id="Grupo_1104" data-name="Grupo 1104" transform="translate(184.333 -97.075)">
        <path id="Caminho_1104" data-name="Caminho 1104" d="M0,0-42.116,32.594" fill="none" stroke="#fe6534" stroke-width="0.5"/>
      </g>
      <g id="Grupo_1105" data-name="Grupo 1105" transform="translate(211.736 -97.075)">
        <path id="Caminho_1105" data-name="Caminho 1105" d="M0,0-42.116,32.594" fill="none" stroke="#fe6534" stroke-width="0.5"/>
      </g>
      <g id="Grupo_1106" data-name="Grupo 1106" transform="translate(199.992 -97.075)">
        <path id="Caminho_1106" data-name="Caminho 1106" d="M0,0-42.116,32.594" fill="none" stroke="#fe6534" stroke-width="0.5"/>
      </g>
      <g id="Grupo_1107" data-name="Grupo 1107" transform="translate(203.906 -97.075)">
        <path id="Caminho_1107" data-name="Caminho 1107" d="M0,0-42.116,32.594" fill="none" stroke="#fe6534" stroke-width="0.5"/>
      </g>
      <g id="Grupo_1108" data-name="Grupo 1108" transform="translate(192.162 -97.075)">
        <path id="Caminho_1108" data-name="Caminho 1108" d="M0,0-42.116,32.594" fill="none" stroke="#fe6534" stroke-width="0.5"/>
      </g>
      <g id="Grupo_1109" data-name="Grupo 1109" transform="translate(219.565 -97.075)">
        <path id="Caminho_1109" data-name="Caminho 1109" d="M0,0-42.116,32.594" fill="none" stroke="#fe6534" stroke-width="0.5"/>
      </g>
      <g id="Grupo_1110" data-name="Grupo 1110" transform="translate(207.821 -97.075)">
        <path id="Caminho_1110" data-name="Caminho 1110" d="M0,0-42.116,32.594" fill="none" stroke="#fe6534" stroke-width="0.5"/>
      </g>
      <g id="Grupo_1111" data-name="Grupo 1111" transform="translate(243.053 -97.075)">
        <path id="Caminho_1111" data-name="Caminho 1111" d="M0,0-42.116,32.594" fill="none" stroke="#fe6534" stroke-width="0.5"/>
      </g>
      <g id="Grupo_1112" data-name="Grupo 1112" transform="translate(231.309 -97.075)">
        <path id="Caminho_1112" data-name="Caminho 1112" d="M0,0-42.116,32.594" fill="none" stroke="#fe6534" stroke-width="0.5"/>
      </g>
      <g id="Grupo_1113" data-name="Grupo 1113" transform="translate(227.394 -97.075)">
        <path id="Caminho_1113" data-name="Caminho 1113" d="M0,0-42.116,32.594" fill="none" stroke="#fe6534" stroke-width="0.5"/>
      </g>
      <g id="Grupo_1114" data-name="Grupo 1114" transform="translate(215.65 -97.075)">
        <path id="Caminho_1114" data-name="Caminho 1114" d="M0,0-42.116,32.594" fill="none" stroke="#fe6534" stroke-width="0.5"/>
      </g>
      <g id="Grupo_1115" data-name="Grupo 1115" transform="translate(235.223 -97.075)">
        <path id="Caminho_1115" data-name="Caminho 1115" d="M0,0-42.116,32.594" fill="none" stroke="#fe6534" stroke-width="0.5"/>
      </g>
      <g id="Grupo_1116" data-name="Grupo 1116" transform="translate(223.479 -97.075)">
        <path id="Caminho_1116" data-name="Caminho 1116" d="M0,0-42.116,32.594" fill="none" stroke="#fe6534" stroke-width="0.5"/>
      </g>
      <g id="Grupo_1117" data-name="Grupo 1117" transform="translate(246.967 -97.075)">
        <path id="Caminho_1117" data-name="Caminho 1117" d="M0,0-42.116,32.594" fill="none" stroke="#fe6534" stroke-width="0.5"/>
      </g>
      <g id="Grupo_1118" data-name="Grupo 1118" transform="translate(250.882 -97.075)">
        <path id="Caminho_1118" data-name="Caminho 1118" d="M0,0-42.116,32.594" fill="none" stroke="#fe6534" stroke-width="0.5"/>
      </g>
      <g id="Grupo_1119" data-name="Grupo 1119" transform="translate(254.796 -97.075)">
        <path id="Caminho_1119" data-name="Caminho 1119" d="M0,0-42.116,32.594" fill="none" stroke="#fe6534" stroke-width="0.5"/>
      </g>
      <g id="Grupo_1120" data-name="Grupo 1120" transform="translate(258.711 -97.075)">
        <path id="Caminho_1120" data-name="Caminho 1120" d="M0,0-42.116,32.594" fill="none" stroke="#fe6534" stroke-width="0.5"/>
      </g>
      <g id="Grupo_1121" data-name="Grupo 1121" transform="translate(262.626 -97.075)">
        <path id="Caminho_1121" data-name="Caminho 1121" d="M0,0-42.116,32.594" fill="none" stroke="#fe6534" stroke-width="0.5"/>
      </g>
      <g id="Grupo_1122" data-name="Grupo 1122" transform="translate(239.138 -97.075)">
        <path id="Caminho_1122" data-name="Caminho 1122" d="M0,0-42.116,32.594" fill="none" stroke="#fe6534" stroke-width="0.5"/>
      </g>
      <g id="Grupo_1123" data-name="Grupo 1123" transform="translate(121.699 -97.075)">
        <path id="Caminho_1123" data-name="Caminho 1123" d="M0,0-42.116,32.594" fill="none" stroke="#fe6534" stroke-width="0.5"/>
      </g>
      <g id="Grupo_1124" data-name="Grupo 1124" transform="translate(66.894 -97.075)">
        <path id="Caminho_1124" data-name="Caminho 1124" d="M0,0-42.116,32.594" fill="none" stroke="#fe6534" stroke-width="0.5"/>
      </g>
      <g id="Grupo_1125" data-name="Grupo 1125" transform="translate(145.187 -97.075)">
        <path id="Caminho_1125" data-name="Caminho 1125" d="M0,0-42.116,32.594" fill="none" stroke="#fe6534" stroke-width="0.5"/>
      </g>
      <g id="Grupo_1126" data-name="Grupo 1126" transform="translate(106.04 -97.075)">
        <path id="Caminho_1126" data-name="Caminho 1126" d="M0,0-42.116,32.594" fill="none" stroke="#fe6534" stroke-width="0.5"/>
      </g>
      <g id="Grupo_1127" data-name="Grupo 1127" transform="translate(86.467 -97.075)">
        <path id="Caminho_1127" data-name="Caminho 1127" d="M0,0-42.116,32.594" fill="none" stroke="#fe6534" stroke-width="0.5"/>
      </g>
      <g id="Grupo_1128" data-name="Grupo 1128" transform="translate(125.614 -97.075)">
        <path id="Caminho_1128" data-name="Caminho 1128" d="M0,0-42.116,32.594" fill="none" stroke="#fe6534" stroke-width="0.5"/>
      </g>
      <g id="Grupo_1129" data-name="Grupo 1129" transform="translate(70.809 -97.075)">
        <path id="Caminho_1129" data-name="Caminho 1129" d="M0,0-42.116,32.594" fill="none" stroke="#fe6534" stroke-width="0.5"/>
      </g>
      <g id="Grupo_1130" data-name="Grupo 1130" transform="translate(149.101 -97.075)">
        <path id="Caminho_1130" data-name="Caminho 1130" d="M0,0-42.116,32.594" fill="none" stroke="#fe6534" stroke-width="0.5"/>
      </g>
      <g id="Grupo_1131" data-name="Grupo 1131" transform="translate(109.955 -97.075)">
        <path id="Caminho_1131" data-name="Caminho 1131" d="M0,0-42.116,32.594" fill="none" stroke="#fe6534" stroke-width="0.5"/>
      </g>
      <g id="Grupo_1132" data-name="Grupo 1132" transform="translate(90.382 -97.075)">
        <path id="Caminho_1132" data-name="Caminho 1132" d="M0,0-42.116,32.594" fill="none" stroke="#fe6534" stroke-width="0.5"/>
      </g>
      <g id="Grupo_1133" data-name="Grupo 1133" transform="translate(129.528 -97.075)">
        <path id="Caminho_1133" data-name="Caminho 1133" d="M0,0-42.116,32.594" fill="none" stroke="#fe6534" stroke-width="0.5"/>
      </g>
    </g>
    <g id="Grupo_1135" data-name="Grupo 1135" transform="translate(638.449 588)">
      <path id="Caminho_1135" data-name="Caminho 1135" d="M0,0A2.45,2.45,0,0,0-2.449,2.449V15.3A2.449,2.449,0,0,0,0,17.753H12.856A2.448,2.448,0,0,0,15.3,15.3V2.449A2.449,2.449,0,0,0,12.856,0Z" fill="none" stroke="#2b2e34" stroke-width="2.4"/>
    </g>
    <g id="Grupo_1136" data-name="Grupo 1136" transform="translate(642.994 594)">
      <path id="Caminho_1136" data-name="Caminho 1136" d="M0,0A.994.994,0,0,0-.994.994V5.157A.994.994,0,0,0,0,6.151H4.163a.994.994,0,0,0,.994-.994V.994A.994.994,0,0,0,4.163,0Z" fill="#fe6534"/>
    </g>
  </g>
</svg>
