<svg xmlns="http://www.w3.org/2000/svg" xmlns:xlink="http://www.w3.org/1999/xlink" width="20.868" height="16.133" viewBox="0 0 20.868 16.133">
  <defs>
    <clipPath id="clip-path">
      <rect id="Ret창ngulo_126" data-name="Ret창ngulo 126" width="20.868" height="16.133" transform="translate(0 0)" fill="none"/>
    </clipPath>
  </defs>
  <g id="tecla_porcentagem" transform="translate(0 0)">
    <rect id="Ret창ngulo_125" data-name="Ret창ngulo 125" width="19.862" height="15.595" transform="translate(0.992 0.001)" fill="#00a0b7"/>
    <path id="Caminho_9342" data-name="Caminho 9342" d="M1.007,0,0,.673v15.46L1.007,15.6Z" fill="#007786"/>
    <path id="Caminho_9343" data-name="Caminho 9343" d="M1.041,15.6,0,16.132H19.859l1.009-.537Z" fill="#40bbf0"/>
    <g id="Grupo_9283" data-name="Grupo 9283">
      <g id="Grupo_9282" data-name="Grupo 9282" clip-path="url(#clip-path)">
        <path id="Caminho_9344" data-name="Caminho 9344" d="M10.813,6.455c0,1.5-.582,1.93-1.377,1.93s-1.375-.431-1.375-1.93S8.644,4.53,9.436,4.53s1.377.431,1.377,1.925m-1.889,0c0,.936.1,1.305.512,1.305s.513-.369.513-1.305-.1-1.3-.513-1.3-.512.373-.512,1.3M13.462,4.53l-3.2,7.246H9.507L12.689,4.53Zm1.5,5.32c0,1.494-.582,1.926-1.377,1.926s-1.375-.432-1.375-1.926.582-1.928,1.375-1.928,1.377.432,1.377,1.928m-1.89,0c0,.932.1,1.3.513,1.3s.511-.373.511-1.3-.1-1.307-.511-1.307-.513.373-.513,1.307" fill="#161615"/>
      </g>
    </g>
  </g>
</svg>
